<svg width="79" height="85" viewBox="0 0 79 85" fill="none" xmlns="http://www.w3.org/2000/svg">
<path d="M78.8725 9.5175C78.7547 9.22657 78.5532 8.97792 78.294 8.80358C78.0349 8.62923 77.7299 8.53719 77.4184 8.53932H70.5692V1.62811C70.5713 1.31381 70.4801 1.00606 70.3073 0.744542C70.1345 0.483025 69.8881 0.279718 69.5998 0.160799C69.3108 0.0381741 68.9921 0.00507445 68.6844 0.0656606C68.3767 0.126247 68.0938 0.277789 67.8716 0.501051L57.3344 11.1337C57.0379 11.4325 56.8711 11.8379 56.8708 12.2607V20.1076L55.4587 21.5324C52.105 18.4536 48.1611 16.1017 43.8707 14.6222C39.5803 13.1427 35.0347 12.5669 30.515 12.9306C25.9954 13.2943 21.5977 14.5897 17.5939 16.7366C13.5901 18.8835 10.0653 21.8364 7.23746 25.4126C4.40967 28.9888 2.33898 33.1124 1.1534 37.5282C-0.03218 41.9441 -0.307454 46.5585 0.34465 51.086C0.996754 55.6135 2.56239 59.9578 4.94466 63.8505C7.32694 67.7432 10.4752 71.1013 14.1949 73.7174L10.6544 81.7982C10.4867 82.1874 10.4791 82.6277 10.6333 83.0225C10.7874 83.4174 11.0906 83.7342 11.4763 83.9034C11.8619 84.0726 12.2984 84.0803 12.6897 83.9248C13.081 83.7693 13.395 83.4632 13.5627 83.0741L16.9135 75.4398C21.8731 78.2826 27.4792 79.7771 33.1831 79.7771C38.8869 79.7771 44.493 78.2826 49.4526 75.4398L52.8034 83.0741C52.9711 83.4632 53.2851 83.7693 53.6763 83.9248C54.0676 84.0803 54.5041 84.0726 54.8898 83.9034C55.2754 83.7342 55.5786 83.4174 55.7328 83.0225C55.8869 82.6277 55.8794 82.1874 55.7117 81.7982L52.129 73.7174C56.0004 71.0017 59.2518 67.4825 61.6655 63.3956C64.0792 59.3088 65.5994 54.7486 66.1242 50.0205C66.6491 45.2925 66.1664 40.5059 64.7086 35.9814C63.2508 31.457 60.8516 27.2992 57.6716 23.7865L59.0836 22.3617H66.8811C67.3002 22.3614 67.702 22.1931 67.9981 21.8939L78.5353 11.2613C78.7591 11.0387 78.911 10.7532 78.9711 10.442C79.0313 10.1309 78.9969 9.80861 78.8725 9.5175ZM63.1931 46.2852C63.2131 53.2508 60.8608 60.012 56.5302 65.4365C52.1995 70.861 46.1535 74.6196 39.4043 76.0829C32.6551 77.5462 25.6126 76.6254 19.4559 73.4747C13.2993 70.324 8.40225 65.1347 5.58478 58.7755C2.76732 52.4164 2.20048 45.2736 3.97918 38.5431C5.75787 31.8126 9.77414 25.903 15.3555 21.8038C20.9368 17.7047 27.7443 15.6648 34.6382 16.0257C41.5322 16.3866 48.0939 19.1265 53.2248 23.7865L46.5232 30.5489C42.4849 27.0569 37.2631 25.2789 31.9536 25.5881C26.6441 25.8974 21.6597 28.2697 18.0464 32.2074C14.433 36.1451 12.4717 41.3419 12.5739 46.7074C12.6761 52.0729 14.8339 57.1898 18.5945 60.9845C22.3551 64.7791 27.4262 66.9564 32.7435 67.0596C38.0609 67.1627 43.2111 65.1836 47.1135 61.5376C51.0158 57.8916 53.3669 52.862 53.6733 47.5045C53.9798 42.1469 52.2178 36.8779 48.7571 32.803L55.4587 26.0407C60.4316 31.59 63.1876 38.8035 63.1931 46.2852ZM32.045 47.4122C32.3414 47.7109 32.7431 47.8786 33.162 47.8786C33.5808 47.8786 33.9825 47.7109 34.2789 47.4122L38.9785 42.6701C39.6414 43.7582 39.9984 45.0079 40.0112 46.2852C40.0112 47.6521 39.6095 48.9883 38.8569 50.1248C38.1043 51.2614 37.0345 52.1472 35.783 52.6703C34.5315 53.1934 33.1544 53.3303 31.8258 53.0636C30.4971 52.7969 29.2767 52.1387 28.3188 51.1721C27.361 50.2056 26.7086 48.9741 26.4443 47.6335C26.1801 46.2928 26.3157 44.9032 26.8341 43.6404C27.3525 42.3775 28.2304 41.2981 29.3567 40.5387C30.4831 39.7793 31.8073 39.374 33.162 39.374C34.4278 39.3868 35.6662 39.747 36.7446 40.4159L32.045 45.1581C31.749 45.4572 31.5828 45.8625 31.5828 46.2852C31.5828 46.7078 31.749 47.1132 32.045 47.4122ZM39.0207 38.1193C36.9736 36.6208 34.4421 35.956 31.9309 36.2572C29.4196 36.5585 27.1131 37.8038 25.4714 39.7448C23.8296 41.6859 22.9732 44.18 23.073 46.7298C23.1727 49.2797 24.2213 51.6979 26.0095 53.5024C27.7977 55.3068 30.1943 56.3648 32.7213 56.4655C35.2483 56.5661 37.72 55.702 39.6436 54.0454C41.5672 52.3888 42.8013 50.0614 43.0999 47.5274C43.3985 44.9934 42.7396 42.439 41.2546 40.3734L46.5232 35.0571C49.3865 38.5264 50.814 42.9759 50.509 47.4802C50.2039 51.9845 48.1897 56.1968 44.8853 59.2408C41.5809 62.2848 37.2407 63.9261 32.7676 63.8234C28.2944 63.7208 24.0327 61.8819 20.8689 58.6895C17.7051 55.497 15.8828 51.1968 15.781 46.6831C15.6793 42.1695 17.3059 37.79 20.3226 34.4557C23.3392 31.1214 27.5137 29.0889 31.9776 28.7811C36.4415 28.4733 40.8511 29.9138 44.2893 32.803L39.0207 38.1193ZM60.0952 12.92L67.4712 5.47712V9.475L60.0952 16.9178V12.92ZM66.2911 19.172H62.329L69.7051 11.7291H73.6671L66.2911 19.172Z" fill="#12B7B6"/>
</svg>
