<svg width="144" height="145" viewBox="0 0 144 145" fill="none" xmlns="http://www.w3.org/2000/svg">
<g filter="url(#filter0_ii_221_8)">
<rect y="0.0361328" width="144" height="144" rx="72" fill="#EDEDED"/>
</g>
<path d="M76.0482 92.5828H73.5181V83.8561C73.5128 83.4494 73.3512 83.0607 73.0676 82.7731C72.7841 82.4854 72.401 82.3214 72 82.3161H67.9518C67.5492 82.3161 67.1631 82.4784 66.8784 82.7672C66.5937 83.056 66.4337 83.4477 66.4337 83.8561C66.4337 84.2646 66.5937 84.6563 66.8784 84.9451C67.1631 85.2339 67.5492 85.3961 67.9518 85.3961H70.4819V92.5828H67.9518C67.5492 92.5828 67.1631 92.745 66.8784 93.0338C66.5937 93.3227 66.4337 93.7144 66.4337 94.1228C66.4337 94.5312 66.5937 94.9229 66.8784 95.2118C67.1631 95.5006 67.5492 95.6628 67.9518 95.6628H76.0482C76.4508 95.6628 76.8369 95.5006 77.1216 95.2118C77.4063 94.9229 77.5663 94.5312 77.5663 94.1228C77.5663 93.7144 77.4063 93.3227 77.1216 93.0338C76.8369 92.745 76.4508 92.5828 76.0482 92.5828ZM60.3412 51.2286C60.1533 52.5251 60.2739 53.8483 60.6929 55.0878C61.1119 56.3274 61.8172 57.4471 62.7499 58.3537C64.4756 59.7318 65.8815 61.4781 66.8679 63.4687C67.8543 65.4594 68.3971 67.6458 68.4578 69.8729V69.9961H61.8795C61.4769 69.9961 61.0908 70.1584 60.8061 70.4472C60.5214 70.736 60.3614 71.1277 60.3614 71.5361C60.3614 71.9446 60.5214 72.3363 60.8061 72.6251C61.0908 72.9139 61.4769 73.0761 61.8795 73.0761H82.1205C82.5231 73.0761 82.9092 72.9139 83.1939 72.6251C83.4786 72.3363 83.6386 71.9446 83.6386 71.5361C83.6386 71.1277 83.4786 70.736 83.1939 70.4472C82.9092 70.1584 82.5231 69.9961 82.1205 69.9961H75.5422V69.8729C75.6029 67.6458 76.1457 65.4594 77.1321 63.4687C78.1185 61.4781 79.5244 59.7318 81.2501 58.3537C82.1828 57.4471 82.8881 56.3274 83.3071 55.0878C83.7261 53.8483 83.8467 52.5251 83.6588 51.2286C88.1118 51.2286 91.7552 46.3212 91.7552 40.387V38.6828C91.75 38.276 91.5883 37.8874 91.3048 37.5997C91.0212 37.3121 90.6381 37.1481 90.2371 37.1428H84.1648C83.9914 37.1453 83.8199 37.1801 83.6588 37.2454V34.5761C83.6536 34.1694 83.492 33.7807 83.2084 33.4931C82.9248 33.2054 82.5417 33.0415 82.1407 33.0361H61.8795C61.4785 33.0415 61.0954 33.2054 60.8119 33.4931C60.5283 33.7807 60.3667 34.1694 60.3614 34.5761V37.2454C60.2004 37.1801 60.0289 37.1453 59.8554 37.1428H53.7831C53.3821 37.1481 52.9991 37.3121 52.7155 37.5997C52.4319 37.8874 52.2703 38.276 52.2651 38.6828V40.387C52.2651 46.3212 55.8072 51.1465 60.3412 51.2286ZM84.1446 40.2228H88.6988V40.387C88.6988 44.4937 86.3913 48.0665 83.6386 48.1486V40.1202C83.7996 40.1855 83.9711 40.2203 84.1446 40.2228ZM63.3773 50.7153V36.1161H80.5822V50.7153C80.5822 53.3436 80.5821 54.822 79.2462 56.0129C77.1812 57.6755 75.503 59.7796 74.331 62.1752C73.159 64.5708 72.5221 67.1991 72.4656 69.8729V69.9961H71.4535V69.8729C71.397 67.1991 70.7601 64.5708 69.588 62.1752C68.416 59.7796 66.7378 57.6755 64.6728 56.0129C63.3976 54.8836 63.3368 53.3436 63.3773 50.7153ZM55.2809 40.2228H59.8554C60.0289 40.2203 60.2004 40.1855 60.3614 40.1202V48.1486C57.6087 48.1486 55.3012 44.5553 55.3012 40.387L55.2809 40.2228ZM112.482 106.956H31.5181C31.1155 106.956 30.7293 107.118 30.4446 107.407C30.1599 107.696 30 108.088 30 108.496C30 108.905 30.1599 109.296 30.4446 109.585C30.7293 109.874 31.1155 110.036 31.5181 110.036H112.482C112.885 110.036 113.271 109.874 113.555 109.585C113.84 109.296 114 108.905 114 108.496C114 108.088 113.84 107.696 113.555 107.407C113.271 107.118 112.885 106.956 112.482 106.956ZM33.5422 103.876H110.458C110.859 103.871 111.242 103.707 111.525 103.419C111.809 103.132 111.971 102.743 111.976 102.336V83.8561C111.971 83.4494 111.809 83.0607 111.525 82.7731C111.242 82.4854 110.859 82.3214 110.458 82.3161H87.6867V77.6961C87.6815 77.2894 87.5199 76.9007 87.2363 76.6131C86.9528 76.3254 86.5697 76.1614 86.1687 76.1561H57.8313C57.4303 76.1614 57.0473 76.3254 56.7637 76.6131C56.4801 76.9007 56.3185 77.2894 56.3133 77.6961V88.4761H33.5422C33.1412 88.4814 32.7581 88.6454 32.4745 88.9331C32.191 89.2207 32.0293 89.6094 32.0241 90.0161V102.336C32.0293 102.743 32.191 103.132 32.4745 103.419C32.7581 103.707 33.1412 103.871 33.5422 103.876ZM87.6867 85.3961H108.94V100.796H87.6867V85.3961ZM59.3494 79.2361H84.6506V100.796H59.3494V79.2361ZM35.0602 91.5561H56.3133V100.796H35.0602V91.5561Z" fill="#323232"/>
<defs>
<filter id="filter0_ii_221_8" x="-20" y="-19.9639" width="184" height="184" filterUnits="userSpaceOnUse" color-interpolation-filters="sRGB">
<feFlood flood-opacity="0" result="BackgroundImageFix"/>
<feBlend mode="normal" in="SourceGraphic" in2="BackgroundImageFix" result="shape"/>
<feColorMatrix in="SourceAlpha" type="matrix" values="0 0 0 0 0 0 0 0 0 0 0 0 0 0 0 0 0 0 127 0" result="hardAlpha"/>
<feOffset dx="20" dy="20"/>
<feGaussianBlur stdDeviation="25"/>
<feComposite in2="hardAlpha" operator="arithmetic" k2="-1" k3="1"/>
<feColorMatrix type="matrix" values="0 0 0 0 0.804167 0 0 0 0 0.804167 0 0 0 0 0.804167 0 0 0 1 0"/>
<feBlend mode="normal" in2="shape" result="effect1_innerShadow_221_8"/>
<feColorMatrix in="SourceAlpha" type="matrix" values="0 0 0 0 0 0 0 0 0 0 0 0 0 0 0 0 0 0 127 0" result="hardAlpha"/>
<feOffset dx="-20" dy="-20"/>
<feGaussianBlur stdDeviation="25"/>
<feComposite in2="hardAlpha" operator="arithmetic" k2="-1" k3="1"/>
<feColorMatrix type="matrix" values="0 0 0 0 1 0 0 0 0 1 0 0 0 0 1 0 0 0 1 0"/>
<feBlend mode="normal" in2="effect1_innerShadow_221_8" result="effect2_innerShadow_221_8"/>
</filter>
</defs>
</svg>
