<svg width="92" height="76" viewBox="0 0 92 76" fill="none" xmlns="http://www.w3.org/2000/svg">
<path d="M10.046 59.1911C9.62699 59.1965 9.22671 59.3652 8.93042 59.6612C8.63412 59.9572 8.46525 60.357 8.45977 60.7756V73.4516C8.45977 73.8719 8.62688 74.2749 8.92435 74.5721C9.22182 74.8692 9.62529 75.0361 10.046 75.0361C10.4667 75.0361 10.8701 74.8692 11.1676 74.5721C11.4651 74.2749 11.6322 73.8719 11.6322 73.4516V60.7756C11.6267 60.357 11.4578 59.9572 11.1615 59.6612C10.8652 59.3652 10.465 59.1965 10.046 59.1911ZM40.1839 56.0432V62.8882C40.1894 63.3068 40.3583 63.7066 40.6546 64.0026C40.9508 64.2986 41.3511 64.4673 41.7701 64.4728H58.6897C59.1103 64.4728 59.5138 64.3058 59.8113 64.0087C60.1088 63.7115 60.2759 63.3085 60.2759 62.8882C60.2759 62.468 60.1088 62.065 59.8113 61.7678C59.5138 61.4707 59.1103 61.3037 58.6897 61.3037H43.3563V56.0432C43.3563 54.0765 42.5742 52.1903 41.182 50.7996C39.7899 49.4089 37.9017 48.6277 35.9329 48.6277H30.6667V42.2897C32.0026 41.0607 33.0684 39.5679 33.7966 37.9059C34.5247 36.2439 34.8993 34.4489 34.8966 32.6347V20.4446C34.8966 18.377 34.0743 16.3941 32.6108 14.9321C31.1472 13.4702 29.1622 12.6488 27.0924 12.6488H16.2639C14.1941 12.6488 12.2091 13.4702 10.7456 14.9321C9.282 16.3941 8.45977 18.377 8.45977 20.4446V32.6347C8.45705 34.4489 8.83161 36.2439 9.55974 37.9059C10.2879 39.5679 11.3537 41.0607 12.6897 42.2897V48.6277H7.42344C5.45462 48.6277 3.56646 49.4089 2.17429 50.7996C0.782123 52.1903 0 54.0765 0 56.0432V73.4516C0 73.8719 0.167108 74.2749 0.46458 74.5721C0.762051 74.8692 1.16552 75.0361 1.58621 75.0361C2.0069 75.0361 2.41036 74.8692 2.70783 74.5721C3.00531 74.2749 3.17241 73.8719 3.17241 73.4516V56.0432C3.17241 54.9226 3.61806 53.8478 4.41132 53.0554C5.20457 52.263 6.28046 51.8178 7.4023 51.8178H12.0129C12.0711 51.9364 12.1499 52.0436 12.2455 52.1347C13.446 53.3023 14.8661 54.2209 16.4238 54.8374C17.9815 55.4539 19.646 55.7561 21.3213 55.7266C22.9965 55.6972 24.6494 55.3366 26.1844 54.6657C27.7194 53.9948 29.1062 53.0269 30.2648 51.8178H35.9117C36.4707 51.8123 37.0253 51.9174 37.5434 52.1273C38.0615 52.3371 38.5328 52.6474 38.9301 53.0403C39.3274 53.4333 39.6427 53.901 39.8579 54.4164C40.0731 54.9318 40.1839 55.4847 40.1839 56.0432ZM11.6322 20.508C11.6322 19.2809 12.1202 18.1041 12.9888 17.2364C13.8574 16.3687 15.0355 15.8812 16.2639 15.8812H27.0924C28.3208 15.8812 29.4989 16.3687 30.3675 17.2364C31.2362 18.1041 31.7241 19.2809 31.7241 20.508V23.3812C31.5559 23.3139 31.3766 23.2782 31.1954 23.2756H16.3908C15.9718 23.281 15.5715 23.4497 15.2752 23.7457C14.979 24.0417 14.8101 24.4415 14.8046 24.8601V27.5009H11.6322V20.508ZM27.4943 50.0854C25.9229 51.5527 23.8931 52.4337 21.7471 52.5799C19.6011 52.7262 17.4703 52.1287 15.714 50.8883C15.8177 50.6935 15.8688 50.475 15.8621 50.2544V44.5925C17.6717 45.4817 19.6615 45.9442 21.6782 45.9442C23.6949 45.9442 25.6847 45.4817 27.4943 44.5925V50.0854ZM21.6782 42.7756C19.0138 42.7756 16.4586 41.7183 14.5746 39.8363C12.6906 37.9543 11.6322 35.4019 11.6322 32.7404V30.6277H16.3908C16.8098 30.6222 17.2101 30.4535 17.5064 30.1576C17.8027 29.8616 17.9715 29.4617 17.977 29.0432V26.4024H31.1954C31.3766 26.3998 31.5559 26.3639 31.7241 26.2967V32.6347C31.7325 33.9579 31.4788 35.2696 30.9777 36.4945C30.4766 37.7193 29.738 38.8331 28.8043 39.7717C27.8706 40.7103 26.7603 41.4551 25.5373 41.9634C24.3143 42.4717 23.0028 42.7333 21.6782 42.7333V42.7756ZM90.4138 0.0361328H12.1609C11.7419 0.0416046 11.3417 0.210301 11.0454 0.506275C10.7491 0.80225 10.5802 1.2021 10.5747 1.62064V10.0713C10.5747 10.4916 10.7418 10.8946 11.0393 11.1918C11.3368 11.4889 11.7402 11.6559 12.1609 11.6559C12.5816 11.6559 12.9851 11.4889 13.2825 11.1918C13.58 10.8946 13.7471 10.4916 13.7471 10.0713V3.20515H88.8276V69.7544H34.8966V60.7756C34.8966 60.3553 34.7294 59.9523 34.432 59.6551C34.1345 59.358 33.731 59.1911 33.3103 59.1911C32.8897 59.1911 32.4862 59.358 32.1887 59.6551C31.8912 59.9523 31.7241 60.3553 31.7241 60.7756V71.339C31.7296 71.7575 31.8985 72.1573 32.1948 72.4533C32.4911 72.7493 32.8914 72.918 33.3103 72.9235H90.4138C90.8328 72.918 91.2331 72.7493 91.5294 72.4533C91.8256 72.1573 91.9945 71.7575 92 71.339V1.62064C91.9945 1.2021 91.8256 0.80225 91.5294 0.506275C91.2331 0.210301 90.8328 0.0416046 90.4138 0.0361328ZM64.6538 27.5009C64.2333 27.5013 63.8301 27.6685 63.5329 27.9657L57.1881 34.1981L52.8524 30.501C52.5616 30.2411 52.1851 30.0974 51.7949 30.0974C51.4048 30.0974 51.0283 30.2411 50.7374 30.501L41.4106 39.8178C41.1135 40.1149 40.9467 40.5176 40.9467 40.9375C40.9467 41.3574 41.1135 41.7602 41.4106 42.0573C41.7127 42.3471 42.1127 42.5129 42.5315 42.522C42.952 42.5216 43.3553 42.3545 43.6524 42.0573L51.943 33.7756L56.1729 37.4939C56.4657 37.7495 56.8414 37.8903 57.2303 37.8903C57.6192 37.8903 57.9949 37.7495 58.2878 37.4939L65.1191 30.6699H70.9352C71.3442 30.6634 71.7361 30.5053 72.0349 30.2263L78.0625 24.3741V29.0854C78.0625 29.5057 78.2296 29.9087 78.5271 30.2059C78.8246 30.503 79.2281 30.6699 79.6487 30.6699C80.0694 30.6699 80.4729 30.503 80.7704 30.2059C81.0678 29.9087 81.235 29.5057 81.235 29.0854V20.6347C81.2449 20.5717 81.2449 20.5076 81.235 20.4446C81.2546 20.3115 81.2546 20.1763 81.235 20.0432C81.1849 19.919 81.1133 19.8045 81.0234 19.7051C81.0275 19.6489 81.0275 19.5924 81.0234 19.5362C80.875 19.3951 80.7033 19.2807 80.5159 19.1981C80.3366 19.1161 80.142 19.0729 79.9448 19.0714H71.485C71.0643 19.0714 70.6609 19.2383 70.3635 19.5354C70.066 19.8326 69.8988 20.2356 69.8988 20.6559C69.8988 21.0761 70.066 21.4791 70.3635 21.7763C70.6609 22.0735 71.0643 22.2404 71.485 22.2404H76.0322L70.5756 27.5221L64.6538 27.5009Z" fill="#12B7B6"/>
</svg>
