<svg width="70" height="83" viewBox="0 0 70 83" fill="none" xmlns="http://www.w3.org/2000/svg">
<path d="M11.4925 34.8322C11.4871 34.4211 11.3203 34.0284 11.0275 33.7378C10.7348 33.4471 10.3393 33.2814 9.92537 33.276H1.56716C1.15153 33.276 0.752911 33.44 0.459011 33.7318C0.16511 34.0236 0 34.4195 0 34.8322C0 35.2449 0.16511 35.6407 0.459011 35.9326C0.752911 36.2244 1.15153 36.3884 1.56716 36.3884H9.92537C10.3393 36.383 10.7348 36.2173 11.0275 35.9266C11.3203 35.6359 11.4871 35.2432 11.4925 34.8322ZM15.6716 17.6728C15.9711 17.9534 16.3674 18.1093 16.7791 18.1085C16.9882 18.1099 17.1955 18.0703 17.3891 17.992C17.5828 17.9137 17.7589 17.7981 17.9075 17.652C18.2009 17.3602 18.3658 16.9647 18.3658 16.5523C18.3658 16.14 18.2009 15.7444 17.9075 15.4526L12.9134 10.5974C12.6196 10.306 12.2213 10.1423 11.806 10.1423C11.3907 10.1423 10.9923 10.306 10.6985 10.5974C10.405 10.8892 10.2402 11.2847 10.2402 11.6971C10.2402 12.1095 10.405 12.505 10.6985 12.7968L15.6716 17.6728ZM34.9791 11.4481C35.1857 11.4509 35.3907 11.4125 35.5821 11.3353C35.7735 11.2581 35.9474 11.1436 36.0935 10.9985C36.2396 10.8534 36.3549 10.6808 36.4327 10.4907C36.5105 10.3007 36.5491 10.097 36.5463 9.8919V1.59231C36.5463 1.17958 36.3812 0.783787 36.0873 0.491948C35.7934 0.200109 35.3947 0.0361328 34.9791 0.0361328C34.5635 0.0361328 34.1649 0.200109 33.871 0.491948C33.5771 0.783787 33.4119 1.17958 33.4119 1.59231V9.8919C33.4092 10.1007 33.4482 10.308 33.5268 10.5017C33.6053 10.6955 33.7219 10.8718 33.8696 11.0204C34.0174 11.169 34.1934 11.2871 34.3874 11.3676C34.5815 11.4481 34.7897 11.4896 35 11.4896L34.9791 11.4481ZM11.7642 59.1708C11.9751 59.1718 12.184 59.1301 12.378 59.048C12.5721 58.9659 12.7472 58.8453 12.8925 58.6935L17.9075 53.5893C18.1984 53.2921 18.3586 52.8924 18.3527 52.4779C18.3468 52.0635 18.1754 51.6684 17.8761 51.3795C17.5769 51.0906 17.1743 50.9316 16.7569 50.9374C16.3396 50.9432 15.9417 51.1134 15.6507 51.4106L10.6567 56.5356C10.3632 56.8274 10.1984 57.2229 10.1984 57.6353C10.1984 58.0477 10.3632 58.4432 10.6567 58.735C10.7947 58.8966 10.9636 59.0294 11.1538 59.1256C11.3439 59.2218 11.5514 59.2795 11.7642 59.2953V59.1708ZM53.0955 17.984C53.2966 17.9861 53.4961 17.9487 53.6826 17.8739C53.8691 17.7991 54.0388 17.6884 54.1821 17.5483L59.2179 12.693C59.5114 12.4012 59.6762 12.0057 59.6762 11.5933C59.6762 11.1809 59.5114 10.7854 59.2179 10.4936C58.9241 10.2022 58.5257 10.0385 58.1104 10.0385C57.6951 10.0385 57.2968 10.2022 57.003 10.4936L51.9672 15.3489C51.7389 15.5611 51.5809 15.8371 51.5138 16.1403C51.4467 16.4436 51.4739 16.7599 51.5915 17.0475C51.7092 17.3352 51.9119 17.5806 52.173 17.7515C52.434 17.9224 52.7411 18.0107 53.0537 18.0048L53.0955 17.984ZM47.5373 72.6991C47.1234 72.7045 46.7279 72.8701 46.4351 73.1608C46.1424 73.4515 45.9756 73.8442 45.9701 74.2553V80.48C45.9701 80.8927 46.1353 81.2885 46.4292 81.5803C46.7231 81.8722 47.1217 82.0361 47.5373 82.0361C47.9529 82.0361 48.3516 81.8722 48.6455 81.5803C48.9394 81.2885 49.1045 80.8927 49.1045 80.48V74.2553C49.0991 73.8442 48.9322 73.4515 48.6395 73.1608C48.3467 72.8701 47.9513 72.7045 47.5373 72.6991ZM54.203 51.5351C53.9091 51.2437 53.5108 51.08 53.0955 51.08C52.6802 51.08 52.2819 51.2437 51.9881 51.5351C51.6946 51.8269 51.5297 52.2224 51.5297 52.6348C51.5297 53.0472 51.6946 53.4427 51.9881 53.7345L57.0239 58.8388C57.1707 58.9886 57.3461 59.108 57.5398 59.1899C57.7335 59.2718 57.9417 59.3147 58.1522 59.316C58.3533 59.318 58.5529 59.2806 58.7393 59.2059C58.9258 59.1311 59.0956 59.0204 59.2388 58.8803C59.5323 58.5885 59.6971 58.1929 59.6971 57.7806C59.6971 57.3682 59.5323 56.9727 59.2388 56.6809L54.203 51.5351ZM37.6119 33.276H35.3134L38.991 26.8853C39.1989 26.5249 39.254 26.0972 39.1442 25.6964C39.0345 25.2957 38.769 24.9545 38.406 24.7482C38.043 24.5418 37.6123 24.4871 37.2087 24.5961C36.8051 24.705 36.4615 24.9687 36.2537 25.3292L31.2597 34.0645C31.1261 34.3024 31.056 34.5702 31.056 34.8426C31.056 35.1149 31.1261 35.3828 31.2597 35.6207C31.4002 35.854 31.5991 36.0474 31.8371 36.1819C32.0751 36.3164 32.3441 36.3875 32.6179 36.3884H35L31.009 43.3808C30.8126 43.7336 30.7639 44.149 30.8734 44.5373C30.9829 44.9255 31.2417 45.2553 31.594 45.4557C31.8268 45.5959 32.0949 45.6679 32.3672 45.6632C32.643 45.6602 32.9133 45.5859 33.1515 45.4477C33.3897 45.3094 33.5874 45.1119 33.7254 44.8747L39.0746 35.5584C39.2105 35.3205 39.2809 35.0513 39.2786 34.7778C39.2763 34.5043 39.2015 34.2362 39.0617 34.0006C38.9218 33.7649 38.7219 33.57 38.4821 33.4356C38.2422 33.3011 37.9709 33.2317 37.6955 33.2345L37.6119 33.276ZM52.2388 64.3995H46.0119C45.7238 64.3995 45.4474 64.2858 45.2436 64.0835C45.0399 63.8811 44.9254 63.6067 44.9254 63.3206V56.0377C44.9276 55.0519 45.1655 54.0807 45.6196 53.2042C46.0737 52.3276 46.731 51.5707 47.5373 50.9957C50.3362 49.02 52.6184 46.4079 54.1932 43.3776C55.7681 40.3473 56.5898 36.9869 56.5898 33.5769C56.5898 30.1669 55.7681 26.8064 54.1932 23.7762C52.6184 20.7459 50.3362 18.1338 47.5373 16.1581C44.6548 14.1389 41.3237 12.8411 37.8275 12.3751C34.3313 11.909 30.7734 12.2886 27.4567 13.4815C24.4498 14.5339 21.728 16.2608 19.5027 18.528C17.2775 20.7952 15.609 23.5415 14.6269 26.5533C13.123 30.8945 13.0625 35.6003 14.4543 39.9781C15.8462 44.356 18.6168 48.1744 22.3582 50.8712C23.2016 51.4688 23.891 52.2558 24.3703 53.168C24.8496 54.0801 25.1052 55.0918 25.1164 56.1207V63.3206C25.1164 63.4623 25.0883 63.6025 25.0337 63.7334C24.9791 63.8643 24.8991 63.9833 24.7982 64.0835C24.6973 64.1836 24.5775 64.2631 24.4457 64.3174C24.3138 64.3716 24.1725 64.3995 24.0299 64.3995H17.8239C15.8676 64.3995 13.9915 65.1712 12.6082 66.5447C11.2249 67.9183 10.4478 69.7813 10.4478 71.7239V80.48C10.4478 80.8927 10.6129 81.2885 10.9068 81.5803C11.2007 81.8722 11.5993 82.0361 12.0149 82.0361C12.4306 82.0361 12.8292 81.8722 13.1231 81.5803C13.417 81.2885 13.5821 80.8927 13.5821 80.48V71.7239C13.5821 70.6233 14.0224 69.5678 14.8061 68.7895C15.5899 68.0113 16.6528 67.5741 17.7612 67.5741H23.9254C24.7643 67.569 25.5841 67.3241 26.2866 66.8686C27.1139 68.3472 28.3262 69.5779 29.7965 70.4321C31.2669 71.2862 32.9413 71.7323 34.6448 71.7239H35.3552C37.0587 71.7323 38.7331 71.2862 40.2035 70.4321C41.6738 69.5779 42.8861 68.3472 43.7134 66.8686C44.4159 67.3241 45.2357 67.569 46.0746 67.5741H52.2388C53.3472 67.5741 54.4101 68.0113 55.1939 68.7895C55.9776 69.5678 56.4179 70.6233 56.4179 71.7239V80.48C56.4179 80.8927 56.583 81.2885 56.8769 81.5803C57.1708 81.8722 57.5694 82.0361 57.9851 82.0361C58.4007 82.0361 58.7993 81.8722 59.0932 81.5803C59.3871 81.2885 59.5522 80.8927 59.5522 80.48V71.7239C59.5522 69.7813 58.7751 67.9183 57.3918 66.5447C56.0085 65.1712 54.1324 64.3995 52.1761 64.3995H52.2388ZM35.5224 68.5493H34.8119C33.3243 68.5373 31.8868 68.014 30.7439 67.0683C29.601 66.1226 28.8234 64.8129 28.5433 63.362H41.8746C41.587 64.8554 40.7726 66.1981 39.5777 67.1488C38.3828 68.0996 36.8857 68.5961 35.3552 68.5493H35.5224ZM41.9582 60.2497H28.3761V57.1373H41.9582V60.2497ZM42.1881 54.025H27.9582C27.4223 51.7476 26.0801 49.7372 24.1761 48.3605C20.992 46.0525 18.634 42.7945 17.4461 39.0618C16.2583 35.3292 16.3028 31.3173 17.5731 27.6116C18.3992 25.0567 19.8101 22.7267 21.6954 20.8043C23.5806 18.8819 25.8888 17.4194 28.4388 16.5316C31.2834 15.5029 34.336 15.1714 37.3373 15.5651C40.3385 15.9589 43.1997 17.0663 45.6776 18.7932C48.067 20.4838 50.0149 22.7169 51.3589 25.3065C52.7029 27.8962 53.4042 30.7673 53.4042 33.6806C53.4042 36.5939 52.7029 39.4651 51.3589 42.0547C50.0149 44.6443 48.067 46.8775 45.6776 48.568C43.8276 49.8817 42.5267 51.8232 42.0209 54.025H42.1881ZM68.6 33.276H60.0746C59.659 33.276 59.2604 33.44 58.9665 33.7318C58.6726 34.0236 58.5075 34.4195 58.5075 34.8322C58.5075 35.2449 58.6726 35.6407 58.9665 35.9326C59.2604 36.2244 59.659 36.3884 60.0746 36.3884H68.4328C68.8485 36.3884 69.2471 36.2244 69.541 35.9326C69.8349 35.6407 70 35.2449 70 34.8322C70 34.4195 69.8349 34.0236 69.541 33.7318C69.2471 33.44 68.8485 33.276 68.4328 33.276H68.6ZM20.5403 72.6991C20.1263 72.7045 19.7309 72.8701 19.4381 73.1608C19.1454 73.4515 18.9785 73.8442 18.9731 74.2553V80.48C18.9731 80.8927 19.1382 81.2885 19.4321 81.5803C19.726 81.8722 20.1247 82.0361 20.5403 82.0361C20.9559 82.0361 21.3545 81.8722 21.6484 81.5803C21.9423 81.2885 22.1075 80.8927 22.1075 80.48V74.2553C22.1055 74.0371 22.058 73.8217 21.9679 73.6227C21.8778 73.4238 21.7472 73.2455 21.5842 73.0993C21.4212 72.953 21.2294 72.8419 21.0209 72.773C20.8125 72.7042 20.5919 72.679 20.3731 72.6991H20.5403Z" fill="#12B7B6"/>
</svg>
