<svg width="96" height="67" viewBox="0 0 96 67" fill="none" xmlns="http://www.w3.org/2000/svg">
<path d="M95.9408 34.4507C95.7771 34.0588 95.4634 33.7467 95.068 33.5825C94.6727 33.4183 94.2278 33.4152 93.8302 33.574L82.349 38.1454L69.6858 7.04326L80.2385 3.09809C80.4453 3.03521 80.6368 2.93108 80.8013 2.79211C80.9658 2.65314 81.0998 2.4823 81.1949 2.29012C81.2901 2.09795 81.3444 1.88852 81.3545 1.67478C81.3646 1.46103 81.3303 1.24751 81.2537 1.04739C81.1771 0.847273 81.0598 0.664813 80.9091 0.511272C80.7585 0.357732 80.5775 0.236368 80.3776 0.154684C80.1776 0.073 79.9628 0.0327351 79.7465 0.0363572C79.5302 0.0399792 79.3169 0.0874218 79.1199 0.175753L67.1321 4.68451C66.8821 4.79668 66.6645 4.96889 66.4989 5.18548C63.1052 4.956 59.7024 5.47653 56.5373 6.70928L44.254 11.5938L43.8952 11.3433C40.9696 9.41302 37.6326 8.17716 34.1446 7.7321C34.0569 7.62457 33.9579 7.5266 33.8491 7.43987L23.592 0.342733C23.4202 0.224861 23.2265 0.141626 23.0221 0.097766C22.8178 0.0539056 22.6067 0.0502837 22.4009 0.0871118C22.1951 0.12394 21.9987 0.2005 21.8229 0.31241C21.647 0.42432 21.4951 0.569387 21.3759 0.739342C21.2568 0.909296 21.1726 1.10081 21.1283 1.30293C21.0839 1.50506 21.0802 1.71385 21.1175 1.91737C21.1547 2.12089 21.2321 2.31516 21.3453 2.4891C21.4584 2.66303 21.6051 2.81324 21.7769 2.93111L30.7678 9.19328L11.7731 36.9138L2.46566 29.7123C2.13325 29.4914 1.7285 29.4034 1.33305 29.4659C0.937588 29.5284 0.580831 29.7368 0.334592 30.0492C0.0883523 30.3616 -0.0290366 30.7546 0.00611068 31.1492C0.041258 31.5438 0.226283 31.9105 0.523952 32.1754L11.0766 40.525C11.3493 40.7477 11.6939 40.8662 12.0475 40.859H12.1741C13.0933 42.3181 14.1765 43.6696 15.4032 44.8877C15.2239 45.7055 15.2317 46.5526 15.426 47.3671C15.6203 48.1815 15.9962 48.9427 16.5263 49.595C17.0563 50.2473 17.7271 50.7742 18.4895 51.1371C19.2519 51.5 20.0866 51.6898 20.9327 51.6926C21.2344 51.7234 21.5385 51.7234 21.8403 51.6926H21.9669V51.8178C22.1694 53.1398 22.8457 54.3457 23.8725 55.2156C24.8992 56.0855 26.2078 56.5612 27.5598 56.5562H28.4673H28.594V56.6814C28.9632 58.1019 29.8798 59.3231 31.1477 60.0839C32.1218 60.77 33.2864 61.1418 34.4823 61.1484C34.7844 61.1691 35.0877 61.1691 35.3898 61.1484H35.5165V61.2946C35.6274 62.0217 35.8844 62.7195 36.2722 63.3468C36.6601 63.9742 37.1709 64.5184 37.7747 64.9475C38.3781 65.3856 39.0631 65.7013 39.7903 65.8765C40.5175 66.0518 41.2726 66.0831 42.0121 65.9686C42.7516 65.8541 43.4609 65.5962 44.0992 65.2096C44.7375 64.823 45.2922 64.3154 45.7314 63.7159L46.5334 62.6305L48.6439 64.1125C49.561 64.7231 50.6409 65.0501 51.7464 65.0519C52.7164 65.0064 53.6589 64.7183 54.4857 64.2145C55.3125 63.7107 55.9966 63.0077 56.4739 62.1713C56.9431 61.483 57.2463 60.6975 57.3604 59.8751L58.2679 60.4805C59.1915 61.0939 60.279 61.4209 61.3914 61.4198C61.7531 61.4264 62.1143 61.3914 62.4678 61.3154C63.217 61.1732 63.9291 60.8814 64.5604 60.4579C65.1918 60.0344 65.7293 59.4881 66.1401 58.8523C66.787 57.889 67.1186 56.7521 67.0899 55.596H67.3854C68.3361 55.5922 69.2711 55.3558 70.1071 54.9078C70.943 54.4598 71.6539 53.8142 72.1762 53.0285C72.7146 52.2281 73.0327 51.3028 73.0993 50.3438C73.166 49.3848 72.9787 48.4252 72.5561 47.5595C73.0227 47.3735 73.4626 47.1279 73.8646 46.8289C76.708 45.6346 79.262 43.8558 81.357 41.6105H81.4837C81.6875 41.6113 81.8891 41.5686 82.0746 41.4852L95.0332 36.3502C95.3897 36.194 95.6776 35.9161 95.8442 35.5674C96.0108 35.2187 96.0451 34.8223 95.9408 34.4507ZM23.1699 47.3508C22.9749 47.614 22.7289 47.8363 22.4463 48.0047C22.1637 48.1731 21.8501 48.2843 21.5237 48.3318C21.1965 48.3822 20.8625 48.3681 20.5408 48.2903C20.2192 48.2126 19.9163 48.0727 19.6495 47.8787C19.3828 47.6847 19.1574 47.4404 18.9865 47.16C18.8155 46.8795 18.7023 46.5684 18.6533 46.2445C18.552 45.5918 18.7109 44.9257 19.0966 44.3867L24.6895 36.8095C25.0827 36.2734 25.6746 35.9131 26.3357 35.8075H26.7367C27.2658 35.8029 27.7828 35.9636 28.214 36.2667C28.4827 36.457 28.7094 36.6996 28.8799 36.9796C29.0505 37.2595 29.1614 37.571 29.206 37.8949C29.262 38.2181 29.2516 38.5492 29.1755 38.8684C29.0993 39.1876 28.959 39.4883 28.7628 39.7527L23.1699 47.3508ZM29.7969 52.11C29.6039 52.3771 29.3588 52.6034 29.0761 52.7754C28.7934 52.9475 28.4788 53.0619 28.1507 53.112C27.8235 53.1624 27.4895 53.1483 27.1679 53.0705C26.8463 52.9927 26.5433 52.8528 26.2766 52.6588C26.0098 52.4648 25.7844 52.2205 25.6135 51.9401C25.4425 51.6596 25.3293 51.3485 25.2804 51.0246C25.2286 50.7 25.2429 50.3683 25.3227 50.0493C25.4024 49.7302 25.5459 49.4302 25.7447 49.1668L31.3165 41.5687L33.5959 38.4794C33.7883 38.2136 34.0335 37.9895 34.3166 37.8208C34.5997 37.6521 34.9146 37.5424 35.2421 37.4983C35.375 37.4779 35.5102 37.4779 35.6431 37.4983C36.1743 37.5011 36.6911 37.6691 37.1204 37.9784C37.3905 38.1693 37.6193 38.4117 37.7932 38.6913C37.9672 38.9709 38.0829 39.2821 38.1335 39.6066C38.2266 40.2619 38.0602 40.9274 37.6692 41.4643L29.7969 52.11ZM36.424 56.8902C36.2385 57.1741 35.9964 57.4175 35.7125 57.6057C35.4286 57.7938 35.1089 57.9227 34.7729 57.9844C34.4369 58.0461 34.0917 58.0393 33.7584 57.9645C33.4252 57.8897 33.1109 57.7484 32.8348 57.5492C32.5586 57.3501 32.3265 57.0973 32.1526 56.8064C31.9786 56.5154 31.8666 56.1924 31.8232 55.8571C31.7799 55.5219 31.8061 55.1814 31.9005 54.8565C31.9948 54.5317 32.1552 54.2293 32.3717 53.9678L37.9436 46.3697C38.3399 45.8377 38.9327 45.4822 39.5929 45.3805C40.253 45.2789 40.9271 45.4394 41.4682 45.827C41.7391 46.0175 41.9687 46.2598 42.1435 46.5395C42.3183 46.8192 42.4347 47.1306 42.4858 47.4555C42.5369 47.7804 42.5218 48.1121 42.4412 48.4311C42.3607 48.7501 42.2164 49.0499 42.0168 49.3129L39.7797 52.3396L36.424 56.8902ZM46.4068 57.1198L43.0511 61.6703C42.8574 61.9284 42.6141 62.1462 42.3352 62.3112C42.0562 62.4761 41.7471 62.5849 41.4255 62.6315C41.104 62.678 40.7763 62.6613 40.4613 62.5824C40.1462 62.5034 39.8501 62.3637 39.5898 62.1713C39.3188 61.9807 39.0892 61.7385 38.9144 61.4588C38.7397 61.1791 38.6233 60.8676 38.5721 60.5428C38.521 60.2179 38.5361 59.8861 38.6166 59.5671C38.6972 59.2481 38.8415 58.9483 39.041 58.6853L42.3757 54.1348C42.7773 53.6115 43.3664 53.2604 44.0219 53.1537H44.4229C45.0202 53.1553 45.5978 53.3657 46.0535 53.7476C46.5092 54.1296 46.8137 54.6586 46.9133 55.2411C46.9622 55.5719 46.9425 55.909 46.8554 56.232C46.7683 56.5549 46.6157 56.857 46.4068 57.1198ZM53.7725 60.6475C53.5942 60.9098 53.3652 61.1347 53.0988 61.3092C52.8324 61.4838 52.5337 61.6046 52.22 61.6648C51.9062 61.7249 51.5836 61.7231 51.2705 61.6596C50.9574 61.5961 50.6601 61.472 50.3956 61.2946L48.2851 59.896L48.9816 58.9567C49.8016 57.8264 50.1699 56.436 50.0158 55.0532L53.266 57.1406C53.5187 57.3121 53.7345 57.5313 53.9012 57.7857C54.0678 58.04 54.1819 58.3245 54.2368 58.6227C54.3131 58.9733 54.3111 59.3361 54.2309 59.6858C54.1507 60.0356 53.9942 60.3638 53.7725 60.6475ZM72.6406 43.844C72.5449 43.9832 72.4314 44.1095 72.3029 44.2197C72.0862 44.3096 71.8918 44.4449 71.7331 44.6163C71.4531 44.7687 71.1439 44.8611 70.8255 44.8877C70.5924 44.9132 70.3685 44.9918 70.1712 45.1173L52.5273 33.3444C52.1885 33.133 51.7805 33.0585 51.3877 33.1362C50.9949 33.2139 50.6473 33.4379 50.4168 33.7619C50.2081 34.0983 50.1356 34.5004 50.2139 34.8874C50.2921 35.2745 50.5154 35.618 50.8388 35.8493L68.9893 47.9561C69.5491 48.3243 69.938 48.8973 70.0706 49.5491C70.2032 50.2009 70.0686 50.878 69.6964 51.4316C69.3242 51.9852 68.7448 52.3699 68.0858 52.5011C67.4268 52.6322 66.7421 52.4991 66.1824 52.1309L47.9052 39.9405C47.5664 39.7292 47.1585 39.6546 46.7657 39.7323C46.3729 39.81 46.0252 40.034 45.7947 40.358C45.586 40.6945 45.5135 41.0965 45.5918 41.4836C45.6701 41.8707 45.8934 42.2142 46.2168 42.4454L63.101 53.6965C63.3713 53.8851 63.6005 54.1254 63.775 54.4033C63.9495 54.6812 64.0658 54.9909 64.117 55.3141C64.1682 55.6373 64.1532 55.9674 64.0729 56.2847C63.9927 56.6021 63.8487 56.9002 63.6497 57.1615C63.4733 57.4261 63.2453 57.653 62.979 57.8292C62.7127 58.0054 62.4134 58.1272 62.0989 58.1875C61.7844 58.2478 61.4608 58.2453 61.1473 58.1803C60.8337 58.1152 60.5364 57.9888 60.2729 57.8086L55.2921 54.5105L45.9425 48.2484C45.9953 47.7836 45.9953 47.3145 45.9425 46.8498C45.8316 46.1174 45.5727 45.4146 45.181 44.7834C44.7894 44.1521 44.2731 43.6055 43.6631 43.176C42.925 42.6374 42.0609 42.2926 41.1515 42.1741C41.6047 41.1732 41.7585 40.0649 41.5948 38.9803C41.3558 37.5082 40.5387 36.1889 39.3214 35.3094C38.1041 34.4299 36.585 34.0613 35.0943 34.2837C33.9952 34.463 32.9703 34.9481 32.1396 35.6823C31.7429 34.8576 31.1489 34.1411 30.409 33.5949C29.1899 32.7222 27.6712 32.3619 26.1845 32.5926C24.6978 32.8233 23.3637 33.6264 22.4734 34.8264L17.4715 41.6313C16.5218 40.5821 15.7001 39.4261 15.0232 38.1871L33.8069 10.6336C36.3029 10.9359 38.7172 11.7082 40.9194 12.9088L33.2582 15.9564C33.0602 16.034 32.8801 16.1503 32.7286 16.2983C32.5771 16.4464 32.4573 16.6231 32.3765 16.818C32.2957 17.0129 32.2556 17.222 32.2584 17.4326C32.2612 17.6432 32.3069 17.8511 32.3929 18.0438C33.3554 20.4146 35.2278 22.312 37.6008 23.3211C39.9737 24.3303 42.6541 24.3692 45.056 23.4293L50.3745 21.3419L53.4348 26.2264C54.477 27.8629 55.8883 29.2385 57.558 30.2453C59.2277 31.2521 61.1105 31.8627 63.0588 32.0293L71.8597 40.2328L72.0707 40.3789C72.3403 40.5677 72.5691 40.8078 72.744 41.0849C72.9189 41.3621 73.0363 41.6709 73.0893 41.9934C73.1423 42.3159 73.1299 42.6456 73.0529 42.9633C72.9759 43.281 72.8357 43.5804 72.6406 43.844ZM76.2707 42.0488C76.2287 41.2245 75.9979 40.4203 75.5957 39.6971C75.1936 38.9739 74.6305 38.3505 73.9491 37.874L67.3221 31.6119C68.5772 31.3004 69.7741 30.793 70.8677 30.1089C71.1895 29.8756 71.4104 29.5308 71.4861 29.1433C71.5618 28.7559 71.4867 28.3545 71.276 28.0194C71.0652 27.6843 70.7344 27.4403 70.3495 27.3362C69.9647 27.2321 69.5542 27.2756 69.2004 27.458C67.0648 28.7778 64.4867 29.2049 62.0329 28.6451C59.5791 28.0853 57.4504 26.5846 56.1151 24.473L52.3584 18.503C52.1656 18.1898 51.8678 17.9534 51.5168 17.8351C51.1658 17.7169 50.784 17.7242 50.4379 17.8559L43.8108 20.4234C43.0083 20.7542 42.1475 20.9244 41.2782 20.9244C40.4088 20.9244 39.5481 20.7542 38.7456 20.4234C37.625 19.9597 36.6594 19.1928 35.9597 18.2108L57.6558 9.61075C60.5631 8.47147 63.7033 8.03493 66.8155 8.33744L79.3309 39.2308C78.4177 40.2776 77.3915 41.2226 76.2707 42.0488Z" fill="#12B7B6"/>
</svg>
