<svg width="144" height="145" viewBox="0 0 144 145" fill="none" xmlns="http://www.w3.org/2000/svg">
<g filter="url(#filter0_ii_221_10)">
<rect y="0.0361328" width="144" height="144" rx="72" fill="#EDEDED"/>
</g>
<path d="M80.5099 79.2107C80.0905 79.2163 79.6899 79.3887 79.3933 79.6911C79.0968 79.9936 78.9277 80.4021 78.9222 80.8298V102.417C78.9222 102.846 79.0895 103.258 79.3872 103.562C79.685 103.866 80.0888 104.036 80.5099 104.036C80.931 104.036 81.3348 103.866 81.6326 103.562C81.9303 103.258 82.0976 102.846 82.0976 102.417V80.8298C82.0921 80.4021 81.9231 79.9936 81.6265 79.6911C81.3299 79.3887 80.9293 79.2163 80.5099 79.2107ZM63.5748 79.2107C63.1554 79.2163 62.7548 79.3887 62.4582 79.6911C62.1616 79.9936 61.9926 80.4021 61.9871 80.8298V102.417C61.9871 102.846 62.1544 103.258 62.4521 103.562C62.7499 103.866 63.1537 104.036 63.5748 104.036C63.9959 104.036 64.3997 103.866 64.6974 103.562C64.9952 103.258 65.1625 102.846 65.1625 102.417V80.8298C65.157 80.4021 64.9879 79.9936 64.6914 79.6911C64.3948 79.3887 63.9942 79.2163 63.5748 79.2107ZM33.9383 83.5282C33.519 83.5338 33.1183 83.7062 32.8217 84.0086C32.5252 84.311 32.3562 84.7196 32.3507 85.1472V102.417C32.3507 102.846 32.5179 103.258 32.8157 103.562C33.1134 103.866 33.5173 104.036 33.9383 104.036C34.3594 104.036 34.7632 103.866 35.061 103.562C35.3587 103.258 35.526 102.846 35.526 102.417V85.1472C35.5205 84.7196 35.3515 84.311 35.0549 84.0086C34.7584 83.7062 34.3577 83.5338 33.9383 83.5282ZM110.146 83.5282C109.727 83.5338 109.326 83.7062 109.03 84.0086C108.733 84.311 108.564 84.7196 108.559 85.1472V102.417C108.559 102.846 108.726 103.258 109.024 103.562C109.321 103.866 109.725 104.036 110.146 104.036C110.567 104.036 110.971 103.866 111.269 103.562C111.567 103.258 111.734 102.846 111.734 102.417V85.1472C111.729 84.7196 111.56 84.311 111.263 84.0086C110.966 83.7062 110.566 83.5338 110.146 83.5282ZM113.449 74.8933H107.5V72.4755C108.788 71.6776 109.854 70.556 110.595 69.218C111.336 67.88 111.728 66.3704 111.734 64.8336V50.3485C111.734 48.8428 111.147 47.3987 110.103 46.3339C109.059 45.2692 107.643 44.6711 106.167 44.6711H95.0741C93.5975 44.6711 92.1814 45.2692 91.1373 46.3339C90.0932 47.3987 89.5067 48.8428 89.5067 50.3485V64.8336C89.5122 66.3704 89.9044 67.88 90.6457 69.218C91.387 70.556 92.4525 71.6776 93.7405 72.4755V74.8933H91.0944C90.9194 74.8609 90.7401 74.8609 90.5651 74.8933V74.5263C90.5651 72.8774 89.9228 71.2961 88.7795 70.1301C87.6361 68.9642 86.0854 68.3092 84.4685 68.3092H79.9807V65.7187C81.2785 64.8528 82.3449 63.6714 83.0839 62.281C83.8229 60.8905 84.2114 59.3345 84.2145 57.753V42.1022C84.2145 40.4934 83.5878 38.9504 82.4722 37.8128C81.3566 36.6752 79.8436 36.0361 78.266 36.0361H65.8187C64.2411 36.0361 62.728 36.6752 61.6125 37.8128C60.4969 38.9504 59.8702 40.4934 59.8702 42.1022V57.7961C59.8733 59.3777 60.2617 60.9337 61.0008 62.3241C61.7398 63.7146 62.8062 64.8959 64.104 65.7619V68.4171H59.6162C58.8156 68.4171 58.0228 68.5779 57.2831 68.8903C56.5434 69.2028 55.8714 69.6607 55.3052 70.238C54.7391 70.8154 54.2901 71.5007 53.9837 72.255C53.6773 73.0093 53.5196 73.8178 53.5196 74.6342V75.0012C53.3446 74.9688 53.1653 74.9688 52.9903 75.0012H50.3442V72.4755C51.6322 71.6776 52.6977 70.556 53.439 69.218C54.1803 67.88 54.5725 66.3704 54.578 64.8336V50.3485C54.578 48.8428 53.9915 47.3987 52.9474 46.3339C51.9033 45.2692 50.4872 44.6711 49.0106 44.6711H37.9181C36.4415 44.6711 35.0254 45.2692 33.9813 46.3339C32.9372 47.3987 32.3507 48.8428 32.3507 50.3485V64.8336C32.3562 66.3704 32.7484 67.88 33.4897 69.218C34.231 70.556 35.2965 71.6776 36.5844 72.4755V74.8933H30.636C29.4065 74.8933 28.2273 75.3914 27.3579 76.278C26.4885 77.1646 26 78.3671 26 79.6209V102.417C26 102.846 26.1673 103.258 26.465 103.562C26.7628 103.866 27.1666 104.036 27.5877 104.036C28.0087 104.036 28.4126 103.866 28.7103 103.562C29.0081 103.258 29.1753 102.846 29.1753 102.417V79.6209C29.1753 79.2258 29.3292 78.847 29.6031 78.5676C29.8771 78.2883 30.2486 78.1314 30.636 78.1314H36.0552C36.7935 79.2944 37.7954 80.2593 38.9763 80.9444C40.1572 81.6295 41.4824 82.0148 42.84 82.0677C44.1977 82.1206 45.5478 81.8396 46.7766 81.2484C48.0053 80.6573 49.0765 79.7732 49.8997 78.6711C50.0284 78.5053 50.1221 78.3142 50.1749 78.1098H52.9903C53.1653 78.1422 53.3446 78.1422 53.5196 78.1098V102.417C53.5196 102.846 53.6868 103.258 53.9846 103.562C54.2823 103.866 54.6862 104.036 55.1072 104.036C55.5283 104.036 55.9321 103.866 56.2299 103.562C56.5276 103.258 56.6949 102.846 56.6949 102.417V74.6342C56.6949 74.243 56.7704 73.8556 56.9173 73.4942C57.0641 73.1328 57.2793 72.8044 57.5506 72.5277C57.8218 72.2511 58.1438 72.0317 58.4983 71.8819C58.8527 71.7322 59.2326 71.6552 59.6162 71.6552H63.5748C63.6302 71.7748 63.6938 71.8902 63.7653 72.0006C64.7552 73.1176 65.9692 74.0043 67.3249 74.6004C68.6806 75.1965 70.1463 75.4881 71.6223 75.4553C73.0983 75.4226 74.5501 75.0662 75.8791 74.4105C77.2081 73.7548 78.3832 72.8151 79.3245 71.6552H84.3838C84.7674 71.6552 85.1473 71.7322 85.5017 71.8819C85.8562 72.0317 86.1782 72.2511 86.4495 72.5277C86.7208 72.8044 86.9359 73.1328 87.0827 73.4942C87.2295 73.8556 87.3051 74.243 87.3051 74.6342V102.417C87.3051 102.846 87.4724 103.258 87.7701 103.562C88.0679 103.866 88.4717 104.036 88.8928 104.036C89.3138 104.036 89.7177 103.866 90.0154 103.562C90.3132 103.258 90.4804 102.846 90.4804 102.417V78.0234C90.6554 78.0558 90.8347 78.0558 91.0097 78.0234H93.7405C93.7933 78.2279 93.887 78.419 94.0157 78.5847C94.8389 79.6869 95.9101 80.5709 97.1388 81.1621C98.3675 81.7533 99.7177 82.0343 101.075 81.9813C102.433 81.9284 103.758 81.5431 104.939 80.858C106.12 80.1729 107.122 79.2081 107.86 78.045H113.364C113.751 78.045 114.123 78.202 114.397 78.4813C114.671 78.7606 114.825 79.1395 114.825 79.5345V102.417C114.825 102.846 114.992 103.258 115.29 103.562C115.587 103.866 115.991 104.036 116.412 104.036C116.833 104.036 117.237 103.866 117.535 103.562C117.833 103.258 118 102.846 118 102.417V79.6209C118 78.3819 117.523 77.1923 116.672 76.3081C115.821 75.424 114.664 74.9159 113.449 74.8933ZM35.526 50.3485C35.5315 49.7033 35.7853 49.0861 36.2328 48.6299C36.6802 48.1736 37.2854 47.9148 37.9181 47.9091H49.0106C49.6433 47.9148 50.2485 48.1736 50.6959 48.6299C51.1433 49.0861 51.3971 49.7033 51.4027 50.3485V53.306H42.4059C41.9865 53.3116 41.5859 53.4839 41.2893 53.7864C40.9927 54.0888 40.8237 54.4974 40.8182 54.925V57.6234H35.526V50.3485ZM39.5905 77.2247C39.701 77.0041 39.759 76.7601 39.7598 76.5123V73.6628C40.2199 73.7569 40.6877 73.8075 41.1569 73.8139H45.7717C46.241 73.8075 46.7087 73.7569 47.1689 73.6628V76.5123C47.1491 76.6411 47.1491 76.7722 47.1689 76.9009C46.2042 77.9654 44.8654 78.5971 43.4452 78.6577C42.0251 78.7184 40.6391 78.2032 39.5905 77.2247ZM45.7717 70.5758H41.1569C39.6635 70.5758 38.2312 69.9708 37.1752 68.894C36.1192 67.8171 35.526 66.3565 35.526 64.8336V60.8615H42.4059C42.8253 60.8559 43.2259 60.6836 43.5225 60.3811C43.819 60.0787 43.9881 59.6701 43.9936 59.2425V56.5441H51.4027V64.8336C51.4027 65.5877 51.257 66.3344 50.974 67.031C50.6911 67.7277 50.2763 68.3607 49.7534 68.894C49.2306 69.4272 48.6098 69.8501 47.9266 70.1387C47.2434 70.4273 46.5112 70.5758 45.7717 70.5758ZM63.0456 42.1022C63.0456 41.7308 63.1173 41.3631 63.2567 41.02C63.396 40.6769 63.6003 40.3651 63.8578 40.1025C64.1153 39.8399 64.421 39.6316 64.7575 39.4895C65.0939 39.3474 65.4545 39.2742 65.8187 39.2742H78.266C78.6302 39.2742 78.9908 39.3474 79.3272 39.4895C79.6637 39.6316 79.9694 39.8399 80.2269 40.1025C80.4844 40.3651 80.6886 40.6769 80.828 41.02C80.9674 41.3631 81.0391 41.7308 81.0391 42.1022V44.6711H67.8086C67.3892 44.6766 66.9885 44.849 66.692 45.1514C66.3954 45.4539 66.2264 45.8624 66.2209 46.2901V48.9885H63.0456V42.1022ZM76.8053 69.7339C76.1356 70.4976 75.3174 71.1108 74.4026 71.5345C73.4878 71.9582 72.4966 72.1831 71.4919 72.1949C69.8871 72.1772 68.3354 71.6066 67.0888 70.5758C67.206 70.3568 67.2713 70.1128 67.2793 69.8634V67.1219C67.92 67.2588 68.5724 67.3311 69.2269 67.3377H74.8578C75.5123 67.3311 76.1647 67.2588 76.8053 67.1219V69.7339ZM74.8578 64.0996H69.2269C68.4152 64.0996 67.6113 63.9366 66.8614 63.6198C66.1114 63.303 65.43 62.8387 64.856 62.2534C64.2821 61.668 63.8267 60.9732 63.5161 60.2084C63.2054 59.4436 63.0456 58.6239 63.0456 57.7961V52.2266H67.8086C68.2279 52.221 68.6286 52.0486 68.9252 51.7462C69.2217 51.4438 69.3908 51.0352 69.3962 50.6076V47.9091H81.0391V57.7961C81.0391 59.4679 80.3879 61.0712 79.2286 62.2534C78.0694 63.4355 76.4972 64.0996 74.8578 64.0996ZM92.682 50.3485C92.6875 49.7033 92.9414 49.0861 93.3888 48.6299C93.8362 48.1736 94.4414 47.9148 95.0741 47.9091H106.167C106.799 47.9148 107.405 48.1736 107.852 48.6299C108.299 49.0861 108.553 49.7033 108.559 50.3485V57.6234H101.15V54.925C101.144 54.4974 100.975 54.0888 100.678 53.7864C100.382 53.4839 99.9813 53.3116 99.5619 53.306H92.682V50.3485ZM96.9158 76.9009C96.9356 76.7722 96.9356 76.6411 96.9158 76.5123V73.6628C97.376 73.7569 97.8437 73.8075 98.313 73.8139H102.928C103.397 73.8075 103.865 73.7569 104.325 73.6628V76.5123C104.326 76.7601 104.384 77.0041 104.494 77.2247C103.973 77.7224 103.36 78.1093 102.691 78.3628C102.022 78.6162 101.309 78.7313 100.596 78.7011C99.8828 78.671 99.1825 78.4963 98.5361 78.1872C97.8897 77.8781 97.31 77.4408 96.8311 76.9009H96.9158ZM103.012 70.5758H98.3976C96.9042 70.5758 95.4719 69.9708 94.4159 68.894C93.3599 67.8171 92.7667 66.3565 92.7667 64.8336V56.5441H98.0589V59.2425C98.0644 59.6701 98.2335 60.0787 98.53 60.3811C98.8266 60.6836 99.2272 60.8559 99.6466 60.8615H108.643V64.8336C108.643 65.595 108.495 66.3488 108.207 67.0512C107.919 67.7535 107.496 68.3904 106.964 68.9248C106.432 69.4592 105.802 69.8803 105.109 70.1637C104.416 70.4472 103.674 70.5873 102.928 70.5758H103.012Z" fill="#323232"/>
<defs>
<filter id="filter0_ii_221_10" x="-20" y="-19.9639" width="184" height="184" filterUnits="userSpaceOnUse" color-interpolation-filters="sRGB">
<feFlood flood-opacity="0" result="BackgroundImageFix"/>
<feBlend mode="normal" in="SourceGraphic" in2="BackgroundImageFix" result="shape"/>
<feColorMatrix in="SourceAlpha" type="matrix" values="0 0 0 0 0 0 0 0 0 0 0 0 0 0 0 0 0 0 127 0" result="hardAlpha"/>
<feOffset dx="20" dy="20"/>
<feGaussianBlur stdDeviation="25"/>
<feComposite in2="hardAlpha" operator="arithmetic" k2="-1" k3="1"/>
<feColorMatrix type="matrix" values="0 0 0 0 0.804167 0 0 0 0 0.804167 0 0 0 0 0.804167 0 0 0 1 0"/>
<feBlend mode="normal" in2="shape" result="effect1_innerShadow_221_10"/>
<feColorMatrix in="SourceAlpha" type="matrix" values="0 0 0 0 0 0 0 0 0 0 0 0 0 0 0 0 0 0 127 0" result="hardAlpha"/>
<feOffset dx="-20" dy="-20"/>
<feGaussianBlur stdDeviation="25"/>
<feComposite in2="hardAlpha" operator="arithmetic" k2="-1" k3="1"/>
<feColorMatrix type="matrix" values="0 0 0 0 1 0 0 0 0 1 0 0 0 0 1 0 0 0 1 0"/>
<feBlend mode="normal" in2="effect1_innerShadow_221_10" result="effect2_innerShadow_221_10"/>
</filter>
</defs>
</svg>
