<svg width="895" height="1013" viewBox="0 0 895 1013" fill="none" xmlns="http://www.w3.org/2000/svg">
<g filter="url(#filter0_dd_28_2053)">
<rect x="70" y="70.0361" width="755" height="872" rx="67" fill="#F3F3F3"/>
</g>
<path d="M805.51 135.446V878.766C805.51 896.596 794.51 911.996 778.43 919.466C771.506 922.713 763.947 924.38 756.3 924.346H521.3C521.235 924.443 521.14 924.517 521.03 924.556L519.67 924.346H139.34C112.17 924.346 90.13 903.976 90.13 878.766V135.446C90.1197 133.1 90.3205 130.757 90.73 128.446C91.4306 124.177 92.7512 120.033 94.65 116.146C96.0933 113.27 97.8077 110.537 99.77 107.986C100.43 107.126 101.12 106.306 101.87 105.486C102.87 104.266 103.978 103.138 105.18 102.116C105.74 101.606 106.34 101.046 106.95 100.526C108.796 98.991 110.74 97.5779 112.77 96.2961C116.225 94.1418 119.916 92.3904 123.77 91.0761C129.459 89.1541 135.425 88.1745 141.43 88.1761H754.1C761.191 88.1512 768.219 89.5099 774.79 92.1761C775.68 92.5661 776.57 92.9461 777.45 93.3861C781.406 95.23 785.104 97.5832 788.45 100.386C789.1 100.946 789.75 101.506 790.36 102.066C791.642 103.173 792.826 104.387 793.9 105.696C794.6 106.516 795.3 107.336 795.9 108.156C797.167 109.81 798.335 111.536 799.4 113.326C800.419 115.144 801.337 117.017 802.15 118.936C803.351 121.854 804.226 124.896 804.76 128.006C804.9 128.826 805.04 129.686 805.13 130.546C805.35 132.171 805.477 133.807 805.51 135.446Z" fill="#EBEBEB"/>
<g style="mix-blend-mode:multiply">
<path d="M662.63 531.056L585.93 561.216C584.728 561.707 583.384 561.726 582.169 561.27C580.953 560.814 579.953 559.917 579.37 558.756L575.6 550.536C575.352 549.966 575.224 549.351 575.224 548.73C575.225 548.108 575.353 547.494 575.602 546.924C575.851 546.354 576.214 545.842 576.67 545.419C577.125 544.996 577.663 544.672 578.25 544.466L654.98 514.306C656.18 513.815 657.52 513.795 658.735 514.249C659.949 514.703 660.947 515.599 661.53 516.756L665.3 524.976C665.551 525.548 665.68 526.165 665.68 526.79C665.68 527.414 665.551 528.031 665.3 528.603C665.049 529.174 664.682 529.687 664.222 530.11C663.763 530.532 663.221 530.854 662.63 531.056Z" fill="#EAEFF7"/>
</g>
<g style="mix-blend-mode:multiply">
<path d="M700.3 546.286L623.58 576.446C622.379 576.94 621.036 576.962 619.82 576.508C618.603 576.053 617.603 575.156 617.02 573.996L613.25 565.776C613 565.206 612.871 564.59 612.871 563.967C612.87 563.344 612.998 562.728 613.247 562.157C613.496 561.586 613.86 561.073 614.316 560.65C614.773 560.226 615.312 559.901 615.9 559.696L692.62 529.536C693.823 529.048 695.165 529.03 696.38 529.485C697.596 529.941 698.595 530.837 699.18 531.996L702.95 540.216C703.2 540.786 703.329 541.401 703.329 542.023C703.33 542.645 703.201 543.26 702.952 543.831C702.704 544.401 702.339 544.913 701.883 545.336C701.427 545.758 700.888 546.082 700.3 546.286Z" fill="#EAEFF7"/>
</g>
<g style="mix-blend-mode:multiply">
<path d="M737.68 562.586L660.93 592.746C659.729 593.237 658.387 593.258 657.171 592.804C655.955 592.35 654.955 591.454 654.37 590.296L650.6 582.076C650.35 581.505 650.221 580.889 650.221 580.267C650.22 579.644 650.348 579.028 650.597 578.457C650.846 577.886 651.21 577.373 651.666 576.949C652.123 576.526 652.662 576.201 653.25 575.996L729.97 545.836C731.172 545.345 732.516 545.326 733.732 545.782C734.947 546.238 735.947 547.135 736.53 548.296L740.3 556.516C740.55 557.083 740.681 557.697 740.683 558.317C740.686 558.938 740.56 559.552 740.314 560.122C740.068 560.692 739.707 561.205 739.254 561.629C738.801 562.053 738.265 562.378 737.68 562.586Z" fill="#EAEFF7"/>
</g>
<g style="mix-blend-mode:multiply">
<path d="M200.68 166.127L118.39 178.366C117.123 178.588 115.82 178.312 114.751 177.597C113.682 176.882 112.929 175.782 112.65 174.527L111.13 165.707C111.043 165.085 111.082 164.452 111.245 163.845C111.408 163.238 111.69 162.671 112.076 162.176C112.463 161.68 112.944 161.268 113.493 160.962C114.041 160.656 114.646 160.464 115.27 160.397L197.57 148.166C198.836 147.948 200.136 148.225 201.203 148.94C202.27 149.655 203.021 150.753 203.3 152.007L204.83 160.827C204.915 161.448 204.875 162.081 204.711 162.687C204.547 163.293 204.263 163.86 203.876 164.354C203.489 164.849 203.007 165.26 202.458 165.564C201.909 165.869 201.304 166.06 200.68 166.127Z" fill="#EAEFF7"/>
</g>
<g style="mix-blend-mode:multiply">
<path d="M212.71 132.986L130.41 145.226C129.144 145.444 127.844 145.167 126.777 144.452C125.71 143.737 124.959 142.639 124.68 141.386L123.15 132.566C123.065 131.943 123.105 131.31 123.269 130.703C123.433 130.097 123.716 129.529 124.103 129.034C124.49 128.539 124.973 128.127 125.522 127.821C126.071 127.516 126.675 127.324 127.3 127.256L209.59 115.026C210.855 114.808 212.156 115.085 213.223 115.8C214.29 116.515 215.041 117.612 215.32 118.866L216.85 127.686C216.937 128.307 216.897 128.94 216.735 129.546C216.572 130.152 216.289 130.719 215.903 131.213C215.517 131.707 215.035 132.119 214.487 132.424C213.938 132.728 213.334 132.919 212.71 132.986Z" fill="#EAEFF7"/>
</g>
<g style="mix-blend-mode:multiply">
<path d="M489.26 768.446L431.68 763.446C431.14 763.422 430.611 763.29 430.123 763.059C429.635 762.828 429.198 762.501 428.837 762.099C428.477 761.697 428.2 761.227 428.024 760.716C427.848 760.205 427.775 759.665 427.81 759.126L428.81 748.906C428.967 747.819 429.542 746.837 430.412 746.168C431.283 745.5 432.38 745.197 433.47 745.326L491.06 750.276C491.599 750.301 492.127 750.434 492.614 750.666C493.101 750.897 493.537 751.224 493.896 751.626C494.256 752.028 494.531 752.498 494.707 753.008C494.883 753.518 494.955 754.058 494.92 754.596L493.92 764.816C493.775 765.911 493.205 766.906 492.333 767.585C491.462 768.264 490.358 768.574 489.26 768.446Z" fill="#EAEFF7"/>
</g>
<g style="mix-blend-mode:multiply">
<path d="M262.6 757.006L208.25 738.706C207.737 738.555 207.261 738.301 206.851 737.959C206.441 737.617 206.105 737.194 205.865 736.716C205.625 736.239 205.486 735.718 205.456 735.184C205.426 734.651 205.505 734.117 205.69 733.616L209.48 723.976C209.924 722.959 210.738 722.148 211.758 721.708C212.777 721.268 213.925 721.232 214.97 721.606L269.31 739.906C269.822 740.056 270.298 740.309 270.709 740.65C271.119 740.991 271.455 741.413 271.696 741.889C271.937 742.365 272.078 742.886 272.109 743.418C272.141 743.951 272.063 744.485 271.88 744.986L268.09 754.636C267.646 755.653 266.831 756.464 265.812 756.904C264.793 757.344 263.645 757.38 262.6 757.006Z" fill="#EAEFF7"/>
</g>
<g style="mix-blend-mode:multiply">
<path d="M788.86 809.186L745.64 805.476C745.167 805.453 744.704 805.337 744.277 805.133C743.85 804.929 743.467 804.643 743.152 804.29C742.837 803.938 742.594 803.526 742.44 803.079C742.285 802.632 742.22 802.158 742.25 801.686L743.37 790.496C743.507 789.542 744.011 788.68 744.776 788.093C745.54 787.506 746.503 787.242 747.46 787.356L790.68 791.066C791.153 791.089 791.616 791.206 792.043 791.409C792.47 791.613 792.852 791.899 793.168 792.252C793.483 792.605 793.726 793.016 793.88 793.463C794.035 793.91 794.1 794.384 794.07 794.856L792.93 806.046C792.798 806.998 792.298 807.861 791.537 808.448C790.775 809.035 789.814 809.3 788.86 809.186Z" fill="#EAEFF7"/>
</g>
<g style="mix-blend-mode:multiply">
<path d="M516.75 525.306L476.75 541.016C475.849 541.385 474.842 541.4 473.93 541.059C473.018 540.718 472.268 540.046 471.83 539.176L467.09 528.826C466.903 528.398 466.807 527.935 466.807 527.467C466.808 527 466.905 526.537 467.092 526.109C467.28 525.68 467.555 525.296 467.898 524.979C468.242 524.662 468.648 524.419 469.09 524.266L509.09 508.556C509.991 508.188 510.998 508.173 511.91 508.514C512.822 508.855 513.572 509.527 514.01 510.396L518.76 520.756C518.947 521.185 519.043 521.648 519.041 522.115C519.04 522.582 518.942 523.045 518.753 523.472C518.564 523.9 518.289 524.284 517.944 524.599C517.599 524.915 517.193 525.156 516.75 525.306Z" fill="#EAEFF7"/>
</g>
<g style="mix-blend-mode:multiply">
<path d="M420.62 564.077L403.62 527.077C403.433 526.649 403.337 526.187 403.337 525.72C403.338 525.253 403.435 524.791 403.623 524.363C403.811 523.936 404.085 523.552 404.429 523.236C404.773 522.92 405.178 522.678 405.62 522.527L416.8 518.127C417.701 517.758 418.708 517.743 419.62 518.084C420.532 518.425 421.282 519.097 421.72 519.967L438.72 556.967C438.907 557.395 439.003 557.857 439.003 558.324C439.002 558.791 438.905 559.252 438.717 559.68C438.529 560.107 438.255 560.491 437.911 560.807C437.567 561.123 437.162 561.365 436.72 561.517L425.54 565.917C424.639 566.283 423.633 566.297 422.721 565.956C421.81 565.615 421.06 564.944 420.62 564.077Z" fill="#EAEFF7"/>
</g>
<g style="mix-blend-mode:multiply">
<path d="M151.51 596.756L126.45 563.926C126.167 563.558 125.965 563.134 125.857 562.683C125.749 562.232 125.737 561.762 125.821 561.306C125.906 560.849 126.086 560.416 126.35 560.034C126.613 559.651 126.954 559.328 127.35 559.086L137.26 552.596C138.079 552.06 139.068 551.848 140.035 552.002C141.002 552.155 141.877 552.663 142.49 553.426L167.56 586.246C167.841 586.615 168.042 587.039 168.149 587.49C168.257 587.941 168.269 588.41 168.184 588.866C168.099 589.322 167.919 589.755 167.657 590.138C167.395 590.52 167.055 590.843 166.66 591.086L156.74 597.586C155.917 598.109 154.931 598.314 153.968 598.161C153.005 598.008 152.131 597.509 151.51 596.756Z" fill="#EAEFF7"/>
</g>
<g style="mix-blend-mode:multiply">
<path d="M445.38 255.446L407.79 235.346C407.373 235.142 407.003 234.852 406.704 234.496C406.405 234.14 406.184 233.726 406.055 233.28C405.926 232.833 405.892 232.365 405.954 231.904C406.017 231.444 406.176 231.001 406.42 230.606L412.49 220.866C413.031 220.051 413.858 219.468 414.807 219.231C415.756 218.994 416.759 219.121 417.62 219.586L455.21 239.686C455.628 239.891 455.998 240.182 456.297 240.538C456.596 240.895 456.817 241.311 456.946 241.758C457.075 242.205 457.109 242.674 457.046 243.136C456.983 243.597 456.824 244.04 456.58 244.436L450.51 254.176C449.966 254.987 449.139 255.567 448.19 255.802C447.242 256.037 446.24 255.91 445.38 255.446Z" fill="#EAEFF7"/>
</g>
<g style="mix-blend-mode:multiply">
<path d="M391.58 231.146L353.98 211.046C353.562 210.84 353.192 210.55 352.893 210.193C352.594 209.836 352.373 209.421 352.244 208.974C352.115 208.526 352.081 208.057 352.144 207.596C352.207 207.135 352.366 206.692 352.61 206.296L358.68 196.556C359.224 195.744 360.051 195.164 361 194.93C361.948 194.695 362.95 194.822 363.81 195.286L401.4 215.386C401.819 215.59 402.19 215.88 402.49 216.236C402.79 216.593 403.011 217.009 403.141 217.456C403.27 217.904 403.303 218.374 403.24 218.835C403.176 219.297 403.016 219.74 402.77 220.136L396.7 229.876C396.159 230.688 395.334 231.269 394.386 231.504C393.439 231.739 392.438 231.611 391.58 231.146Z" fill="#EAEFF7"/>
</g>
<g style="mix-blend-mode:multiply">
<path d="M282.05 152.176L265.47 115.026C265.286 114.598 265.193 114.137 265.195 113.672C265.197 113.206 265.295 112.747 265.482 112.321C265.67 111.895 265.943 111.512 266.285 111.196C266.627 110.881 267.031 110.639 267.47 110.486L278.7 106.186C279.605 105.827 280.612 105.822 281.52 106.172C282.428 106.523 283.171 107.202 283.6 108.076L300.18 145.226C300.362 145.654 300.455 146.114 300.452 146.579C300.449 147.044 300.351 147.504 300.164 147.929C299.976 148.355 299.703 148.737 299.362 149.053C299.021 149.369 298.619 149.612 298.18 149.766L286.93 154.056C286.029 154.412 285.027 154.416 284.123 154.068C283.219 153.72 282.479 153.044 282.05 152.176Z" fill="#EAEFF7"/>
</g>
<g style="mix-blend-mode:multiply">
<path d="M335.93 148.256L319.34 111.106C319.156 110.678 319.063 110.217 319.065 109.752C319.067 109.287 319.165 108.827 319.352 108.401C319.54 107.975 319.813 107.592 320.155 107.276C320.497 106.961 320.901 106.719 321.34 106.566L332.56 102.276C333.463 101.911 334.471 101.903 335.38 102.252C336.289 102.6 337.033 103.281 337.46 104.156L354.05 141.306C354.234 141.733 354.328 142.194 354.325 142.66C354.323 143.125 354.225 143.585 354.038 144.011C353.85 144.437 353.577 144.82 353.235 145.135C352.893 145.451 352.49 145.693 352.05 145.846L340.83 150.136C339.927 150.498 338.92 150.505 338.011 150.157C337.103 149.808 336.359 149.129 335.93 148.256Z" fill="#EAEFF7"/>
</g>
<g style="mix-blend-mode:multiply">
<path d="M121.01 600.826L95.93 568.006C95.6488 567.637 95.4481 567.213 95.3407 566.762C95.2332 566.311 95.2215 565.842 95.3063 565.386C95.3911 564.93 95.5705 564.497 95.833 564.115C96.0954 563.732 96.4351 563.409 96.83 563.166L106.75 556.666C107.573 556.143 108.559 555.939 109.522 556.091C110.485 556.244 111.359 556.744 111.98 557.496L137.04 590.326C137.323 590.694 137.525 591.118 137.633 591.569C137.741 592.021 137.753 592.49 137.669 592.946C137.584 593.403 137.404 593.836 137.14 594.219C136.877 594.601 136.536 594.924 136.14 595.166L126.23 601.656C125.412 602.189 124.425 602.399 123.46 602.246C122.496 602.093 121.623 601.587 121.01 600.826Z" fill="#EAEFF7"/>
</g>
<g style="mix-blend-mode:multiply">
<path d="M183.67 552.446L167.32 516.766C167.093 516.25 166.974 515.694 166.973 515.13C166.971 514.567 167.086 514.009 167.311 513.493C167.535 512.976 167.864 512.511 168.277 512.128C168.69 511.745 169.178 511.451 169.71 511.266L186.93 504.546C188.016 504.101 189.231 504.082 190.33 504.494C191.429 504.906 192.333 505.717 192.86 506.766L209.19 542.446C209.414 542.962 209.53 543.519 209.529 544.082C209.528 544.645 209.412 545.202 209.187 545.718C208.962 546.234 208.633 546.698 208.22 547.082C207.808 547.465 207.321 547.759 206.79 547.946L189.61 554.696C188.519 555.139 187.3 555.154 186.199 554.736C185.097 554.319 184.194 553.501 183.67 552.446Z" fill="#EAEFF7"/>
</g>
<g style="mix-blend-mode:multiply">
<path d="M248.04 243.066L223.87 211.446C223.53 211.001 223.286 210.49 223.156 209.946C223.025 209.402 223.01 208.836 223.112 208.286C223.214 207.735 223.43 207.212 223.747 206.751C224.063 206.289 224.473 205.899 224.95 205.606L240.19 195.606C241.178 194.96 242.372 194.705 243.538 194.89C244.704 195.075 245.76 195.686 246.5 196.606L270.67 228.256C271.01 228.7 271.254 229.211 271.384 229.755C271.515 230.3 271.53 230.865 271.428 231.416C271.326 231.966 271.11 232.489 270.793 232.951C270.477 233.412 270.067 233.802 269.59 234.096L254.35 244.096C253.358 244.738 252.163 244.988 250.996 244.798C249.83 244.607 248.776 243.99 248.04 243.066Z" fill="#EAEFF7"/>
</g>
<g style="mix-blend-mode:multiply">
<path d="M553.98 474.326L492.12 498.646C490.989 499.106 489.727 499.124 488.584 498.696C487.441 498.268 486.5 497.426 485.95 496.336L481.95 487.606C481.715 487.07 481.593 486.492 481.592 485.907C481.591 485.322 481.712 484.743 481.945 484.206C482.179 483.67 482.522 483.188 482.951 482.79C483.38 482.393 483.887 482.088 484.44 481.896L546.3 457.576C547.43 457.114 548.694 457.095 549.837 457.523C550.981 457.951 551.921 458.795 552.47 459.886L556.47 468.616C556.705 469.152 556.827 469.73 556.828 470.316C556.829 470.901 556.708 471.48 556.474 472.016C556.241 472.552 555.898 473.034 555.469 473.432C555.04 473.83 554.533 474.134 553.98 474.326Z" fill="#EAEFF7"/>
</g>
<g style="mix-blend-mode:multiply">
<path d="M344.46 259.777L289.59 295.707C288.563 296.371 287.329 296.636 286.12 296.452C284.911 296.267 283.812 295.647 283.03 294.707L277.12 286.967C276.767 286.503 276.514 285.971 276.379 285.404C276.244 284.837 276.23 284.249 276.336 283.676C276.442 283.103 276.668 282.559 276.997 282.078C277.327 281.598 277.754 281.192 278.25 280.887L333.12 244.957C334.147 244.292 335.381 244.027 336.59 244.211C337.799 244.396 338.898 245.017 339.68 245.957L345.59 253.697C345.945 254.159 346.198 254.691 346.334 255.258C346.47 255.826 346.485 256.415 346.379 256.988C346.272 257.561 346.046 258.106 345.716 258.586C345.385 259.067 344.957 259.472 344.46 259.777Z" fill="#EAEFF7"/>
</g>
<g style="mix-blend-mode:multiply">
<path d="M618.27 833.206L560.68 828.206C560.142 828.182 559.614 828.051 559.127 827.82C558.64 827.589 558.204 827.264 557.844 826.862C557.485 826.461 557.209 825.992 557.033 825.483C556.857 824.973 556.785 824.434 556.82 823.896L557.82 813.676C557.974 812.589 558.548 811.605 559.42 810.936C560.291 810.267 561.389 809.965 562.48 810.096L620.06 815.096C620.603 815.119 621.135 815.251 621.626 815.483C622.117 815.716 622.556 816.045 622.917 816.451C623.278 816.857 623.554 817.331 623.728 817.846C623.902 818.36 623.971 818.905 623.93 819.446L622.93 829.666C622.764 830.746 622.185 831.718 621.316 832.379C620.446 833.039 619.354 833.336 618.27 833.206Z" fill="#EAEFF7"/>
</g>
<g style="mix-blend-mode:multiply">
<path d="M623.1 805.826L565.52 800.826C564.982 800.802 564.454 800.67 563.967 800.44C563.48 800.209 563.044 799.883 562.684 799.482C562.325 799.08 562.049 798.611 561.873 798.102C561.697 797.593 561.625 797.053 561.66 796.516L562.66 786.286C562.817 785.199 563.391 784.217 564.262 783.548C565.132 782.879 566.23 782.577 567.32 782.706L624.9 787.706C625.439 787.729 625.968 787.859 626.456 788.089C626.944 788.319 627.381 788.645 627.742 789.046C628.102 789.448 628.379 789.917 628.556 790.427C628.732 790.937 628.805 791.477 628.77 792.016L627.77 802.236C627.62 803.328 627.046 804.318 626.172 804.99C625.298 805.662 624.194 805.962 623.1 805.826Z" fill="#EAEFF7"/>
</g>
<g style="mix-blend-mode:multiply">
<path d="M456.72 831.696L442.79 779.696C442.673 779.175 442.661 778.637 442.756 778.112C442.85 777.587 443.048 777.086 443.339 776.639C443.629 776.191 444.007 775.807 444.448 775.507C444.89 775.208 445.387 775 445.91 774.896L456.67 772.416C457.742 772.145 458.876 772.295 459.841 772.834C460.806 773.373 461.529 774.261 461.86 775.316L475.79 827.316C475.908 827.837 475.921 828.376 475.828 828.903C475.734 829.429 475.536 829.931 475.245 830.379C474.955 830.828 474.577 831.213 474.134 831.513C473.692 831.813 473.194 832.022 472.67 832.126L461.91 834.596C460.838 834.869 459.702 834.72 458.737 834.181C457.771 833.641 457.049 832.752 456.72 831.696Z" fill="#EAEFF7"/>
</g>
<g style="mix-blend-mode:multiply">
<path d="M233.85 249.136C233.85 249.136 257.27 255.526 262.27 272.136C267.27 288.746 246.54 301.576 241.86 307.046C237.18 312.516 184.69 307.596 184.69 307.596C184.69 307.596 132.89 285.146 131.98 272.136C131.07 259.126 89.59 257.076 138.39 241.336C187.19 225.596 164 217.336 187.18 225.596C210.36 233.856 233.85 249.136 233.85 249.136Z" fill="#EAEFF7"/>
</g>
<g style="mix-blend-mode:multiply">
<path d="M710.67 199.996C710.67 199.996 734.09 206.386 739.09 222.996C744.09 239.606 723.37 252.436 718.69 257.906C714.01 263.376 661.52 258.456 661.52 258.456C661.52 258.456 609.71 236.006 608.8 222.996C607.89 209.986 566.42 207.936 615.21 192.196C664 176.456 640.83 168.196 664 176.456C687.17 184.716 710.67 199.996 710.67 199.996Z" fill="#EAEFF7"/>
</g>
<g style="mix-blend-mode:multiply">
<path d="M286.76 487.886C285.203 491.348 282.875 494.409 279.955 496.836C277.035 499.262 273.599 500.989 269.91 501.886C257.14 505.086 246.27 496.626 241.81 494.886C237.35 493.146 239.13 469.476 239.13 469.476C239.13 469.476 254.65 445.086 264.79 443.906C274.93 442.726 274.9 424.156 289.12 444.906C303.34 465.656 308.86 454.906 303.35 465.696C297.84 476.486 286.76 487.886 286.76 487.886Z" fill="#EAEFF7"/>
</g>
<g style="mix-blend-mode:multiply">
<path d="M90.12 360.636C129.43 347.516 221.01 329.586 242.12 342.636C263.23 355.686 344.12 354.896 344.12 354.896L418.12 313.436C418.12 313.436 529.25 338.966 528.21 286.196C527.17 233.426 560.93 150.306 603.93 130.746C646.93 111.186 650.25 88.0859 650.25 88.0859H612.87C612.87 88.0859 592.78 124.776 574.07 128.026C555.36 131.276 500.71 177.366 505.74 202.136C510.77 226.906 505.74 270.316 505.74 270.316L458.93 284.446L398.12 275.446C398.12 275.446 371.31 307.556 367.7 313.446C364.09 319.336 332.05 330.616 312.97 324.716C293.89 318.816 237.37 319.286 237.37 319.286C237.37 319.286 174.71 342.666 163.58 328.876C152.45 315.086 121.42 321.446 121.42 321.446L90.12 328.866V360.636Z" fill="#EAEFF7"/>
</g>
<g style="mix-blend-mode:multiply">
<path d="M805.51 516.616V563.526C801.36 567.066 795.21 571.686 788.36 574.396C783.14 576.556 777.5 577.506 772.14 576.036C769.592 575.479 766.932 575.752 764.55 576.816C756.11 580.056 746.04 590.196 737.47 600.296C732.76 605.866 728.47 611.476 725.31 615.876C721.53 621.096 719.2 624.636 719.2 624.636C719.2 624.636 674.2 656.316 655.08 662.136C648.08 664.256 641.24 669.216 635.37 674.916C634.01 676.246 632.71 677.586 631.5 678.916C630.29 680.246 628.89 681.916 627.72 683.366C621.72 691.006 618.08 698.366 618.5 701.366C619.38 708.056 618.64 748.666 618.64 748.666L618.36 748.796L610.48 752.636L601.48 756.986L564.1 775.156L535.73 812.446C535.73 812.446 543.65 824.916 554.28 838.726C559.861 846.201 565.872 853.347 572.28 860.126C574.75 862.676 577.22 865.046 579.64 867.126C590.83 876.626 591.39 901.746 587.43 924.316H553.92C552.601 913.513 550.421 902.832 547.4 892.376C545.67 886.116 543.62 879.906 541.4 873.776C539.59 868.896 537.63 864.066 535.58 859.366C532.46 852.246 529.01 845.366 525.37 838.816C520.211 829.402 514.185 820.49 507.37 812.196C487.37 788.326 513.43 764.676 539.37 748.796C541.94 747.196 544.5 745.736 547.06 744.306C549.62 742.876 551.96 741.586 554.33 740.376C567.57 733.476 578.05 729.376 578.05 729.376L610.63 655.106C610.714 655.061 610.792 655.004 610.86 654.936L611.19 654.716C611.89 654.196 613.38 653.206 615.43 651.826C616.69 650.916 618.18 649.926 619.9 648.766C624.98 645.396 631.78 640.946 639.38 636.206C659.84 623.606 686.12 609.146 700.29 608.456C713.57 607.806 736.92 589.556 759.47 567.666C764.92 562.406 770.33 556.886 775.55 551.356C787.15 539.136 797.68 526.796 805.51 516.616Z" fill="#EAEFF7"/>
</g>
<g style="mix-blend-mode:multiply">
<path d="M314.82 881.446C314.439 884.91 313.815 888.342 312.95 891.716C312.81 892.146 312.72 892.577 312.58 893.007H143.04C140.567 890.073 138.283 887.166 136.19 884.286C130.36 876.086 126.49 868.146 126.19 861.286C124.89 830.286 65.05 825.426 135.42 787.926C137.28 786.926 139.06 785.927 140.78 784.987C144.27 782.987 147.49 781.107 150.47 779.247C200.93 747.537 175.11 732.446 205.82 750.446C214.94 755.893 223.674 761.96 231.96 768.607C234.8 770.897 237.6 773.226 240.3 775.516C251.807 785.272 262.776 795.644 273.16 806.586C273.16 806.586 306.94 821.776 314.16 861.306C315.392 867.948 315.615 874.738 314.82 881.446Z" fill="#EAEFF7"/>
</g>
<g style="mix-blend-mode:multiply">
<path d="M622.62 317.266C567.62 353.716 481.73 354.396 528.21 407.026C574.69 459.656 633.21 518.136 675.21 483.196C717.21 448.256 707.66 452.686 730.05 403.196C752.44 353.706 774.35 312.876 702.64 299.926C630.93 286.976 622.62 317.266 622.62 317.266Z" fill="#EAEFF7"/>
</g>
<g style="mix-blend-mode:multiply">
<path d="M471.63 633.446C436.63 650.126 381.97 650.446 411.55 674.536C441.13 698.626 478.35 725.396 505.11 709.396C531.87 693.396 525.76 695.396 540.01 672.786C554.26 650.176 568.2 631.436 522.56 625.506C476.92 619.576 471.63 633.446 471.63 633.446Z" fill="#EAEFF7"/>
</g>
<g style="mix-blend-mode:multiply">
<path d="M313.93 831.326C330.39 855.216 328.34 890.976 355.6 873.126C382.86 855.276 413.33 832.616 397.26 814.126C381.19 795.636 383.11 799.766 359.32 789.056C335.53 778.346 315.98 768.056 307.6 797.536C299.22 827.016 313.93 831.326 313.93 831.326Z" fill="#EAEFF7"/>
</g>
<path d="M519.65 924.316H501.71C502.05 923.861 502.479 923.48 502.97 923.196C503.3 923.016 503.62 922.846 503.97 922.626C504.054 922.626 504.135 922.598 504.2 922.546C505.134 922.254 506.122 922.179 507.09 922.326L519.65 924.316Z" fill="white"/>
<path d="M805.5 605.446V650.736L775.93 597.356L770.8 588.076L706.72 472.526L696.52 454.156L652.34 374.446L647.24 365.226L595.81 272.446L590.67 263.196L550.75 191.196L545.56 181.836L496.18 92.8362C495.363 91.3987 494.942 89.7698 494.96 88.1162H518.68L566.74 174.806L571.87 184.046L636.04 299.806L641.17 309.046L716.61 445.116L726.81 463.486L805.5 605.446Z" fill="white"/>
<path d="M805.5 404.926V427.926L726.81 463.446L706.72 472.516L556.04 540.636L545.96 545.156L433.96 595.746L423.96 600.266L411.96 605.686L325.6 644.686L302.76 655.006L214.56 694.876L201.29 700.876L179.93 710.586C179.68 710.706 179.4 710.816 179.12 710.936L135.69 730.576L125.61 735.126L95.04 748.946C93.5055 749.63 91.84 749.972 90.16 749.946V728.146L161.88 695.756L182.56 686.426L298.42 634.066C298.7 633.916 298.98 633.806 299.26 633.686L390.97 592.256L411.12 583.126L461.12 560.526L471.12 556.006L618.58 489.386L628.58 484.846L696.5 454.156L716.59 445.086L805.5 404.926Z" fill="white"/>
<path d="M444.63 924.316H422.3C424.87 865.447 415.5 817.887 400.91 779.997C399.143 775.33 397.28 770.843 395.32 766.536C364.8 697.536 317.73 664.256 302.82 655.056C299.97 653.286 298.3 652.386 298.11 652.296C292.75 649.576 290.75 643.296 293.73 638.296C295.002 636.191 296.937 634.566 299.23 633.676C300.783 633.085 302.441 632.822 304.1 632.904C305.76 632.987 307.384 633.413 308.87 634.156C314.698 637.292 320.305 640.824 325.65 644.727C341.87 656.247 367.31 677.786 390.65 712.176C391.17 712.956 391.65 713.737 392.24 714.507C395.5 719.507 398.81 724.827 402.07 730.507C418.52 759.207 433.76 797.357 440.84 846.087C441.84 852.727 442.66 859.596 443.31 866.666C445.038 885.832 445.479 905.092 444.63 924.316Z" fill="white"/>
<path d="M805.5 237.506V248.256L779.25 257.966L641.17 309.016L630.25 313.016C629.593 313.271 628.894 313.4 628.19 313.396C627.106 313.422 626.037 313.128 625.119 312.55C624.202 311.972 623.475 311.136 623.03 310.146C622.758 309.505 622.623 308.814 622.633 308.118C622.643 307.422 622.799 306.736 623.09 306.103C623.38 305.47 623.8 304.905 624.322 304.444C624.844 303.983 625.456 303.637 626.12 303.426L636.04 299.746L769.36 250.446L779.78 246.596L803.44 237.846C804.1 237.607 804.798 237.492 805.5 237.506Z" fill="white"/>
<path d="M779.93 257.676C779.716 257.785 779.495 257.882 779.27 257.966C778.628 258.195 777.952 258.314 777.27 258.316C776.285 258.325 775.315 258.078 774.455 257.599C773.594 257.121 772.872 256.427 772.36 255.586L769.36 250.486L701.28 133.976L695.93 124.826L675.93 90.5459C675.486 89.8021 675.251 88.9522 675.25 88.0859H687.25L706.37 120.826L711.72 129.986L779.86 246.636L782.24 250.696C782.575 251.3 782.781 251.967 782.846 252.655C782.91 253.343 782.831 254.036 782.614 254.692C782.397 255.348 782.047 255.952 781.585 256.465C781.123 256.979 780.559 257.391 779.93 257.676Z" fill="white"/>
<path d="M412.64 784.196C411.89 784.194 411.147 784.051 410.45 783.776L192.24 697.276C191.582 697.049 190.978 696.688 190.467 696.215C189.957 695.742 189.55 695.167 189.274 694.528C188.999 693.889 188.859 693.199 188.865 692.503C188.872 691.807 189.023 691.12 189.31 690.486C189.964 689.194 191.081 688.197 192.438 687.695C193.796 687.192 195.293 687.221 196.63 687.776L414.84 774.276C415.497 774.502 416.1 774.863 416.609 775.335C417.119 775.808 417.525 776.381 417.801 777.019C418.076 777.657 418.216 778.346 418.211 779.041C418.206 779.736 418.055 780.422 417.77 781.056C417.302 782.013 416.571 782.817 415.662 783.373C414.754 783.929 413.705 784.215 412.64 784.196Z" fill="white"/>
<path d="M307.93 742.796L307.7 743.056L254.85 806.796L194.85 879.216L187.48 888.106L157.48 924.266H143.44L150.71 915.506L179.14 881.196L187.29 871.306L246.52 799.846L297.13 738.846L299.13 736.516C300.069 735.409 301.387 734.693 302.826 734.508C304.266 734.323 305.722 734.683 306.91 735.516C307.488 735.901 307.977 736.404 308.347 736.992C308.716 737.58 308.957 738.24 309.053 738.927C309.15 739.615 309.099 740.315 308.906 740.982C308.712 741.649 308.38 742.267 307.93 742.796Z" fill="white"/>
<path d="M509.86 744.827C508.868 744.841 507.889 744.595 507.022 744.113C506.155 743.63 505.43 742.928 504.92 742.077L418.92 591.297C418.582 590.69 418.374 590.021 418.309 589.33C418.245 588.639 418.324 587.942 418.544 587.283C418.763 586.625 419.116 586.019 419.582 585.505C420.048 584.991 420.616 584.579 421.25 584.297C422.549 583.647 424.044 583.509 425.44 583.909C426.837 584.309 428.032 585.218 428.79 586.457L514.79 737.227C515.128 737.833 515.336 738.503 515.401 739.194C515.465 739.884 515.386 740.581 515.167 741.24C514.947 741.898 514.594 742.504 514.128 743.018C513.662 743.532 513.094 743.944 512.46 744.227C511.651 744.624 510.761 744.83 509.86 744.827Z" fill="white"/>
<path d="M657.65 728.446C656.672 728.459 655.706 728.219 654.848 727.75C653.989 727.28 653.267 726.597 652.75 725.766L540.75 536.346C540.408 535.747 540.194 535.084 540.121 534.399C540.048 533.713 540.117 533.02 540.325 532.363C540.532 531.706 540.874 531.098 541.327 530.579C541.781 530.06 542.337 529.64 542.96 529.346C544.25 528.683 545.742 528.525 547.142 528.905C548.543 529.284 549.751 530.172 550.53 531.396L662.53 720.806C662.872 721.405 663.086 722.068 663.159 722.753C663.232 723.439 663.163 724.132 662.955 724.789C662.748 725.447 662.406 726.054 661.953 726.573C661.499 727.092 660.944 727.512 660.32 727.806C659.494 728.23 658.578 728.449 657.65 728.446Z" fill="white"/>
<path d="M614.84 656.026C613.752 656.045 612.682 655.747 611.76 655.168C610.839 654.589 610.106 653.755 609.65 652.766C609.38 652.123 609.248 651.431 609.262 650.734C609.275 650.037 609.435 649.351 609.729 648.719C610.024 648.087 610.448 647.523 610.973 647.065C611.499 646.606 612.114 646.263 612.78 646.056L781.78 584.056C783.13 583.537 784.627 583.547 785.97 584.085C787.312 584.623 788.402 585.648 789.02 586.957C789.288 587.599 789.419 588.29 789.404 588.986C789.39 589.682 789.23 590.368 788.936 590.998C788.641 591.629 788.218 592.191 787.693 592.649C787.169 593.107 786.555 593.45 785.89 593.656L616.89 655.656C616.234 655.901 615.54 656.026 614.84 656.026Z" fill="white"/>
<path d="M805.5 773.786V784.186C805.238 784.196 804.977 784.175 804.72 784.126L732.97 774.596L721.87 773.116L638.17 761.996L627.06 760.516L509.06 744.806L401.99 730.586L383.81 728.176C382.76 728.053 381.768 727.63 380.952 726.958C380.136 726.286 379.531 725.393 379.21 724.386C378.942 723.386 378.99 722.328 379.348 721.357C379.706 720.387 380.357 719.551 381.21 718.966L390.57 712.266L459.65 662.896L463.37 660.226C464.568 659.396 466.031 659.039 467.477 659.223C468.923 659.408 470.249 660.121 471.2 661.226C471.39 661.459 471.558 661.71 471.7 661.976C472.316 663.047 472.504 664.312 472.226 665.516C471.948 666.72 471.224 667.774 470.2 668.466L464.94 672.236L398.48 719.726L499.73 733.206L513.44 735.026L628.58 750.356L639.72 751.836L723.41 762.956L734.49 764.436L805.5 773.786Z" fill="white"/>
<path d="M788.55 100.286L711.65 129.976L701.26 133.976L571.85 183.976L561.13 188.116L560.71 188.246C560.15 188.466 557.03 189.376 552.09 190.796L550.74 191.186C540.53 194.076 523.8 198.516 505.74 202.106C490.74 205.106 474.74 207.586 460.86 208.016C459.32 208.016 457.86 208.106 456.34 208.106C453.17 208.106 450.1 207.976 447.25 207.716C446.56 207.626 445.81 207.496 445.16 207.416C428.29 204.416 414.16 184.236 403.45 161.316C401.957 158.083 400.513 154.803 399.12 151.476C387.46 123.726 380.61 94.9861 379.22 89.1161C379.124 88.7642 379.077 88.4008 379.08 88.0361H390.4C395.627 110.26 402.802 131.981 411.84 152.946C412.025 153.259 412.166 153.595 412.26 153.946C422.93 177.506 435.6 196.286 448.37 197.446C463.94 198.916 486.26 195.596 506.67 191.366C521.96 188.166 536.12 184.456 545.58 181.866C551.92 180.096 556.12 178.866 557.05 178.546L559.05 177.816L566.78 174.816L695.93 124.836L706.27 120.836L777.48 93.3061C781.46 95.1383 785.181 97.4851 788.55 100.286Z" fill="white"/>
<path d="M471.14 572.666C470.133 572.686 469.138 572.438 468.259 571.945C467.381 571.453 466.649 570.735 466.14 569.866C402.52 455.316 401.61 377.776 463.35 332.796C479.28 321.196 487.83 307.086 488.76 290.886C491.15 249.526 444.36 206.716 443.88 206.286C443.362 205.832 442.945 205.275 442.656 204.65C442.367 204.025 442.213 203.347 442.204 202.658C442.195 201.97 442.33 201.287 442.602 200.654C442.873 200.022 443.275 199.453 443.78 198.986C444.852 198 446.25 197.445 447.706 197.426C449.162 197.408 450.574 197.928 451.67 198.886C453.75 200.766 502.54 245.346 499.91 291.406C498.8 310.726 488.83 327.406 470.25 340.916C413.38 382.356 415.25 455.696 476.07 565.136C476.405 565.747 476.609 566.422 476.669 567.116C476.728 567.811 476.641 568.51 476.415 569.169C476.188 569.829 475.825 570.433 475.351 570.944C474.877 571.455 474.301 571.861 473.66 572.136C472.869 572.495 472.009 572.676 471.14 572.666Z" fill="white"/>
<path d="M426.77 462.706C425.702 462.725 424.651 462.438 423.741 461.88C422.83 461.322 422.098 460.516 421.63 459.556C421.346 458.918 421.199 458.227 421.198 457.529C421.198 456.83 421.343 456.14 421.626 455.501C421.909 454.862 422.322 454.29 422.839 453.82C423.357 453.351 423.967 452.995 424.63 452.776L657.93 361.046C659.271 360.499 660.769 360.477 662.126 360.985C663.482 361.492 664.598 362.493 665.25 363.786C665.534 364.424 665.681 365.115 665.682 365.814C665.682 366.512 665.537 367.203 665.254 367.842C664.971 368.481 664.558 369.053 664.041 369.522C663.523 369.991 662.913 370.347 662.25 370.566L428.93 462.296C428.241 462.565 427.509 462.704 426.77 462.706Z" fill="white"/>
<path d="M605.72 268.566L595.81 272.486L494.87 312.176L492.74 313.016C492.04 313.28 491.298 313.419 490.55 313.426C489.531 313.424 488.53 313.162 487.64 312.666L483.51 310.356L385.02 254.926L374.75 249.156L257.48 183.156L255.7 182.156C254.59 181.571 253.74 180.589 253.32 179.406L251.2 173.606L220.28 89.7562C220.071 89.2208 219.966 88.6507 219.97 88.0762H231.42L262.33 171.956L263.21 174.306L274.44 180.616L387.68 244.336L487.3 300.336L490.99 302.426L498.99 299.296L590.72 263.186L601.43 258.986C602.773 258.447 604.269 258.43 605.624 258.939C606.979 259.448 608.094 260.446 608.75 261.736C609.032 262.38 609.177 263.076 609.175 263.779C609.174 264.482 609.026 265.177 608.741 265.819C608.456 266.462 608.04 267.038 607.52 267.511C607 267.984 606.387 268.343 605.72 268.566Z" fill="white"/>
<path d="M479.11 442.556C478.01 439.239 476.541 436.056 474.73 433.066C465.92 418.256 449.38 407.986 430.18 406.866C429.06 406.866 427.95 406.776 426.83 406.776C425.942 406.761 425.055 406.791 424.17 406.866C422.375 406.913 420.585 407.073 418.81 407.346C397.33 410.276 379.95 424.736 374.12 443.726C372.768 448.19 372.094 452.832 372.12 457.496C372.122 460.892 372.484 464.277 373.2 467.596C378.27 490.726 400.46 508.246 426.93 508.246C430.113 508.251 433.29 507.99 436.43 507.466C438.221 507.184 439.997 506.81 441.75 506.346C443.599 505.878 445.419 505.301 447.2 504.616C467.38 497.156 481.73 478.816 481.73 457.496C481.692 452.405 480.806 447.356 479.11 442.556ZM443.41 494.906C441.633 495.598 439.808 496.16 437.95 496.586C436.191 497.038 434.404 497.372 432.6 497.586C430.684 497.843 428.753 497.97 426.82 497.966C402.72 497.966 383.15 479.846 383.15 457.536C383.15 438.026 398.06 421.796 417.92 417.956C419.661 417.617 421.421 417.387 423.19 417.266C424.35 417.186 425.57 417.136 426.78 417.136C427.57 417.136 428.36 417.136 429.15 417.136C444.15 417.906 457.21 425.716 464.38 437.066C466.306 440.011 467.782 443.226 468.76 446.606C469.854 450.129 470.407 453.797 470.4 457.486C470.4 474.366 459.21 488.816 443.41 494.906Z" fill="white"/>
<path d="M680.8 712.586C673.691 712.576 666.644 713.895 660.02 716.476C658.3 717.166 656.62 717.896 655.02 718.716C653.383 719.532 651.794 720.44 650.26 721.436C639.764 728.063 632.081 738.328 628.68 750.266C628.252 751.824 627.918 753.407 627.68 755.006C627.373 756.818 627.186 758.649 627.12 760.486C627.042 761.15 627.012 761.818 627.03 762.486C627.03 789.926 651.21 812.326 680.85 812.326C705.97 812.326 727.13 796.326 733.05 774.656V774.606C733.939 771.267 734.452 767.839 734.58 764.386C734.63 763.736 734.63 763.126 734.63 762.486C734.58 734.946 710.49 712.586 680.8 712.586ZM721.86 773.096C716.86 789.706 700.33 801.926 680.8 801.926C657.27 801.926 638.16 784.186 638.16 762.436V761.956C638.235 758.491 638.77 755.051 639.75 751.726C641.403 746.552 644.076 741.762 647.613 737.64C651.15 733.517 655.477 730.146 660.34 727.726C666.688 724.537 673.696 722.883 680.8 722.896C704.34 722.896 723.44 740.636 723.44 762.386V762.816C723.442 766.303 722.909 769.77 721.86 773.096Z" fill="white"/>
<path d="M628.2 501.696C627.157 501.717 626.129 501.447 625.23 500.918C624.331 500.388 623.597 499.619 623.11 498.696L574.55 399.606C574.251 398.979 574.086 398.297 574.066 397.602C574.046 396.908 574.17 396.217 574.432 395.574C574.693 394.93 575.086 394.348 575.585 393.865C576.084 393.381 576.678 393.007 577.33 392.766C578.658 392.189 580.155 392.132 581.522 392.608C582.89 393.085 584.028 394.059 584.71 395.336L633.27 494.426C633.569 495.053 633.734 495.735 633.755 496.429C633.776 497.123 633.652 497.813 633.392 498.457C633.131 499.1 632.74 499.682 632.242 500.166C631.744 500.65 631.151 501.024 630.5 501.266C629.77 501.564 628.988 501.71 628.2 501.696Z" fill="white"/>
<path d="M778.43 919.446C771.506 922.693 763.947 924.36 756.3 924.326H753.83C726.89 897.219 688.333 878.532 638.16 868.266C634.53 867.526 630.8 866.836 626.98 866.146C618.12 864.636 608.98 863.346 599.48 862.306C590.35 861.306 581.26 860.576 572.36 860.146C566.07 859.806 559.87 859.546 553.77 859.456C549.99 859.376 546.22 859.326 542.54 859.326C540.21 859.326 537.93 859.326 535.69 859.376C504.769 859.712 473.907 862.161 443.32 866.706C437.32 867.706 433.82 868.266 433.68 868.306C427.68 869.466 421.75 865.886 420.49 860.306C419.23 854.726 423.1 849.306 429.16 848.096C429.86 847.966 433.96 847.186 440.85 846.156C468.878 841.94 497.144 839.502 525.48 838.856C534.71 838.596 544.4 838.556 554.33 838.776C569.71 839.116 585.78 840.026 602.1 841.776C682.01 850.446 741.57 876.926 778.43 919.446Z" fill="white"/>
<path d="M329.38 912.746L375.65 924.316H332.78L327.52 923.016L187.52 888.106L183.94 887.196C183.079 886.997 182.28 886.591 181.612 886.012C180.944 885.434 180.429 884.7 180.11 883.876L179.11 881.246L155.29 816.246L125.51 735.066L121.69 724.626C121.463 723.966 121.375 723.267 121.431 722.572C121.486 721.876 121.684 721.2 122.012 720.584C122.341 719.969 122.792 719.428 123.339 718.994C123.886 718.561 124.516 718.245 125.19 718.066C126.56 717.602 128.054 717.678 129.37 718.278C130.686 718.878 131.723 719.957 132.27 721.296L135.67 730.536L164.99 810.536L187.26 871.336L189.68 877.896L194.86 879.196L329.38 912.746Z" fill="white"/>
<path d="M547.48 892.376C544.625 898.962 540.825 905.097 536.2 910.586C531.823 915.771 526.81 920.384 521.28 924.316C521.215 924.413 521.12 924.487 521.01 924.526L519.65 924.316H500.73C501.48 923.926 502.22 923.576 502.97 923.196C503.3 923.016 503.62 922.846 503.97 922.626C504.054 922.627 504.135 922.598 504.2 922.546C513.022 918.044 520.876 911.858 527.32 904.336C534.672 895.589 539.56 885.04 541.48 873.776C542.297 869.002 542.632 864.158 542.48 859.316C542.421 856.205 542.123 853.102 541.59 850.036C541.457 849.354 541.463 848.652 541.609 847.972C541.754 847.292 542.036 846.648 542.437 846.08C542.837 845.512 543.349 845.031 543.941 844.666C544.533 844.301 545.192 844.06 545.88 843.956C547.287 843.633 548.764 843.87 549.999 844.617C551.235 845.363 552.132 846.561 552.5 847.956C553.287 851.746 553.692 855.606 553.71 859.476C554.037 870.765 551.911 881.989 547.48 892.376Z" fill="white"/>
<path d="M638.16 856.646V924.317H626.98V856.646C627.099 855.246 627.739 853.94 628.774 852.989C629.809 852.038 631.164 851.51 632.57 851.51C633.976 851.51 635.331 852.038 636.366 852.989C637.401 853.94 638.041 855.246 638.16 856.646Z" fill="white"/>
<path d="M407.86 160.666L403.44 161.336L274.44 180.626L257.52 183.146L187.44 193.636L175.2 195.446L116.75 204.196L105.64 205.846L91 208.046C90.7079 208.081 90.4142 208.101 90.12 208.106V197.696L109.05 194.886L251.2 173.616L262.33 171.966L399.1 151.506L406.1 150.506C407.513 150.259 408.966 150.567 410.157 151.367C411.348 152.166 412.184 153.395 412.49 154.796C412.582 155.487 412.534 156.19 412.35 156.862C412.165 157.534 411.848 158.163 411.416 158.71C410.984 159.257 410.447 159.713 409.836 160.049C409.225 160.385 408.554 160.595 407.86 160.666Z" fill="white"/>
<path d="M174.81 711.726C172.508 711.773 170.249 711.104 168.344 709.811C166.439 708.517 164.984 706.663 164.18 704.506C163.78 703.336 125.45 586.706 244.32 541.766C363.19 496.826 416.38 590.866 416.91 591.766C419.7 596.856 417.51 603.076 412.01 605.666C406.51 608.256 399.8 606.216 397.01 601.126C395.24 597.956 352.29 523.226 252.75 560.856C210.82 576.706 186.75 604.466 181.22 643.356C178.751 661.736 180.193 680.431 185.45 698.216C187.31 703.656 184.06 709.466 178.18 711.216C177.087 711.547 175.952 711.719 174.81 711.726Z" fill="white"/>
<path d="M258.61 552.996C257.797 553.004 256.992 552.839 256.248 552.513C255.503 552.188 254.836 551.708 254.29 551.106C253.827 550.594 253.477 549.99 253.264 549.334C253.05 548.677 252.978 547.983 253.052 547.296C253.126 546.61 253.343 545.947 253.691 545.351C254.039 544.754 254.509 544.238 255.07 543.836L370.07 456.556L173.2 192.776C172.786 192.224 172.492 191.591 172.339 190.918C172.186 190.245 172.176 189.547 172.31 188.87C172.443 188.192 172.718 187.551 173.116 186.987C173.514 186.423 174.027 185.949 174.62 185.596C175.845 184.812 177.318 184.513 178.753 184.755C180.187 184.997 181.48 185.764 182.38 186.906L382.13 454.596C382.525 455.116 382.812 455.708 382.976 456.34C383.14 456.972 383.176 457.63 383.083 458.275C382.99 458.921 382.769 459.542 382.434 460.102C382.099 460.662 381.655 461.149 381.13 461.536L262.19 551.826C261.157 552.597 259.899 553.008 258.61 552.996Z" fill="white"/>
<path d="M277.67 328.856C276.827 328.87 275.991 328.699 275.222 328.353C274.452 328.007 273.769 327.496 273.22 326.856C272.78 326.323 272.457 325.705 272.272 325.04C272.087 324.374 272.044 323.678 272.146 322.995C272.248 322.312 272.492 321.658 272.863 321.076C273.234 320.494 273.724 319.996 274.3 319.616L381.3 244.616C382.496 243.784 383.958 243.426 385.402 243.611C386.847 243.796 388.172 244.51 389.12 245.616C389.559 246.148 389.882 246.766 390.066 247.431C390.25 248.096 390.292 248.792 390.189 249.474C390.086 250.156 389.841 250.809 389.469 251.39C389.097 251.971 388.607 252.467 388.03 252.846L281.03 327.846C280.04 328.519 278.867 328.872 277.67 328.856Z" fill="white"/>
<path d="M172.93 257.017C160.39 257.017 149.16 254.427 139.31 249.247C110.31 234.007 104.63 202.137 104.4 200.787C104.308 200.092 104.356 199.385 104.542 198.709C104.728 198.033 105.048 197.401 105.483 196.851C105.917 196.301 106.458 195.844 107.072 195.506C107.687 195.169 108.363 194.958 109.06 194.887C110.471 194.638 111.923 194.947 113.11 195.75C114.297 196.552 115.125 197.785 115.42 199.187C115.48 199.507 120.6 227.597 144.9 240.307C162.54 249.537 186.17 248.737 215.13 237.907C216.478 237.378 217.975 237.379 219.322 237.91C220.669 238.44 221.765 239.461 222.39 240.767C222.662 241.407 222.798 242.097 222.788 242.793C222.779 243.488 222.624 244.174 222.334 244.807C222.044 245.439 221.626 246.004 221.105 246.466C220.584 246.927 219.973 247.275 219.31 247.487C202.33 253.84 186.87 257.017 172.93 257.017Z" fill="white"/>
<path d="M242.93 280.506L239.23 281.316L186.08 292.796L175.16 295.166L147.25 301.166L136.25 303.516L91.25 313.246C90.8427 313.355 90.4217 313.406 90 313.396V302.936L138.81 292.446C138.93 292.446 139.03 292.446 139.12 292.386L232.45 272.226L240.45 270.486C241.559 270.22 242.721 270.29 243.79 270.687C244.858 271.084 245.784 271.79 246.45 272.716C246.789 273.21 247.043 273.757 247.2 274.336C247.346 275.023 247.349 275.733 247.211 276.422C247.072 277.11 246.795 277.763 246.395 278.341C245.995 278.919 245.482 279.409 244.886 279.781C244.29 280.153 243.624 280.4 242.93 280.506Z" fill="white"/>
<path d="M284.18 423.056C273.04 423.056 264.07 409.766 255.35 396.836C247.94 385.836 238.71 372.196 232.01 373.836C207.51 379.836 181.88 313.836 174.61 293.506C174.39 292.845 174.309 292.146 174.371 291.452C174.432 290.758 174.636 290.084 174.969 289.472C175.302 288.859 175.757 288.322 176.306 287.893C176.854 287.464 177.486 287.152 178.16 286.976C179.525 286.544 181.004 286.641 182.301 287.248C183.598 287.856 184.619 288.93 185.16 290.256C199.91 331.586 220.46 365.936 229.1 363.856C243.77 360.256 254.44 376.076 264.76 391.376C271.36 401.156 280.41 414.576 285.55 412.376C304.25 404.466 327.98 391.116 328.21 390.986C329.474 390.269 330.959 390.048 332.377 390.366C333.795 390.684 335.043 391.518 335.88 392.706C336.251 393.287 336.497 393.939 336.604 394.62C336.711 395.301 336.676 395.996 336.502 396.663C336.327 397.33 336.016 397.953 335.589 398.494C335.162 399.035 334.628 399.482 334.02 399.806C333.02 400.366 309.5 413.606 290.19 421.806C288.291 422.624 286.247 423.049 284.18 423.056Z" fill="white"/>
<path d="M175.76 627.196L161.43 629.446L91.06 640.656C90.7503 640.716 90.4355 640.747 90.12 640.746V630.346L164.53 618.466L173.88 616.956C175.292 616.703 176.748 617 177.947 617.787C179.147 618.574 180 619.79 180.33 621.186C180.435 621.883 180.4 622.593 180.226 623.275C180.052 623.957 179.743 624.598 179.316 625.158C178.89 625.719 178.356 626.188 177.745 626.538C177.134 626.888 176.459 627.112 175.76 627.196Z" fill="white"/>
<path d="M193.09 597.266C192.137 597.905 191.018 598.252 189.87 598.266C188.989 598.275 188.119 598.08 187.326 597.696C186.533 597.313 185.84 596.751 185.3 596.056L179.64 588.666L122.73 514.046C122.515 513.827 122.324 513.585 122.16 513.326L90.16 471.326V457.226C91.0347 457.22 91.899 457.416 92.6862 457.797C93.4733 458.178 94.1623 458.736 94.7 459.426L124.93 499.036L133 509.616L186.63 579.856L194.42 590.076C194.84 590.623 195.14 591.251 195.301 591.922C195.462 592.592 195.481 593.289 195.355 593.967C195.23 594.645 194.964 595.289 194.573 595.857C194.183 596.425 193.678 596.905 193.09 597.266Z" fill="white"/>
<path d="M236.52 561.586C235.391 561.61 234.281 561.29 233.338 560.668C232.395 560.047 231.664 559.153 231.24 558.106L134.71 299.106C134.483 298.449 134.392 297.753 134.444 297.059C134.497 296.366 134.69 295.691 135.014 295.075C135.337 294.459 135.783 293.917 136.324 293.48C136.865 293.043 137.49 292.722 138.16 292.536C139.529 292.07 141.023 292.141 142.342 292.735C143.66 293.329 144.703 294.402 145.26 295.736L241.79 554.676C242.019 555.333 242.111 556.03 242.059 556.724C242.008 557.418 241.814 558.094 241.491 558.71C241.167 559.326 240.721 559.869 240.179 560.305C239.637 560.742 239.011 561.062 238.34 561.246C237.755 561.456 237.141 561.571 236.52 561.586Z" fill="white"/>
<path d="M127 515.876C126.702 515.877 126.404 515.854 126.11 515.806C125.415 515.732 124.741 515.52 124.13 515.181C123.518 514.842 122.98 514.384 122.549 513.834C122.117 513.284 121.8 512.653 121.616 511.978C121.433 511.304 121.387 510.599 121.48 509.906C121.66 508.906 125.92 485.246 147.83 471.906C163.08 462.656 182.74 460.836 206.28 466.496C206.965 466.631 207.615 466.904 208.191 467.298C208.767 467.692 209.257 468.199 209.631 468.788C210.005 469.378 210.256 470.037 210.367 470.726C210.479 471.415 210.449 472.119 210.28 472.796C209.833 474.166 208.878 475.313 207.611 476.001C206.345 476.689 204.863 476.866 203.47 476.496C183.16 471.626 166.53 472.956 154.04 480.496C136.27 491.216 132.54 511.296 132.5 511.496C132.244 512.756 131.553 513.886 130.547 514.687C129.541 515.488 128.285 515.909 127 515.876Z" fill="white"/>
<path d="M174.07 390.036L169.07 391.276L91.56 410.446C91.0879 410.557 90.6049 410.614 90.12 410.616V400.116L165.4 381.446L171.19 379.996C172.436 379.674 173.755 379.778 174.935 380.293C176.115 380.808 177.088 381.703 177.7 382.836C177.821 383.109 177.925 383.389 178.01 383.676C178.193 384.353 178.236 385.061 178.134 385.755C178.033 386.449 177.79 387.115 177.421 387.711C177.051 388.308 176.563 388.822 175.987 389.221C175.41 389.621 174.758 389.899 174.07 390.036Z" fill="white"/>
<path d="M445.997 377.196C445.997 395.476 420.129 429.872 408.512 444.389C407.852 445.214 407.012 445.881 406.055 446.34C405.099 446.798 404.05 447.036 402.987 447.036C401.925 447.036 400.876 446.798 399.919 446.34C398.963 445.881 398.123 445.214 397.462 444.389C385.858 429.846 360.003 395.476 360.003 377.196C359.934 371.553 360.995 365.953 363.125 360.72C365.254 355.486 368.41 350.724 372.41 346.71C376.409 342.695 381.173 339.507 386.424 337.332C391.675 335.156 397.309 334.036 403 334.036C408.691 334.036 414.325 335.156 419.576 337.332C424.827 339.507 429.591 342.695 433.59 346.71C437.59 350.724 440.746 355.486 442.875 360.72C445.005 365.953 446.066 371.553 445.997 377.196Z" fill="#12B7B6"/>
<path d="M403 401.036C398.055 401.036 393.222 399.541 389.111 396.739C385 393.937 381.795 389.954 379.903 385.295C378.011 380.635 377.516 375.508 378.48 370.561C379.445 365.615 381.826 361.071 385.322 357.505C388.819 353.939 393.273 351.51 398.123 350.526C402.972 349.542 407.999 350.047 412.567 351.977C417.135 353.907 421.04 357.176 423.787 361.369C426.534 365.563 428 370.493 428 375.536C427.993 382.297 425.357 388.779 420.67 393.56C415.983 398.341 409.628 401.029 403 401.036ZM403 353.014C398.633 353.014 394.364 354.335 390.733 356.81C387.102 359.285 384.272 362.802 382.601 366.917C380.929 371.033 380.492 375.561 381.344 379.93C382.196 384.299 384.299 388.312 387.387 391.461C390.475 394.611 394.409 396.756 398.692 397.625C402.975 398.494 407.415 398.048 411.45 396.344C415.484 394.639 418.933 391.752 421.359 388.049C423.785 384.345 425.08 379.991 425.08 375.536C425.074 369.565 422.745 363.84 418.606 359.618C414.466 355.396 408.854 353.021 403 353.014Z" fill="white"/>
<defs>
<filter id="filter0_dd_28_2053" x="0" y="0.0361328" width="895" height="1012" filterUnits="userSpaceOnUse" color-interpolation-filters="sRGB">
<feFlood flood-opacity="0" result="BackgroundImageFix"/>
<feColorMatrix in="SourceAlpha" type="matrix" values="0 0 0 0 0 0 0 0 0 0 0 0 0 0 0 0 0 0 127 0" result="hardAlpha"/>
<feOffset dx="20" dy="20"/>
<feGaussianBlur stdDeviation="25"/>
<feColorMatrix type="matrix" values="0 0 0 0 0.823529 0 0 0 0 0.823529 0 0 0 0 0.823529 0 0 0 1 0"/>
<feBlend mode="normal" in2="BackgroundImageFix" result="effect1_dropShadow_28_2053"/>
<feColorMatrix in="SourceAlpha" type="matrix" values="0 0 0 0 0 0 0 0 0 0 0 0 0 0 0 0 0 0 127 0" result="hardAlpha"/>
<feOffset dx="-20" dy="-20"/>
<feGaussianBlur stdDeviation="25"/>
<feColorMatrix type="matrix" values="0 0 0 0 1 0 0 0 0 1 0 0 0 0 1 0 0 0 1 0"/>
<feBlend mode="normal" in2="effect1_dropShadow_28_2053" result="effect2_dropShadow_28_2053"/>
<feBlend mode="normal" in="SourceGraphic" in2="effect2_dropShadow_28_2053" result="shape"/>
</filter>
</defs>
</svg>
