<svg width="144" height="145" viewBox="0 0 144 145" fill="none" xmlns="http://www.w3.org/2000/svg">
<g filter="url(#filter0_ii_221_9)">
<rect y="0.0361328" width="144" height="144" rx="72" fill="#EDEDED"/>
</g>
<path d="M106.3 68.7947C105.758 68.2603 105.114 67.8441 104.408 67.5714L105.483 66.4792C105.988 65.9678 106.388 65.3601 106.662 64.691C106.935 64.0219 107.076 63.3046 107.076 62.5801C107.076 61.8556 106.935 61.1382 106.662 60.4691C106.388 59.8 105.988 59.1923 105.483 58.6809C104.93 58.1284 104.261 57.7102 103.527 57.4576L104.731 56.2562C105.748 55.2221 106.32 53.8195 106.32 52.357C106.32 50.8946 105.748 49.492 104.731 48.4579C103.713 47.4238 102.333 46.8428 100.894 46.8428C99.4554 46.8428 98.0754 47.4238 97.0579 48.4579L90.6103 55.0111C90.2018 54.0388 89.6021 53.1616 88.8479 52.4335C88.1549 51.7351 87.3329 51.1826 86.4294 50.8078C85.5258 50.4329 84.5582 50.2431 83.5823 50.2491H78.3597C78.9185 49.7248 79.5203 49.2224 80.1006 48.6982C81.9919 47.0162 83.7757 45.4434 84.6139 44.5915C87.5584 41.7081 90.4813 38.0383 89.6216 33.2544C89.1549 30.6922 87.8291 28.3736 85.8698 26.6929C83.9106 25.0123 81.439 24.0735 78.8755 24.0362H78.7466C76.8907 24.0674 75.0727 24.5742 73.4609 25.5098C71.8491 26.4453 70.4958 27.7793 69.5264 29.388C68.5663 27.7902 67.2269 26.4629 65.631 25.5279C64.0351 24.5928 62.2338 24.0799 60.3922 24.0362C57.8009 24.0256 55.2866 24.9305 53.2793 26.5961C51.272 28.2617 49.8965 30.5845 49.3882 33.167C48.4856 38.082 51.3655 41.5115 54.3744 44.5915C56.8675 47.1036 64.6047 54.3121 67.2697 56.846L56.5236 67.768C53.8327 70.4927 51.4929 73.5535 49.5602 76.877C48.9595 78.3892 48.2408 79.8501 47.4109 81.2458L47.0671 80.9182C46.7648 80.6114 46.3551 80.439 45.928 80.439C45.5008 80.439 45.0911 80.6114 44.7889 80.9182L36.4714 89.3281C36.1695 89.6353 36 90.0517 36 90.4858C36 90.92 36.1695 91.3364 36.4714 91.6436L62.9928 118.555C63.1409 118.71 63.3182 118.832 63.5139 118.914C63.7097 118.997 63.9199 119.038 64.1319 119.036C64.3437 119.037 64.5535 118.995 64.7491 118.913C64.9447 118.83 65.1221 118.709 65.271 118.555L73.5454 110.146C73.8473 109.838 74.0169 109.422 74.0169 108.988C74.0169 108.554 73.8473 108.137 73.5454 107.83L72.9222 107.175C74.3423 106.115 75.8528 105.187 77.4356 104.4C79.4939 103.389 81.3688 102.03 82.9805 100.381L106.407 76.5712C106.912 76.0598 107.313 75.4521 107.586 74.783C107.859 74.1139 108 73.3965 108 72.672C108 71.9475 107.859 71.2301 107.586 70.561C107.313 69.8919 106.912 69.2843 106.407 68.7729L106.3 68.7947ZM56.5236 42.276C53.9231 39.611 51.8168 37.1208 52.4401 33.7787C52.76 31.9573 53.6949 30.3063 55.0836 29.1102C56.4724 27.914 58.2281 27.2475 60.0483 27.2255H60.1988C62.2211 27.2765 64.1443 28.1262 65.5606 29.5943C66.977 31.0623 67.775 33.0333 67.7855 35.0893C67.7855 35.5238 67.9554 35.9405 68.2577 36.2478C68.5599 36.555 68.97 36.7276 69.3975 36.7276C69.825 36.7276 70.235 36.555 70.5373 36.2478C70.8396 35.9405 71.0094 35.5238 71.0094 35.0893C71.0203 33.0222 71.8273 31.0416 73.2574 29.5718C74.6875 28.1019 76.627 27.2597 78.6606 27.2255C80.4857 27.2382 82.2486 27.9009 83.6427 29.0982C85.0367 30.2956 85.9736 31.9518 86.2903 33.7787C86.8491 36.9024 85.0653 39.4144 82.2283 42.2105C81.4331 42.975 79.6707 44.5478 77.8224 46.1861C75.9741 47.8244 74.2547 49.3535 72.9652 50.5549C71.8281 50.8731 70.7868 51.4736 69.9348 52.3024C69.4721 52.7589 69.0678 53.2726 68.7312 53.8315C65.6793 50.9918 58.8018 44.5915 56.5236 42.276ZM64.0459 115.104L39.8027 90.5077L45.842 84.4132L70.0422 109.01L64.0459 115.104ZM104.15 74.2776L80.7239 98.0876C79.3653 99.4719 77.789 100.616 76.06 101.473C74.1419 102.417 72.3205 103.551 70.6225 104.859L49.7536 83.6487C50.8585 81.9225 51.8149 80.1027 52.6121 78.2095C54.3779 75.2563 56.4847 72.5283 58.8878 70.0835L68.7527 60.0352C68.8837 60.2407 69.0273 60.4377 69.1825 60.625C69.619 61.7263 69.7294 62.9331 69.5003 64.0973C69.2713 65.2615 68.7126 66.3323 67.893 67.1782L63.0787 72.0495C62.8188 72.352 62.6755 72.74 62.6755 73.1417C62.6755 73.5433 62.8188 73.9314 63.0787 74.2339L69.0536 80.9182C70.4239 82.4604 71.1591 84.4786 71.1071 86.556C71.0551 88.6334 70.2199 90.6111 68.7742 92.0805C68.4723 92.3876 68.3028 92.804 68.3028 93.2382C68.3028 93.6723 68.4723 94.0888 68.7742 94.396C69.0764 94.7028 69.4861 94.8751 69.9133 94.8751C70.3404 94.8751 70.7501 94.7028 71.0524 94.396C73.0844 92.3313 74.2577 89.5518 74.3297 86.6325C74.4017 83.7132 73.3669 80.8774 71.4392 78.7119L66.496 73.1854L70.2142 69.4063C71.9265 67.6686 72.8924 65.3125 72.9007 62.8531C72.9007 62.6347 72.9007 62.4381 72.9007 62.2196H73.524H80.5089C80.9364 62.2196 81.3464 62.047 81.6487 61.7398C81.951 61.4325 82.1208 61.0158 82.1208 60.5813C82.1208 60.1468 81.951 59.7301 81.6487 59.4229C81.3464 59.1156 80.9364 58.943 80.5089 58.943H72.9222C72.7168 58.9892 72.5039 58.9876 72.2992 58.9385C72.0945 58.8893 71.9034 58.7938 71.7401 58.6591C71.5535 58.2688 71.3454 57.8896 71.1168 57.5232C71.0948 57.3711 71.0948 57.2165 71.1168 57.0644C71.157 56.5913 71.2899 56.1311 71.5076 55.7109C71.7254 55.2908 72.0237 54.9192 72.3849 54.6179C73.2026 53.8507 74.2812 53.4357 75.3938 53.4602H83.7972C84.9098 53.4357 85.9884 53.8507 86.8061 54.6179C87.1711 54.9157 87.4719 55.2865 87.69 55.7074C87.9082 56.1282 88.0389 56.5901 88.0742 57.0644C88.0537 57.2313 88.0537 57.4 88.0742 57.5669L75.8236 70.018C75.5218 70.3252 75.3522 70.7416 75.3522 71.1757C75.3522 71.6099 75.5218 72.0263 75.8236 72.3334C76.1322 72.6364 76.5444 72.8057 76.9734 72.8057C77.4025 72.8057 77.8147 72.6364 78.1233 72.3334L99.3791 50.7078C99.6746 50.3653 100.068 50.1253 100.504 50.0213C100.941 49.9174 101.398 49.9547 101.813 50.128C102.227 50.3013 102.578 50.602 102.816 50.988C103.054 51.3739 103.167 51.8259 103.14 52.2806C103.145 52.5769 103.09 52.8712 102.979 53.1453C102.868 53.4194 102.704 53.6678 102.495 53.8752L81.2182 75.479C80.9163 75.7862 80.7468 76.2026 80.7468 76.6367C80.7468 77.0709 80.9163 77.4873 81.2182 77.7945C81.3664 77.949 81.5435 78.0719 81.7391 78.1557C81.9347 78.2396 82.1449 78.2828 82.3573 78.2828C82.5696 78.2828 82.7798 78.2396 82.9754 78.1557C83.171 78.0719 83.3482 77.949 83.4963 77.7945L100.11 60.909C100.523 60.489 101.084 60.253 101.668 60.253C102.252 60.253 102.813 60.489 103.226 60.909C103.639 61.329 103.872 61.8987 103.872 62.4927C103.872 63.0867 103.639 63.6564 103.226 64.0764L86.6127 80.9618C86.4606 81.1124 86.3398 81.2925 86.2572 81.4913C86.1747 81.6902 86.1322 81.9038 86.1322 82.1196C86.1322 82.3354 86.1747 82.549 86.2572 82.7478C86.3398 82.9467 86.4606 83.1267 86.6127 83.2773C86.7592 83.4336 86.9362 83.557 87.1324 83.6398C87.3285 83.7225 87.5395 83.7627 87.7518 83.7579C87.9636 83.7589 88.1734 83.7169 88.369 83.6344C88.5647 83.5519 88.7421 83.4305 88.8909 83.2773L100.927 71.0228C101.127 70.808 101.369 70.6369 101.637 70.5201C101.905 70.4032 102.193 70.3429 102.485 70.3429C102.776 70.3429 103.065 70.4032 103.333 70.5201C103.6 70.6369 103.842 70.808 104.043 71.0228C104.251 71.2302 104.416 71.4786 104.527 71.7527C104.637 72.0269 104.692 72.3211 104.688 72.6174C104.715 72.9168 104.682 73.2188 104.589 73.5045C104.497 73.7901 104.348 74.0533 104.15 74.2776Z" fill="#323232"/>
<defs>
<filter id="filter0_ii_221_9" x="-20" y="-19.9639" width="184" height="184" filterUnits="userSpaceOnUse" color-interpolation-filters="sRGB">
<feFlood flood-opacity="0" result="BackgroundImageFix"/>
<feBlend mode="normal" in="SourceGraphic" in2="BackgroundImageFix" result="shape"/>
<feColorMatrix in="SourceAlpha" type="matrix" values="0 0 0 0 0 0 0 0 0 0 0 0 0 0 0 0 0 0 127 0" result="hardAlpha"/>
<feOffset dx="20" dy="20"/>
<feGaussianBlur stdDeviation="25"/>
<feComposite in2="hardAlpha" operator="arithmetic" k2="-1" k3="1"/>
<feColorMatrix type="matrix" values="0 0 0 0 0.804167 0 0 0 0 0.804167 0 0 0 0 0.804167 0 0 0 1 0"/>
<feBlend mode="normal" in2="shape" result="effect1_innerShadow_221_9"/>
<feColorMatrix in="SourceAlpha" type="matrix" values="0 0 0 0 0 0 0 0 0 0 0 0 0 0 0 0 0 0 127 0" result="hardAlpha"/>
<feOffset dx="-20" dy="-20"/>
<feGaussianBlur stdDeviation="25"/>
<feComposite in2="hardAlpha" operator="arithmetic" k2="-1" k3="1"/>
<feColorMatrix type="matrix" values="0 0 0 0 1 0 0 0 0 1 0 0 0 0 1 0 0 0 1 0"/>
<feBlend mode="normal" in2="effect1_innerShadow_221_9" result="effect2_innerShadow_221_9"/>
</filter>
</defs>
</svg>
