<svg width="82" height="76" viewBox="0 0 82 76" fill="none" xmlns="http://www.w3.org/2000/svg">
<path d="M81.7339 49.5995C81.2433 48.4844 80.3846 47.5785 79.3064 47.0384C78.2282 46.4984 76.9981 46.358 75.8288 46.6417L61.1284 49.8319C60.8012 48.2963 59.967 46.9205 58.7643 45.9329C57.5616 44.9453 56.0627 44.4052 54.5164 44.4023H41.521L40.1695 43.3671C36.4657 40.6057 32.121 38.8662 27.5588 38.3183C22.9966 37.7703 18.3725 38.4325 14.1371 40.2403L9.81223 42.184L9.18845 41.0009C9.08404 40.807 8.94086 40.6374 8.76811 40.5031C8.59536 40.3688 8.39687 40.2726 8.18538 40.2209C7.97389 40.1692 7.75409 40.163 7.5401 40.2027C7.32611 40.2424 7.12267 40.3272 6.94285 40.4516L0.705057 44.6769C0.372594 44.8982 0.135811 45.24 0.0430646 45.6327C-0.049682 46.0253 0.00861095 46.4392 0.206038 46.7896L14.7609 74.2544C14.8646 74.448 15.0069 74.6176 15.1787 74.7522C15.3506 74.8868 15.5482 74.9835 15.7589 75.036H16.1332C16.4454 75.0393 16.7507 74.9432 17.0065 74.7614L23.2443 70.5361C23.4526 70.3902 23.6224 70.1943 23.7384 69.9658C23.8545 69.7373 23.9133 69.4833 23.9096 69.2262L25.2196 69.6276C28.3638 70.4481 31.6005 70.8458 34.8466 70.8107C40.1856 70.841 45.4895 69.9332 50.5242 68.1276L79.0309 55.9375C80.1736 55.4083 81.0824 54.4673 81.5817 53.2965C82.081 52.1258 82.1353 50.8085 81.7339 49.5995ZM16.6114 71.1699L3.57444 46.515L7.21315 44.0431L20.2085 68.698L16.6114 71.1699ZM77.617 53.0854L49.3182 65.191C44.6423 66.8559 39.7179 67.685 34.7634 67.6417C31.7911 67.674 28.8273 67.3118 25.9473 66.5642L22.7245 65.5924C22.5185 65.5508 22.3066 65.5508 22.1007 65.5924L11.2053 45.0572L15.3639 43.2192C19.0843 41.6272 23.1476 41.0434 27.1566 41.5248C31.1656 42.0062 34.9831 43.5363 38.2358 45.9657L40.0031 47.3178C40.2724 47.5249 40.6011 47.6362 40.9388 47.6347H54.454C55.4191 47.6347 56.3446 48.0242 57.027 48.7176C57.7094 49.4109 58.0927 50.3513 58.0927 51.3318C58.0927 52.3124 57.7094 53.2528 57.027 53.9462C56.3446 54.6395 55.4191 55.029 54.454 55.029H34.7634C34.3498 55.029 33.9531 55.196 33.6607 55.4931C33.3682 55.7903 33.2039 56.1933 33.2039 56.6135C33.2039 57.0338 33.3682 57.4368 33.6607 57.7339C33.9531 58.0311 34.3498 58.198 34.7634 58.198H54.5164C55.9901 58.1963 57.4227 57.7036 58.5944 56.7954C59.7662 55.8872 60.6125 54.6136 61.0037 53.1699L76.515 49.8107C76.9665 49.6939 77.4435 49.7345 77.8696 49.926C78.2956 50.1176 78.646 50.449 78.8646 50.8671C79.2388 51.7544 78.22 52.7473 77.617 53.0854ZM44.0369 34.4093C44.1815 34.5639 44.3558 34.6867 44.5489 34.7702C44.742 34.8538 44.9498 34.8963 45.1597 34.8952C45.3698 34.8976 45.578 34.8556 45.7713 34.772C45.9646 34.6884 46.1386 34.5649 46.2825 34.4093C46.3865 34.3037 55.4313 24.6488 58.7581 20.846C61.3988 17.9093 63.8731 14.2967 63.2285 9.4164C62.9533 6.91321 61.8067 4.59234 59.9958 2.87235C58.1848 1.15237 55.8286 0.146495 53.352 0.0361328C51.6558 0.109298 50.0077 0.631159 48.5709 1.5501C47.134 2.46903 45.9582 3.7532 45.1597 5.27556C44.3682 3.76081 43.2025 2.48131 41.7771 1.56272C40.3518 0.644124 38.7158 0.118038 37.0298 0.0361328C34.5555 0.134519 32.1969 1.12703 30.3787 2.83503C28.5605 4.54304 27.402 6.85437 27.1117 9.35302C26.3216 14.2544 28.8583 17.8037 31.5197 20.8248C34.1812 23.846 43.6418 33.9868 44.0369 34.4093ZM30.189 9.86007C30.3541 8.13414 31.1108 6.52205 32.3271 5.30558C33.5433 4.08911 35.1416 3.34565 36.8427 3.20514H36.9674C40.6269 3.20514 43.6003 6.94458 43.6003 11.3601C43.6003 11.7803 43.7646 12.1833 44.057 12.4805C44.3495 12.7776 44.7461 12.9446 45.1597 12.9446C45.5733 12.9446 45.97 12.7776 46.2624 12.4805C46.5549 12.1833 46.7192 11.7803 46.7192 11.3601C46.7192 6.92345 49.7133 3.26852 53.3936 3.20514C55.1019 3.35051 56.7058 4.10055 57.9255 5.32447C59.1453 6.54838 59.9035 8.16851 60.068 9.90232C60.567 13.2192 58.966 15.8178 56.3877 18.7333C53.8094 21.6488 47.6964 28.3037 45.1597 31.0079C42.4982 28.1981 35.9486 21.184 33.8693 18.7544C31.5197 15.9868 29.6276 13.4094 30.189 9.86007Z" fill="#12B7B6"/>
</svg>
