<svg width="500" height="335" viewBox="0 0 500 335" fill="none" xmlns="http://www.w3.org/2000/svg">
<g filter="url(#filter0_dd_327_2)">
<rect x="70" y="70" width="360" height="195" rx="30" fill="#F3F3F3"/>
</g>
<path opacity="0.9" d="M133.134 132.992C134.014 133.271 134.703 133.74 135.202 134.4C135.701 135.045 135.95 135.845 135.95 136.798C135.95 138.147 135.422 139.189 134.366 139.922C133.325 140.641 131.799 141 129.79 141H121.826V125.6H129.35C131.227 125.6 132.665 125.959 133.662 126.678C134.674 127.397 135.18 128.372 135.18 129.604C135.18 130.352 134.997 131.019 134.63 131.606C134.278 132.193 133.779 132.655 133.134 132.992ZM125.368 128.284V131.914H128.91C129.79 131.914 130.457 131.76 130.912 131.452C131.367 131.144 131.594 130.689 131.594 130.088C131.594 129.487 131.367 129.039 130.912 128.746C130.457 128.438 129.79 128.284 128.91 128.284H125.368ZM129.526 138.316C130.465 138.316 131.169 138.162 131.638 137.854C132.122 137.546 132.364 137.069 132.364 136.424C132.364 135.148 131.418 134.51 129.526 134.51H125.368V138.316H129.526ZM143.29 128.988C145.124 128.988 146.532 129.428 147.514 130.308C148.497 131.173 148.988 132.486 148.988 134.246V141H145.776V139.526C145.131 140.626 143.928 141.176 142.168 141.176C141.259 141.176 140.467 141.022 139.792 140.714C139.132 140.406 138.626 139.981 138.274 139.438C137.922 138.895 137.746 138.279 137.746 137.59C137.746 136.49 138.157 135.625 138.978 134.994C139.814 134.363 141.098 134.048 142.828 134.048H145.556C145.556 133.3 145.329 132.728 144.874 132.332C144.42 131.921 143.738 131.716 142.828 131.716C142.198 131.716 141.574 131.819 140.958 132.024C140.357 132.215 139.844 132.479 139.418 132.816L138.186 130.418C138.832 129.963 139.602 129.611 140.496 129.362C141.406 129.113 142.337 128.988 143.29 128.988ZM143.026 138.866C143.613 138.866 144.134 138.734 144.588 138.47C145.043 138.191 145.366 137.788 145.556 137.26V136.05H143.202C141.794 136.05 141.09 136.512 141.09 137.436C141.09 137.876 141.259 138.228 141.596 138.492C141.948 138.741 142.425 138.866 143.026 138.866ZM156.186 141.176C155.204 141.176 154.243 141.059 153.304 140.824C152.366 140.575 151.618 140.267 151.06 139.9L152.204 137.436C152.732 137.773 153.37 138.052 154.118 138.272C154.866 138.477 155.6 138.58 156.318 138.58C157.77 138.58 158.496 138.221 158.496 137.502C158.496 137.165 158.298 136.923 157.902 136.776C157.506 136.629 156.898 136.505 156.076 136.402C155.108 136.255 154.309 136.087 153.678 135.896C153.048 135.705 152.498 135.368 152.028 134.884C151.574 134.4 151.346 133.711 151.346 132.816C151.346 132.068 151.559 131.408 151.984 130.836C152.424 130.249 153.055 129.795 153.876 129.472C154.712 129.149 155.695 128.988 156.824 128.988C157.66 128.988 158.489 129.083 159.31 129.274C160.146 129.45 160.836 129.699 161.378 130.022L160.234 132.464C159.193 131.877 158.056 131.584 156.824 131.584C156.091 131.584 155.541 131.687 155.174 131.892C154.808 132.097 154.624 132.361 154.624 132.684C154.624 133.051 154.822 133.307 155.218 133.454C155.614 133.601 156.245 133.74 157.11 133.872C158.078 134.033 158.87 134.209 159.486 134.4C160.102 134.576 160.638 134.906 161.092 135.39C161.547 135.874 161.774 136.549 161.774 137.414C161.774 138.147 161.554 138.8 161.114 139.372C160.674 139.944 160.029 140.391 159.178 140.714C158.342 141.022 157.345 141.176 156.186 141.176ZM175.596 135.126C175.596 135.17 175.574 135.478 175.53 136.05H166.576C166.737 136.783 167.119 137.363 167.72 137.788C168.321 138.213 169.069 138.426 169.964 138.426C170.58 138.426 171.123 138.338 171.592 138.162C172.076 137.971 172.523 137.678 172.934 137.282L174.76 139.262C173.645 140.538 172.017 141.176 169.876 141.176C168.541 141.176 167.361 140.919 166.334 140.406C165.307 139.878 164.515 139.152 163.958 138.228C163.401 137.304 163.122 136.255 163.122 135.082C163.122 133.923 163.393 132.882 163.936 131.958C164.493 131.019 165.249 130.293 166.202 129.78C167.17 129.252 168.248 128.988 169.436 128.988C170.595 128.988 171.643 129.237 172.582 129.736C173.521 130.235 174.254 130.953 174.782 131.892C175.325 132.816 175.596 133.894 175.596 135.126ZM169.458 131.584C168.681 131.584 168.028 131.804 167.5 132.244C166.972 132.684 166.649 133.285 166.532 134.048H172.362C172.245 133.3 171.922 132.706 171.394 132.266C170.866 131.811 170.221 131.584 169.458 131.584ZM191.239 125.6C192.603 125.6 193.784 125.827 194.781 126.282C195.793 126.737 196.571 127.382 197.113 128.218C197.656 129.054 197.927 130.044 197.927 131.188C197.927 132.317 197.656 133.307 197.113 134.158C196.571 134.994 195.793 135.639 194.781 136.094C193.784 136.534 192.603 136.754 191.239 136.754H188.137V141H184.573V125.6H191.239ZM191.041 133.85C192.112 133.85 192.926 133.623 193.483 133.168C194.041 132.699 194.319 132.039 194.319 131.188C194.319 130.323 194.041 129.663 193.483 129.208C192.926 128.739 192.112 128.504 191.041 128.504H188.137V133.85H191.041ZM203.618 130.726C204.028 130.154 204.578 129.721 205.268 129.428C205.972 129.135 206.778 128.988 207.688 128.988V132.156C207.306 132.127 207.05 132.112 206.918 132.112C205.935 132.112 205.165 132.391 204.608 132.948C204.05 133.491 203.772 134.312 203.772 135.412V141H200.34V129.164H203.618V130.726ZM209.838 129.164H213.27V141H209.838V129.164ZM211.554 127.514C210.924 127.514 210.41 127.331 210.014 126.964C209.618 126.597 209.42 126.143 209.42 125.6C209.42 125.057 209.618 124.603 210.014 124.236C210.41 123.869 210.924 123.686 211.554 123.686C212.185 123.686 212.698 123.862 213.094 124.214C213.49 124.566 213.688 125.006 213.688 125.534C213.688 126.106 213.49 126.583 213.094 126.964C212.698 127.331 212.185 127.514 211.554 127.514ZM222.286 141.176C221.024 141.176 219.888 140.919 218.876 140.406C217.878 139.878 217.094 139.152 216.522 138.228C215.964 137.304 215.686 136.255 215.686 135.082C215.686 133.909 215.964 132.86 216.522 131.936C217.094 131.012 217.878 130.293 218.876 129.78C219.888 129.252 221.024 128.988 222.286 128.988C223.532 128.988 224.618 129.252 225.542 129.78C226.48 130.293 227.162 131.034 227.588 132.002L224.926 133.432C224.31 132.347 223.422 131.804 222.264 131.804C221.369 131.804 220.628 132.097 220.042 132.684C219.455 133.271 219.162 134.07 219.162 135.082C219.162 136.094 219.455 136.893 220.042 137.48C220.628 138.067 221.369 138.36 222.264 138.36C223.437 138.36 224.324 137.817 224.926 136.732L227.588 138.184C227.162 139.123 226.48 139.856 225.542 140.384C224.618 140.912 223.532 141.176 222.286 141.176ZM241.117 135.126C241.117 135.17 241.095 135.478 241.051 136.05H232.097C232.259 136.783 232.64 137.363 233.241 137.788C233.843 138.213 234.591 138.426 235.485 138.426C236.101 138.426 236.644 138.338 237.113 138.162C237.597 137.971 238.045 137.678 238.455 137.282L240.281 139.262C239.167 140.538 237.539 141.176 235.397 141.176C234.063 141.176 232.882 140.919 231.855 140.406C230.829 139.878 230.037 139.152 229.479 138.228C228.922 137.304 228.643 136.255 228.643 135.082C228.643 133.923 228.915 132.882 229.457 131.958C230.015 131.019 230.77 130.293 231.723 129.78C232.691 129.252 233.769 128.988 234.957 128.988C236.116 128.988 237.165 129.237 238.103 129.736C239.042 130.235 239.775 130.953 240.303 131.892C240.846 132.816 241.117 133.894 241.117 135.126ZM234.979 131.584C234.202 131.584 233.549 131.804 233.021 132.244C232.493 132.684 232.171 133.285 232.053 134.048H237.883C237.766 133.3 237.443 132.706 236.915 132.266C236.387 131.811 235.742 131.584 234.979 131.584Z" fill="#12B7B6"/>
<path d="M187.15 192C189.717 192.14 191.665 192.84 192.995 194.1C194.348 195.337 195.025 196.958 195.025 198.965C195.025 200.365 194.687 201.613 194.01 202.71C193.333 203.783 192.33 204.635 191 205.265C189.67 205.895 188.048 206.21 186.135 206.21C184.362 206.21 182.682 205.93 181.095 205.37C179.532 204.787 178.272 204.017 177.315 203.06L178.54 201.065C179.357 201.905 180.442 202.593 181.795 203.13C183.148 203.643 184.595 203.9 186.135 203.9C188.142 203.9 189.693 203.468 190.79 202.605C191.887 201.718 192.435 200.505 192.435 198.965C192.435 197.448 191.887 196.258 190.79 195.395C189.693 194.532 188.037 194.1 185.82 194.1H184.07V192.245L190.86 183.74H178.33V181.5H194.08V183.285L187.15 192ZM208.901 191.335C210.511 191.335 211.934 191.638 213.171 192.245C214.431 192.852 215.411 193.715 216.111 194.835C216.811 195.932 217.161 197.215 217.161 198.685C217.161 200.178 216.799 201.497 216.076 202.64C215.353 203.783 214.349 204.67 213.066 205.3C211.806 205.907 210.383 206.21 208.796 206.21C205.553 206.21 203.068 205.148 201.341 203.025C199.614 200.878 198.751 197.857 198.751 193.96C198.751 191.23 199.218 188.92 200.151 187.03C201.084 185.14 202.391 183.717 204.071 182.76C205.751 181.78 207.711 181.29 209.951 181.29C212.378 181.29 214.314 181.733 215.761 182.62L214.746 184.65C213.579 183.88 211.993 183.495 209.986 183.495C207.279 183.495 205.156 184.358 203.616 186.085C202.076 187.788 201.306 190.273 201.306 193.54C201.306 194.123 201.341 194.788 201.411 195.535C202.018 194.205 202.986 193.178 204.316 192.455C205.646 191.708 207.174 191.335 208.901 191.335ZM208.691 204.075C210.464 204.075 211.899 203.597 212.996 202.64C214.116 201.66 214.676 200.365 214.676 198.755C214.676 197.145 214.116 195.862 212.996 194.905C211.899 193.948 210.406 193.47 208.516 193.47C207.279 193.47 206.183 193.703 205.226 194.17C204.293 194.637 203.558 195.278 203.021 196.095C202.484 196.912 202.216 197.822 202.216 198.825C202.216 199.758 202.461 200.622 202.951 201.415C203.464 202.208 204.211 202.85 205.191 203.34C206.171 203.83 207.338 204.075 208.691 204.075ZM222.521 202.36C223.057 202.36 223.501 202.547 223.851 202.92C224.201 203.27 224.376 203.713 224.376 204.25C224.376 204.53 224.329 204.833 224.236 205.16C224.166 205.487 224.049 205.86 223.886 206.28L222.416 211.11H220.736L221.926 206.035C221.552 205.918 221.249 205.708 221.016 205.405C220.782 205.078 220.666 204.693 220.666 204.25C220.666 203.713 220.841 203.27 221.191 202.92C221.541 202.547 221.984 202.36 222.521 202.36ZM237.577 206.21C235.687 206.21 233.995 205.708 232.502 204.705C231.032 203.702 229.877 202.267 229.037 200.4C228.22 198.51 227.812 196.293 227.812 193.75C227.812 191.207 228.22 189.002 229.037 187.135C229.877 185.245 231.032 183.798 232.502 182.795C233.995 181.792 235.687 181.29 237.577 181.29C239.467 181.29 241.147 181.792 242.617 182.795C244.11 183.798 245.277 185.245 246.117 187.135C246.957 189.002 247.377 191.207 247.377 193.75C247.377 196.293 246.957 198.51 246.117 200.4C245.277 202.267 244.11 203.702 242.617 204.705C241.147 205.708 239.467 206.21 237.577 206.21ZM237.577 203.9C239 203.9 240.248 203.503 241.322 202.71C242.418 201.917 243.27 200.762 243.877 199.245C244.483 197.728 244.787 195.897 244.787 193.75C244.787 191.603 244.483 189.772 243.877 188.255C243.27 186.738 242.418 185.583 241.322 184.79C240.248 183.997 239 183.6 237.577 183.6C236.153 183.6 234.893 183.997 233.797 184.79C232.723 185.583 231.883 186.738 231.277 188.255C230.67 189.772 230.367 191.603 230.367 193.75C230.367 195.897 230.67 197.728 231.277 199.245C231.883 200.762 232.723 201.917 233.797 202.71C234.893 203.503 236.153 203.9 237.577 203.9ZM260.926 206.21C259.036 206.21 257.344 205.708 255.851 204.705C254.381 203.702 253.226 202.267 252.386 200.4C251.569 198.51 251.161 196.293 251.161 193.75C251.161 191.207 251.569 189.002 252.386 187.135C253.226 185.245 254.381 183.798 255.851 182.795C257.344 181.792 259.036 181.29 260.926 181.29C262.816 181.29 264.496 181.792 265.966 182.795C267.459 183.798 268.626 185.245 269.466 187.135C270.306 189.002 270.726 191.207 270.726 193.75C270.726 196.293 270.306 198.51 269.466 200.4C268.626 202.267 267.459 203.702 265.966 204.705C264.496 205.708 262.816 206.21 260.926 206.21ZM260.926 203.9C262.349 203.9 263.597 203.503 264.671 202.71C265.767 201.917 266.619 200.762 267.226 199.245C267.832 197.728 268.136 195.897 268.136 193.75C268.136 191.603 267.832 189.772 267.226 188.255C266.619 186.738 265.767 185.583 264.671 184.79C263.597 183.997 262.349 183.6 260.926 183.6C259.502 183.6 258.242 183.997 257.146 184.79C256.072 185.583 255.232 186.738 254.626 188.255C254.019 189.772 253.716 191.603 253.716 193.75C253.716 195.897 254.019 197.728 254.626 199.245C255.232 200.762 256.072 201.917 257.146 202.71C258.242 203.503 259.502 203.9 260.926 203.9ZM276.058 202.36C276.595 202.36 277.038 202.547 277.388 202.92C277.738 203.27 277.913 203.713 277.913 204.25C277.913 204.53 277.867 204.833 277.773 205.16C277.703 205.487 277.587 205.86 277.423 206.28L275.953 211.11H274.273L275.463 206.035C275.09 205.918 274.787 205.708 274.553 205.405C274.32 205.078 274.203 204.693 274.203 204.25C274.203 203.713 274.378 203.27 274.728 202.92C275.078 202.547 275.522 202.36 276.058 202.36ZM291.114 206.21C289.224 206.21 287.533 205.708 286.039 204.705C284.569 203.702 283.414 202.267 282.574 200.4C281.758 198.51 281.349 196.293 281.349 193.75C281.349 191.207 281.758 189.002 282.574 187.135C283.414 185.245 284.569 183.798 286.039 182.795C287.533 181.792 289.224 181.29 291.114 181.29C293.004 181.29 294.684 181.792 296.154 182.795C297.648 183.798 298.814 185.245 299.654 187.135C300.494 189.002 300.914 191.207 300.914 193.75C300.914 196.293 300.494 198.51 299.654 200.4C298.814 202.267 297.648 203.702 296.154 204.705C294.684 205.708 293.004 206.21 291.114 206.21ZM291.114 203.9C292.538 203.9 293.786 203.503 294.859 202.71C295.956 201.917 296.808 200.762 297.414 199.245C298.021 197.728 298.324 195.897 298.324 193.75C298.324 191.603 298.021 189.772 297.414 188.255C296.808 186.738 295.956 185.583 294.859 184.79C293.786 183.997 292.538 183.6 291.114 183.6C289.691 183.6 288.431 183.997 287.334 184.79C286.261 185.583 285.421 186.738 284.814 188.255C284.208 189.772 283.904 191.603 283.904 193.75C283.904 195.897 284.208 197.728 284.814 199.245C285.421 200.762 286.261 201.917 287.334 202.71C288.431 203.503 289.691 203.9 291.114 203.9ZM314.463 206.21C312.573 206.21 310.882 205.708 309.388 204.705C307.918 203.702 306.763 202.267 305.923 200.4C305.107 198.51 304.698 196.293 304.698 193.75C304.698 191.207 305.107 189.002 305.923 187.135C306.763 185.245 307.918 183.798 309.388 182.795C310.882 181.792 312.573 181.29 314.463 181.29C316.353 181.29 318.033 181.792 319.503 182.795C320.997 183.798 322.163 185.245 323.003 187.135C323.843 189.002 324.263 191.207 324.263 193.75C324.263 196.293 323.843 198.51 323.003 200.4C322.163 202.267 320.997 203.702 319.503 204.705C318.033 205.708 316.353 206.21 314.463 206.21ZM314.463 203.9C315.887 203.9 317.135 203.503 318.208 202.71C319.305 201.917 320.157 200.762 320.763 199.245C321.37 197.728 321.673 195.897 321.673 193.75C321.673 191.603 321.37 189.772 320.763 188.255C320.157 186.738 319.305 185.583 318.208 184.79C317.135 183.997 315.887 183.6 314.463 183.6C313.04 183.6 311.78 183.997 310.683 184.79C309.61 185.583 308.77 186.738 308.163 188.255C307.557 189.772 307.253 191.603 307.253 193.75C307.253 195.897 307.557 197.728 308.163 199.245C308.77 200.762 309.61 201.917 310.683 202.71C311.78 203.503 313.04 203.9 314.463 203.9ZM337.812 206.21C335.922 206.21 334.23 205.708 332.737 204.705C331.267 203.702 330.112 202.267 329.272 200.4C328.455 198.51 328.047 196.293 328.047 193.75C328.047 191.207 328.455 189.002 329.272 187.135C330.112 185.245 331.267 183.798 332.737 182.795C334.23 181.792 335.922 181.29 337.812 181.29C339.702 181.29 341.382 181.792 342.852 182.795C344.345 183.798 345.512 185.245 346.352 187.135C347.192 189.002 347.612 191.207 347.612 193.75C347.612 196.293 347.192 198.51 346.352 200.4C345.512 202.267 344.345 203.702 342.852 204.705C341.382 205.708 339.702 206.21 337.812 206.21ZM337.812 203.9C339.235 203.9 340.484 203.503 341.557 202.71C342.654 201.917 343.505 200.762 344.112 199.245C344.719 197.728 345.022 195.897 345.022 193.75C345.022 191.603 344.719 189.772 344.112 188.255C343.505 186.738 342.654 185.583 341.557 184.79C340.484 183.997 339.235 183.6 337.812 183.6C336.389 183.6 335.129 183.997 334.032 184.79C332.959 185.583 332.119 186.738 331.512 188.255C330.905 189.772 330.602 191.603 330.602 193.75C330.602 195.897 330.905 197.728 331.512 199.245C332.119 200.762 332.959 201.917 334.032 202.71C335.129 203.503 336.389 203.9 337.812 203.9Z" fill="black"/>
<path d="M140.789 185.46C140.649 185.319 140.47 185.249 140.252 185.249H136.253C135.988 183.956 135.489 182.833 134.756 181.882H140.205C140.423 181.882 140.602 181.812 140.743 181.672C140.882 181.532 140.952 181.352 140.952 181.134V178.748C140.952 178.53 140.882 178.351 140.743 178.21C140.602 178.07 140.423 178 140.205 178H120.748C120.53 178 120.351 178.07 120.21 178.21C120.07 178.351 120 178.53 120 178.748V181.858C120 182.061 120.074 182.236 120.222 182.385C120.37 182.533 120.546 182.607 120.748 182.607H124.139C127.428 182.607 129.518 183.487 130.406 185.249H120.748C120.53 185.249 120.35 185.319 120.21 185.459C120.07 185.6 120 185.779 120 185.997V188.383C120 188.601 120.07 188.78 120.21 188.92C120.351 189.061 120.53 189.131 120.748 189.131H130.734C130.391 190.409 129.592 191.384 128.337 192.054C127.081 192.724 125.425 193.06 123.367 193.06H120.748C120.546 193.06 120.37 193.134 120.222 193.282C120.074 193.43 120 193.605 120 193.808V196.778C120 196.981 120.07 197.153 120.21 197.293C123.203 200.473 127.086 204.924 131.856 210.646C131.997 210.833 132.191 210.926 132.441 210.926H137.001C137.329 210.926 137.555 210.786 137.679 210.505C137.835 210.225 137.804 209.96 137.585 209.71C133.034 204.129 129.455 199.951 126.852 197.176C129.502 196.864 131.654 196.006 133.306 194.603C134.959 193.2 135.964 191.376 136.323 189.131H140.252C140.47 189.131 140.649 189.061 140.789 188.921C140.93 188.781 141 188.601 141 188.383V185.998C141 185.779 140.93 185.6 140.789 185.46Z" fill="#29BDBC"/>
<defs>
<filter id="filter0_dd_327_2" x="0" y="0" width="500" height="335" filterUnits="userSpaceOnUse" color-interpolation-filters="sRGB">
<feFlood flood-opacity="0" result="BackgroundImageFix"/>
<feColorMatrix in="SourceAlpha" type="matrix" values="0 0 0 0 0 0 0 0 0 0 0 0 0 0 0 0 0 0 127 0" result="hardAlpha"/>
<feOffset dx="20" dy="20"/>
<feGaussianBlur stdDeviation="25"/>
<feColorMatrix type="matrix" values="0 0 0 0 0.823529 0 0 0 0 0.823529 0 0 0 0 0.823529 0 0 0 1 0"/>
<feBlend mode="normal" in2="BackgroundImageFix" result="effect1_dropShadow_327_2"/>
<feColorMatrix in="SourceAlpha" type="matrix" values="0 0 0 0 0 0 0 0 0 0 0 0 0 0 0 0 0 0 127 0" result="hardAlpha"/>
<feOffset dx="-20" dy="-20"/>
<feGaussianBlur stdDeviation="25"/>
<feColorMatrix type="matrix" values="0 0 0 0 1 0 0 0 0 1 0 0 0 0 1 0 0 0 1 0"/>
<feBlend mode="normal" in2="effect1_dropShadow_327_2" result="effect2_dropShadow_327_2"/>
<feBlend mode="normal" in="SourceGraphic" in2="effect2_dropShadow_327_2" result="shape"/>
</filter>
</defs>
</svg>
