<svg width="69" height="43" viewBox="0 0 69 43" fill="none" xmlns="http://www.w3.org/2000/svg">
<path d="M60.8896 11.8151H49.6724V10.4129L52.4767 2H58.0853L60.8896 10.4129V11.8151Z" stroke="#29BDBC" stroke-width="3.5" stroke-miterlimit="10"/>
<path d="M55.2798 11.8145V18.8252" stroke="#29BDBC" stroke-width="3.5" stroke-miterlimit="10"/>
<path d="M66.4982 18.8262H49.6724V28.6412H66.4982V18.8262Z" stroke="#29BDBC" stroke-width="3.5" stroke-miterlimit="10"/>
<path d="M66.4982 28.6406H49.6724V38.4557H66.4982V28.6406Z" stroke="#29BDBC" stroke-width="3.5" stroke-miterlimit="10"/>
<path d="M51.0762 38.457V42.6635" stroke="#29BDBC" stroke-width="3.5" stroke-miterlimit="10"/>
<path d="M41.2593 38.457V42.6635" stroke="#29BDBC" stroke-width="3.5" stroke-miterlimit="10"/>
<path d="M4.80225 38.457V42.6635" stroke="#29BDBC" stroke-width="3.5" stroke-miterlimit="10"/>
<path d="M65.0967 38.457V42.6635" stroke="#29BDBC" stroke-width="3.5" stroke-miterlimit="10"/>
<path d="M3.4043 17.4237V3.40215C3.4043 3.03028 3.55202 2.67363 3.81498 2.41068C4.07793 2.14773 4.43458 2 4.80645 2H41.2624C41.6343 2 41.9909 2.14773 42.2539 2.41068C42.5168 2.67363 42.6646 3.03028 42.6646 3.40215V17.4237" stroke="#29BDBC" stroke-width="3.5" stroke-miterlimit="10"/>
<path d="M6.20646 20.2285H39.8581C40.9737 20.2285 42.0437 20.6717 42.8325 21.4606C43.6214 22.2494 44.0646 23.3194 44.0646 24.435V38.4565H2V24.435C2 23.3194 2.44318 22.2494 3.23204 21.4606C4.02091 20.6717 5.09084 20.2285 6.20646 20.2285V20.2285Z" stroke="#29BDBC" stroke-width="3.5" stroke-miterlimit="10"/>
<path d="M9.00879 17.4231V14.6188C9.00879 13.875 9.30424 13.1617 9.83015 12.6358C10.3561 12.1099 11.0693 11.8145 11.8131 11.8145H17.4217C18.1655 11.8145 18.8787 12.1099 19.4047 12.6358C19.9306 13.1617 20.226 13.875 20.226 14.6188V17.4231" stroke="#29BDBC" stroke-width="3.5" stroke-miterlimit="10"/>
<path d="M25.8374 17.4231V14.6188C25.8374 13.875 26.1329 13.1617 26.6588 12.6358C27.1847 12.1099 27.898 11.8145 28.6417 11.8145H34.2503C34.9941 11.8145 35.7074 12.1099 36.2333 12.6358C36.7592 13.1617 37.0546 13.875 37.0546 14.6188V17.4231" stroke="#29BDBC" stroke-width="3.5" stroke-miterlimit="10"/>
</svg>
