<svg width="123" height="141" viewBox="0 0 123 141" fill="none" xmlns="http://www.w3.org/2000/svg">
<path d="M118.61 101.922V140.859L122.913 135.104V98.7095L108.546 95.5427V71.3241L82.46 61.3074L80.1158 64.1604V23.8911L59.6664 0.785156L38.5175 23.4261V62.4686L15.8952 72.2542V101.614L0 105.351V132.705L4.30288 137.98V108.515L20.201 104.775V100.598H20.1981V74.8475L38.5175 66.9249V85.7086L34.2146 86.5873L34.0119 107.374L38.3148 111.425L38.5175 89.8654L51.0578 87.6829L51.0378 112.6L55.355 118.609L55.3493 88.2877L60.5258 91.1178V110.815L64.8287 106.763V88.7841L61.7707 87.1123V9.49518L75.8072 25.3575V69.3984L68.472 78.3252V115.736L72.7749 120.746V79.7117L81.0038 69.6979L80.8696 114.404L85.1725 108.164L85.3067 66.7822L104.237 74.0515V94.5984L104.146 98.738L118.61 101.922ZM42.8204 69.5182L51.0492 79.1554V83.1495L42.8204 84.8299V69.5182ZM55.355 83.6089V77.729L42.8204 63.0506V60.6028V24.9524L57.4707 9.2698V84.7643L55.355 83.6089Z" fill="white"/>
</svg>
