<svg width="570" height="732" viewBox="0 0 570 732" fill="none" xmlns="http://www.w3.org/2000/svg">
<g filter="url(#filter0_dd_42_2285)">
<rect x="70" y="70" width="430" height="592" rx="43" fill="#F3F3F3"/>
</g>
<g filter="url(#filter1_dd_42_2285)">
<rect x="121" y="533" width="328" height="85" rx="42.5" fill="#F9F9F9"/>
</g>
<path d="M130.364 474.096V477H118.726V474.69L124.666 469.08C125.297 468.479 125.722 467.965 125.942 467.54C126.162 467.1 126.272 466.667 126.272 466.242C126.272 465.626 126.059 465.157 125.634 464.834C125.223 464.497 124.615 464.328 123.808 464.328C123.133 464.328 122.525 464.46 121.982 464.724C121.439 464.973 120.985 465.355 120.618 465.868L118.022 464.196C118.623 463.301 119.452 462.605 120.508 462.106C121.564 461.593 122.774 461.336 124.138 461.336C125.282 461.336 126.279 461.527 127.13 461.908C127.995 462.275 128.663 462.803 129.132 463.492C129.616 464.167 129.858 464.966 129.858 465.89C129.858 466.726 129.682 467.511 129.33 468.244C128.978 468.977 128.296 469.813 127.284 470.752L123.742 474.096H130.364ZM143.958 461.6V463.91L138.238 477H134.366L139.888 464.504H134.784V467.012H131.616V461.6H143.958ZM151.824 477.264C150.548 477.264 149.412 476.949 148.414 476.318C147.417 475.687 146.632 474.778 146.06 473.59C145.503 472.387 145.224 470.957 145.224 469.3C145.224 467.643 145.503 466.22 146.06 465.032C146.632 463.829 147.417 462.913 148.414 462.282C149.412 461.651 150.548 461.336 151.824 461.336C153.1 461.336 154.237 461.651 155.234 462.282C156.232 462.913 157.009 463.829 157.566 465.032C158.138 466.22 158.424 467.643 158.424 469.3C158.424 470.957 158.138 472.387 157.566 473.59C157.009 474.778 156.232 475.687 155.234 476.318C154.237 476.949 153.1 477.264 151.824 477.264ZM151.824 474.25C152.763 474.25 153.496 473.847 154.024 473.04C154.567 472.233 154.838 470.987 154.838 469.3C154.838 467.613 154.567 466.367 154.024 465.56C153.496 464.753 152.763 464.35 151.824 464.35C150.9 464.35 150.167 464.753 149.624 465.56C149.096 466.367 148.832 467.613 148.832 469.3C148.832 470.987 149.096 472.233 149.624 473.04C150.167 473.847 150.9 474.25 151.824 474.25ZM171.33 470.642H167.502V474.382H164.664V470.642H160.858V467.958H164.664V464.218H167.502V467.958H171.33V470.642ZM187.606 461.6C188.97 461.6 190.151 461.827 191.148 462.282C192.16 462.737 192.938 463.382 193.48 464.218C194.023 465.054 194.294 466.044 194.294 467.188C194.294 468.317 194.023 469.307 193.48 470.158C192.938 470.994 192.16 471.639 191.148 472.094C190.151 472.534 188.97 472.754 187.606 472.754H184.504V477H180.94V461.6H187.606ZM187.408 469.85C188.479 469.85 189.293 469.623 189.85 469.168C190.408 468.699 190.686 468.039 190.686 467.188C190.686 466.323 190.408 465.663 189.85 465.208C189.293 464.739 188.479 464.504 187.408 464.504H184.504V469.85H187.408ZM199.985 466.726C200.396 466.154 200.946 465.721 201.635 465.428C202.339 465.135 203.146 464.988 204.055 464.988V468.156C203.674 468.127 203.417 468.112 203.285 468.112C202.302 468.112 201.532 468.391 200.975 468.948C200.418 469.491 200.139 470.312 200.139 471.412V477H196.707V465.164H199.985V466.726ZM211.73 477.176C210.483 477.176 209.361 476.919 208.364 476.406C207.381 475.878 206.611 475.152 206.054 474.228C205.497 473.304 205.218 472.255 205.218 471.082C205.218 469.909 205.497 468.86 206.054 467.936C206.611 467.012 207.381 466.293 208.364 465.78C209.361 465.252 210.483 464.988 211.73 464.988C212.977 464.988 214.091 465.252 215.074 465.78C216.057 466.293 216.827 467.012 217.384 467.936C217.941 468.86 218.22 469.909 218.22 471.082C218.22 472.255 217.941 473.304 217.384 474.228C216.827 475.152 216.057 475.878 215.074 476.406C214.091 476.919 212.977 477.176 211.73 477.176ZM211.73 474.36C212.61 474.36 213.329 474.067 213.886 473.48C214.458 472.879 214.744 472.079 214.744 471.082C214.744 470.085 214.458 469.293 213.886 468.706C213.329 468.105 212.61 467.804 211.73 467.804C210.85 467.804 210.124 468.105 209.552 468.706C208.98 469.293 208.694 470.085 208.694 471.082C208.694 472.079 208.98 472.879 209.552 473.48C210.124 474.067 210.85 474.36 211.73 474.36ZM219.744 481.444C218.541 481.444 217.625 481.224 216.994 480.784L217.918 478.298C218.314 478.577 218.798 478.716 219.37 478.716C219.81 478.716 220.155 478.569 220.404 478.276C220.653 477.997 220.778 477.572 220.778 477V465.164H224.21V476.978C224.21 478.357 223.814 479.442 223.022 480.234C222.245 481.041 221.152 481.444 219.744 481.444ZM222.494 463.514C221.863 463.514 221.35 463.331 220.954 462.964C220.558 462.597 220.36 462.143 220.36 461.6C220.36 461.057 220.558 460.603 220.954 460.236C221.35 459.869 221.863 459.686 222.494 459.686C223.125 459.686 223.638 459.862 224.034 460.214C224.43 460.566 224.628 461.006 224.628 461.534C224.628 462.106 224.43 462.583 224.034 462.964C223.638 463.331 223.125 463.514 222.494 463.514ZM239.074 471.126C239.074 471.17 239.052 471.478 239.008 472.05H230.054C230.216 472.783 230.597 473.363 231.198 473.788C231.8 474.213 232.548 474.426 233.442 474.426C234.058 474.426 234.601 474.338 235.07 474.162C235.554 473.971 236.002 473.678 236.412 473.282L238.238 475.262C237.124 476.538 235.496 477.176 233.354 477.176C232.02 477.176 230.839 476.919 229.812 476.406C228.786 475.878 227.994 475.152 227.436 474.228C226.879 473.304 226.6 472.255 226.6 471.082C226.6 469.923 226.872 468.882 227.414 467.958C227.972 467.019 228.727 466.293 229.68 465.78C230.648 465.252 231.726 464.988 232.914 464.988C234.073 464.988 235.122 465.237 236.06 465.736C236.999 466.235 237.732 466.953 238.26 467.892C238.803 468.816 239.074 469.894 239.074 471.126ZM232.936 467.584C232.159 467.584 231.506 467.804 230.978 468.244C230.45 468.684 230.128 469.285 230.01 470.048H235.84C235.723 469.3 235.4 468.706 234.872 468.266C234.344 467.811 233.699 467.584 232.936 467.584ZM247.189 477.176C245.928 477.176 244.791 476.919 243.779 476.406C242.782 475.878 241.997 475.152 241.425 474.228C240.868 473.304 240.589 472.255 240.589 471.082C240.589 469.909 240.868 468.86 241.425 467.936C241.997 467.012 242.782 466.293 243.779 465.78C244.791 465.252 245.928 464.988 247.189 464.988C248.436 464.988 249.521 465.252 250.445 465.78C251.384 466.293 252.066 467.034 252.491 468.002L249.829 469.432C249.213 468.347 248.326 467.804 247.167 467.804C246.272 467.804 245.532 468.097 244.945 468.684C244.358 469.271 244.065 470.07 244.065 471.082C244.065 472.094 244.358 472.893 244.945 473.48C245.532 474.067 246.272 474.36 247.167 474.36C248.34 474.36 249.228 473.817 249.829 472.732L252.491 474.184C252.066 475.123 251.384 475.856 250.445 476.384C249.521 476.912 248.436 477.176 247.189 477.176ZM262.383 476.428C262.046 476.677 261.628 476.868 261.129 477C260.645 477.117 260.132 477.176 259.589 477.176C258.181 477.176 257.088 476.817 256.311 476.098C255.548 475.379 255.167 474.323 255.167 472.93V468.068H253.341V465.428H255.167V462.546H258.599V465.428H261.547V468.068H258.599V472.886C258.599 473.385 258.724 473.773 258.973 474.052C259.237 474.316 259.604 474.448 260.073 474.448C260.616 474.448 261.078 474.301 261.459 474.008L262.383 476.428ZM271.002 461.6H277.998C279.67 461.6 281.144 461.923 282.42 462.568C283.711 463.199 284.708 464.093 285.412 465.252C286.131 466.411 286.49 467.76 286.49 469.3C286.49 470.84 286.131 472.189 285.412 473.348C284.708 474.507 283.711 475.409 282.42 476.054C281.144 476.685 279.67 477 277.998 477H271.002V461.6ZM277.822 474.074C279.362 474.074 280.587 473.649 281.496 472.798C282.42 471.933 282.882 470.767 282.882 469.3C282.882 467.833 282.42 466.675 281.496 465.824C280.587 464.959 279.362 464.526 277.822 464.526H274.566V474.074H277.822ZM294.678 477.176C293.431 477.176 292.309 476.919 291.312 476.406C290.329 475.878 289.559 475.152 289.002 474.228C288.445 473.304 288.166 472.255 288.166 471.082C288.166 469.909 288.445 468.86 289.002 467.936C289.559 467.012 290.329 466.293 291.312 465.78C292.309 465.252 293.431 464.988 294.678 464.988C295.925 464.988 297.039 465.252 298.022 465.78C299.005 466.293 299.775 467.012 300.332 467.936C300.889 468.86 301.168 469.909 301.168 471.082C301.168 472.255 300.889 473.304 300.332 474.228C299.775 475.152 299.005 475.878 298.022 476.406C297.039 476.919 295.925 477.176 294.678 477.176ZM294.678 474.36C295.558 474.36 296.277 474.067 296.834 473.48C297.406 472.879 297.692 472.079 297.692 471.082C297.692 470.085 297.406 469.293 296.834 468.706C296.277 468.105 295.558 467.804 294.678 467.804C293.798 467.804 293.072 468.105 292.5 468.706C291.928 469.293 291.642 470.085 291.642 471.082C291.642 472.079 291.928 472.879 292.5 473.48C293.072 474.067 293.798 474.36 294.678 474.36ZM310.766 464.988C312.233 464.988 313.413 465.428 314.308 466.308C315.217 467.188 315.672 468.493 315.672 470.224V477H312.24V470.752C312.24 469.813 312.035 469.117 311.624 468.662C311.213 468.193 310.619 467.958 309.842 467.958C308.977 467.958 308.287 468.229 307.774 468.772C307.261 469.3 307.004 470.092 307.004 471.148V477H303.572V465.164H306.85V466.55C307.305 466.051 307.869 465.67 308.544 465.406C309.219 465.127 309.959 464.988 310.766 464.988ZM330.616 471.126C330.616 471.17 330.594 471.478 330.55 472.05H321.596C321.757 472.783 322.138 473.363 322.74 473.788C323.341 474.213 324.089 474.426 324.984 474.426C325.6 474.426 326.142 474.338 326.612 474.162C327.096 473.971 327.543 473.678 327.954 473.282L329.78 475.262C328.665 476.538 327.037 477.176 324.896 477.176C323.561 477.176 322.38 476.919 321.354 476.406C320.327 475.878 319.535 475.152 318.978 474.228C318.42 473.304 318.142 472.255 318.142 471.082C318.142 469.923 318.413 468.882 318.956 467.958C319.513 467.019 320.268 466.293 321.222 465.78C322.19 465.252 323.268 464.988 324.456 464.988C325.614 464.988 326.663 465.237 327.602 465.736C328.54 466.235 329.274 466.953 329.802 467.892C330.344 468.816 330.616 469.894 330.616 471.126ZM324.478 467.584C323.7 467.584 323.048 467.804 322.52 468.244C321.992 468.684 321.669 469.285 321.552 470.048H327.382C327.264 469.3 326.942 468.706 326.414 468.266C325.886 467.811 325.24 467.584 324.478 467.584Z" fill="#12B7B6"/>
<path d="M184.196 582.264C182.627 582.264 181.204 581.927 179.928 581.252C178.667 580.563 177.669 579.617 176.936 578.414C176.217 577.197 175.858 575.825 175.858 574.3C175.858 572.775 176.217 571.411 176.936 570.208C177.669 568.991 178.667 568.045 179.928 567.37C181.204 566.681 182.634 566.336 184.218 566.336C185.553 566.336 186.755 566.571 187.826 567.04C188.911 567.509 189.821 568.184 190.554 569.064L188.266 571.176C187.225 569.973 185.934 569.372 184.394 569.372C183.441 569.372 182.59 569.585 181.842 570.01C181.094 570.421 180.507 571 180.082 571.748C179.671 572.496 179.466 573.347 179.466 574.3C179.466 575.253 179.671 576.104 180.082 576.852C180.507 577.6 181.094 578.187 181.842 578.612C182.59 579.023 183.441 579.228 184.394 579.228C185.934 579.228 187.225 578.619 188.266 577.402L190.554 579.514C189.821 580.409 188.911 581.091 187.826 581.56C186.741 582.029 185.531 582.264 184.196 582.264ZM200.023 569.988C201.489 569.988 202.67 570.428 203.565 571.308C204.474 572.188 204.929 573.493 204.929 575.224V582H201.497V575.752C201.497 574.813 201.291 574.117 200.881 573.662C200.47 573.193 199.876 572.958 199.099 572.958C198.233 572.958 197.544 573.229 197.031 573.772C196.517 574.3 196.261 575.092 196.261 576.148V582H192.829V565.676H196.261V571.396C196.715 570.941 197.265 570.597 197.911 570.362C198.556 570.113 199.26 569.988 200.023 569.988ZM219.873 576.126C219.873 576.17 219.851 576.478 219.807 577.05H210.853C211.014 577.783 211.395 578.363 211.997 578.788C212.598 579.213 213.346 579.426 214.241 579.426C214.857 579.426 215.399 579.338 215.869 579.162C216.353 578.971 216.8 578.678 217.211 578.282L219.037 580.262C217.922 581.538 216.294 582.176 214.153 582.176C212.818 582.176 211.637 581.919 210.611 581.406C209.584 580.878 208.792 580.152 208.235 579.228C207.677 578.304 207.399 577.255 207.399 576.082C207.399 574.923 207.67 573.882 208.213 572.958C208.77 572.019 209.525 571.293 210.479 570.78C211.447 570.252 212.525 569.988 213.713 569.988C214.871 569.988 215.92 570.237 216.859 570.736C217.797 571.235 218.531 571.953 219.059 572.892C219.601 573.816 219.873 574.894 219.873 576.126ZM213.735 572.584C212.957 572.584 212.305 572.804 211.777 573.244C211.249 573.684 210.926 574.285 210.809 575.048H216.639C216.521 574.3 216.199 573.706 215.671 573.266C215.143 572.811 214.497 572.584 213.735 572.584ZM227.988 582.176C226.726 582.176 225.59 581.919 224.578 581.406C223.58 580.878 222.796 580.152 222.224 579.228C221.666 578.304 221.388 577.255 221.388 576.082C221.388 574.909 221.666 573.86 222.224 572.936C222.796 572.012 223.58 571.293 224.578 570.78C225.59 570.252 226.726 569.988 227.988 569.988C229.234 569.988 230.32 570.252 231.244 570.78C232.182 571.293 232.864 572.034 233.29 573.002L230.628 574.432C230.012 573.347 229.124 572.804 227.966 572.804C227.071 572.804 226.33 573.097 225.744 573.684C225.157 574.271 224.864 575.07 224.864 576.082C224.864 577.094 225.157 577.893 225.744 578.48C226.33 579.067 227.071 579.36 227.966 579.36C229.139 579.36 230.026 578.817 230.628 577.732L233.29 579.184C232.864 580.123 232.182 580.856 231.244 581.384C230.32 581.912 229.234 582.176 227.988 582.176ZM240.372 577.358L238.722 578.986V582H235.29V565.676H238.722V574.916L243.738 570.164H247.83L242.902 575.18L248.27 582H244.112L240.372 577.358ZM263.26 569.988C264.36 569.988 265.357 570.245 266.252 570.758C267.161 571.257 267.872 571.968 268.386 572.892C268.899 573.801 269.156 574.865 269.156 576.082C269.156 577.299 268.899 578.37 268.386 579.294C267.872 580.203 267.161 580.915 266.252 581.428C265.357 581.927 264.36 582.176 263.26 582.176C261.749 582.176 260.561 581.699 259.696 580.746V586.268H256.264V570.164H259.542V571.528C260.392 570.501 261.632 569.988 263.26 569.988ZM262.666 579.36C263.546 579.36 264.264 579.067 264.822 578.48C265.394 577.879 265.68 577.079 265.68 576.082C265.68 575.085 265.394 574.293 264.822 573.706C264.264 573.105 263.546 572.804 262.666 572.804C261.786 572.804 261.06 573.105 260.488 573.706C259.93 574.293 259.652 575.085 259.652 576.082C259.652 577.079 259.93 577.879 260.488 578.48C261.06 579.067 261.786 579.36 262.666 579.36ZM274.841 571.726C275.252 571.154 275.802 570.721 276.491 570.428C277.195 570.135 278.002 569.988 278.911 569.988V573.156C278.53 573.127 278.273 573.112 278.141 573.112C277.158 573.112 276.388 573.391 275.831 573.948C275.274 574.491 274.995 575.312 274.995 576.412V582H271.563V570.164H274.841V571.726ZM286.586 582.176C285.34 582.176 284.218 581.919 283.22 581.406C282.238 580.878 281.468 580.152 280.91 579.228C280.353 578.304 280.074 577.255 280.074 576.082C280.074 574.909 280.353 573.86 280.91 572.936C281.468 572.012 282.238 571.293 283.22 570.78C284.218 570.252 285.34 569.988 286.586 569.988C287.833 569.988 288.948 570.252 289.93 570.78C290.913 571.293 291.683 572.012 292.24 572.936C292.798 573.86 293.076 574.909 293.076 576.082C293.076 577.255 292.798 578.304 292.24 579.228C291.683 580.152 290.913 580.878 289.93 581.406C288.948 581.919 287.833 582.176 286.586 582.176ZM286.586 579.36C287.466 579.36 288.185 579.067 288.742 578.48C289.314 577.879 289.6 577.079 289.6 576.082C289.6 575.085 289.314 574.293 288.742 573.706C288.185 573.105 287.466 572.804 286.586 572.804C285.706 572.804 284.98 573.105 284.408 573.706C283.836 574.293 283.55 575.085 283.55 576.082C283.55 577.079 283.836 577.879 284.408 578.48C284.98 579.067 285.706 579.36 286.586 579.36ZM299.242 570.428H302.278V573.068H299.33V582H295.898V573.068H294.072V570.428H295.898V569.9C295.898 568.551 296.294 567.48 297.086 566.688C297.893 565.896 299.022 565.5 300.474 565.5C300.988 565.5 301.472 565.559 301.926 565.676C302.396 565.779 302.784 565.933 303.092 566.138L302.19 568.624C301.794 568.345 301.332 568.206 300.804 568.206C299.763 568.206 299.242 568.778 299.242 569.922V570.428ZM305.754 570.164H309.186V582H305.754V570.164ZM307.47 568.514C306.84 568.514 306.326 568.331 305.93 567.964C305.534 567.597 305.336 567.143 305.336 566.6C305.336 566.057 305.534 565.603 305.93 565.236C306.326 564.869 306.84 564.686 307.47 564.686C308.101 564.686 308.614 564.862 309.01 565.214C309.406 565.566 309.604 566.006 309.604 566.534C309.604 567.106 309.406 567.583 309.01 567.964C308.614 568.331 308.101 568.514 307.47 568.514ZM312.477 565.676H315.909V582H312.477V565.676ZM330.798 576.126C330.798 576.17 330.776 576.478 330.732 577.05H321.778C321.939 577.783 322.321 578.363 322.922 578.788C323.523 579.213 324.271 579.426 325.166 579.426C325.782 579.426 326.325 579.338 326.794 579.162C327.278 578.971 327.725 578.678 328.136 578.282L329.962 580.262C328.847 581.538 327.219 582.176 325.078 582.176C323.743 582.176 322.563 581.919 321.536 581.406C320.509 580.878 319.717 580.152 319.16 579.228C318.603 578.304 318.324 577.255 318.324 576.082C318.324 574.923 318.595 573.882 319.138 572.958C319.695 572.019 320.451 571.293 321.404 570.78C322.372 570.252 323.45 569.988 324.638 569.988C325.797 569.988 326.845 570.237 327.784 570.736C328.723 571.235 329.456 571.953 329.984 572.892C330.527 573.816 330.798 574.894 330.798 576.126ZM324.66 572.584C323.883 572.584 323.23 572.804 322.702 573.244C322.174 573.684 321.851 574.285 321.734 575.048H327.564C327.447 574.3 327.124 573.706 326.596 573.266C326.068 572.811 325.423 572.584 324.66 572.584Z" fill="#12B7B6"/>
<path d="M118.988 388.92V386.19L130.246 372.618L130.766 374.152H119.196V370.72H134.51V373.45L123.278 387.022L122.758 385.488H134.9V388.92H118.988ZM137.445 388.92V374.932H141.501V388.92H137.445ZM139.473 372.982C138.728 372.982 138.121 372.765 137.653 372.332C137.185 371.899 136.951 371.361 136.951 370.72C136.951 370.079 137.185 369.541 137.653 369.108C138.121 368.675 138.728 368.458 139.473 368.458C140.219 368.458 140.825 368.666 141.293 369.082C141.761 369.481 141.995 370.001 141.995 370.642C141.995 371.318 141.761 371.881 141.293 372.332C140.843 372.765 140.236 372.982 139.473 372.982ZM145.396 388.92V369.628H149.452V388.92H145.396ZM153.346 388.92V369.628H157.402V388.92H153.346ZM167.952 389.128C166.462 389.128 165.136 388.816 163.974 388.192C162.83 387.568 161.92 386.719 161.244 385.644C160.586 384.552 160.256 383.313 160.256 381.926C160.256 380.522 160.586 379.283 161.244 378.208C161.92 377.116 162.83 376.267 163.974 375.66C165.136 375.036 166.462 374.724 167.952 374.724C169.426 374.724 170.743 375.036 171.904 375.66C173.066 376.267 173.976 377.107 174.634 378.182C175.293 379.257 175.622 380.505 175.622 381.926C175.622 383.313 175.293 384.552 174.634 385.644C173.976 386.719 173.066 387.568 171.904 388.192C170.743 388.816 169.426 389.128 167.952 389.128ZM167.952 385.8C168.628 385.8 169.235 385.644 169.772 385.332C170.31 385.02 170.734 384.578 171.046 384.006C171.358 383.417 171.514 382.723 171.514 381.926C171.514 381.111 171.358 380.418 171.046 379.846C170.734 379.274 170.31 378.832 169.772 378.52C169.235 378.208 168.628 378.052 167.952 378.052C167.276 378.052 166.67 378.208 166.132 378.52C165.595 378.832 165.162 379.274 164.832 379.846C164.52 380.418 164.364 381.111 164.364 381.926C164.364 382.723 164.52 383.417 164.832 384.006C165.162 384.578 165.595 385.02 166.132 385.332C166.67 385.644 167.276 385.8 167.952 385.8ZM181.281 388.92L176.237 374.932H180.059L184.245 386.97H182.425L186.793 374.932H190.225L194.463 386.97H192.643L196.959 374.932H200.547L195.477 388.92H191.551L187.833 378.598H189.029L185.181 388.92H181.281ZM219.129 389.232C217.691 389.232 216.365 389.007 215.151 388.556C213.955 388.088 212.907 387.429 212.005 386.58C211.121 385.731 210.428 384.734 209.925 383.59C209.44 382.446 209.197 381.189 209.197 379.82C209.197 378.451 209.44 377.194 209.925 376.05C210.428 374.906 211.13 373.909 212.031 373.06C212.933 372.211 213.99 371.561 215.203 371.11C216.417 370.642 217.751 370.408 219.207 370.408C220.819 370.408 222.267 370.677 223.549 371.214C224.849 371.751 225.941 372.531 226.825 373.554L224.121 376.05C223.463 375.357 222.743 374.845 221.963 374.516C221.183 374.169 220.334 373.996 219.415 373.996C218.531 373.996 217.725 374.135 216.997 374.412C216.269 374.689 215.637 375.088 215.099 375.608C214.579 376.128 214.172 376.743 213.877 377.454C213.6 378.165 213.461 378.953 213.461 379.82C213.461 380.669 213.6 381.449 213.877 382.16C214.172 382.871 214.579 383.495 215.099 384.032C215.637 384.552 216.261 384.951 216.971 385.228C217.699 385.505 218.497 385.644 219.363 385.644C220.195 385.644 221.001 385.514 221.781 385.254C222.579 384.977 223.35 384.517 224.095 383.876L226.487 386.918C225.499 387.663 224.347 388.235 223.029 388.634C221.729 389.033 220.429 389.232 219.129 389.232ZM222.639 386.372V379.534H226.487V386.918L222.639 386.372ZM230.244 388.92V374.932H234.118V378.884L233.572 377.74C233.988 376.752 234.655 376.007 235.574 375.504C236.493 374.984 237.611 374.724 238.928 374.724V378.468C238.755 378.451 238.599 378.442 238.46 378.442C238.321 378.425 238.174 378.416 238.018 378.416C236.909 378.416 236.007 378.737 235.314 379.378C234.638 380.002 234.3 380.981 234.3 382.316V388.92H230.244ZM247.999 389.128C246.508 389.128 245.182 388.816 244.021 388.192C242.877 387.568 241.967 386.719 241.291 385.644C240.632 384.552 240.303 383.313 240.303 381.926C240.303 380.522 240.632 379.283 241.291 378.208C241.967 377.116 242.877 376.267 244.021 375.66C245.182 375.036 246.508 374.724 247.999 374.724C249.472 374.724 250.789 375.036 251.951 375.66C253.112 376.267 254.022 377.107 254.681 378.182C255.339 379.257 255.669 380.505 255.669 381.926C255.669 383.313 255.339 384.552 254.681 385.644C254.022 386.719 253.112 387.568 251.951 388.192C250.789 388.816 249.472 389.128 247.999 389.128ZM247.999 385.8C248.675 385.8 249.281 385.644 249.819 385.332C250.356 385.02 250.781 384.578 251.093 384.006C251.405 383.417 251.561 382.723 251.561 381.926C251.561 381.111 251.405 380.418 251.093 379.846C250.781 379.274 250.356 378.832 249.819 378.52C249.281 378.208 248.675 378.052 247.999 378.052C247.323 378.052 246.716 378.208 246.179 378.52C245.641 378.832 245.208 379.274 244.879 379.846C244.567 380.418 244.411 381.111 244.411 381.926C244.411 382.723 244.567 383.417 244.879 384.006C245.208 384.578 245.641 385.02 246.179 385.332C246.716 385.644 247.323 385.8 247.999 385.8ZM264.412 389.128C263.251 389.128 262.211 388.903 261.292 388.452C260.391 388.001 259.689 387.317 259.186 386.398C258.683 385.462 258.432 384.275 258.432 382.836V374.932H262.488V382.238C262.488 383.399 262.731 384.257 263.216 384.812C263.719 385.349 264.421 385.618 265.322 385.618C265.946 385.618 266.501 385.488 266.986 385.228C267.471 384.951 267.853 384.535 268.13 383.98C268.407 383.408 268.546 382.697 268.546 381.848V374.932H272.602V388.92H268.754V385.072L269.456 386.19C268.988 387.161 268.295 387.897 267.376 388.4C266.475 388.885 265.487 389.128 264.412 389.128ZM284.757 389.128C283.579 389.128 282.547 388.868 281.663 388.348C280.779 387.828 280.086 387.039 279.583 385.982C279.098 384.907 278.855 383.555 278.855 381.926C278.855 380.279 279.089 378.927 279.557 377.87C280.025 376.813 280.701 376.024 281.585 375.504C282.469 374.984 283.527 374.724 284.757 374.724C286.075 374.724 287.253 375.027 288.293 375.634C289.351 376.223 290.183 377.055 290.789 378.13C291.413 379.205 291.725 380.47 291.725 381.926C291.725 383.399 291.413 384.673 290.789 385.748C290.183 386.823 289.351 387.655 288.293 388.244C287.253 388.833 286.075 389.128 284.757 389.128ZM276.489 393.964V374.932H280.363V377.792L280.285 381.952L280.545 386.086V393.964H276.489ZM284.055 385.8C284.731 385.8 285.329 385.644 285.849 385.332C286.387 385.02 286.811 384.578 287.123 384.006C287.453 383.417 287.617 382.723 287.617 381.926C287.617 381.111 287.453 380.418 287.123 379.846C286.811 379.274 286.387 378.832 285.849 378.52C285.329 378.208 284.731 378.052 284.055 378.052C283.379 378.052 282.773 378.208 282.235 378.52C281.698 378.832 281.273 379.274 280.961 379.846C280.649 380.418 280.493 381.111 280.493 381.926C280.493 382.723 280.649 383.417 280.961 384.006C281.273 384.578 281.698 385.02 282.235 385.332C282.773 385.644 283.379 385.8 284.055 385.8Z" fill="#1F1F1F"/>
<path d="M124.786 437.268C123.469 437.268 122.221 437.06 121.042 436.644C119.881 436.211 118.945 435.639 118.234 434.928L119.144 433.446C119.733 434.053 120.522 434.556 121.51 434.954C122.515 435.353 123.607 435.552 124.786 435.552C126.294 435.552 127.447 435.223 128.244 434.564C129.059 433.906 129.466 433.022 129.466 431.912C129.466 430.803 129.067 429.919 128.27 429.26C127.49 428.602 126.251 428.272 124.552 428.272H123.252V426.894L128.868 419.848L129.128 420.576H118.988V418.912H130.688V420.238L125.072 427.284L124.162 426.686H124.864C127.048 426.686 128.677 427.172 129.752 428.142C130.844 429.113 131.39 430.361 131.39 431.886C131.39 432.909 131.147 433.828 130.662 434.642C130.177 435.457 129.44 436.098 128.452 436.566C127.481 437.034 126.259 437.268 124.786 437.268ZM139.65 437.268C138.35 437.268 137.111 437.06 135.932 436.644C134.753 436.211 133.817 435.639 133.124 434.928L134.034 433.446C134.606 434.053 135.386 434.556 136.374 434.954C137.379 435.353 138.463 435.552 139.624 435.552C141.167 435.552 142.337 435.214 143.134 434.538C143.949 433.845 144.356 432.944 144.356 431.834C144.356 431.054 144.165 430.387 143.784 429.832C143.42 429.26 142.796 428.818 141.912 428.506C141.028 428.194 139.815 428.038 138.272 428.038H134.398L135.334 418.912H145.292V420.576H136.088L137.05 419.666L136.244 427.31L135.282 426.374H138.688C140.525 426.374 141.999 426.6 143.108 427.05C144.217 427.501 145.015 428.134 145.5 428.948C146.003 429.746 146.254 430.682 146.254 431.756C146.254 432.779 146.011 433.715 145.526 434.564C145.041 435.396 144.313 436.055 143.342 436.54C142.371 437.026 141.141 437.268 139.65 437.268ZM154.064 433.524V422.5H155.702V433.524H154.064ZM149.228 428.792V427.258H160.538V428.792H149.228ZM172.106 442.286C171.465 442.286 170.85 442.182 170.26 441.974C169.688 441.766 169.194 441.454 168.778 441.038L169.636 439.66C169.983 439.99 170.356 440.241 170.754 440.414C171.17 440.605 171.63 440.7 172.132 440.7C172.739 440.7 173.259 440.527 173.692 440.18C174.143 439.851 174.568 439.262 174.966 438.412L175.85 436.41L176.058 436.124L181.674 423.462H183.494L176.656 438.75C176.275 439.634 175.85 440.336 175.382 440.856C174.932 441.376 174.438 441.74 173.9 441.948C173.363 442.174 172.765 442.286 172.106 442.286ZM175.746 437.502L169.454 423.462H171.378L176.942 435.994L175.746 437.502ZM191.641 437.242C190.22 437.242 188.972 436.948 187.897 436.358C186.822 435.752 185.982 434.928 185.375 433.888C184.768 432.831 184.465 431.626 184.465 430.274C184.465 428.922 184.751 427.726 185.323 426.686C185.912 425.646 186.71 424.832 187.715 424.242C188.738 423.636 189.882 423.332 191.147 423.332C192.43 423.332 193.565 423.627 194.553 424.216C195.558 424.788 196.347 425.603 196.919 426.66C197.491 427.7 197.777 428.905 197.777 430.274C197.777 430.361 197.768 430.456 197.751 430.56C197.751 430.647 197.751 430.742 197.751 430.846H185.869V429.468H196.763L196.035 430.014C196.035 429.026 195.818 428.151 195.385 427.388C194.969 426.608 194.397 426.002 193.669 425.568C192.941 425.135 192.1 424.918 191.147 424.918C190.211 424.918 189.37 425.135 188.625 425.568C187.88 426.002 187.299 426.608 186.883 427.388C186.467 428.168 186.259 429.061 186.259 430.066V430.352C186.259 431.392 186.484 432.311 186.935 433.108C187.403 433.888 188.044 434.504 188.859 434.954C189.691 435.388 190.636 435.604 191.693 435.604C192.525 435.604 193.296 435.457 194.007 435.162C194.735 434.868 195.359 434.417 195.879 433.81L196.919 435.006C196.312 435.734 195.55 436.289 194.631 436.67C193.73 437.052 192.733 437.242 191.641 437.242ZM209.838 437.112V434.096L209.76 433.602V428.558C209.76 427.397 209.43 426.504 208.772 425.88C208.13 425.256 207.168 424.944 205.886 424.944C205.002 424.944 204.161 425.092 203.364 425.386C202.566 425.681 201.89 426.071 201.336 426.556L200.504 425.178C201.197 424.589 202.029 424.138 203 423.826C203.97 423.497 204.993 423.332 206.068 423.332C207.836 423.332 209.196 423.774 210.15 424.658C211.12 425.525 211.606 426.851 211.606 428.636V437.112H209.838ZM205.132 437.242C204.109 437.242 203.216 437.078 202.454 436.748C201.708 436.402 201.136 435.934 200.738 435.344C200.339 434.738 200.14 434.044 200.14 433.264C200.14 432.554 200.304 431.912 200.634 431.34C200.98 430.751 201.535 430.283 202.298 429.936C203.078 429.572 204.118 429.39 205.418 429.39H210.124V430.768H205.47C204.152 430.768 203.234 431.002 202.714 431.47C202.211 431.938 201.96 432.519 201.96 433.212C201.96 433.992 202.263 434.616 202.87 435.084C203.476 435.552 204.326 435.786 205.418 435.786C206.458 435.786 207.35 435.552 208.096 435.084C208.858 434.599 209.413 433.906 209.76 433.004L210.176 434.278C209.829 435.18 209.222 435.899 208.356 436.436C207.506 436.974 206.432 437.242 205.132 437.242ZM216.75 437.112V423.462H218.518V427.18L218.336 426.53C218.717 425.49 219.358 424.702 220.26 424.164C221.161 423.61 222.279 423.332 223.614 423.332V425.126C223.544 425.126 223.475 425.126 223.406 425.126C223.336 425.109 223.267 425.1 223.198 425.1C221.759 425.1 220.632 425.542 219.818 426.426C219.003 427.293 218.596 428.532 218.596 430.144V437.112H216.75ZM230.93 437.242C229.804 437.242 228.738 437.086 227.732 436.774C226.727 436.445 225.938 436.038 225.366 435.552L226.198 434.096C226.753 434.512 227.464 434.876 228.33 435.188C229.197 435.483 230.107 435.63 231.06 435.63C232.36 435.63 233.296 435.431 233.868 435.032C234.44 434.616 234.726 434.07 234.726 433.394C234.726 432.892 234.562 432.502 234.232 432.224C233.92 431.93 233.504 431.713 232.984 431.574C232.464 431.418 231.884 431.288 231.242 431.184C230.601 431.08 229.96 430.959 229.318 430.82C228.694 430.682 228.122 430.482 227.602 430.222C227.082 429.945 226.658 429.572 226.328 429.104C226.016 428.636 225.86 428.012 225.86 427.232C225.86 426.487 226.068 425.82 226.484 425.23C226.9 424.641 227.507 424.182 228.304 423.852C229.119 423.506 230.107 423.332 231.268 423.332C232.152 423.332 233.036 423.454 233.92 423.696C234.804 423.922 235.532 424.225 236.104 424.606L235.298 426.088C234.692 425.672 234.042 425.378 233.348 425.204C232.655 425.014 231.962 424.918 231.268 424.918C230.038 424.918 229.128 425.135 228.538 425.568C227.966 425.984 227.68 426.522 227.68 427.18C227.68 427.7 227.836 428.108 228.148 428.402C228.478 428.697 228.902 428.931 229.422 429.104C229.96 429.26 230.54 429.39 231.164 429.494C231.806 429.598 232.438 429.728 233.062 429.884C233.704 430.023 234.284 430.222 234.804 430.482C235.342 430.725 235.766 431.08 236.078 431.548C236.408 431.999 236.572 432.597 236.572 433.342C236.572 434.14 236.347 434.833 235.896 435.422C235.463 435.994 234.822 436.445 233.972 436.774C233.14 437.086 232.126 437.242 230.93 437.242ZM252.588 437.242C251.271 437.242 250.084 436.948 249.026 436.358C247.986 435.752 247.163 434.928 246.556 433.888C245.95 432.831 245.646 431.626 245.646 430.274C245.646 428.905 245.95 427.7 246.556 426.66C247.163 425.62 247.986 424.806 249.026 424.216C250.066 423.627 251.254 423.332 252.588 423.332C253.94 423.332 255.136 423.627 256.176 424.216C257.234 424.806 258.057 425.62 258.646 426.66C259.253 427.7 259.556 428.905 259.556 430.274C259.556 431.626 259.253 432.831 258.646 433.888C258.057 434.928 257.234 435.752 256.176 436.358C255.119 436.948 253.923 437.242 252.588 437.242ZM252.588 435.604C253.576 435.604 254.452 435.388 255.214 434.954C255.977 434.504 256.575 433.88 257.008 433.082C257.459 432.268 257.684 431.332 257.684 430.274C257.684 429.2 257.459 428.264 257.008 427.466C256.575 426.669 255.977 426.054 255.214 425.62C254.452 425.17 253.585 424.944 252.614 424.944C251.644 424.944 250.777 425.17 250.014 425.62C249.252 426.054 248.645 426.669 248.194 427.466C247.744 428.264 247.518 429.2 247.518 430.274C247.518 431.332 247.744 432.268 248.194 433.082C248.645 433.88 249.252 434.504 250.014 434.954C250.777 435.388 251.635 435.604 252.588 435.604ZM263.767 437.112V421.746C263.767 420.533 264.122 419.554 264.833 418.808C265.544 418.063 266.566 417.69 267.901 417.69C268.421 417.69 268.924 417.76 269.409 417.898C269.894 418.037 270.302 418.254 270.631 418.548L270.007 419.926C269.747 419.701 269.444 419.536 269.097 419.432C268.75 419.311 268.378 419.25 267.979 419.25C267.199 419.25 266.601 419.467 266.185 419.9C265.769 420.334 265.561 420.975 265.561 421.824V423.904L265.613 424.762V437.112H263.767ZM261.323 424.996V423.462H269.773V424.996H261.323ZM285.128 437.242C283.707 437.242 282.459 436.948 281.384 436.358C280.31 435.752 279.469 434.928 278.862 433.888C278.256 432.831 277.952 431.626 277.952 430.274C277.952 428.922 278.238 427.726 278.81 426.686C279.4 425.646 280.197 424.832 281.202 424.242C282.225 423.636 283.369 423.332 284.634 423.332C285.917 423.332 287.052 423.627 288.04 424.216C289.046 424.788 289.834 425.603 290.406 426.66C290.978 427.7 291.264 428.905 291.264 430.274C291.264 430.361 291.256 430.456 291.238 430.56C291.238 430.647 291.238 430.742 291.238 430.846H279.356V429.468H290.25L289.522 430.014C289.522 429.026 289.306 428.151 288.872 427.388C288.456 426.608 287.884 426.002 287.156 425.568C286.428 425.135 285.588 424.918 284.634 424.918C283.698 424.918 282.858 425.135 282.112 425.568C281.367 426.002 280.786 426.608 280.37 427.388C279.954 428.168 279.746 429.061 279.746 430.066V430.352C279.746 431.392 279.972 432.311 280.422 433.108C280.89 433.888 281.532 434.504 282.346 434.954C283.178 435.388 284.123 435.604 285.18 435.604C286.012 435.604 286.784 435.457 287.494 435.162C288.222 434.868 288.846 434.417 289.366 433.81L290.406 435.006C289.8 435.734 289.037 436.289 288.118 436.67C287.217 437.052 286.22 437.242 285.128 437.242ZM292.691 437.112L298.463 429.624L298.437 430.534L292.951 423.462H295.031L299.529 429.312L298.749 429.286L303.247 423.462H305.275L299.737 430.612L299.763 429.624L305.587 437.112H303.481L298.723 430.872L299.451 430.976L294.771 437.112H292.691ZM315.836 437.242C314.657 437.242 313.591 436.974 312.638 436.436C311.684 435.882 310.922 435.093 310.35 434.07C309.795 433.03 309.518 431.765 309.518 430.274C309.518 428.784 309.795 427.527 310.35 426.504C310.904 425.464 311.658 424.676 312.612 424.138C313.565 423.601 314.64 423.332 315.836 423.332C317.136 423.332 318.297 423.627 319.32 424.216C320.36 424.788 321.174 425.603 321.764 426.66C322.353 427.7 322.648 428.905 322.648 430.274C322.648 431.661 322.353 432.874 321.764 433.914C321.174 434.954 320.36 435.769 319.32 436.358C318.297 436.948 317.136 437.242 315.836 437.242ZM308.79 442.156V423.462H310.558V427.57L310.376 430.3L310.636 433.056V442.156H308.79ZM315.706 435.604C316.676 435.604 317.543 435.388 318.306 434.954C319.068 434.504 319.675 433.88 320.126 433.082C320.576 432.268 320.802 431.332 320.802 430.274C320.802 429.217 320.576 428.29 320.126 427.492C319.675 426.695 319.068 426.071 318.306 425.62C317.543 425.17 316.676 424.944 315.706 424.944C314.735 424.944 313.86 425.17 313.08 425.62C312.317 426.071 311.71 426.695 311.26 427.492C310.826 428.29 310.61 429.217 310.61 430.274C310.61 431.332 310.826 432.268 311.26 433.082C311.71 433.88 312.317 434.504 313.08 434.954C313.86 435.388 314.735 435.604 315.706 435.604ZM332.339 437.242C330.917 437.242 329.669 436.948 328.595 436.358C327.52 435.752 326.679 434.928 326.073 433.888C325.466 432.831 325.163 431.626 325.163 430.274C325.163 428.922 325.449 427.726 326.021 426.686C326.61 425.646 327.407 424.832 328.413 424.242C329.435 423.636 330.579 423.332 331.845 423.332C333.127 423.332 334.263 423.627 335.251 424.216C336.256 424.788 337.045 425.603 337.617 426.66C338.189 427.7 338.475 428.905 338.475 430.274C338.475 430.361 338.466 430.456 338.449 430.56C338.449 430.647 338.449 430.742 338.449 430.846H326.567V429.468H337.461L336.733 430.014C336.733 429.026 336.516 428.151 336.083 427.388C335.667 426.608 335.095 426.002 334.367 425.568C333.639 425.135 332.798 424.918 331.845 424.918C330.909 424.918 330.068 425.135 329.323 425.568C328.577 426.002 327.997 426.608 327.581 427.388C327.165 428.168 326.957 429.061 326.957 430.066V430.352C326.957 431.392 327.182 432.311 327.633 433.108C328.101 433.888 328.742 434.504 329.557 434.954C330.389 435.388 331.333 435.604 332.391 435.604C333.223 435.604 333.994 435.457 334.705 435.162C335.433 434.868 336.057 434.417 336.577 433.81L337.617 435.006C337.01 435.734 336.247 436.289 335.329 436.67C334.427 437.052 333.431 437.242 332.339 437.242ZM342.362 437.112V423.462H344.13V427.18L343.948 426.53C344.329 425.49 344.971 424.702 345.872 424.164C346.773 423.61 347.891 423.332 349.226 423.332V425.126C349.157 425.126 349.087 425.126 349.018 425.126C348.949 425.109 348.879 425.1 348.81 425.1C347.371 425.1 346.245 425.542 345.43 426.426C344.615 427.293 344.208 428.532 344.208 430.144V437.112H342.362ZM352.725 437.112V423.462H354.571V437.112H352.725ZM353.661 420.446C353.279 420.446 352.959 420.316 352.699 420.056C352.439 419.796 352.309 419.484 352.309 419.12C352.309 418.756 352.439 418.453 352.699 418.21C352.959 417.95 353.279 417.82 353.661 417.82C354.042 417.82 354.363 417.942 354.623 418.184C354.883 418.427 355.013 418.73 355.013 419.094C355.013 419.476 354.883 419.796 354.623 420.056C354.38 420.316 354.059 420.446 353.661 420.446ZM365.635 437.242C364.214 437.242 362.966 436.948 361.891 436.358C360.816 435.752 359.976 434.928 359.369 433.888C358.762 432.831 358.459 431.626 358.459 430.274C358.459 428.922 358.745 427.726 359.317 426.686C359.906 425.646 360.704 424.832 361.709 424.242C362.732 423.636 363.876 423.332 365.141 423.332C366.424 423.332 367.559 423.627 368.547 424.216C369.552 424.788 370.341 425.603 370.913 426.66C371.485 427.7 371.771 428.905 371.771 430.274C371.771 430.361 371.762 430.456 371.745 430.56C371.745 430.647 371.745 430.742 371.745 430.846H359.863V429.468H370.757L370.029 430.014C370.029 429.026 369.812 428.151 369.379 427.388C368.963 426.608 368.391 426.002 367.663 425.568C366.935 425.135 366.094 424.918 365.141 424.918C364.205 424.918 363.364 425.135 362.619 425.568C361.874 426.002 361.293 426.608 360.877 427.388C360.461 428.168 360.253 429.061 360.253 430.066V430.352C360.253 431.392 360.478 432.311 360.929 433.108C361.397 433.888 362.038 434.504 362.853 434.954C363.685 435.388 364.63 435.604 365.687 435.604C366.519 435.604 367.29 435.457 368.001 435.162C368.729 434.868 369.353 434.417 369.873 433.81L370.913 435.006C370.306 435.734 369.544 436.289 368.625 436.67C367.724 437.052 366.727 437.242 365.635 437.242ZM382.626 423.332C383.736 423.332 384.706 423.549 385.538 423.982C386.388 424.398 387.046 425.04 387.514 425.906C388 426.773 388.242 427.865 388.242 429.182V437.112H386.396V429.364C386.396 427.926 386.032 426.842 385.304 426.114C384.594 425.369 383.588 424.996 382.288 424.996C381.318 424.996 380.468 425.196 379.74 425.594C379.03 425.976 378.475 426.539 378.076 427.284C377.695 428.012 377.504 428.896 377.504 429.936V437.112H375.658V423.462H377.426V427.206L377.14 426.504C377.574 425.516 378.267 424.745 379.22 424.19C380.174 423.618 381.309 423.332 382.626 423.332ZM399.027 437.242C397.675 437.242 396.461 436.948 395.387 436.358C394.329 435.752 393.497 434.928 392.891 433.888C392.284 432.831 391.981 431.626 391.981 430.274C391.981 428.905 392.284 427.7 392.891 426.66C393.497 425.62 394.329 424.806 395.387 424.216C396.461 423.627 397.675 423.332 399.027 423.332C400.188 423.332 401.237 423.558 402.173 424.008C403.109 424.459 403.845 425.135 404.383 426.036L403.005 426.972C402.537 426.279 401.956 425.768 401.263 425.438C400.569 425.109 399.815 424.944 399.001 424.944C398.03 424.944 397.155 425.17 396.375 425.62C395.595 426.054 394.979 426.669 394.529 427.466C394.078 428.264 393.853 429.2 393.853 430.274C393.853 431.349 394.078 432.285 394.529 433.082C394.979 433.88 395.595 434.504 396.375 434.954C397.155 435.388 398.03 435.604 399.001 435.604C399.815 435.604 400.569 435.44 401.263 435.11C401.956 434.781 402.537 434.278 403.005 433.602L404.383 434.538C403.845 435.422 403.109 436.098 402.173 436.566C401.237 437.017 400.188 437.242 399.027 437.242ZM413.709 437.242C412.287 437.242 411.039 436.948 409.965 436.358C408.89 435.752 408.049 434.928 407.443 433.888C406.836 432.831 406.533 431.626 406.533 430.274C406.533 428.922 406.819 427.726 407.391 426.686C407.98 425.646 408.777 424.832 409.783 424.242C410.805 423.636 411.949 423.332 413.215 423.332C414.497 423.332 415.633 423.627 416.621 424.216C417.626 424.788 418.415 425.603 418.987 426.66C419.559 427.7 419.845 428.905 419.845 430.274C419.845 430.361 419.836 430.456 419.819 430.56C419.819 430.647 419.819 430.742 419.819 430.846H407.937V429.468H418.831L418.103 430.014C418.103 429.026 417.886 428.151 417.453 427.388C417.037 426.608 416.465 426.002 415.737 425.568C415.009 425.135 414.168 424.918 413.215 424.918C412.279 424.918 411.438 425.135 410.693 425.568C409.947 426.002 409.367 426.608 408.951 427.388C408.535 428.168 408.327 429.061 408.327 430.066V430.352C408.327 431.392 408.552 432.311 409.003 433.108C409.471 433.888 410.112 434.504 410.927 434.954C411.759 435.388 412.703 435.604 413.761 435.604C414.593 435.604 415.364 435.457 416.075 435.162C416.803 434.868 417.427 434.417 417.947 433.81L418.987 435.006C418.38 435.734 417.617 436.289 416.699 436.67C415.797 437.052 414.801 437.242 413.709 437.242Z" fill="#1F1F1F"/>
<g filter="url(#filter2_ii_42_2285)">
<rect x="364" y="533" width="85" height="85" rx="42.5" fill="#F9F9F9"/>
</g>
<path d="M404.939 591.061C405.525 591.646 406.475 591.646 407.061 591.061L416.607 581.515C417.192 580.929 417.192 579.979 416.607 579.393C416.021 578.808 415.071 578.808 414.485 579.393L406 587.879L397.515 579.393C396.929 578.808 395.979 578.808 395.393 579.393C394.808 579.979 394.808 580.929 395.393 581.515L404.939 591.061ZM404.5 589L404.5 590L407.5 590L407.5 589L404.5 589Z" fill="#12B7B6"/>
<path d="M404.939 578.061C405.525 578.646 406.475 578.646 407.061 578.061L416.607 568.515C417.192 567.929 417.192 566.979 416.607 566.393C416.021 565.808 415.071 565.808 414.485 566.393L406 574.879L397.515 566.393C396.929 565.808 395.979 565.808 395.393 566.393C394.808 566.979 394.808 567.929 395.393 568.515L404.939 578.061ZM404.5 576L404.5 577L407.5 577L407.5 576L404.5 576Z" fill="#12B7B6"/>
<path fill-rule="evenodd" clip-rule="evenodd" d="M188.56 193.239C188.803 193.174 188.914 193.268 189.059 193.442C189.887 194.448 192.555 197.954 193.281 198.914C193.307 198.948 193.327 198.988 193.338 199.029C193.349 199.071 193.352 199.115 193.346 199.158C193.34 199.201 193.325 199.243 193.303 199.28C193.281 199.317 193.252 199.349 193.217 199.374C187.838 203.903 181.854 210.309 178.519 214.899C178.448 214.996 178.507 215.003 178.554 214.981C184.363 212.282 198.007 207.975 204.162 206.769V198.368L180.106 177.849L156 198.368V207.55C163.472 202.759 180.737 195.343 188.56 193.239ZM300.395 180.705H310.981V234.709H300.395V180.705ZM292.554 180.705H281.969V234.711H292.554V180.705ZM362.837 199.374H352.38L362.97 234.716H372.708L375.367 225.781C376.422 222.231 378.181 215.603 378.181 215.603C378.186 215.585 378.196 215.569 378.21 215.557C378.224 215.546 378.241 215.54 378.259 215.54C378.295 215.54 378.326 215.564 378.338 215.603C378.338 215.603 380.1 222.359 381.1 225.841L383.709 234.709H393.275L403.789 199.371H394.07L391.037 210.062C390.112 213.451 389.212 216.847 388.338 220.25C388.334 220.268 388.324 220.284 388.31 220.296C388.296 220.307 388.278 220.313 388.26 220.313C388.242 220.313 388.225 220.307 388.211 220.296C388.197 220.284 388.187 220.268 388.182 220.25C388.182 220.25 386.55 213.726 385.493 210.062L382.37 199.374H374.645L371.466 210.062C370.47 213.482 368.722 220.255 368.722 220.255C368.717 220.272 368.706 220.286 368.692 220.296C368.678 220.306 368.661 220.311 368.644 220.311C368.627 220.311 368.611 220.305 368.598 220.295C368.584 220.285 368.574 220.271 368.568 220.255C368.568 220.255 366.88 213.605 365.867 210.062L362.837 199.374ZM316.22 217.162C316.22 206.425 324.246 198.472 334.064 198.472C343.786 198.472 351.814 206.428 351.814 217.162C351.814 227.931 343.791 235.887 334.064 235.887C324.248 235.887 316.22 227.931 316.22 217.17V217.162ZM341.657 217.162C341.657 211.905 338.18 208.326 334.064 208.326C329.852 208.326 326.377 211.905 326.377 217.162C326.377 222.456 329.852 225.999 334.064 225.999C338.18 225.999 341.657 222.456 341.657 217.162ZM220.738 185.701V196.114H239.446C239.522 196.114 239.55 196.191 239.513 196.259L220.731 230.7L220.698 230.762C220.272 231.604 220.171 231.807 220.171 232.68V234.711H256.612V224.318H236.369C236.353 224.318 236.337 224.313 236.324 224.304C236.31 224.295 236.3 224.282 236.293 224.267C236.286 224.252 236.283 224.234 236.285 224.217C236.287 224.2 236.293 224.184 236.303 224.17L255.302 189.278L255.354 189.167C255.486 188.876 255.614 188.606 255.614 187.88L255.619 185.704L220.738 185.701ZM268.645 181.672C271.944 181.672 274.672 184.545 274.672 188.083C274.672 191.623 271.944 194.501 268.645 194.501C265.345 194.501 262.62 191.628 262.62 188.088C262.62 184.548 265.345 181.675 268.645 181.675V181.672ZM263.353 199.374H273.936V234.711H263.353V199.374ZM168.468 228.443C168.598 228.608 168.823 228.642 168.988 228.526C177.925 223.559 197.584 217.254 204.162 216.048V234.924H156.002V215.312C160.953 212.29 174.327 206.089 179.034 204.43C179.129 204.397 179.15 204.455 179.07 204.52C174.552 208.14 167.47 216.684 164 222.175C163.841 222.432 163.851 222.514 163.976 222.671L168.468 228.443ZM409.277 192.61C410.192 192.61 410.845 193.321 410.845 194.337C410.845 195.106 410.46 195.713 409.873 195.952L410.774 197.548H409.918L409.081 196.063H408.343V197.543H407.59V192.61H409.277ZM408.343 195.338H409.23C409.729 195.338 410.095 194.922 410.095 194.344C410.095 193.764 409.729 193.34 409.232 193.34H408.343V195.338ZM409.05 190.898C407.451 190.898 406.01 191.938 405.4 193.529C405.099 194.307 405.02 195.156 405.172 195.978C405.323 196.8 405.699 197.562 406.256 198.174C406.791 198.766 407.493 199.173 408.265 199.338C409.036 199.504 409.839 199.42 410.561 199.098C412.037 198.438 413 196.883 413 195.159C412.998 192.806 411.231 190.9 409.05 190.898ZM409.05 198.602C407.758 198.602 406.595 197.763 406.1 196.477C405.857 195.848 405.794 195.162 405.916 194.498C406.038 193.834 406.341 193.219 406.791 192.724C407.704 191.737 409.078 191.442 410.27 191.977C411.462 192.509 412.241 193.766 412.241 195.159C412.238 197.06 410.812 198.6 409.05 198.602Z" fill="#006AFF"/>
<defs>
<filter id="filter0_dd_42_2285" x="0" y="0" width="570" height="732" filterUnits="userSpaceOnUse" color-interpolation-filters="sRGB">
<feFlood flood-opacity="0" result="BackgroundImageFix"/>
<feColorMatrix in="SourceAlpha" type="matrix" values="0 0 0 0 0 0 0 0 0 0 0 0 0 0 0 0 0 0 127 0" result="hardAlpha"/>
<feOffset dx="20" dy="20"/>
<feGaussianBlur stdDeviation="25"/>
<feColorMatrix type="matrix" values="0 0 0 0 0.823529 0 0 0 0 0.823529 0 0 0 0 0.823529 0 0 0 1 0"/>
<feBlend mode="normal" in2="BackgroundImageFix" result="effect1_dropShadow_42_2285"/>
<feColorMatrix in="SourceAlpha" type="matrix" values="0 0 0 0 0 0 0 0 0 0 0 0 0 0 0 0 0 0 127 0" result="hardAlpha"/>
<feOffset dx="-20" dy="-20"/>
<feGaussianBlur stdDeviation="25"/>
<feColorMatrix type="matrix" values="0 0 0 0 1 0 0 0 0 1 0 0 0 0 1 0 0 0 1 0"/>
<feBlend mode="normal" in2="effect1_dropShadow_42_2285" result="effect2_dropShadow_42_2285"/>
<feBlend mode="normal" in="SourceGraphic" in2="effect2_dropShadow_42_2285" result="shape"/>
</filter>
<filter id="filter1_dd_42_2285" x="91" y="503" width="388" height="145" filterUnits="userSpaceOnUse" color-interpolation-filters="sRGB">
<feFlood flood-opacity="0" result="BackgroundImageFix"/>
<feColorMatrix in="SourceAlpha" type="matrix" values="0 0 0 0 0 0 0 0 0 0 0 0 0 0 0 0 0 0 127 0" result="hardAlpha"/>
<feOffset dx="10" dy="10"/>
<feGaussianBlur stdDeviation="10"/>
<feColorMatrix type="matrix" values="0 0 0 0 0 0 0 0 0 0 0 0 0 0 0 0 0 0 0.08 0"/>
<feBlend mode="normal" in2="BackgroundImageFix" result="effect1_dropShadow_42_2285"/>
<feColorMatrix in="SourceAlpha" type="matrix" values="0 0 0 0 0 0 0 0 0 0 0 0 0 0 0 0 0 0 127 0" result="hardAlpha"/>
<feOffset dx="-10" dy="-10"/>
<feGaussianBlur stdDeviation="10"/>
<feColorMatrix type="matrix" values="0 0 0 0 1 0 0 0 0 1 0 0 0 0 1 0 0 0 1 0"/>
<feBlend mode="normal" in2="effect1_dropShadow_42_2285" result="effect2_dropShadow_42_2285"/>
<feBlend mode="normal" in="SourceGraphic" in2="effect2_dropShadow_42_2285" result="shape"/>
</filter>
<filter id="filter2_ii_42_2285" x="354" y="523" width="105" height="105" filterUnits="userSpaceOnUse" color-interpolation-filters="sRGB">
<feFlood flood-opacity="0" result="BackgroundImageFix"/>
<feBlend mode="normal" in="SourceGraphic" in2="BackgroundImageFix" result="shape"/>
<feColorMatrix in="SourceAlpha" type="matrix" values="0 0 0 0 0 0 0 0 0 0 0 0 0 0 0 0 0 0 127 0" result="hardAlpha"/>
<feOffset dx="10" dy="10"/>
<feGaussianBlur stdDeviation="10"/>
<feComposite in2="hardAlpha" operator="arithmetic" k2="-1" k3="1"/>
<feColorMatrix type="matrix" values="0 0 0 0 0 0 0 0 0 0 0 0 0 0 0 0 0 0 0.08 0"/>
<feBlend mode="normal" in2="shape" result="effect1_innerShadow_42_2285"/>
<feColorMatrix in="SourceAlpha" type="matrix" values="0 0 0 0 0 0 0 0 0 0 0 0 0 0 0 0 0 0 127 0" result="hardAlpha"/>
<feOffset dx="-10" dy="-10"/>
<feGaussianBlur stdDeviation="10"/>
<feComposite in2="hardAlpha" operator="arithmetic" k2="-1" k3="1"/>
<feColorMatrix type="matrix" values="0 0 0 0 1 0 0 0 0 1 0 0 0 0 1 0 0 0 1 0"/>
<feBlend mode="normal" in2="effect1_innerShadow_42_2285" result="effect2_innerShadow_42_2285"/>
</filter>
</defs>
</svg>
