<svg width="570" height="732" viewBox="0 0 570 732" fill="none" xmlns="http://www.w3.org/2000/svg">
<g filter="url(#filter0_dd_153_2189)">
<rect x="70" y="70" width="430" height="592" rx="43" fill="#F3F3F3"/>
</g>
<g filter="url(#filter1_dd_153_2189)">
<rect x="121" y="533" width="328" height="85" rx="42.5" fill="#F9F9F9"/>
</g>
<path d="M124.798 461.6V477H121.234V464.46H118.154V461.6H124.798ZM132.863 467.386C135.034 467.386 136.633 467.819 137.659 468.684C138.701 469.549 139.221 470.708 139.221 472.16C139.221 473.099 138.987 473.957 138.517 474.734C138.048 475.497 137.329 476.113 136.361 476.582C135.408 477.037 134.227 477.264 132.819 477.264C131.734 477.264 130.663 477.125 129.607 476.846C128.566 476.553 127.679 476.142 126.945 475.614L128.353 472.886C128.94 473.326 129.615 473.671 130.377 473.92C131.14 474.155 131.925 474.272 132.731 474.272C133.626 474.272 134.33 474.096 134.843 473.744C135.357 473.392 135.613 472.901 135.613 472.27C135.613 471.61 135.342 471.111 134.799 470.774C134.271 470.437 133.347 470.268 132.027 470.268H128.089L128.881 461.6H138.275V464.46H131.851L131.609 467.386H132.863ZM147.377 477.264C146.101 477.264 144.965 476.949 143.967 476.318C142.97 475.687 142.185 474.778 141.613 473.59C141.056 472.387 140.777 470.957 140.777 469.3C140.777 467.643 141.056 466.22 141.613 465.032C142.185 463.829 142.97 462.913 143.967 462.282C144.965 461.651 146.101 461.336 147.377 461.336C148.653 461.336 149.79 461.651 150.787 462.282C151.785 462.913 152.562 463.829 153.119 465.032C153.691 466.22 153.977 467.643 153.977 469.3C153.977 470.957 153.691 472.387 153.119 473.59C152.562 474.778 151.785 475.687 150.787 476.318C149.79 476.949 148.653 477.264 147.377 477.264ZM147.377 474.25C148.316 474.25 149.049 473.847 149.577 473.04C150.12 472.233 150.391 470.987 150.391 469.3C150.391 467.613 150.12 466.367 149.577 465.56C149.049 464.753 148.316 464.35 147.377 464.35C146.453 464.35 145.72 464.753 145.177 465.56C144.649 466.367 144.385 467.613 144.385 469.3C144.385 470.987 144.649 472.233 145.177 473.04C145.72 473.847 146.453 474.25 147.377 474.25ZM166.883 470.642H163.055V474.382H160.217V470.642H156.411V467.958H160.217V464.218H163.055V467.958H166.883V470.642ZM183.159 461.6C184.523 461.6 185.704 461.827 186.701 462.282C187.713 462.737 188.491 463.382 189.033 464.218C189.576 465.054 189.847 466.044 189.847 467.188C189.847 468.317 189.576 469.307 189.033 470.158C188.491 470.994 187.713 471.639 186.701 472.094C185.704 472.534 184.523 472.754 183.159 472.754H180.057V477H176.493V461.6H183.159ZM182.961 469.85C184.032 469.85 184.846 469.623 185.403 469.168C185.961 468.699 186.239 468.039 186.239 467.188C186.239 466.323 185.961 465.663 185.403 465.208C184.846 464.739 184.032 464.504 182.961 464.504H180.057V469.85H182.961ZM195.538 466.726C195.948 466.154 196.498 465.721 197.188 465.428C197.892 465.135 198.698 464.988 199.608 464.988V468.156C199.226 468.127 198.97 468.112 198.838 468.112C197.855 468.112 197.085 468.391 196.528 468.948C195.97 469.491 195.692 470.312 195.692 471.412V477H192.26V465.164H195.538V466.726ZM207.283 477.176C206.036 477.176 204.914 476.919 203.917 476.406C202.934 475.878 202.164 475.152 201.607 474.228C201.05 473.304 200.771 472.255 200.771 471.082C200.771 469.909 201.05 468.86 201.607 467.936C202.164 467.012 202.934 466.293 203.917 465.78C204.914 465.252 206.036 464.988 207.283 464.988C208.53 464.988 209.644 465.252 210.627 465.78C211.61 466.293 212.38 467.012 212.937 467.936C213.494 468.86 213.773 469.909 213.773 471.082C213.773 472.255 213.494 473.304 212.937 474.228C212.38 475.152 211.61 475.878 210.627 476.406C209.644 476.919 208.53 477.176 207.283 477.176ZM207.283 474.36C208.163 474.36 208.882 474.067 209.439 473.48C210.011 472.879 210.297 472.079 210.297 471.082C210.297 470.085 210.011 469.293 209.439 468.706C208.882 468.105 208.163 467.804 207.283 467.804C206.403 467.804 205.677 468.105 205.105 468.706C204.533 469.293 204.247 470.085 204.247 471.082C204.247 472.079 204.533 472.879 205.105 473.48C205.677 474.067 206.403 474.36 207.283 474.36ZM215.297 481.444C214.094 481.444 213.178 481.224 212.547 480.784L213.471 478.298C213.867 478.577 214.351 478.716 214.923 478.716C215.363 478.716 215.708 478.569 215.957 478.276C216.206 477.997 216.331 477.572 216.331 477V465.164H219.763V476.978C219.763 478.357 219.367 479.442 218.575 480.234C217.798 481.041 216.705 481.444 215.297 481.444ZM218.047 463.514C217.416 463.514 216.903 463.331 216.507 462.964C216.111 462.597 215.913 462.143 215.913 461.6C215.913 461.057 216.111 460.603 216.507 460.236C216.903 459.869 217.416 459.686 218.047 459.686C218.678 459.686 219.191 459.862 219.587 460.214C219.983 460.566 220.181 461.006 220.181 461.534C220.181 462.106 219.983 462.583 219.587 462.964C219.191 463.331 218.678 463.514 218.047 463.514ZM234.627 471.126C234.627 471.17 234.605 471.478 234.561 472.05H225.607C225.768 472.783 226.15 473.363 226.751 473.788C227.352 474.213 228.1 474.426 228.995 474.426C229.611 474.426 230.154 474.338 230.623 474.162C231.107 473.971 231.554 473.678 231.965 473.282L233.791 475.262C232.676 476.538 231.048 477.176 228.907 477.176C227.572 477.176 226.392 476.919 225.365 476.406C224.338 475.878 223.546 475.152 222.989 474.228C222.432 473.304 222.153 472.255 222.153 471.082C222.153 469.923 222.424 468.882 222.967 467.958C223.524 467.019 224.28 466.293 225.233 465.78C226.201 465.252 227.279 464.988 228.467 464.988C229.626 464.988 230.674 465.237 231.613 465.736C232.552 466.235 233.285 466.953 233.813 467.892C234.356 468.816 234.627 469.894 234.627 471.126ZM228.489 467.584C227.712 467.584 227.059 467.804 226.531 468.244C226.003 468.684 225.68 469.285 225.563 470.048H231.393C231.276 469.3 230.953 468.706 230.425 468.266C229.897 467.811 229.252 467.584 228.489 467.584ZM242.742 477.176C241.481 477.176 240.344 476.919 239.332 476.406C238.335 475.878 237.55 475.152 236.978 474.228C236.421 473.304 236.142 472.255 236.142 471.082C236.142 469.909 236.421 468.86 236.978 467.936C237.55 467.012 238.335 466.293 239.332 465.78C240.344 465.252 241.481 464.988 242.742 464.988C243.989 464.988 245.074 465.252 245.998 465.78C246.937 466.293 247.619 467.034 248.044 468.002L245.382 469.432C244.766 468.347 243.879 467.804 242.72 467.804C241.825 467.804 241.085 468.097 240.498 468.684C239.911 469.271 239.618 470.07 239.618 471.082C239.618 472.094 239.911 472.893 240.498 473.48C241.085 474.067 241.825 474.36 242.72 474.36C243.893 474.36 244.781 473.817 245.382 472.732L248.044 474.184C247.619 475.123 246.937 475.856 245.998 476.384C245.074 476.912 243.989 477.176 242.742 477.176ZM257.936 476.428C257.598 476.677 257.18 476.868 256.682 477C256.198 477.117 255.684 477.176 255.142 477.176C253.734 477.176 252.641 476.817 251.864 476.098C251.101 475.379 250.72 474.323 250.72 472.93V468.068H248.894V465.428H250.72V462.546H254.152V465.428H257.1V468.068H254.152V472.886C254.152 473.385 254.276 473.773 254.526 474.052C254.79 474.316 255.156 474.448 255.626 474.448C256.168 474.448 256.63 474.301 257.012 474.008L257.936 476.428ZM266.555 461.6H273.551C275.223 461.6 276.697 461.923 277.973 462.568C279.263 463.199 280.261 464.093 280.965 465.252C281.683 466.411 282.043 467.76 282.043 469.3C282.043 470.84 281.683 472.189 280.965 473.348C280.261 474.507 279.263 475.409 277.973 476.054C276.697 476.685 275.223 477 273.551 477H266.555V461.6ZM273.375 474.074C274.915 474.074 276.139 473.649 277.049 472.798C277.973 471.933 278.435 470.767 278.435 469.3C278.435 467.833 277.973 466.675 277.049 465.824C276.139 464.959 274.915 464.526 273.375 464.526H270.119V474.074H273.375ZM290.231 477.176C288.984 477.176 287.862 476.919 286.865 476.406C285.882 475.878 285.112 475.152 284.555 474.228C283.997 473.304 283.719 472.255 283.719 471.082C283.719 469.909 283.997 468.86 284.555 467.936C285.112 467.012 285.882 466.293 286.865 465.78C287.862 465.252 288.984 464.988 290.231 464.988C291.477 464.988 292.592 465.252 293.575 465.78C294.557 466.293 295.327 467.012 295.885 467.936C296.442 468.86 296.721 469.909 296.721 471.082C296.721 472.255 296.442 473.304 295.885 474.228C295.327 475.152 294.557 475.878 293.575 476.406C292.592 476.919 291.477 477.176 290.231 477.176ZM290.231 474.36C291.111 474.36 291.829 474.067 292.387 473.48C292.959 472.879 293.245 472.079 293.245 471.082C293.245 470.085 292.959 469.293 292.387 468.706C291.829 468.105 291.111 467.804 290.231 467.804C289.351 467.804 288.625 468.105 288.053 468.706C287.481 469.293 287.195 470.085 287.195 471.082C287.195 472.079 287.481 472.879 288.053 473.48C288.625 474.067 289.351 474.36 290.231 474.36ZM306.319 464.988C307.785 464.988 308.966 465.428 309.861 466.308C310.77 467.188 311.225 468.493 311.225 470.224V477H307.793V470.752C307.793 469.813 307.587 469.117 307.177 468.662C306.766 468.193 306.172 467.958 305.395 467.958C304.529 467.958 303.84 468.229 303.327 468.772C302.813 469.3 302.557 470.092 302.557 471.148V477H299.125V465.164H302.403V466.55C302.857 466.051 303.422 465.67 304.097 465.406C304.771 465.127 305.512 464.988 306.319 464.988ZM326.168 471.126C326.168 471.17 326.146 471.478 326.102 472.05H317.148C317.31 472.783 317.691 473.363 318.292 473.788C318.894 474.213 319.642 474.426 320.536 474.426C321.152 474.426 321.695 474.338 322.164 474.162C322.648 473.971 323.096 473.678 323.506 473.282L325.332 475.262C324.218 476.538 322.59 477.176 320.448 477.176C319.114 477.176 317.933 476.919 316.906 476.406C315.88 475.878 315.088 475.152 314.53 474.228C313.973 473.304 313.694 472.255 313.694 471.082C313.694 469.923 313.966 468.882 314.508 467.958C315.066 467.019 315.821 466.293 316.774 465.78C317.742 465.252 318.82 464.988 320.008 464.988C321.167 464.988 322.216 465.237 323.154 465.736C324.093 466.235 324.826 466.953 325.354 467.892C325.897 468.816 326.168 469.894 326.168 471.126ZM320.03 467.584C319.253 467.584 318.6 467.804 318.072 468.244C317.544 468.684 317.222 469.285 317.104 470.048H322.934C322.817 469.3 322.494 468.706 321.966 468.266C321.438 467.811 320.793 467.584 320.03 467.584Z" fill="#12B7B6"/>
<path d="M184.196 582.264C182.627 582.264 181.204 581.927 179.928 581.252C178.667 580.563 177.669 579.617 176.936 578.414C176.217 577.197 175.858 575.825 175.858 574.3C175.858 572.775 176.217 571.411 176.936 570.208C177.669 568.991 178.667 568.045 179.928 567.37C181.204 566.681 182.634 566.336 184.218 566.336C185.553 566.336 186.755 566.571 187.826 567.04C188.911 567.509 189.821 568.184 190.554 569.064L188.266 571.176C187.225 569.973 185.934 569.372 184.394 569.372C183.441 569.372 182.59 569.585 181.842 570.01C181.094 570.421 180.507 571 180.082 571.748C179.671 572.496 179.466 573.347 179.466 574.3C179.466 575.253 179.671 576.104 180.082 576.852C180.507 577.6 181.094 578.187 181.842 578.612C182.59 579.023 183.441 579.228 184.394 579.228C185.934 579.228 187.225 578.619 188.266 577.402L190.554 579.514C189.821 580.409 188.911 581.091 187.826 581.56C186.741 582.029 185.531 582.264 184.196 582.264ZM200.023 569.988C201.489 569.988 202.67 570.428 203.565 571.308C204.474 572.188 204.929 573.493 204.929 575.224V582H201.497V575.752C201.497 574.813 201.291 574.117 200.881 573.662C200.47 573.193 199.876 572.958 199.099 572.958C198.233 572.958 197.544 573.229 197.031 573.772C196.517 574.3 196.261 575.092 196.261 576.148V582H192.829V565.676H196.261V571.396C196.715 570.941 197.265 570.597 197.911 570.362C198.556 570.113 199.26 569.988 200.023 569.988ZM219.873 576.126C219.873 576.17 219.851 576.478 219.807 577.05H210.853C211.014 577.783 211.395 578.363 211.997 578.788C212.598 579.213 213.346 579.426 214.241 579.426C214.857 579.426 215.399 579.338 215.869 579.162C216.353 578.971 216.8 578.678 217.211 578.282L219.037 580.262C217.922 581.538 216.294 582.176 214.153 582.176C212.818 582.176 211.637 581.919 210.611 581.406C209.584 580.878 208.792 580.152 208.235 579.228C207.677 578.304 207.399 577.255 207.399 576.082C207.399 574.923 207.67 573.882 208.213 572.958C208.77 572.019 209.525 571.293 210.479 570.78C211.447 570.252 212.525 569.988 213.713 569.988C214.871 569.988 215.92 570.237 216.859 570.736C217.797 571.235 218.531 571.953 219.059 572.892C219.601 573.816 219.873 574.894 219.873 576.126ZM213.735 572.584C212.957 572.584 212.305 572.804 211.777 573.244C211.249 573.684 210.926 574.285 210.809 575.048H216.639C216.521 574.3 216.199 573.706 215.671 573.266C215.143 572.811 214.497 572.584 213.735 572.584ZM227.988 582.176C226.726 582.176 225.59 581.919 224.578 581.406C223.58 580.878 222.796 580.152 222.224 579.228C221.666 578.304 221.388 577.255 221.388 576.082C221.388 574.909 221.666 573.86 222.224 572.936C222.796 572.012 223.58 571.293 224.578 570.78C225.59 570.252 226.726 569.988 227.988 569.988C229.234 569.988 230.32 570.252 231.244 570.78C232.182 571.293 232.864 572.034 233.29 573.002L230.628 574.432C230.012 573.347 229.124 572.804 227.966 572.804C227.071 572.804 226.33 573.097 225.744 573.684C225.157 574.271 224.864 575.07 224.864 576.082C224.864 577.094 225.157 577.893 225.744 578.48C226.33 579.067 227.071 579.36 227.966 579.36C229.139 579.36 230.026 578.817 230.628 577.732L233.29 579.184C232.864 580.123 232.182 580.856 231.244 581.384C230.32 581.912 229.234 582.176 227.988 582.176ZM240.372 577.358L238.722 578.986V582H235.29V565.676H238.722V574.916L243.738 570.164H247.83L242.902 575.18L248.27 582H244.112L240.372 577.358ZM263.26 569.988C264.36 569.988 265.357 570.245 266.252 570.758C267.161 571.257 267.872 571.968 268.386 572.892C268.899 573.801 269.156 574.865 269.156 576.082C269.156 577.299 268.899 578.37 268.386 579.294C267.872 580.203 267.161 580.915 266.252 581.428C265.357 581.927 264.36 582.176 263.26 582.176C261.749 582.176 260.561 581.699 259.696 580.746V586.268H256.264V570.164H259.542V571.528C260.392 570.501 261.632 569.988 263.26 569.988ZM262.666 579.36C263.546 579.36 264.264 579.067 264.822 578.48C265.394 577.879 265.68 577.079 265.68 576.082C265.68 575.085 265.394 574.293 264.822 573.706C264.264 573.105 263.546 572.804 262.666 572.804C261.786 572.804 261.06 573.105 260.488 573.706C259.93 574.293 259.652 575.085 259.652 576.082C259.652 577.079 259.93 577.879 260.488 578.48C261.06 579.067 261.786 579.36 262.666 579.36ZM274.841 571.726C275.252 571.154 275.802 570.721 276.491 570.428C277.195 570.135 278.002 569.988 278.911 569.988V573.156C278.53 573.127 278.273 573.112 278.141 573.112C277.158 573.112 276.388 573.391 275.831 573.948C275.274 574.491 274.995 575.312 274.995 576.412V582H271.563V570.164H274.841V571.726ZM286.586 582.176C285.34 582.176 284.218 581.919 283.22 581.406C282.238 580.878 281.468 580.152 280.91 579.228C280.353 578.304 280.074 577.255 280.074 576.082C280.074 574.909 280.353 573.86 280.91 572.936C281.468 572.012 282.238 571.293 283.22 570.78C284.218 570.252 285.34 569.988 286.586 569.988C287.833 569.988 288.948 570.252 289.93 570.78C290.913 571.293 291.683 572.012 292.24 572.936C292.798 573.86 293.076 574.909 293.076 576.082C293.076 577.255 292.798 578.304 292.24 579.228C291.683 580.152 290.913 580.878 289.93 581.406C288.948 581.919 287.833 582.176 286.586 582.176ZM286.586 579.36C287.466 579.36 288.185 579.067 288.742 578.48C289.314 577.879 289.6 577.079 289.6 576.082C289.6 575.085 289.314 574.293 288.742 573.706C288.185 573.105 287.466 572.804 286.586 572.804C285.706 572.804 284.98 573.105 284.408 573.706C283.836 574.293 283.55 575.085 283.55 576.082C283.55 577.079 283.836 577.879 284.408 578.48C284.98 579.067 285.706 579.36 286.586 579.36ZM299.242 570.428H302.278V573.068H299.33V582H295.898V573.068H294.072V570.428H295.898V569.9C295.898 568.551 296.294 567.48 297.086 566.688C297.893 565.896 299.022 565.5 300.474 565.5C300.988 565.5 301.472 565.559 301.926 565.676C302.396 565.779 302.784 565.933 303.092 566.138L302.19 568.624C301.794 568.345 301.332 568.206 300.804 568.206C299.763 568.206 299.242 568.778 299.242 569.922V570.428ZM305.754 570.164H309.186V582H305.754V570.164ZM307.47 568.514C306.84 568.514 306.326 568.331 305.93 567.964C305.534 567.597 305.336 567.143 305.336 566.6C305.336 566.057 305.534 565.603 305.93 565.236C306.326 564.869 306.84 564.686 307.47 564.686C308.101 564.686 308.614 564.862 309.01 565.214C309.406 565.566 309.604 566.006 309.604 566.534C309.604 567.106 309.406 567.583 309.01 567.964C308.614 568.331 308.101 568.514 307.47 568.514ZM312.477 565.676H315.909V582H312.477V565.676ZM330.798 576.126C330.798 576.17 330.776 576.478 330.732 577.05H321.778C321.939 577.783 322.321 578.363 322.922 578.788C323.523 579.213 324.271 579.426 325.166 579.426C325.782 579.426 326.325 579.338 326.794 579.162C327.278 578.971 327.725 578.678 328.136 578.282L329.962 580.262C328.847 581.538 327.219 582.176 325.078 582.176C323.743 582.176 322.563 581.919 321.536 581.406C320.509 580.878 319.717 580.152 319.16 579.228C318.603 578.304 318.324 577.255 318.324 576.082C318.324 574.923 318.595 573.882 319.138 572.958C319.695 572.019 320.451 571.293 321.404 570.78C322.372 570.252 323.45 569.988 324.638 569.988C325.797 569.988 326.845 570.237 327.784 570.736C328.723 571.235 329.456 571.953 329.984 572.892C330.527 573.816 330.798 574.894 330.798 576.126ZM324.66 572.584C323.883 572.584 323.23 572.804 322.702 573.244C322.174 573.684 321.851 574.285 321.734 575.048H327.564C327.447 574.3 327.124 573.706 326.596 573.266C326.068 572.811 325.423 572.584 324.66 572.584Z" fill="#12B7B6"/>
<path d="M120.158 388.92V370.72H128.036C129.665 370.72 131.069 370.989 132.248 371.526C133.427 372.046 134.337 372.8 134.978 373.788C135.619 374.776 135.94 375.955 135.94 377.324C135.94 378.676 135.619 379.846 134.978 380.834C134.337 381.805 133.427 382.55 132.248 383.07C131.069 383.59 129.665 383.85 128.036 383.85H122.498L124.37 382.004V388.92H120.158ZM131.728 388.92L127.178 382.316H131.676L136.278 388.92H131.728ZM124.37 382.472L122.498 380.496H127.802C129.102 380.496 130.073 380.219 130.714 379.664C131.355 379.092 131.676 378.312 131.676 377.324C131.676 376.319 131.355 375.539 130.714 374.984C130.073 374.429 129.102 374.152 127.802 374.152H122.498L124.37 372.15V382.472ZM146.063 389.128C144.468 389.128 143.064 388.816 141.851 388.192C140.655 387.568 139.728 386.719 139.069 385.644C138.41 384.552 138.081 383.313 138.081 381.926C138.081 380.522 138.402 379.283 139.043 378.208C139.702 377.116 140.594 376.267 141.721 375.66C142.848 375.036 144.122 374.724 145.543 374.724C146.912 374.724 148.143 375.019 149.235 375.608C150.344 376.18 151.22 377.012 151.861 378.104C152.502 379.179 152.823 380.47 152.823 381.978C152.823 382.134 152.814 382.316 152.797 382.524C152.78 382.715 152.762 382.897 152.745 383.07H141.383V380.704H150.613L149.053 381.406C149.053 380.678 148.906 380.045 148.611 379.508C148.316 378.971 147.909 378.555 147.389 378.26C146.869 377.948 146.262 377.792 145.569 377.792C144.876 377.792 144.26 377.948 143.723 378.26C143.203 378.555 142.796 378.979 142.501 379.534C142.206 380.071 142.059 380.713 142.059 381.458V382.082C142.059 382.845 142.224 383.521 142.553 384.11C142.9 384.682 143.376 385.124 143.983 385.436C144.607 385.731 145.335 385.878 146.167 385.878C146.912 385.878 147.562 385.765 148.117 385.54C148.689 385.315 149.209 384.977 149.677 384.526L151.835 386.866C151.194 387.594 150.388 388.157 149.417 388.556C148.446 388.937 147.328 389.128 146.063 389.128ZM161.659 389.128C160.342 389.128 159.155 388.833 158.097 388.244C157.04 387.637 156.199 386.797 155.575 385.722C154.969 384.647 154.665 383.382 154.665 381.926C154.665 380.453 154.969 379.179 155.575 378.104C156.199 377.029 157.04 376.197 158.097 375.608C159.155 375.019 160.342 374.724 161.659 374.724C162.838 374.724 163.869 374.984 164.753 375.504C165.637 376.024 166.322 376.813 166.807 377.87C167.293 378.927 167.535 380.279 167.535 381.926C167.535 383.555 167.301 384.907 166.833 385.982C166.365 387.039 165.689 387.828 164.805 388.348C163.939 388.868 162.89 389.128 161.659 389.128ZM162.361 385.8C163.02 385.8 163.618 385.644 164.155 385.332C164.693 385.02 165.117 384.578 165.429 384.006C165.759 383.417 165.923 382.723 165.923 381.926C165.923 381.111 165.759 380.418 165.429 379.846C165.117 379.274 164.693 378.832 164.155 378.52C163.618 378.208 163.02 378.052 162.361 378.052C161.685 378.052 161.079 378.208 160.541 378.52C160.004 378.832 159.571 379.274 159.241 379.846C158.929 380.418 158.773 381.111 158.773 381.926C158.773 382.723 158.929 383.417 159.241 384.006C159.571 384.578 160.004 385.02 160.541 385.332C161.079 385.644 161.685 385.8 162.361 385.8ZM166.027 388.92V386.06L166.105 381.9L165.845 377.766V369.628H169.901V388.92H166.027ZM175.295 388.92V374.62C175.295 373.043 175.763 371.786 176.699 370.85C177.635 369.897 178.97 369.42 180.703 369.42C181.292 369.42 181.856 369.481 182.393 369.602C182.948 369.723 183.416 369.914 183.797 370.174L182.731 373.112C182.506 372.956 182.254 372.835 181.977 372.748C181.7 372.661 181.405 372.618 181.093 372.618C180.504 372.618 180.044 372.791 179.715 373.138C179.403 373.467 179.247 373.97 179.247 374.646V375.946L179.351 377.688V388.92H175.295ZM173.137 378.364V375.244H182.835V378.364H173.137ZM185.123 388.92V374.932H189.179V388.92H185.123ZM187.151 372.982C186.406 372.982 185.799 372.765 185.331 372.332C184.863 371.899 184.629 371.361 184.629 370.72C184.629 370.079 184.863 369.541 185.331 369.108C185.799 368.675 186.406 368.458 187.151 368.458C187.896 368.458 188.503 368.666 188.971 369.082C189.439 369.481 189.673 370.001 189.673 370.642C189.673 371.318 189.439 371.881 188.971 372.332C188.52 372.765 187.914 372.982 187.151 372.982ZM201.562 374.724C202.671 374.724 203.659 374.949 204.526 375.4C205.41 375.833 206.103 376.509 206.606 377.428C207.109 378.329 207.36 379.491 207.36 380.912V388.92H203.304V381.536C203.304 380.409 203.053 379.577 202.55 379.04C202.065 378.503 201.371 378.234 200.47 378.234C199.829 378.234 199.248 378.373 198.728 378.65C198.225 378.91 197.827 379.317 197.532 379.872C197.255 380.427 197.116 381.137 197.116 382.004V388.92H193.06V374.932H196.934V378.806L196.206 377.636C196.709 376.7 197.428 375.981 198.364 375.478C199.3 374.975 200.366 374.724 201.562 374.724ZM227.734 389.232C226.295 389.232 224.969 389.007 223.756 388.556C222.56 388.088 221.511 387.429 220.61 386.58C219.726 385.731 219.032 384.734 218.53 383.59C218.044 382.446 217.802 381.189 217.802 379.82C217.802 378.451 218.044 377.194 218.53 376.05C219.032 374.906 219.734 373.909 220.636 373.06C221.537 372.211 222.594 371.561 223.808 371.11C225.021 370.642 226.356 370.408 227.812 370.408C229.424 370.408 230.871 370.677 232.154 371.214C233.454 371.751 234.546 372.531 235.43 373.554L232.726 376.05C232.067 375.357 231.348 374.845 230.568 374.516C229.788 374.169 228.938 373.996 228.02 373.996C227.136 373.996 226.33 374.135 225.602 374.412C224.874 374.689 224.241 375.088 223.704 375.608C223.184 376.128 222.776 376.743 222.482 377.454C222.204 378.165 222.066 378.953 222.066 379.82C222.066 380.669 222.204 381.449 222.482 382.16C222.776 382.871 223.184 383.495 223.704 384.032C224.241 384.552 224.865 384.951 225.576 385.228C226.304 385.505 227.101 385.644 227.968 385.644C228.8 385.644 229.606 385.514 230.386 385.254C231.183 384.977 231.954 384.517 232.7 383.876L235.092 386.918C234.104 387.663 232.951 388.235 231.634 388.634C230.334 389.033 229.034 389.232 227.734 389.232ZM231.244 386.372V379.534H235.092V386.918L231.244 386.372ZM238.848 388.92V374.932H242.722V378.884L242.176 377.74C242.592 376.752 243.26 376.007 244.178 375.504C245.097 374.984 246.215 374.724 247.532 374.724V378.468C247.359 378.451 247.203 378.442 247.064 378.442C246.926 378.425 246.778 378.416 246.622 378.416C245.513 378.416 244.612 378.737 243.918 379.378C243.242 380.002 242.904 380.981 242.904 382.316V388.92H238.848ZM256.603 389.128C255.112 389.128 253.786 388.816 252.625 388.192C251.481 387.568 250.571 386.719 249.895 385.644C249.236 384.552 248.907 383.313 248.907 381.926C248.907 380.522 249.236 379.283 249.895 378.208C250.571 377.116 251.481 376.267 252.625 375.66C253.786 375.036 255.112 374.724 256.603 374.724C258.076 374.724 259.394 375.036 260.555 375.66C261.716 376.267 262.626 377.107 263.285 378.182C263.944 379.257 264.273 380.505 264.273 381.926C264.273 383.313 263.944 384.552 263.285 385.644C262.626 386.719 261.716 387.568 260.555 388.192C259.394 388.816 258.076 389.128 256.603 389.128ZM256.603 385.8C257.279 385.8 257.886 385.644 258.423 385.332C258.96 385.02 259.385 384.578 259.697 384.006C260.009 383.417 260.165 382.723 260.165 381.926C260.165 381.111 260.009 380.418 259.697 379.846C259.385 379.274 258.96 378.832 258.423 378.52C257.886 378.208 257.279 378.052 256.603 378.052C255.927 378.052 255.32 378.208 254.783 378.52C254.246 378.832 253.812 379.274 253.483 379.846C253.171 380.418 253.015 381.111 253.015 381.926C253.015 382.723 253.171 383.417 253.483 384.006C253.812 384.578 254.246 385.02 254.783 385.332C255.32 385.644 255.927 385.8 256.603 385.8ZM273.016 389.128C271.855 389.128 270.815 388.903 269.896 388.452C268.995 388.001 268.293 387.317 267.79 386.398C267.288 385.462 267.036 384.275 267.036 382.836V374.932H271.092V382.238C271.092 383.399 271.335 384.257 271.82 384.812C272.323 385.349 273.025 385.618 273.926 385.618C274.55 385.618 275.105 385.488 275.59 385.228C276.076 384.951 276.457 384.535 276.734 383.98C277.012 383.408 277.15 382.697 277.15 381.848V374.932H281.206V388.92H277.358V385.072L278.06 386.19C277.592 387.161 276.899 387.897 275.98 388.4C275.079 388.885 274.091 389.128 273.016 389.128ZM293.362 389.128C292.183 389.128 291.152 388.868 290.268 388.348C289.384 387.828 288.691 387.039 288.188 385.982C287.703 384.907 287.46 383.555 287.46 381.926C287.46 380.279 287.694 378.927 288.162 377.87C288.63 376.813 289.306 376.024 290.19 375.504C291.074 374.984 292.131 374.724 293.362 374.724C294.679 374.724 295.858 375.027 296.898 375.634C297.955 376.223 298.787 377.055 299.394 378.13C300.018 379.205 300.33 380.47 300.33 381.926C300.33 383.399 300.018 384.673 299.394 385.748C298.787 386.823 297.955 387.655 296.898 388.244C295.858 388.833 294.679 389.128 293.362 389.128ZM285.094 393.964V374.932H288.968V377.792L288.89 381.952L289.15 386.086V393.964H285.094ZM292.66 385.8C293.336 385.8 293.934 385.644 294.454 385.332C294.991 385.02 295.416 384.578 295.728 384.006C296.057 383.417 296.222 382.723 296.222 381.926C296.222 381.111 296.057 380.418 295.728 379.846C295.416 379.274 294.991 378.832 294.454 378.52C293.934 378.208 293.336 378.052 292.66 378.052C291.984 378.052 291.377 378.208 290.84 378.52C290.303 378.832 289.878 379.274 289.566 379.846C289.254 380.418 289.098 381.111 289.098 381.926C289.098 382.723 289.254 383.417 289.566 384.006C289.878 384.578 290.303 385.02 290.84 385.332C291.377 385.644 291.984 385.8 292.66 385.8Z" fill="#1F1F1F"/>
<path d="M124.786 437.269C123.469 437.269 122.221 437.061 121.042 436.645C119.881 436.212 118.945 435.64 118.234 434.929L119.144 433.447C119.733 434.054 120.522 434.557 121.51 434.955C122.515 435.354 123.607 435.553 124.786 435.553C126.294 435.553 127.447 435.224 128.244 434.565C129.059 433.907 129.466 433.023 129.466 431.913C129.466 430.804 129.067 429.92 128.27 429.261C127.49 428.603 126.251 428.273 124.552 428.273H123.252V426.895L128.868 419.849L129.128 420.577H118.988V418.913H130.688V420.239L125.072 427.285L124.162 426.687H124.864C127.048 426.687 128.677 427.173 129.752 428.143C130.844 429.114 131.39 430.362 131.39 431.887C131.39 432.91 131.147 433.829 130.662 434.643C130.177 435.458 129.44 436.099 128.452 436.567C127.481 437.035 126.259 437.269 124.786 437.269ZM139.65 437.269C138.35 437.269 137.111 437.061 135.932 436.645C134.753 436.212 133.817 435.64 133.124 434.929L134.034 433.447C134.606 434.054 135.386 434.557 136.374 434.955C137.379 435.354 138.463 435.553 139.624 435.553C141.167 435.553 142.337 435.215 143.134 434.539C143.949 433.846 144.356 432.945 144.356 431.835C144.356 431.055 144.165 430.388 143.784 429.833C143.42 429.261 142.796 428.819 141.912 428.507C141.028 428.195 139.815 428.039 138.272 428.039H134.398L135.334 418.913H145.292V420.577H136.088L137.05 419.667L136.244 427.311L135.282 426.375H138.688C140.525 426.375 141.999 426.601 143.108 427.051C144.217 427.502 145.015 428.135 145.5 428.949C146.003 429.747 146.254 430.683 146.254 431.757C146.254 432.78 146.011 433.716 145.526 434.565C145.041 435.397 144.313 436.056 143.342 436.541C142.371 437.027 141.141 437.269 139.65 437.269ZM154.064 433.525V422.501H155.702V433.525H154.064ZM149.228 428.793V427.259H160.538V428.793H149.228ZM172.106 442.287C171.465 442.287 170.85 442.183 170.26 441.975C169.688 441.767 169.194 441.455 168.778 441.039L169.636 439.661C169.983 439.991 170.356 440.242 170.754 440.415C171.17 440.606 171.63 440.701 172.132 440.701C172.739 440.701 173.259 440.528 173.692 440.181C174.143 439.852 174.568 439.263 174.966 438.413L175.85 436.411L176.058 436.125L181.674 423.463H183.494L176.656 438.751C176.275 439.635 175.85 440.337 175.382 440.857C174.932 441.377 174.438 441.741 173.9 441.949C173.363 442.175 172.765 442.287 172.106 442.287ZM175.746 437.503L169.454 423.463H171.378L176.942 435.995L175.746 437.503ZM191.641 437.243C190.22 437.243 188.972 436.949 187.897 436.359C186.822 435.753 185.982 434.929 185.375 433.889C184.768 432.832 184.465 431.627 184.465 430.275C184.465 428.923 184.751 427.727 185.323 426.687C185.912 425.647 186.71 424.833 187.715 424.243C188.738 423.637 189.882 423.333 191.147 423.333C192.43 423.333 193.565 423.628 194.553 424.217C195.558 424.789 196.347 425.604 196.919 426.661C197.491 427.701 197.777 428.906 197.777 430.275C197.777 430.362 197.768 430.457 197.751 430.561C197.751 430.648 197.751 430.743 197.751 430.847H185.869V429.469H196.763L196.035 430.015C196.035 429.027 195.818 428.152 195.385 427.389C194.969 426.609 194.397 426.003 193.669 425.569C192.941 425.136 192.1 424.919 191.147 424.919C190.211 424.919 189.37 425.136 188.625 425.569C187.88 426.003 187.299 426.609 186.883 427.389C186.467 428.169 186.259 429.062 186.259 430.067V430.353C186.259 431.393 186.484 432.312 186.935 433.109C187.403 433.889 188.044 434.505 188.859 434.955C189.691 435.389 190.636 435.605 191.693 435.605C192.525 435.605 193.296 435.458 194.007 435.163C194.735 434.869 195.359 434.418 195.879 433.811L196.919 435.007C196.312 435.735 195.55 436.29 194.631 436.671C193.73 437.053 192.733 437.243 191.641 437.243ZM209.838 437.113V434.097L209.76 433.603V428.559C209.76 427.398 209.43 426.505 208.772 425.881C208.13 425.257 207.168 424.945 205.886 424.945C205.002 424.945 204.161 425.093 203.364 425.387C202.566 425.682 201.89 426.072 201.336 426.557L200.504 425.179C201.197 424.59 202.029 424.139 203 423.827C203.97 423.498 204.993 423.333 206.068 423.333C207.836 423.333 209.196 423.775 210.15 424.659C211.12 425.526 211.606 426.852 211.606 428.637V437.113H209.838ZM205.132 437.243C204.109 437.243 203.216 437.079 202.454 436.749C201.708 436.403 201.136 435.935 200.738 435.345C200.339 434.739 200.14 434.045 200.14 433.265C200.14 432.555 200.304 431.913 200.634 431.341C200.98 430.752 201.535 430.284 202.298 429.937C203.078 429.573 204.118 429.391 205.418 429.391H210.124V430.769H205.47C204.152 430.769 203.234 431.003 202.714 431.471C202.211 431.939 201.96 432.52 201.96 433.213C201.96 433.993 202.263 434.617 202.87 435.085C203.476 435.553 204.326 435.787 205.418 435.787C206.458 435.787 207.35 435.553 208.096 435.085C208.858 434.6 209.413 433.907 209.76 433.005L210.176 434.279C209.829 435.181 209.222 435.9 208.356 436.437C207.506 436.975 206.432 437.243 205.132 437.243ZM216.75 437.113V423.463H218.518V427.181L218.336 426.531C218.717 425.491 219.358 424.703 220.26 424.165C221.161 423.611 222.279 423.333 223.614 423.333V425.127C223.544 425.127 223.475 425.127 223.406 425.127C223.336 425.11 223.267 425.101 223.198 425.101C221.759 425.101 220.632 425.543 219.818 426.427C219.003 427.294 218.596 428.533 218.596 430.145V437.113H216.75ZM230.93 437.243C229.804 437.243 228.738 437.087 227.732 436.775C226.727 436.446 225.938 436.039 225.366 435.553L226.198 434.097C226.753 434.513 227.464 434.877 228.33 435.189C229.197 435.484 230.107 435.631 231.06 435.631C232.36 435.631 233.296 435.432 233.868 435.033C234.44 434.617 234.726 434.071 234.726 433.395C234.726 432.893 234.562 432.503 234.232 432.225C233.92 431.931 233.504 431.714 232.984 431.575C232.464 431.419 231.884 431.289 231.242 431.185C230.601 431.081 229.96 430.96 229.318 430.821C228.694 430.683 228.122 430.483 227.602 430.223C227.082 429.946 226.658 429.573 226.328 429.105C226.016 428.637 225.86 428.013 225.86 427.233C225.86 426.488 226.068 425.821 226.484 425.231C226.9 424.642 227.507 424.183 228.304 423.853C229.119 423.507 230.107 423.333 231.268 423.333C232.152 423.333 233.036 423.455 233.92 423.697C234.804 423.923 235.532 424.226 236.104 424.607L235.298 426.089C234.692 425.673 234.042 425.379 233.348 425.205C232.655 425.015 231.962 424.919 231.268 424.919C230.038 424.919 229.128 425.136 228.538 425.569C227.966 425.985 227.68 426.523 227.68 427.181C227.68 427.701 227.836 428.109 228.148 428.403C228.478 428.698 228.902 428.932 229.422 429.105C229.96 429.261 230.54 429.391 231.164 429.495C231.806 429.599 232.438 429.729 233.062 429.885C233.704 430.024 234.284 430.223 234.804 430.483C235.342 430.726 235.766 431.081 236.078 431.549C236.408 432 236.572 432.598 236.572 433.343C236.572 434.141 236.347 434.834 235.896 435.423C235.463 435.995 234.822 436.446 233.972 436.775C233.14 437.087 232.126 437.243 230.93 437.243ZM252.588 437.243C251.271 437.243 250.084 436.949 249.026 436.359C247.986 435.753 247.163 434.929 246.556 433.889C245.95 432.832 245.646 431.627 245.646 430.275C245.646 428.906 245.95 427.701 246.556 426.661C247.163 425.621 247.986 424.807 249.026 424.217C250.066 423.628 251.254 423.333 252.588 423.333C253.94 423.333 255.136 423.628 256.176 424.217C257.234 424.807 258.057 425.621 258.646 426.661C259.253 427.701 259.556 428.906 259.556 430.275C259.556 431.627 259.253 432.832 258.646 433.889C258.057 434.929 257.234 435.753 256.176 436.359C255.119 436.949 253.923 437.243 252.588 437.243ZM252.588 435.605C253.576 435.605 254.452 435.389 255.214 434.955C255.977 434.505 256.575 433.881 257.008 433.083C257.459 432.269 257.684 431.333 257.684 430.275C257.684 429.201 257.459 428.265 257.008 427.467C256.575 426.67 255.977 426.055 255.214 425.621C254.452 425.171 253.585 424.945 252.614 424.945C251.644 424.945 250.777 425.171 250.014 425.621C249.252 426.055 248.645 426.67 248.194 427.467C247.744 428.265 247.518 429.201 247.518 430.275C247.518 431.333 247.744 432.269 248.194 433.083C248.645 433.881 249.252 434.505 250.014 434.955C250.777 435.389 251.635 435.605 252.588 435.605ZM263.767 437.113V421.747C263.767 420.534 264.122 419.555 264.833 418.809C265.544 418.064 266.566 417.691 267.901 417.691C268.421 417.691 268.924 417.761 269.409 417.899C269.894 418.038 270.302 418.255 270.631 418.549L270.007 419.927C269.747 419.702 269.444 419.537 269.097 419.433C268.75 419.312 268.378 419.251 267.979 419.251C267.199 419.251 266.601 419.468 266.185 419.901C265.769 420.335 265.561 420.976 265.561 421.825V423.905L265.613 424.763V437.113H263.767ZM261.323 424.997V423.463H269.773V424.997H261.323ZM285.128 437.243C283.707 437.243 282.459 436.949 281.384 436.359C280.31 435.753 279.469 434.929 278.862 433.889C278.256 432.832 277.952 431.627 277.952 430.275C277.952 428.923 278.238 427.727 278.81 426.687C279.4 425.647 280.197 424.833 281.202 424.243C282.225 423.637 283.369 423.333 284.634 423.333C285.917 423.333 287.052 423.628 288.04 424.217C289.046 424.789 289.834 425.604 290.406 426.661C290.978 427.701 291.264 428.906 291.264 430.275C291.264 430.362 291.256 430.457 291.238 430.561C291.238 430.648 291.238 430.743 291.238 430.847H279.356V429.469H290.25L289.522 430.015C289.522 429.027 289.306 428.152 288.872 427.389C288.456 426.609 287.884 426.003 287.156 425.569C286.428 425.136 285.588 424.919 284.634 424.919C283.698 424.919 282.858 425.136 282.112 425.569C281.367 426.003 280.786 426.609 280.37 427.389C279.954 428.169 279.746 429.062 279.746 430.067V430.353C279.746 431.393 279.972 432.312 280.422 433.109C280.89 433.889 281.532 434.505 282.346 434.955C283.178 435.389 284.123 435.605 285.18 435.605C286.012 435.605 286.784 435.458 287.494 435.163C288.222 434.869 288.846 434.418 289.366 433.811L290.406 435.007C289.8 435.735 289.037 436.29 288.118 436.671C287.217 437.053 286.22 437.243 285.128 437.243ZM292.691 437.113L298.463 429.625L298.437 430.535L292.951 423.463H295.031L299.529 429.313L298.749 429.287L303.247 423.463H305.275L299.737 430.613L299.763 429.625L305.587 437.113H303.481L298.723 430.873L299.451 430.977L294.771 437.113H292.691ZM315.836 437.243C314.657 437.243 313.591 436.975 312.638 436.437C311.684 435.883 310.922 435.094 310.35 434.071C309.795 433.031 309.518 431.766 309.518 430.275C309.518 428.785 309.795 427.528 310.35 426.505C310.904 425.465 311.658 424.677 312.612 424.139C313.565 423.602 314.64 423.333 315.836 423.333C317.136 423.333 318.297 423.628 319.32 424.217C320.36 424.789 321.174 425.604 321.764 426.661C322.353 427.701 322.648 428.906 322.648 430.275C322.648 431.662 322.353 432.875 321.764 433.915C321.174 434.955 320.36 435.77 319.32 436.359C318.297 436.949 317.136 437.243 315.836 437.243ZM308.79 442.157V423.463H310.558V427.571L310.376 430.301L310.636 433.057V442.157H308.79ZM315.706 435.605C316.676 435.605 317.543 435.389 318.306 434.955C319.068 434.505 319.675 433.881 320.126 433.083C320.576 432.269 320.802 431.333 320.802 430.275C320.802 429.218 320.576 428.291 320.126 427.493C319.675 426.696 319.068 426.072 318.306 425.621C317.543 425.171 316.676 424.945 315.706 424.945C314.735 424.945 313.86 425.171 313.08 425.621C312.317 426.072 311.71 426.696 311.26 427.493C310.826 428.291 310.61 429.218 310.61 430.275C310.61 431.333 310.826 432.269 311.26 433.083C311.71 433.881 312.317 434.505 313.08 434.955C313.86 435.389 314.735 435.605 315.706 435.605ZM332.339 437.243C330.917 437.243 329.669 436.949 328.595 436.359C327.52 435.753 326.679 434.929 326.073 433.889C325.466 432.832 325.163 431.627 325.163 430.275C325.163 428.923 325.449 427.727 326.021 426.687C326.61 425.647 327.407 424.833 328.413 424.243C329.435 423.637 330.579 423.333 331.845 423.333C333.127 423.333 334.263 423.628 335.251 424.217C336.256 424.789 337.045 425.604 337.617 426.661C338.189 427.701 338.475 428.906 338.475 430.275C338.475 430.362 338.466 430.457 338.449 430.561C338.449 430.648 338.449 430.743 338.449 430.847H326.567V429.469H337.461L336.733 430.015C336.733 429.027 336.516 428.152 336.083 427.389C335.667 426.609 335.095 426.003 334.367 425.569C333.639 425.136 332.798 424.919 331.845 424.919C330.909 424.919 330.068 425.136 329.323 425.569C328.577 426.003 327.997 426.609 327.581 427.389C327.165 428.169 326.957 429.062 326.957 430.067V430.353C326.957 431.393 327.182 432.312 327.633 433.109C328.101 433.889 328.742 434.505 329.557 434.955C330.389 435.389 331.333 435.605 332.391 435.605C333.223 435.605 333.994 435.458 334.705 435.163C335.433 434.869 336.057 434.418 336.577 433.811L337.617 435.007C337.01 435.735 336.247 436.29 335.329 436.671C334.427 437.053 333.431 437.243 332.339 437.243ZM342.362 437.113V423.463H344.13V427.181L343.948 426.531C344.329 425.491 344.971 424.703 345.872 424.165C346.773 423.611 347.891 423.333 349.226 423.333V425.127C349.157 425.127 349.087 425.127 349.018 425.127C348.949 425.11 348.879 425.101 348.81 425.101C347.371 425.101 346.245 425.543 345.43 426.427C344.615 427.294 344.208 428.533 344.208 430.145V437.113H342.362ZM352.725 437.113V423.463H354.571V437.113H352.725ZM353.661 420.447C353.279 420.447 352.959 420.317 352.699 420.057C352.439 419.797 352.309 419.485 352.309 419.121C352.309 418.757 352.439 418.454 352.699 418.211C352.959 417.951 353.279 417.821 353.661 417.821C354.042 417.821 354.363 417.943 354.623 418.185C354.883 418.428 355.013 418.731 355.013 419.095C355.013 419.477 354.883 419.797 354.623 420.057C354.38 420.317 354.059 420.447 353.661 420.447ZM365.635 437.243C364.214 437.243 362.966 436.949 361.891 436.359C360.816 435.753 359.976 434.929 359.369 433.889C358.762 432.832 358.459 431.627 358.459 430.275C358.459 428.923 358.745 427.727 359.317 426.687C359.906 425.647 360.704 424.833 361.709 424.243C362.732 423.637 363.876 423.333 365.141 423.333C366.424 423.333 367.559 423.628 368.547 424.217C369.552 424.789 370.341 425.604 370.913 426.661C371.485 427.701 371.771 428.906 371.771 430.275C371.771 430.362 371.762 430.457 371.745 430.561C371.745 430.648 371.745 430.743 371.745 430.847H359.863V429.469H370.757L370.029 430.015C370.029 429.027 369.812 428.152 369.379 427.389C368.963 426.609 368.391 426.003 367.663 425.569C366.935 425.136 366.094 424.919 365.141 424.919C364.205 424.919 363.364 425.136 362.619 425.569C361.874 426.003 361.293 426.609 360.877 427.389C360.461 428.169 360.253 429.062 360.253 430.067V430.353C360.253 431.393 360.478 432.312 360.929 433.109C361.397 433.889 362.038 434.505 362.853 434.955C363.685 435.389 364.63 435.605 365.687 435.605C366.519 435.605 367.29 435.458 368.001 435.163C368.729 434.869 369.353 434.418 369.873 433.811L370.913 435.007C370.306 435.735 369.544 436.29 368.625 436.671C367.724 437.053 366.727 437.243 365.635 437.243ZM382.626 423.333C383.736 423.333 384.706 423.55 385.538 423.983C386.388 424.399 387.046 425.041 387.514 425.907C388 426.774 388.242 427.866 388.242 429.183V437.113H386.396V429.365C386.396 427.927 386.032 426.843 385.304 426.115C384.594 425.37 383.588 424.997 382.288 424.997C381.318 424.997 380.468 425.197 379.74 425.595C379.03 425.977 378.475 426.54 378.076 427.285C377.695 428.013 377.504 428.897 377.504 429.937V437.113H375.658V423.463H377.426V427.207L377.14 426.505C377.574 425.517 378.267 424.746 379.22 424.191C380.174 423.619 381.309 423.333 382.626 423.333ZM399.027 437.243C397.675 437.243 396.461 436.949 395.387 436.359C394.329 435.753 393.497 434.929 392.891 433.889C392.284 432.832 391.981 431.627 391.981 430.275C391.981 428.906 392.284 427.701 392.891 426.661C393.497 425.621 394.329 424.807 395.387 424.217C396.461 423.628 397.675 423.333 399.027 423.333C400.188 423.333 401.237 423.559 402.173 424.009C403.109 424.46 403.845 425.136 404.383 426.037L403.005 426.973C402.537 426.28 401.956 425.769 401.263 425.439C400.569 425.11 399.815 424.945 399.001 424.945C398.03 424.945 397.155 425.171 396.375 425.621C395.595 426.055 394.979 426.67 394.529 427.467C394.078 428.265 393.853 429.201 393.853 430.275C393.853 431.35 394.078 432.286 394.529 433.083C394.979 433.881 395.595 434.505 396.375 434.955C397.155 435.389 398.03 435.605 399.001 435.605C399.815 435.605 400.569 435.441 401.263 435.111C401.956 434.782 402.537 434.279 403.005 433.603L404.383 434.539C403.845 435.423 403.109 436.099 402.173 436.567C401.237 437.018 400.188 437.243 399.027 437.243ZM413.709 437.243C412.287 437.243 411.039 436.949 409.965 436.359C408.89 435.753 408.049 434.929 407.443 433.889C406.836 432.832 406.533 431.627 406.533 430.275C406.533 428.923 406.819 427.727 407.391 426.687C407.98 425.647 408.777 424.833 409.783 424.243C410.805 423.637 411.949 423.333 413.215 423.333C414.497 423.333 415.633 423.628 416.621 424.217C417.626 424.789 418.415 425.604 418.987 426.661C419.559 427.701 419.845 428.906 419.845 430.275C419.845 430.362 419.836 430.457 419.819 430.561C419.819 430.648 419.819 430.743 419.819 430.847H407.937V429.469H418.831L418.103 430.015C418.103 429.027 417.886 428.152 417.453 427.389C417.037 426.609 416.465 426.003 415.737 425.569C415.009 425.136 414.168 424.919 413.215 424.919C412.279 424.919 411.438 425.136 410.693 425.569C409.947 426.003 409.367 426.609 408.951 427.389C408.535 428.169 408.327 429.062 408.327 430.067V430.353C408.327 431.393 408.552 432.312 409.003 433.109C409.471 433.889 410.112 434.505 410.927 434.955C411.759 435.389 412.703 435.605 413.761 435.605C414.593 435.605 415.364 435.458 416.075 435.163C416.803 434.869 417.427 434.418 417.947 433.811L418.987 435.007C418.38 435.735 417.617 436.29 416.699 436.671C415.797 437.053 414.801 437.243 413.709 437.243Z" fill="#1F1F1F"/>
<g filter="url(#filter2_ii_153_2189)">
<rect x="364" y="533" width="85" height="85" rx="42.5" fill="#F9F9F9"/>
</g>
<path d="M424.061 576.061C424.646 575.475 424.646 574.525 424.061 573.939L414.515 564.393C413.929 563.808 412.979 563.808 412.393 564.393C411.808 564.979 411.808 565.929 412.393 566.515L420.879 575L412.393 583.485C411.808 584.071 411.808 585.021 412.393 585.607C412.979 586.192 413.929 586.192 414.515 585.607L424.061 576.061ZM389 576.5L423 576.5L423 573.5L389 573.5L389 576.5Z" fill="#12B7B6"/>
<path d="M218.81 244.959C218.72 244.819 218.64 244.669 218.53 244.549C217.54 243.599 216.86 242.439 216.27 241.229C215.78 240.219 215.16 239.279 214.6 238.299C214.01 237.269 213.37 236.269 212.89 235.169C212.8 234.969 212.67 234.789 212.54 234.609C211.76 233.459 210.95 232.339 210.29 231.119C210.21 230.969 210.13 230.829 210.04 230.679C209.92 230.409 209.82 230.129 209.66 229.879C209.49 229.599 209.32 229.259 208.93 229.219C208.67 229.199 208.43 229.089 208.14 229.179C207.87 229.269 207.55 229.209 207.25 229.219C206.78 229.239 206.32 229.219 205.85 229.279C205.36 229.329 205.09 229.679 205.09 230.189C205.09 231.949 205.11 233.699 205.1 235.459C205.09 237.989 205.06 240.519 205.04 243.059C205.04 243.359 205 243.669 204.97 243.969C204.93 244.399 204.78 244.509 204.31 244.549C202.6 244.679 200.89 244.599 199.18 244.609C198.36 244.609 197.53 244.629 196.71 244.619C196.48 244.619 196.24 244.579 196.01 244.519C195.75 244.459 195.73 244.379 195.82 244.139C195.91 243.909 195.99 243.679 196.1 243.459C196.4 242.849 196.52 242.189 196.53 241.519C196.54 236.779 196.54 232.039 196.55 227.299C196.55 225.559 196.55 223.809 196.55 222.069C196.55 221.579 196.55 221.089 196.55 220.599C196.64 220.549 196.66 220.499 196.55 220.439C196.55 218.729 196.55 217.009 196.55 215.299C196.55 212.189 196.54 209.089 196.53 205.979C196.53 205.889 196.53 205.799 196.52 205.709C196.54 204.939 196.62 204.159 196.31 203.419C196.18 203.109 196.04 202.809 195.91 202.499C195.81 202.249 195.86 202.139 196.12 202.079C196.32 202.039 196.53 201.999 196.73 201.999C201.01 201.999 205.28 201.979 209.56 201.999C210.51 201.999 211.45 202.089 212.4 202.159C212.98 202.199 213.56 202.239 214.13 202.329C214.8 202.429 215.46 202.579 216.12 202.699C217.6 202.979 219.03 203.399 220.41 203.999C221.37 204.419 222.28 204.929 223.09 205.579C223.55 205.949 223.93 206.419 224.31 206.879C224.75 207.409 225.14 207.969 225.56 208.509C225.68 208.659 225.82 208.799 225.97 208.929C226.34 209.239 226.6 209.619 226.71 210.089C226.92 210.959 227.12 211.839 227.33 212.709C227.35 212.809 227.39 212.909 227.42 213.009C227.42 213.119 227.4 213.239 227.42 213.349C227.51 213.839 227.59 214.319 227.56 214.819C227.55 215.049 227.51 215.269 227.49 215.499C227.44 216.069 227.39 216.629 227.35 217.199C227.29 217.639 227.24 218.079 227.18 218.519C227.15 218.649 227.12 218.769 227.09 218.899C226.83 219.569 226.57 220.249 226.31 220.919C226.21 221.129 226.1 221.329 226.01 221.539C225.7 222.259 225.29 222.909 224.8 223.519C224.59 223.779 224.4 224.059 224.22 224.339C223.79 225.029 223.22 225.549 222.51 225.949C222.17 226.139 221.85 226.369 221.52 226.579C221 226.909 220.48 227.219 219.96 227.549C219.75 227.679 219.54 227.819 219.34 227.959C219.02 228.189 219.03 228.209 219.26 228.539C220.26 230.019 221.24 231.509 222.1 233.069C222.84 234.399 223.62 235.709 224.45 236.989C225.76 239.019 227.04 241.079 228.32 243.129C228.82 243.929 229.41 244.669 229.98 245.429C230.23 245.759 230.54 246.039 230.93 246.219C230.97 246.239 231 246.289 231.04 246.319C231.06 246.529 231.08 246.739 231.1 246.949C230.41 247.469 229.62 247.809 228.82 248.109C227.96 248.429 227.08 248.579 226.15 248.449C225.65 248.379 225.14 248.399 224.64 248.349C224.29 248.309 223.93 248.229 223.59 248.129C222.84 247.909 222.09 247.699 221.43 247.259C221.17 247.089 220.93 246.899 220.67 246.719C220.58 246.629 220.49 246.539 220.39 246.459C219.86 246.029 219.36 245.579 218.93 245.039C218.89 244.989 218.83 244.969 218.78 244.929L218.81 244.959ZM205.04 221.929C204.94 222.249 204.95 222.579 205.02 222.899C205.04 222.999 205.14 223.149 205.21 223.149C205.42 223.169 205.63 223.129 205.85 223.109C206.71 223.109 207.58 223.129 208.44 223.129C209.8 223.129 211.15 223.159 212.51 223.029C212.97 222.979 213.44 222.949 213.88 222.819C215.58 222.349 216.92 221.379 217.98 219.989C218.64 219.129 218.92 218.169 218.97 217.119C218.98 216.799 219.02 216.479 219.04 216.159C219.08 215.199 219.07 214.239 218.83 213.299C218.55 212.189 218.04 211.179 217.48 210.189C217.19 209.679 216.78 209.339 216.26 209.089C215.36 208.669 214.43 208.359 213.43 208.269C212.88 208.219 212.33 208.109 211.78 208.049C211.36 208.009 210.93 207.999 210.5 207.989C208.91 207.929 207.31 207.929 205.72 207.899C205.44 207.899 205.28 208.019 205.19 208.269C205.15 208.379 205.13 208.489 205.12 208.609C205.1 209.309 205.09 209.999 205.09 210.699C205.09 211.729 205.11 212.769 205.11 213.799C205.11 215.349 205.11 216.899 205.09 218.449C205.09 219.609 205.06 220.769 205.04 221.929Z" fill="black"/>
<path d="M256.02 244.59C255.59 244.59 255.16 244.52 254.74 244.65C254.66 244.67 254.56 244.65 254.47 244.65C250.6 244.65 246.73 244.64 242.85 244.63C240.48 244.63 238.11 244.63 235.75 244.65C235.34 244.65 234.92 244.7 234.51 244.73C234.43 244.73 234.35 244.74 234.27 244.73C233.65 244.61 233.55 244.48 233.57 243.85C233.57 243.59 233.56 243.33 233.57 243.08C233.75 238.2 233.62 233.33 233.64 228.45C233.66 224.05 233.64 219.64 233.64 215.24C233.64 215.18 233.64 215.11 233.63 215.05C233.63 215 233.63 214.95 233.63 214.9C233.63 214.85 233.64 214.8 233.64 214.75C233.64 212.95 233.63 211.15 233.62 209.35C233.62 209.06 233.59 208.76 233.57 208.47C233.6 208.34 233.62 208.21 233.65 208.08L233.73 208.01C233.94 208.01 234.15 208 234.36 208.01C234.85 208.03 235.35 208.08 235.84 208.08C238.63 208.08 241.42 208.08 244.22 208.08C244.94 208.08 245.65 208.08 246.37 208.08C247.43 208.08 248.49 208.1 249.55 208.1C251.77 208.1 254 208.1 256.22 208.1C256.56 208.1 256.9 208.12 257.19 208.32C257.22 208.42 257.25 208.52 257.29 208.62C257.29 208.83 257.3 209.03 257.31 209.24C257.31 209.73 257.31 210.22 257.31 210.71C257.31 211.56 257.31 212.4 257.29 213.25C257.29 213.49 257.24 213.73 257.22 213.97C257.14 213.97 257.05 213.98 256.97 213.99C255.55 213.99 254.12 213.99 252.7 213.99C252.64 213.99 252.57 214.01 252.51 214.02C251.67 214.02 250.84 214.02 250 214.02C248.82 214.02 247.64 214.04 246.47 214.05C246.39 214.05 246.31 214.05 246.23 214.05H246.07C245.12 214.03 244.18 214.01 243.23 214.02C242.96 214.02 242.69 214.08 242.43 214.13C242.36 214.14 242.25 214.21 242.23 214.28C242.18 214.43 242.17 214.6 242.15 214.76C242.12 214.82 242.07 214.87 242.07 214.93C242.04 215.4 242.01 215.87 241.99 216.35C241.99 216.48 242.03 216.62 242.03 216.76C242.03 218 242.01 219.24 242.01 220.47C242.01 220.64 242.03 220.8 242.05 220.97C242.01 221.49 241.97 222.01 241.92 222.52C241.94 222.62 241.96 222.71 241.98 222.81C242.05 223.12 242.19 223.21 242.52 223.2C243.04 223.18 243.56 223.17 244.08 223.17C245.27 223.17 246.45 223.16 247.64 223.15C247.77 223.24 247.9 223.25 248.03 223.15C248.55 223.15 249.08 223.14 249.6 223.13C249.94 223.13 250.28 223.13 250.62 223.13C250.75 223.12 250.88 223.13 251 223.09C251.3 222.99 251.57 223.16 251.86 223.19C251.95 223.19 252.04 223.35 252.09 223.46C252.13 223.55 252.12 223.66 252.13 223.76C252.12 224.57 252.11 225.37 252.1 226.18C252.1 226.51 252.07 226.84 252.06 227.17C252.06 227.56 252.06 227.95 252.06 228.33C252.06 228.49 252.06 228.64 252.06 228.8C251.92 229.19 251.59 229.24 251.25 229.24C250.68 229.24 250.1 229.24 249.53 229.23C248.07 229.23 246.6 229.21 245.14 229.21C244.49 229.21 243.83 229.21 243.18 229.22C242.95 229.24 242.72 229.25 242.5 229.29C242.36 229.31 242.23 229.39 242.21 229.56C242.2 229.59 242.18 229.62 242.17 229.66C242.14 229.81 242.08 229.95 242.08 230.1C242.06 231.21 242.05 232.33 242.04 233.44C242.04 233.61 242.04 233.78 242.04 233.95C242 235.42 242.12 236.89 241.94 238.35C241.96 238.47 241.96 238.6 242 238.71C242.06 238.85 242.27 238.96 242.38 238.94C242.8 238.9 243.23 238.83 243.65 238.83C244.88 238.81 246.11 238.82 247.33 238.82C250.46 238.82 253.6 238.82 256.73 238.82C256.89 238.82 257.06 238.87 257.22 238.9C257.25 239.03 257.3 239.17 257.3 239.3C257.3 240.26 257.3 241.23 257.3 242.19C257.3 243 257.3 243.81 257.29 244.62C256.88 244.62 256.46 244.63 256.05 244.64L256.02 244.59Z" fill="black"/>
<path d="M374.77 232.09C374.77 232.81 374.77 233.54 374.77 234.26C374.77 235.12 374.79 235.99 374.74 236.85C374.63 238.67 374.74 240.48 374.67 242.3C374.65 242.84 374.6 243.37 374.61 243.91C374.61 243.95 374.61 243.99 374.6 244.03C374.54 244.44 374.42 244.55 374 244.57C373.14 244.6 372.28 244.63 371.42 244.66C371.35 244.66 371.29 244.67 371.23 244.68C370.16 244.68 369.08 244.67 368.01 244.66C367.89 244.66 367.73 244.74 367.66 244.68C367.57 244.62 367.57 244.45 367.5 244.35C367.13 243.78 366.75 243.21 366.37 242.64C366.08 242.22 365.78 241.8 365.48 241.38C365.45 241.34 365.39 241.33 365.35 241.31C365.3 241.2 365.26 241.08 365.18 240.98C364.73 240.37 364.27 239.77 363.82 239.16C363.37 238.54 362.92 237.91 362.48 237.29C362.44 237.24 362.4 237.2 362.35 237.15C362.24 236.99 362.12 236.83 362.01 236.67C361.84 236.44 361.67 236.21 361.5 235.98C361.37 235.8 361.24 235.61 361.11 235.43C361.08 235.39 361.05 235.34 361.02 235.3C360.79 234.95 360.56 234.6 360.33 234.26C360.05 233.86 359.77 233.46 359.48 233.06C359.25 232.74 359.02 232.42 358.78 232.1C358.57 231.81 358.34 231.53 358.13 231.25C357.93 231 357.73 230.75 357.52 230.5C357.44 230.42 357.37 230.33 357.29 230.25C357.18 230.1 357.08 229.95 356.97 229.81C356.78 229.56 356.6 229.31 356.41 229.06C356.17 228.76 355.93 228.47 355.69 228.17C355.29 227.6 354.9 227.04 354.5 226.47C354.31 226.16 354.13 225.85 353.94 225.55C353.58 224.98 353.15 224.47 352.66 224C352.44 223.79 352.34 223.79 352.16 224.03C352.09 224.12 352.04 224.27 352.07 224.38C352.21 224.94 352.13 225.5 352.14 226.06C352.16 227.21 352.15 228.35 352.16 229.5C352.16 230.66 352.16 231.83 352.16 232.99C352.16 233.97 352.16 234.95 352.16 235.94C352.16 236.2 352.16 236.46 352.16 236.72C352.16 236.82 352.16 236.93 352.16 237.03C352.16 237.49 352.14 237.95 352.13 238.41V238.51C352.11 240.08 352.09 241.66 352.06 243.23C352.06 243.57 352.01 243.92 351.99 244.26C351.97 244.45 351.86 244.57 351.67 244.59C351.35 244.63 351.03 244.68 350.71 244.69C350.11 244.71 349.51 244.69 348.91 244.7C347.27 244.72 345.62 244.62 343.98 244.78C343.77 244.85 343.6 244.83 343.49 244.61C343.53 244.13 343.6 243.64 343.59 243.16C343.59 241.97 343.54 240.79 343.54 239.6C343.54 238.22 343.57 236.84 343.56 235.46C343.56 234.36 343.61 233.25 343.52 232.15C343.48 231.61 343.55 231.05 343.57 230.51C343.57 229.84 343.57 229.17 343.57 228.49C343.57 228.22 343.59 227.95 343.58 227.68C343.57 225.82 343.54 223.97 343.54 222.11C343.54 219.14 343.55 216.18 343.56 213.21C343.56 212.88 343.54 212.54 343.53 212.21C343.54 212.16 343.56 212.11 343.56 212.06C343.54 211.02 343.51 209.99 343.48 208.95L343.42 208.25C343.65 208.2 343.87 208.12 344.1 208.11C344.58 208.09 345.07 208.1 345.55 208.1C346.65 208.1 347.75 208.1 348.84 208.1C348.94 208.1 349.05 208.1 349.15 208.1C349.4 208.13 349.64 208.14 349.89 208.18C350.15 208.23 350.44 208.25 350.64 208.46C350.78 208.61 350.9 208.78 351.03 208.94C351.53 209.56 352.03 210.19 352.53 210.81C352.57 210.87 352.61 210.94 352.65 211C353.59 212.23 354.54 213.46 355.47 214.7C356.32 215.84 357.14 217 357.99 218.14C358.47 218.79 358.99 219.41 359.5 220.04C359.52 220.08 359.54 220.14 359.57 220.17C360.67 221.48 361.6 222.92 362.6 224.3C363.3 225.26 364.06 226.18 364.79 227.13C364.99 227.4 365.19 227.67 365.36 227.96C365.51 228.2 365.7 228.39 365.94 228.52C366 228.55 366.08 228.52 366.16 228.52C366.15 228.47 366.13 228.41 366.13 228.36C366.09 227.89 366.03 227.41 366.03 226.93C366.03 224.93 366.03 222.93 366.03 220.92C366.03 220.52 366.01 220.12 366.03 219.72C366.07 218.06 366.13 216.4 366.17 214.74C366.19 213.85 366.17 212.96 366.19 212.07C366.2 211.34 366.23 210.6 366.25 209.87C366.25 209.61 366.22 209.36 366.21 209.1C366.2 208.93 366.23 208.74 366.17 208.59C366.09 208.4 366.17 208.29 366.27 208.16C366.59 208.14 366.91 208.12 367.22 208.1C367.77 208.1 368.32 208.1 368.86 208.1C369.78 208.1 370.69 208.1 371.61 208.09C371.79 208.09 371.97 208.09 372.16 208.1C372.87 208.12 373.59 208.14 374.3 208.17C374.54 208.17 374.59 208.23 374.6 208.48C374.6 208.52 374.6 208.56 374.6 208.6C374.64 209.33 374.69 210.06 374.71 210.78C374.73 211.6 374.73 212.43 374.74 213.25C374.74 213.39 374.75 213.53 374.76 213.67C374.76 214.01 374.76 214.34 374.76 214.68C374.76 215.2 374.76 215.71 374.76 216.23C374.76 216.37 374.74 216.51 374.74 216.65C374.74 220.83 374.74 225 374.74 229.18C374.74 230.16 374.76 231.14 374.76 232.12L374.77 232.09Z" fill="black"/>
<path d="M328.89 235.66C328.89 235.56 328.9 235.45 328.9 235.35C328.9 232.76 328.9 230.18 328.9 227.59C328.9 227.49 328.9 227.38 328.89 227.28C328.89 226.09 328.89 224.9 328.89 223.71C328.89 223.4 328.9 223.09 328.9 222.79C328.9 222.48 328.92 222.17 328.9 221.86C328.87 221.56 328.9 221.27 328.9 220.97C328.9 220.34 328.9 219.71 328.9 219.08C328.9 218.09 328.9 217.1 328.89 216.11C328.89 215.71 328.9 215.31 328.9 214.92C328.9 213.12 328.9 211.32 328.9 209.52C328.9 209.39 328.9 209.26 328.89 209.14C328.9 208.89 328.92 208.63 328.93 208.38C329.03 208.23 329.17 208.16 329.35 208.14C329.57 208.11 329.78 208.08 330 208.05C330.45 208.05 330.89 208.05 331.34 208.05C331.46 208.05 331.57 208.07 331.69 208.06C332.6 208.06 333.51 208.04 334.42 208.04C334.78 208.04 335.14 208.06 335.51 208.08C335.8 208.18 336.13 208.17 336.37 208.08C336.53 208.05 336.68 208.03 336.84 208C336.89 208.2 337.07 208.2 337.23 208.23C337.27 208.36 337.34 208.49 337.35 208.62C337.38 208.93 337.38 209.23 337.39 209.54C337.39 209.68 337.37 209.82 337.37 209.96C337.38 213.4 337.4 216.85 337.41 220.29C337.41 222.25 337.41 224.21 337.41 226.17C337.41 226.65 337.41 227.12 337.42 227.6C337.45 227.88 337.48 228.17 337.51 228.45C337.51 228.68 337.51 228.91 337.51 229.14C337.52 230.2 337.53 231.26 337.55 232.32C337.53 233.05 337.52 233.77 337.5 234.5C337.5 234.78 337.5 235.07 337.5 235.35C337.47 235.62 337.42 235.88 337.41 236.15C337.37 237.59 337.45 239.03 337.34 240.47C337.26 241.52 337.34 242.59 337.34 243.64C337.34 243.72 337.34 243.79 337.34 243.87C337.34 244.02 337.32 244.16 337.31 244.31C337.12 244.51 336.88 244.57 336.61 244.58C335.82 244.6 335.04 244.63 334.25 244.65C333.71 244.64 333.16 244.63 332.62 244.61C332.37 244.61 332.13 244.61 331.88 244.61C331.81 244.61 331.74 244.61 331.67 244.61C331.61 244.61 331.55 244.61 331.48 244.61C331.02 244.61 330.56 244.61 330.1 244.61C330.06 244.61 330.03 244.61 329.99 244.6C329.76 244.6 329.53 244.59 329.3 244.58C328.91 244.54 328.91 244.54 328.91 244.17C328.91 243.94 328.91 243.71 328.9 243.48C328.9 241.96 328.9 240.43 328.9 238.91C328.9 237.82 328.9 236.74 328.9 235.65L328.89 235.66Z" fill="black"/>
<path d="M308.04 243.87C307.98 244.07 307.91 244.28 307.85 244.48C307.7 244.51 307.55 244.56 307.4 244.56C306.12 244.59 304.85 244.62 303.57 244.63C302.8 244.63 302.03 244.62 301.26 244.61C301.18 244.61 301.1 244.61 301.02 244.6C300.97 244.6 300.92 244.6 300.86 244.61C300.83 244.61 300.8 244.61 300.78 244.61C300.55 244.63 300.32 244.65 300.1 244.67C299.97 244.63 299.85 244.59 299.72 244.55C299.72 243.98 299.73 243.42 299.74 242.85C299.74 242.7 299.74 242.54 299.74 242.39C299.74 242.27 299.75 242.16 299.74 242.04C299.72 241.42 299.69 240.81 299.68 240.19C299.68 239.38 299.68 238.57 299.68 237.76C299.68 237.39 299.67 237.02 299.66 236.64C299.64 236.36 299.61 236.08 299.61 235.8C299.61 232.67 299.61 229.53 299.61 226.4C299.61 226.27 299.61 226.14 299.6 226.01C299.6 225.93 299.6 225.85 299.6 225.78C299.6 225.65 299.6 225.52 299.6 225.39C299.6 225.16 299.6 224.92 299.6 224.69C299.6 224.3 299.6 223.91 299.6 223.53C299.6 223.09 299.6 222.65 299.6 222.21C299.6 222.11 299.6 222 299.6 221.9V221.59C299.6 221.54 299.6 221.49 299.6 221.44C299.6 220.79 299.6 220.15 299.6 219.5C299.6 219.37 299.6 219.24 299.6 219.11C299.62 218.46 299.64 217.82 299.66 217.17C299.66 216.99 299.66 216.81 299.67 216.63C299.68 216.11 299.69 215.6 299.7 215.08C299.7 214.41 299.7 213.73 299.7 213.06C299.7 212.93 299.7 212.8 299.7 212.68C299.7 212.42 299.7 212.16 299.7 211.9C299.7 211.82 299.7 211.75 299.7 211.67C299.7 211.54 299.7 211.41 299.7 211.28C299.72 210.48 299.74 209.68 299.78 208.88C299.79 208.64 299.87 208.41 299.92 208.17C300.3 208.05 300.68 208.02 301.07 208.02C302.74 208.02 304.41 208.02 306.08 208.02C306.17 208.02 306.26 208.02 306.35 208.01C306.74 208.01 307.13 208.03 307.52 208.02C308.54 208.02 309.57 208.02 310.59 208.01C311.46 208.01 312.33 208.03 313.21 208.03C314.56 208.03 315.92 208.03 317.27 208.03C317.35 208.03 317.43 208.03 317.5 208.01C318.45 208.01 319.4 208.01 320.35 208.02C321.08 208.03 321.8 208.07 322.53 208.09C322.66 208.09 322.79 208.08 322.92 208.07C323.12 208.16 323.15 208.34 323.16 208.52C323.19 209.41 323.21 210.29 323.24 211.18C323.24 211.49 323.26 211.8 323.24 212.11C323.2 212.66 323.13 213.2 323.08 213.75C323.03 213.78 322.98 213.81 322.93 213.84C322.82 213.86 322.72 213.88 322.61 213.9C322.48 213.9 322.35 213.9 322.22 213.9C321.27 213.9 320.32 213.9 319.37 213.9C318.46 213.9 317.55 213.9 316.64 213.9C316.61 213.9 316.59 213.9 316.56 213.9C316.38 213.9 316.2 213.9 316.01 213.9C315.98 213.9 315.96 213.9 315.93 213.9C315.64 213.91 315.35 213.93 315.07 213.94C314.65 213.94 314.23 213.94 313.81 213.94C313.69 213.94 313.58 213.92 313.46 213.92C312.07 213.92 310.68 213.92 309.29 213.92C309.17 213.92 309.06 213.93 308.94 213.94C308.91 213.92 308.89 213.93 308.87 213.94C308.54 213.91 308.37 214.1 308.27 214.37C308.1 214.85 308.11 215.34 308.14 215.84C308.13 215.9 308.1 215.97 308.1 216.03C308.1 217.26 308.1 218.48 308.11 219.71C308.11 220.49 308.14 221.27 308.01 222.05C308.01 222.13 308.01 222.2 308.01 222.28C308.01 222.46 307.99 222.64 308.01 222.81C308.05 223.06 308.15 223.13 308.4 223.12C308.6 223.11 308.81 223.08 309.01 223.06C310.12 223.08 311.22 223.11 312.33 223.1C313.97 223.1 315.61 223.07 317.25 223.05C317.37 223.08 317.49 223.13 317.62 223.13C317.78 223.14 317.87 223.21 317.89 223.36C317.92 223.61 317.95 223.86 317.96 224.12C317.98 224.98 317.99 225.85 318 226.71C318 226.84 318 226.97 318 227.1C318 227.51 317.99 227.93 317.98 228.34C317.98 228.5 317.98 228.65 317.98 228.81C317.96 228.84 317.94 228.87 317.93 228.9C317.86 228.99 317.8 229.09 317.73 229.18C317.71 229.16 317.69 229.16 317.67 229.18C317.56 229.16 317.44 229.12 317.33 229.12C316.58 229.14 315.82 229.16 315.07 229.18C314.44 229.17 313.81 229.15 313.19 229.14C313.06 229.14 312.93 229.12 312.8 229.12C311.81 229.12 310.81 229.1 309.82 229.12C309.49 229.12 309.15 229.16 308.82 229.2C308.45 229.25 308.21 229.5 308.15 229.86C308.12 230.04 308.1 230.22 308.11 230.4C308.11 231.47 308.13 232.54 308.13 233.61C308.13 235.56 308.12 237.5 308.11 239.45C308.11 240.61 308.09 241.77 308.08 242.93C308.08 243.04 308.06 243.16 308.05 243.27C308.05 243.46 308.04 243.65 308.03 243.84L308.04 243.87Z" fill="black"/>
<path d="M263.25 211.32C263.25 211.32 263.25 211.29 263.25 211.28C263.4 211.06 262.84 210.86 263.24 210.64C263.24 210.38 263.24 210.13 263.25 209.87C263.26 209.63 263.3 209.39 263.33 209.16C263.39 209.03 263.47 208.9 263.51 208.77C263.6 208.44 263.87 208.35 264.16 208.3C264.47 208.26 264.78 208.23 265.1 208.23C268.24 208.23 271.37 208.21 274.51 208.23C275.45 208.23 276.38 208.32 277.32 208.36C277.49 208.36 277.66 208.38 277.83 208.38C278.21 208.36 278.57 208.46 278.93 208.51C279.36 208.58 279.79 208.62 280.23 208.67C280.84 208.8 281.45 208.93 282.06 209.05C282.28 209.09 282.51 209.12 282.74 209.15C282.97 209.22 283.2 209.29 283.43 209.34C283.83 209.44 284.22 209.53 284.62 209.62C284.9 209.75 285.18 209.88 285.46 210C285.96 210.21 286.47 210.38 286.96 210.62C287.86 211.06 288.72 211.57 289.43 212.31C289.59 212.47 289.79 212.62 290 212.71C290.45 212.89 290.75 213.19 291 213.59C291.31 214.09 291.67 214.57 292.01 215.06L292.32 215.51C292.67 216.18 293.01 216.85 293.36 217.52C293.41 217.68 293.47 217.83 293.52 217.99C293.57 218.2 293.62 218.4 293.67 218.61C293.7 218.77 293.74 218.93 293.77 219.09C293.8 219.19 293.84 219.29 293.87 219.39C293.92 219.59 293.97 219.79 294.02 219.99C294.21 220.71 294.43 221.42 294.46 222.18C294.48 222.26 294.5 222.34 294.51 222.42C294.53 222.6 294.56 222.78 294.58 222.96C294.59 223.11 294.6 223.27 294.61 223.42C294.61 223.55 294.61 223.68 294.61 223.81C294.62 224.01 294.64 224.21 294.65 224.41C294.65 224.53 294.66 224.64 294.66 224.76C294.66 225.54 294.68 226.31 294.66 227.08C294.64 227.68 294.53 228.27 294.52 228.87C294.51 229.64 294.34 230.4 294.2 231.15C294.04 232.03 293.81 232.9 293.61 233.77C293.56 233.97 293.5 234.16 293.44 234.35C293.17 235.14 292.85 235.92 292.45 236.66C292.11 237.17 291.77 237.69 291.44 238.2C291.39 238.26 291.34 238.31 291.29 238.37C291.24 238.44 291.18 238.52 291.13 238.59C290.84 238.93 290.55 239.27 290.27 239.62C289.79 240.21 289.29 240.78 288.65 241.22C288.17 241.54 287.68 241.86 287.2 242.18C287.13 242.22 287.05 242.26 286.98 242.3C286.56 242.52 286.14 242.75 285.72 242.97C285.26 243.14 284.81 243.35 284.34 243.49C283.63 243.7 282.91 243.86 282.2 244.04C282.06 244.07 281.93 244.11 281.79 244.14C281.69 244.16 281.58 244.19 281.48 244.21C281.12 244.27 280.76 244.33 280.41 244.39C280.39 244.39 280.38 244.45 280.37 244.48C280.3 244.48 280.23 244.5 280.16 244.51C280.13 244.49 280.1 244.47 280.07 244.45C279.57 244.5 279.07 244.53 278.57 244.6C278.02 244.68 277.47 244.75 276.91 244.74C276.82 244.74 276.73 244.74 276.64 244.74C276.08 244.79 275.51 244.88 274.95 244.88C272.72 244.9 270.48 244.88 268.25 244.88C266.93 244.88 265.61 244.89 264.29 244.9C264.05 244.9 263.82 244.9 263.58 244.9C263.4 244.82 263.23 244.74 263.26 244.5C263.26 244.06 263.26 243.62 263.26 243.18C263.26 243.05 263.26 242.92 263.26 242.79C263.26 242.66 263.26 242.53 263.26 242.4C263.26 242.22 263.26 242.04 263.26 241.86C263.26 241.39 263.26 240.93 263.26 240.46C263.26 240.33 263.26 240.2 263.26 240.07C263.26 239.99 263.26 239.91 263.26 239.84C263.37 239.74 263.36 239.63 263.26 239.53C263.26 239.5 263.26 239.48 263.26 239.45C263.26 239.37 263.26 239.29 263.26 239.22C263.26 239.06 263.26 238.91 263.26 238.75C263.26 238.67 263.26 238.59 263.26 238.52C263.34 238.47 263.34 238.42 263.26 238.36C263.26 238.33 263.26 238.31 263.26 238.28C263.26 238.12 263.26 237.97 263.26 237.81C263.26 237.71 263.26 237.6 263.26 237.5C263.26 237.45 263.26 237.4 263.27 237.34C263.36 237.21 263.36 237.08 263.27 236.95C263.27 235.22 263.27 233.49 263.27 231.75C263.27 231.73 263.26 231.7 263.25 231.68C263.25 231.5 263.25 231.32 263.25 231.14V228.89C263.25 228.76 263.27 228.63 263.27 228.51C263.27 226.81 263.29 225.12 263.29 223.42C263.29 223.02 263.29 222.62 263.28 222.23C263.28 221.95 263.28 221.66 263.28 221.38C263.28 221.33 263.28 221.28 263.28 221.23C263.28 221.14 263.29 221.05 263.29 220.96C263.27 219 263.25 217.05 263.23 215.09C263.23 213.83 263.23 212.57 263.23 211.31L263.25 211.32ZM282.22 236.99C282.81 236.5 283.33 235.95 283.79 235.35C283.84 235.28 283.87 235.19 283.91 235.11C284.18 234.55 284.46 233.98 284.73 233.42C285.01 232.79 285.25 232.14 285.4 231.47C285.42 231.39 285.45 231.31 285.47 231.24C285.49 231.17 285.51 231.09 285.52 231.02L285.63 230.23C285.79 229.99 285.7 229.72 285.73 229.46C285.75 229.42 285.79 229.38 285.8 229.34C285.83 229 285.87 228.66 285.88 228.32C285.9 227.75 285.91 227.17 285.92 226.6C285.92 226.28 285.92 225.97 285.91 225.65C285.91 225.16 285.89 224.67 285.88 224.18C285.85 223.95 285.82 223.71 285.8 223.48C285.78 223.24 285.76 223 285.73 222.76C285.69 222.41 285.66 222.05 285.6 221.7C285.37 220.43 284.95 219.21 284.47 218.01C284.12 217.12 283.54 216.37 282.68 215.87C282.28 215.63 281.86 215.41 281.44 215.21C280.52 214.79 279.58 214.38 278.56 214.24C278.1 214.18 277.63 214.17 277.17 214.09C276.62 214 276.07 213.93 275.51 213.94C275.44 213.94 275.38 213.94 275.31 213.94C274.71 213.89 274.1 213.81 273.5 213.79C273.03 213.77 272.57 213.73 272.12 213.64C271.93 213.6 271.79 213.67 271.69 213.83C271.54 214.07 271.51 214.33 271.51 214.61C271.52 220.89 271.53 227.16 271.54 233.44C271.54 235 271.54 236.57 271.51 238.13C271.51 238.31 271.57 238.43 271.71 238.52C271.82 238.58 271.94 238.62 272.06 238.67C272.17 238.7 272.28 238.75 272.38 238.75C273.34 238.77 274.31 238.77 275.27 238.78C275.3 238.78 275.33 238.78 275.35 238.78C276.18 238.76 277 238.73 277.82 238.6C278.95 238.43 280.05 238.11 281.09 237.63C281.33 237.52 281.56 237.42 281.8 237.31C281.94 237.2 282.08 237.09 282.22 236.98V236.99Z" fill="black"/>
<defs>
<filter id="filter0_dd_153_2189" x="0" y="0" width="570" height="732" filterUnits="userSpaceOnUse" color-interpolation-filters="sRGB">
<feFlood flood-opacity="0" result="BackgroundImageFix"/>
<feColorMatrix in="SourceAlpha" type="matrix" values="0 0 0 0 0 0 0 0 0 0 0 0 0 0 0 0 0 0 127 0" result="hardAlpha"/>
<feOffset dx="20" dy="20"/>
<feGaussianBlur stdDeviation="25"/>
<feColorMatrix type="matrix" values="0 0 0 0 0.823529 0 0 0 0 0.823529 0 0 0 0 0.823529 0 0 0 1 0"/>
<feBlend mode="normal" in2="BackgroundImageFix" result="effect1_dropShadow_153_2189"/>
<feColorMatrix in="SourceAlpha" type="matrix" values="0 0 0 0 0 0 0 0 0 0 0 0 0 0 0 0 0 0 127 0" result="hardAlpha"/>
<feOffset dx="-20" dy="-20"/>
<feGaussianBlur stdDeviation="25"/>
<feColorMatrix type="matrix" values="0 0 0 0 1 0 0 0 0 1 0 0 0 0 1 0 0 0 1 0"/>
<feBlend mode="normal" in2="effect1_dropShadow_153_2189" result="effect2_dropShadow_153_2189"/>
<feBlend mode="normal" in="SourceGraphic" in2="effect2_dropShadow_153_2189" result="shape"/>
</filter>
<filter id="filter1_dd_153_2189" x="91" y="503" width="388" height="145" filterUnits="userSpaceOnUse" color-interpolation-filters="sRGB">
<feFlood flood-opacity="0" result="BackgroundImageFix"/>
<feColorMatrix in="SourceAlpha" type="matrix" values="0 0 0 0 0 0 0 0 0 0 0 0 0 0 0 0 0 0 127 0" result="hardAlpha"/>
<feOffset dx="10" dy="10"/>
<feGaussianBlur stdDeviation="10"/>
<feColorMatrix type="matrix" values="0 0 0 0 0 0 0 0 0 0 0 0 0 0 0 0 0 0 0.08 0"/>
<feBlend mode="normal" in2="BackgroundImageFix" result="effect1_dropShadow_153_2189"/>
<feColorMatrix in="SourceAlpha" type="matrix" values="0 0 0 0 0 0 0 0 0 0 0 0 0 0 0 0 0 0 127 0" result="hardAlpha"/>
<feOffset dx="-10" dy="-10"/>
<feGaussianBlur stdDeviation="10"/>
<feColorMatrix type="matrix" values="0 0 0 0 1 0 0 0 0 1 0 0 0 0 1 0 0 0 1 0"/>
<feBlend mode="normal" in2="effect1_dropShadow_153_2189" result="effect2_dropShadow_153_2189"/>
<feBlend mode="normal" in="SourceGraphic" in2="effect2_dropShadow_153_2189" result="shape"/>
</filter>
<filter id="filter2_ii_153_2189" x="354" y="523" width="105" height="105" filterUnits="userSpaceOnUse" color-interpolation-filters="sRGB">
<feFlood flood-opacity="0" result="BackgroundImageFix"/>
<feBlend mode="normal" in="SourceGraphic" in2="BackgroundImageFix" result="shape"/>
<feColorMatrix in="SourceAlpha" type="matrix" values="0 0 0 0 0 0 0 0 0 0 0 0 0 0 0 0 0 0 127 0" result="hardAlpha"/>
<feOffset dx="10" dy="10"/>
<feGaussianBlur stdDeviation="10"/>
<feComposite in2="hardAlpha" operator="arithmetic" k2="-1" k3="1"/>
<feColorMatrix type="matrix" values="0 0 0 0 0 0 0 0 0 0 0 0 0 0 0 0 0 0 0.08 0"/>
<feBlend mode="normal" in2="shape" result="effect1_innerShadow_153_2189"/>
<feColorMatrix in="SourceAlpha" type="matrix" values="0 0 0 0 0 0 0 0 0 0 0 0 0 0 0 0 0 0 127 0" result="hardAlpha"/>
<feOffset dx="-10" dy="-10"/>
<feGaussianBlur stdDeviation="10"/>
<feComposite in2="hardAlpha" operator="arithmetic" k2="-1" k3="1"/>
<feColorMatrix type="matrix" values="0 0 0 0 1 0 0 0 0 1 0 0 0 0 1 0 0 0 1 0"/>
<feBlend mode="normal" in2="effect1_innerShadow_153_2189" result="effect2_innerShadow_153_2189"/>
</filter>
</defs>
</svg>
