<svg width="570" height="732" viewBox="0 0 570 732" fill="none" xmlns="http://www.w3.org/2000/svg">
<g filter="url(#filter0_dd_58_3322)">
<rect x="70" y="70" width="430" height="592" rx="43" fill="#F3F3F3"/>
</g>
<g filter="url(#filter1_dd_58_3322)">
<rect x="121" y="533" width="328" height="85" rx="42.5" fill="#F9F9F9"/>
</g>
<path d="M124.798 461.6V477H121.234V464.46H118.154V461.6H124.798ZM138.121 468.904C138.884 469.285 139.463 469.784 139.859 470.4C140.27 471.016 140.475 471.727 140.475 472.534C140.475 473.487 140.204 474.323 139.661 475.042C139.119 475.746 138.356 476.296 137.373 476.692C136.391 477.073 135.254 477.264 133.963 477.264C132.673 477.264 131.536 477.073 130.553 476.692C129.585 476.296 128.83 475.746 128.287 475.042C127.759 474.323 127.495 473.487 127.495 472.534C127.495 471.727 127.693 471.016 128.089 470.4C128.5 469.784 129.079 469.285 129.827 468.904C129.255 468.552 128.815 468.112 128.507 467.584C128.199 467.041 128.045 466.425 128.045 465.736C128.045 464.841 128.295 464.064 128.793 463.404C129.292 462.744 129.989 462.238 130.883 461.886C131.778 461.519 132.805 461.336 133.963 461.336C135.137 461.336 136.171 461.519 137.065 461.886C137.975 462.238 138.679 462.744 139.177 463.404C139.676 464.064 139.925 464.841 139.925 465.736C139.925 466.425 139.771 467.041 139.463 467.584C139.155 468.112 138.708 468.552 138.121 468.904ZM133.963 463.954C133.245 463.954 132.665 464.13 132.225 464.482C131.8 464.819 131.587 465.289 131.587 465.89C131.587 466.477 131.8 466.939 132.225 467.276C132.651 467.613 133.23 467.782 133.963 467.782C134.697 467.782 135.283 467.613 135.723 467.276C136.163 466.939 136.383 466.477 136.383 465.89C136.383 465.289 136.163 464.819 135.723 464.482C135.283 464.13 134.697 463.954 133.963 463.954ZM133.963 474.646C134.858 474.646 135.562 474.448 136.075 474.052C136.603 473.641 136.867 473.099 136.867 472.424C136.867 471.749 136.603 471.214 136.075 470.818C135.562 470.422 134.858 470.224 133.963 470.224C133.083 470.224 132.387 470.422 131.873 470.818C131.36 471.214 131.103 471.749 131.103 472.424C131.103 473.113 131.36 473.656 131.873 474.052C132.387 474.448 133.083 474.646 133.963 474.646ZM148.817 477.264C147.541 477.264 146.404 476.949 145.407 476.318C144.409 475.687 143.625 474.778 143.053 473.59C142.495 472.387 142.217 470.957 142.217 469.3C142.217 467.643 142.495 466.22 143.053 465.032C143.625 463.829 144.409 462.913 145.407 462.282C146.404 461.651 147.541 461.336 148.817 461.336C150.093 461.336 151.229 461.651 152.227 462.282C153.224 462.913 154.001 463.829 154.559 465.032C155.131 466.22 155.417 467.643 155.417 469.3C155.417 470.957 155.131 472.387 154.559 473.59C154.001 474.778 153.224 475.687 152.227 476.318C151.229 476.949 150.093 477.264 148.817 477.264ZM148.817 474.25C149.755 474.25 150.489 473.847 151.017 473.04C151.559 472.233 151.831 470.987 151.831 469.3C151.831 467.613 151.559 466.367 151.017 465.56C150.489 464.753 149.755 464.35 148.817 464.35C147.893 464.35 147.159 464.753 146.617 465.56C146.089 466.367 145.825 467.613 145.825 469.3C145.825 470.987 146.089 472.233 146.617 473.04C147.159 473.847 147.893 474.25 148.817 474.25ZM168.322 470.642H164.494V474.382H161.656V470.642H157.85V467.958H161.656V464.218H164.494V467.958H168.322V470.642ZM184.599 461.6C185.963 461.6 187.143 461.827 188.141 462.282C189.153 462.737 189.93 463.382 190.473 464.218C191.015 465.054 191.287 466.044 191.287 467.188C191.287 468.317 191.015 469.307 190.473 470.158C189.93 470.994 189.153 471.639 188.141 472.094C187.143 472.534 185.963 472.754 184.599 472.754H181.497V477H177.933V461.6H184.599ZM184.401 469.85C185.471 469.85 186.285 469.623 186.843 469.168C187.4 468.699 187.679 468.039 187.679 467.188C187.679 466.323 187.4 465.663 186.843 465.208C186.285 464.739 185.471 464.504 184.401 464.504H181.497V469.85H184.401ZM196.977 466.726C197.388 466.154 197.938 465.721 198.627 465.428C199.331 465.135 200.138 464.988 201.047 464.988V468.156C200.666 468.127 200.409 468.112 200.277 468.112C199.294 468.112 198.524 468.391 197.967 468.948C197.41 469.491 197.131 470.312 197.131 471.412V477H193.699V465.164H196.977V466.726ZM208.722 477.176C207.476 477.176 206.354 476.919 205.356 476.406C204.374 475.878 203.604 475.152 203.046 474.228C202.489 473.304 202.21 472.255 202.21 471.082C202.21 469.909 202.489 468.86 203.046 467.936C203.604 467.012 204.374 466.293 205.356 465.78C206.354 465.252 207.476 464.988 208.722 464.988C209.969 464.988 211.084 465.252 212.066 465.78C213.049 466.293 213.819 467.012 214.376 467.936C214.934 468.86 215.212 469.909 215.212 471.082C215.212 472.255 214.934 473.304 214.376 474.228C213.819 475.152 213.049 475.878 212.066 476.406C211.084 476.919 209.969 477.176 208.722 477.176ZM208.722 474.36C209.602 474.36 210.321 474.067 210.878 473.48C211.45 472.879 211.736 472.079 211.736 471.082C211.736 470.085 211.45 469.293 210.878 468.706C210.321 468.105 209.602 467.804 208.722 467.804C207.842 467.804 207.116 468.105 206.544 468.706C205.972 469.293 205.686 470.085 205.686 471.082C205.686 472.079 205.972 472.879 206.544 473.48C207.116 474.067 207.842 474.36 208.722 474.36ZM216.736 481.444C215.534 481.444 214.617 481.224 213.986 480.784L214.91 478.298C215.306 478.577 215.79 478.716 216.362 478.716C216.802 478.716 217.147 478.569 217.396 478.276C217.646 477.997 217.77 477.572 217.77 477V465.164H221.202V476.978C221.202 478.357 220.806 479.442 220.014 480.234C219.237 481.041 218.144 481.444 216.736 481.444ZM219.486 463.514C218.856 463.514 218.342 463.331 217.946 462.964C217.55 462.597 217.352 462.143 217.352 461.6C217.352 461.057 217.55 460.603 217.946 460.236C218.342 459.869 218.856 459.686 219.486 459.686C220.117 459.686 220.63 459.862 221.026 460.214C221.422 460.566 221.62 461.006 221.62 461.534C221.62 462.106 221.422 462.583 221.026 462.964C220.63 463.331 220.117 463.514 219.486 463.514ZM236.066 471.126C236.066 471.17 236.044 471.478 236 472.05H227.046C227.208 472.783 227.589 473.363 228.19 473.788C228.792 474.213 229.54 474.426 230.434 474.426C231.05 474.426 231.593 474.338 232.062 474.162C232.546 473.971 232.994 473.678 233.404 473.282L235.23 475.262C234.116 476.538 232.488 477.176 230.346 477.176C229.012 477.176 227.831 476.919 226.804 476.406C225.778 475.878 224.986 475.152 224.428 474.228C223.871 473.304 223.592 472.255 223.592 471.082C223.592 469.923 223.864 468.882 224.406 467.958C224.964 467.019 225.719 466.293 226.672 465.78C227.64 465.252 228.718 464.988 229.906 464.988C231.065 464.988 232.114 465.237 233.052 465.736C233.991 466.235 234.724 466.953 235.252 467.892C235.795 468.816 236.066 469.894 236.066 471.126ZM229.928 467.584C229.151 467.584 228.498 467.804 227.97 468.244C227.442 468.684 227.12 469.285 227.002 470.048H232.832C232.715 469.3 232.392 468.706 231.864 468.266C231.336 467.811 230.691 467.584 229.928 467.584ZM244.181 477.176C242.92 477.176 241.783 476.919 240.771 476.406C239.774 475.878 238.989 475.152 238.417 474.228C237.86 473.304 237.581 472.255 237.581 471.082C237.581 469.909 237.86 468.86 238.417 467.936C238.989 467.012 239.774 466.293 240.771 465.78C241.783 465.252 242.92 464.988 244.181 464.988C245.428 464.988 246.513 465.252 247.437 465.78C248.376 466.293 249.058 467.034 249.483 468.002L246.821 469.432C246.205 468.347 245.318 467.804 244.159 467.804C243.265 467.804 242.524 468.097 241.937 468.684C241.351 469.271 241.057 470.07 241.057 471.082C241.057 472.094 241.351 472.893 241.937 473.48C242.524 474.067 243.265 474.36 244.159 474.36C245.333 474.36 246.22 473.817 246.821 472.732L249.483 474.184C249.058 475.123 248.376 475.856 247.437 476.384C246.513 476.912 245.428 477.176 244.181 477.176ZM259.375 476.428C259.038 476.677 258.62 476.868 258.121 477C257.637 477.117 257.124 477.176 256.581 477.176C255.173 477.176 254.081 476.817 253.303 476.098C252.541 475.379 252.159 474.323 252.159 472.93V468.068H250.333V465.428H252.159V462.546H255.591V465.428H258.539V468.068H255.591V472.886C255.591 473.385 255.716 473.773 255.965 474.052C256.229 474.316 256.596 474.448 257.065 474.448C257.608 474.448 258.07 474.301 258.451 474.008L259.375 476.428ZM267.994 461.6H274.99C276.662 461.6 278.136 461.923 279.412 462.568C280.703 463.199 281.7 464.093 282.404 465.252C283.123 466.411 283.482 467.76 283.482 469.3C283.482 470.84 283.123 472.189 282.404 473.348C281.7 474.507 280.703 475.409 279.412 476.054C278.136 476.685 276.662 477 274.99 477H267.994V461.6ZM274.814 474.074C276.354 474.074 277.579 473.649 278.488 472.798C279.412 471.933 279.874 470.767 279.874 469.3C279.874 467.833 279.412 466.675 278.488 465.824C277.579 464.959 276.354 464.526 274.814 464.526H271.558V474.074H274.814ZM291.67 477.176C290.423 477.176 289.301 476.919 288.304 476.406C287.321 475.878 286.551 475.152 285.994 474.228C285.437 473.304 285.158 472.255 285.158 471.082C285.158 469.909 285.437 468.86 285.994 467.936C286.551 467.012 287.321 466.293 288.304 465.78C289.301 465.252 290.423 464.988 291.67 464.988C292.917 464.988 294.031 465.252 295.014 465.78C295.997 466.293 296.767 467.012 297.324 467.936C297.881 468.86 298.16 469.909 298.16 471.082C298.16 472.255 297.881 473.304 297.324 474.228C296.767 475.152 295.997 475.878 295.014 476.406C294.031 476.919 292.917 477.176 291.67 477.176ZM291.67 474.36C292.55 474.36 293.269 474.067 293.826 473.48C294.398 472.879 294.684 472.079 294.684 471.082C294.684 470.085 294.398 469.293 293.826 468.706C293.269 468.105 292.55 467.804 291.67 467.804C290.79 467.804 290.064 468.105 289.492 468.706C288.92 469.293 288.634 470.085 288.634 471.082C288.634 472.079 288.92 472.879 289.492 473.48C290.064 474.067 290.79 474.36 291.67 474.36ZM307.758 464.988C309.225 464.988 310.405 465.428 311.3 466.308C312.209 467.188 312.664 468.493 312.664 470.224V477H309.232V470.752C309.232 469.813 309.027 469.117 308.616 468.662C308.205 468.193 307.611 467.958 306.834 467.958C305.969 467.958 305.279 468.229 304.766 468.772C304.253 469.3 303.996 470.092 303.996 471.148V477H300.564V465.164H303.842V466.55C304.297 466.051 304.861 465.67 305.536 465.406C306.211 465.127 306.951 464.988 307.758 464.988ZM327.608 471.126C327.608 471.17 327.586 471.478 327.542 472.05H318.588C318.749 472.783 319.131 473.363 319.732 473.788C320.333 474.213 321.081 474.426 321.976 474.426C322.592 474.426 323.135 474.338 323.604 474.162C324.088 473.971 324.535 473.678 324.946 473.282L326.772 475.262C325.657 476.538 324.029 477.176 321.888 477.176C320.553 477.176 319.373 476.919 318.346 476.406C317.319 475.878 316.527 475.152 315.97 474.228C315.413 473.304 315.134 472.255 315.134 471.082C315.134 469.923 315.405 468.882 315.948 467.958C316.505 467.019 317.261 466.293 318.214 465.78C319.182 465.252 320.26 464.988 321.448 464.988C322.607 464.988 323.655 465.237 324.594 465.736C325.533 466.235 326.266 466.953 326.794 467.892C327.337 468.816 327.608 469.894 327.608 471.126ZM321.47 467.584C320.693 467.584 320.04 467.804 319.512 468.244C318.984 468.684 318.661 469.285 318.544 470.048H324.374C324.257 469.3 323.934 468.706 323.406 468.266C322.878 467.811 322.233 467.584 321.47 467.584Z" fill="#12B7B6"/>
<path d="M184.196 582.264C182.627 582.264 181.204 581.927 179.928 581.252C178.667 580.563 177.669 579.617 176.936 578.414C176.217 577.197 175.858 575.825 175.858 574.3C175.858 572.775 176.217 571.411 176.936 570.208C177.669 568.991 178.667 568.045 179.928 567.37C181.204 566.681 182.634 566.336 184.218 566.336C185.553 566.336 186.755 566.571 187.826 567.04C188.911 567.509 189.821 568.184 190.554 569.064L188.266 571.176C187.225 569.973 185.934 569.372 184.394 569.372C183.441 569.372 182.59 569.585 181.842 570.01C181.094 570.421 180.507 571 180.082 571.748C179.671 572.496 179.466 573.347 179.466 574.3C179.466 575.253 179.671 576.104 180.082 576.852C180.507 577.6 181.094 578.187 181.842 578.612C182.59 579.023 183.441 579.228 184.394 579.228C185.934 579.228 187.225 578.619 188.266 577.402L190.554 579.514C189.821 580.409 188.911 581.091 187.826 581.56C186.741 582.029 185.531 582.264 184.196 582.264ZM200.023 569.988C201.489 569.988 202.67 570.428 203.565 571.308C204.474 572.188 204.929 573.493 204.929 575.224V582H201.497V575.752C201.497 574.813 201.291 574.117 200.881 573.662C200.47 573.193 199.876 572.958 199.099 572.958C198.233 572.958 197.544 573.229 197.031 573.772C196.517 574.3 196.261 575.092 196.261 576.148V582H192.829V565.676H196.261V571.396C196.715 570.941 197.265 570.597 197.911 570.362C198.556 570.113 199.26 569.988 200.023 569.988ZM219.873 576.126C219.873 576.17 219.851 576.478 219.807 577.05H210.853C211.014 577.783 211.395 578.363 211.997 578.788C212.598 579.213 213.346 579.426 214.241 579.426C214.857 579.426 215.399 579.338 215.869 579.162C216.353 578.971 216.8 578.678 217.211 578.282L219.037 580.262C217.922 581.538 216.294 582.176 214.153 582.176C212.818 582.176 211.637 581.919 210.611 581.406C209.584 580.878 208.792 580.152 208.235 579.228C207.677 578.304 207.399 577.255 207.399 576.082C207.399 574.923 207.67 573.882 208.213 572.958C208.77 572.019 209.525 571.293 210.479 570.78C211.447 570.252 212.525 569.988 213.713 569.988C214.871 569.988 215.92 570.237 216.859 570.736C217.797 571.235 218.531 571.953 219.059 572.892C219.601 573.816 219.873 574.894 219.873 576.126ZM213.735 572.584C212.957 572.584 212.305 572.804 211.777 573.244C211.249 573.684 210.926 574.285 210.809 575.048H216.639C216.521 574.3 216.199 573.706 215.671 573.266C215.143 572.811 214.497 572.584 213.735 572.584ZM227.988 582.176C226.726 582.176 225.59 581.919 224.578 581.406C223.58 580.878 222.796 580.152 222.224 579.228C221.666 578.304 221.388 577.255 221.388 576.082C221.388 574.909 221.666 573.86 222.224 572.936C222.796 572.012 223.58 571.293 224.578 570.78C225.59 570.252 226.726 569.988 227.988 569.988C229.234 569.988 230.32 570.252 231.244 570.78C232.182 571.293 232.864 572.034 233.29 573.002L230.628 574.432C230.012 573.347 229.124 572.804 227.966 572.804C227.071 572.804 226.33 573.097 225.744 573.684C225.157 574.271 224.864 575.07 224.864 576.082C224.864 577.094 225.157 577.893 225.744 578.48C226.33 579.067 227.071 579.36 227.966 579.36C229.139 579.36 230.026 578.817 230.628 577.732L233.29 579.184C232.864 580.123 232.182 580.856 231.244 581.384C230.32 581.912 229.234 582.176 227.988 582.176ZM240.372 577.358L238.722 578.986V582H235.29V565.676H238.722V574.916L243.738 570.164H247.83L242.902 575.18L248.27 582H244.112L240.372 577.358ZM263.26 569.988C264.36 569.988 265.357 570.245 266.252 570.758C267.161 571.257 267.872 571.968 268.386 572.892C268.899 573.801 269.156 574.865 269.156 576.082C269.156 577.299 268.899 578.37 268.386 579.294C267.872 580.203 267.161 580.915 266.252 581.428C265.357 581.927 264.36 582.176 263.26 582.176C261.749 582.176 260.561 581.699 259.696 580.746V586.268H256.264V570.164H259.542V571.528C260.392 570.501 261.632 569.988 263.26 569.988ZM262.666 579.36C263.546 579.36 264.264 579.067 264.822 578.48C265.394 577.879 265.68 577.079 265.68 576.082C265.68 575.085 265.394 574.293 264.822 573.706C264.264 573.105 263.546 572.804 262.666 572.804C261.786 572.804 261.06 573.105 260.488 573.706C259.93 574.293 259.652 575.085 259.652 576.082C259.652 577.079 259.93 577.879 260.488 578.48C261.06 579.067 261.786 579.36 262.666 579.36ZM274.841 571.726C275.252 571.154 275.802 570.721 276.491 570.428C277.195 570.135 278.002 569.988 278.911 569.988V573.156C278.53 573.127 278.273 573.112 278.141 573.112C277.158 573.112 276.388 573.391 275.831 573.948C275.274 574.491 274.995 575.312 274.995 576.412V582H271.563V570.164H274.841V571.726ZM286.586 582.176C285.34 582.176 284.218 581.919 283.22 581.406C282.238 580.878 281.468 580.152 280.91 579.228C280.353 578.304 280.074 577.255 280.074 576.082C280.074 574.909 280.353 573.86 280.91 572.936C281.468 572.012 282.238 571.293 283.22 570.78C284.218 570.252 285.34 569.988 286.586 569.988C287.833 569.988 288.948 570.252 289.93 570.78C290.913 571.293 291.683 572.012 292.24 572.936C292.798 573.86 293.076 574.909 293.076 576.082C293.076 577.255 292.798 578.304 292.24 579.228C291.683 580.152 290.913 580.878 289.93 581.406C288.948 581.919 287.833 582.176 286.586 582.176ZM286.586 579.36C287.466 579.36 288.185 579.067 288.742 578.48C289.314 577.879 289.6 577.079 289.6 576.082C289.6 575.085 289.314 574.293 288.742 573.706C288.185 573.105 287.466 572.804 286.586 572.804C285.706 572.804 284.98 573.105 284.408 573.706C283.836 574.293 283.55 575.085 283.55 576.082C283.55 577.079 283.836 577.879 284.408 578.48C284.98 579.067 285.706 579.36 286.586 579.36ZM299.242 570.428H302.278V573.068H299.33V582H295.898V573.068H294.072V570.428H295.898V569.9C295.898 568.551 296.294 567.48 297.086 566.688C297.893 565.896 299.022 565.5 300.474 565.5C300.988 565.5 301.472 565.559 301.926 565.676C302.396 565.779 302.784 565.933 303.092 566.138L302.19 568.624C301.794 568.345 301.332 568.206 300.804 568.206C299.763 568.206 299.242 568.778 299.242 569.922V570.428ZM305.754 570.164H309.186V582H305.754V570.164ZM307.47 568.514C306.84 568.514 306.326 568.331 305.93 567.964C305.534 567.597 305.336 567.143 305.336 566.6C305.336 566.057 305.534 565.603 305.93 565.236C306.326 564.869 306.84 564.686 307.47 564.686C308.101 564.686 308.614 564.862 309.01 565.214C309.406 565.566 309.604 566.006 309.604 566.534C309.604 567.106 309.406 567.583 309.01 567.964C308.614 568.331 308.101 568.514 307.47 568.514ZM312.477 565.676H315.909V582H312.477V565.676ZM330.798 576.126C330.798 576.17 330.776 576.478 330.732 577.05H321.778C321.939 577.783 322.321 578.363 322.922 578.788C323.523 579.213 324.271 579.426 325.166 579.426C325.782 579.426 326.325 579.338 326.794 579.162C327.278 578.971 327.725 578.678 328.136 578.282L329.962 580.262C328.847 581.538 327.219 582.176 325.078 582.176C323.743 582.176 322.563 581.919 321.536 581.406C320.509 580.878 319.717 580.152 319.16 579.228C318.603 578.304 318.324 577.255 318.324 576.082C318.324 574.923 318.595 573.882 319.138 572.958C319.695 572.019 320.451 571.293 321.404 570.78C322.372 570.252 323.45 569.988 324.638 569.988C325.797 569.988 326.845 570.237 327.784 570.736C328.723 571.235 329.456 571.953 329.984 572.892C330.527 573.816 330.798 574.894 330.798 576.126ZM324.66 572.584C323.883 572.584 323.23 572.804 322.702 573.244C322.174 573.684 321.851 574.285 321.734 575.048H327.564C327.447 574.3 327.124 573.706 326.596 573.266C326.068 572.811 325.423 572.584 324.66 572.584Z" fill="#12B7B6"/>
<path d="M123.928 388.92V374.152H118.104V370.72H133.964V374.152H128.14V388.92H123.928ZM135.77 388.92V374.932H139.644V378.884L139.098 377.74C139.514 376.752 140.181 376.007 141.1 375.504C142.018 374.984 143.136 374.724 144.454 374.724V378.468C144.28 378.451 144.124 378.442 143.986 378.442C143.847 378.425 143.7 378.416 143.544 378.416C142.434 378.416 141.533 378.737 140.84 379.378C140.164 380.002 139.826 380.981 139.826 382.316V388.92H135.77ZM152.999 389.128C151.838 389.128 150.798 388.903 149.879 388.452C148.978 388.001 148.276 387.317 147.773 386.398C147.27 385.462 147.019 384.275 147.019 382.836V374.932H151.075V382.238C151.075 383.399 151.318 384.257 151.803 384.812C152.306 385.349 153.008 385.618 153.909 385.618C154.533 385.618 155.088 385.488 155.573 385.228C156.058 384.951 156.44 384.535 156.717 383.98C156.994 383.408 157.133 382.697 157.133 381.848V374.932H161.189V388.92H157.341V385.072L158.043 386.19C157.575 387.161 156.882 387.897 155.963 388.4C155.062 388.885 154.074 389.128 152.999 389.128ZM165.076 388.92V369.628H169.132V388.92H165.076ZM173.027 388.92V374.932H177.083V388.92H173.027ZM175.055 372.982C174.309 372.982 173.703 372.765 173.235 372.332C172.767 371.899 172.533 371.361 172.533 370.72C172.533 370.079 172.767 369.541 173.235 369.108C173.703 368.675 174.309 368.458 175.055 368.458C175.8 368.458 176.407 368.666 176.875 369.082C177.343 369.481 177.577 370.001 177.577 370.642C177.577 371.318 177.343 371.881 176.875 372.332C176.424 372.765 175.817 372.982 175.055 372.982ZM189.557 388.92V386.19L189.297 385.592V380.704C189.297 379.837 189.028 379.161 188.491 378.676C187.971 378.191 187.165 377.948 186.073 377.948C185.328 377.948 184.591 378.069 183.863 378.312C183.152 378.537 182.546 378.849 182.043 379.248L180.587 376.414C181.35 375.877 182.268 375.461 183.343 375.166C184.418 374.871 185.51 374.724 186.619 374.724C188.751 374.724 190.406 375.227 191.585 376.232C192.764 377.237 193.353 378.806 193.353 380.938V388.92H189.557ZM185.293 389.128C184.201 389.128 183.265 388.946 182.485 388.582C181.705 388.201 181.107 387.689 180.691 387.048C180.275 386.407 180.067 385.687 180.067 384.89C180.067 384.058 180.266 383.33 180.665 382.706C181.081 382.082 181.731 381.597 182.615 381.25C183.499 380.886 184.652 380.704 186.073 380.704H189.791V383.07H186.515C185.562 383.07 184.903 383.226 184.539 383.538C184.192 383.85 184.019 384.24 184.019 384.708C184.019 385.228 184.218 385.644 184.617 385.956C185.033 386.251 185.596 386.398 186.307 386.398C186.983 386.398 187.59 386.242 188.127 385.93C188.664 385.601 189.054 385.124 189.297 384.5L189.921 386.372C189.626 387.273 189.089 387.958 188.309 388.426C187.529 388.894 186.524 389.128 185.293 389.128ZM213.721 389.232C212.283 389.232 210.957 389.007 209.743 388.556C208.547 388.088 207.499 387.429 206.597 386.58C205.713 385.731 205.02 384.734 204.517 383.59C204.032 382.446 203.789 381.189 203.789 379.82C203.789 378.451 204.032 377.194 204.517 376.05C205.02 374.906 205.722 373.909 206.623 373.06C207.525 372.211 208.582 371.561 209.795 371.11C211.009 370.642 212.343 370.408 213.799 370.408C215.411 370.408 216.859 370.677 218.141 371.214C219.441 371.751 220.533 372.531 221.417 373.554L218.713 376.05C218.055 375.357 217.335 374.845 216.555 374.516C215.775 374.169 214.926 373.996 214.007 373.996C213.123 373.996 212.317 374.135 211.589 374.412C210.861 374.689 210.229 375.088 209.691 375.608C209.171 376.128 208.764 376.743 208.469 377.454C208.192 378.165 208.053 378.953 208.053 379.82C208.053 380.669 208.192 381.449 208.469 382.16C208.764 382.871 209.171 383.495 209.691 384.032C210.229 384.552 210.853 384.951 211.563 385.228C212.291 385.505 213.089 385.644 213.955 385.644C214.787 385.644 215.593 385.514 216.373 385.254C217.171 384.977 217.942 384.517 218.687 383.876L221.079 386.918C220.091 387.663 218.939 388.235 217.621 388.634C216.321 389.033 215.021 389.232 213.721 389.232ZM217.231 386.372V379.534H221.079V386.918L217.231 386.372ZM224.836 388.92V374.932H228.71V378.884L228.164 377.74C228.58 376.752 229.247 376.007 230.166 375.504C231.084 374.984 232.202 374.724 233.52 374.724V378.468C233.346 378.451 233.19 378.442 233.052 378.442C232.913 378.425 232.766 378.416 232.61 378.416C231.5 378.416 230.599 378.737 229.906 379.378C229.23 380.002 228.892 380.981 228.892 382.316V388.92H224.836ZM242.591 389.128C241.1 389.128 239.774 388.816 238.613 388.192C237.469 387.568 236.559 386.719 235.883 385.644C235.224 384.552 234.895 383.313 234.895 381.926C234.895 380.522 235.224 379.283 235.883 378.208C236.559 377.116 237.469 376.267 238.613 375.66C239.774 375.036 241.1 374.724 242.591 374.724C244.064 374.724 245.381 375.036 246.543 375.66C247.704 376.267 248.614 377.107 249.273 378.182C249.931 379.257 250.261 380.505 250.261 381.926C250.261 383.313 249.931 384.552 249.273 385.644C248.614 386.719 247.704 387.568 246.543 388.192C245.381 388.816 244.064 389.128 242.591 389.128ZM242.591 385.8C243.267 385.8 243.873 385.644 244.411 385.332C244.948 385.02 245.373 384.578 245.685 384.006C245.997 383.417 246.153 382.723 246.153 381.926C246.153 381.111 245.997 380.418 245.685 379.846C245.373 379.274 244.948 378.832 244.411 378.52C243.873 378.208 243.267 378.052 242.591 378.052C241.915 378.052 241.308 378.208 240.771 378.52C240.233 378.832 239.8 379.274 239.471 379.846C239.159 380.418 239.003 381.111 239.003 381.926C239.003 382.723 239.159 383.417 239.471 384.006C239.8 384.578 240.233 385.02 240.771 385.332C241.308 385.644 241.915 385.8 242.591 385.8ZM259.004 389.128C257.842 389.128 256.802 388.903 255.884 388.452C254.982 388.001 254.28 387.317 253.778 386.398C253.275 385.462 253.024 384.275 253.024 382.836V374.932H257.08V382.238C257.08 383.399 257.322 384.257 257.808 384.812C258.31 385.349 259.012 385.618 259.914 385.618C260.538 385.618 261.092 385.488 261.578 385.228C262.063 384.951 262.444 384.535 262.722 383.98C262.999 383.408 263.138 382.697 263.138 381.848V374.932H267.194V388.92H263.346V385.072L264.048 386.19C263.58 387.161 262.886 387.897 261.968 388.4C261.066 388.885 260.078 389.128 259.004 389.128ZM279.349 389.128C278.171 389.128 277.139 388.868 276.255 388.348C275.371 387.828 274.678 387.039 274.175 385.982C273.69 384.907 273.447 383.555 273.447 381.926C273.447 380.279 273.681 378.927 274.149 377.87C274.617 376.813 275.293 376.024 276.177 375.504C277.061 374.984 278.119 374.724 279.349 374.724C280.667 374.724 281.845 375.027 282.885 375.634C283.943 376.223 284.775 377.055 285.381 378.13C286.005 379.205 286.317 380.47 286.317 381.926C286.317 383.399 286.005 384.673 285.381 385.748C284.775 386.823 283.943 387.655 282.885 388.244C281.845 388.833 280.667 389.128 279.349 389.128ZM271.081 393.964V374.932H274.955V377.792L274.877 381.952L275.137 386.086V393.964H271.081ZM278.647 385.8C279.323 385.8 279.921 385.644 280.441 385.332C280.979 385.02 281.403 384.578 281.715 384.006C282.045 383.417 282.209 382.723 282.209 381.926C282.209 381.111 282.045 380.418 281.715 379.846C281.403 379.274 280.979 378.832 280.441 378.52C279.921 378.208 279.323 378.052 278.647 378.052C277.971 378.052 277.365 378.208 276.827 378.52C276.29 378.832 275.865 379.274 275.553 379.846C275.241 380.418 275.085 381.111 275.085 381.926C275.085 382.723 275.241 383.417 275.553 384.006C275.865 384.578 276.29 385.02 276.827 385.332C277.365 385.644 277.971 385.8 278.647 385.8Z" fill="#1F1F1F"/>
<path d="M124.786 437.268C123.469 437.268 122.221 437.06 121.042 436.644C119.881 436.211 118.945 435.639 118.234 434.928L119.144 433.446C119.733 434.053 120.522 434.556 121.51 434.954C122.515 435.353 123.607 435.552 124.786 435.552C126.294 435.552 127.447 435.223 128.244 434.564C129.059 433.906 129.466 433.022 129.466 431.912C129.466 430.803 129.067 429.919 128.27 429.26C127.49 428.602 126.251 428.272 124.552 428.272H123.252V426.894L128.868 419.848L129.128 420.576H118.988V418.912H130.688V420.238L125.072 427.284L124.162 426.686H124.864C127.048 426.686 128.677 427.172 129.752 428.142C130.844 429.113 131.39 430.361 131.39 431.886C131.39 432.909 131.147 433.828 130.662 434.642C130.177 435.457 129.44 436.098 128.452 436.566C127.481 437.034 126.259 437.268 124.786 437.268ZM139.65 437.268C138.35 437.268 137.111 437.06 135.932 436.644C134.753 436.211 133.817 435.639 133.124 434.928L134.034 433.446C134.606 434.053 135.386 434.556 136.374 434.954C137.379 435.353 138.463 435.552 139.624 435.552C141.167 435.552 142.337 435.214 143.134 434.538C143.949 433.845 144.356 432.944 144.356 431.834C144.356 431.054 144.165 430.387 143.784 429.832C143.42 429.26 142.796 428.818 141.912 428.506C141.028 428.194 139.815 428.038 138.272 428.038H134.398L135.334 418.912H145.292V420.576H136.088L137.05 419.666L136.244 427.31L135.282 426.374H138.688C140.525 426.374 141.999 426.6 143.108 427.05C144.217 427.501 145.015 428.134 145.5 428.948C146.003 429.746 146.254 430.682 146.254 431.756C146.254 432.779 146.011 433.715 145.526 434.564C145.041 435.396 144.313 436.055 143.342 436.54C142.371 437.026 141.141 437.268 139.65 437.268ZM154.064 433.524V422.5H155.702V433.524H154.064ZM149.228 428.792V427.258H160.538V428.792H149.228ZM172.106 442.286C171.465 442.286 170.85 442.182 170.26 441.974C169.688 441.766 169.194 441.454 168.778 441.038L169.636 439.66C169.983 439.99 170.356 440.241 170.754 440.414C171.17 440.605 171.63 440.7 172.132 440.7C172.739 440.7 173.259 440.527 173.692 440.18C174.143 439.851 174.568 439.262 174.966 438.412L175.85 436.41L176.058 436.124L181.674 423.462H183.494L176.656 438.75C176.275 439.634 175.85 440.336 175.382 440.856C174.932 441.376 174.438 441.74 173.9 441.948C173.363 442.174 172.765 442.286 172.106 442.286ZM175.746 437.502L169.454 423.462H171.378L176.942 435.994L175.746 437.502ZM191.641 437.242C190.22 437.242 188.972 436.948 187.897 436.358C186.822 435.752 185.982 434.928 185.375 433.888C184.768 432.831 184.465 431.626 184.465 430.274C184.465 428.922 184.751 427.726 185.323 426.686C185.912 425.646 186.71 424.832 187.715 424.242C188.738 423.636 189.882 423.332 191.147 423.332C192.43 423.332 193.565 423.627 194.553 424.216C195.558 424.788 196.347 425.603 196.919 426.66C197.491 427.7 197.777 428.905 197.777 430.274C197.777 430.361 197.768 430.456 197.751 430.56C197.751 430.647 197.751 430.742 197.751 430.846H185.869V429.468H196.763L196.035 430.014C196.035 429.026 195.818 428.151 195.385 427.388C194.969 426.608 194.397 426.002 193.669 425.568C192.941 425.135 192.1 424.918 191.147 424.918C190.211 424.918 189.37 425.135 188.625 425.568C187.88 426.002 187.299 426.608 186.883 427.388C186.467 428.168 186.259 429.061 186.259 430.066V430.352C186.259 431.392 186.484 432.311 186.935 433.108C187.403 433.888 188.044 434.504 188.859 434.954C189.691 435.388 190.636 435.604 191.693 435.604C192.525 435.604 193.296 435.457 194.007 435.162C194.735 434.868 195.359 434.417 195.879 433.81L196.919 435.006C196.312 435.734 195.55 436.289 194.631 436.67C193.73 437.052 192.733 437.242 191.641 437.242ZM209.838 437.112V434.096L209.76 433.602V428.558C209.76 427.397 209.43 426.504 208.772 425.88C208.13 425.256 207.168 424.944 205.886 424.944C205.002 424.944 204.161 425.092 203.364 425.386C202.566 425.681 201.89 426.071 201.336 426.556L200.504 425.178C201.197 424.589 202.029 424.138 203 423.826C203.97 423.497 204.993 423.332 206.068 423.332C207.836 423.332 209.196 423.774 210.15 424.658C211.12 425.525 211.606 426.851 211.606 428.636V437.112H209.838ZM205.132 437.242C204.109 437.242 203.216 437.078 202.454 436.748C201.708 436.402 201.136 435.934 200.738 435.344C200.339 434.738 200.14 434.044 200.14 433.264C200.14 432.554 200.304 431.912 200.634 431.34C200.98 430.751 201.535 430.283 202.298 429.936C203.078 429.572 204.118 429.39 205.418 429.39H210.124V430.768H205.47C204.152 430.768 203.234 431.002 202.714 431.47C202.211 431.938 201.96 432.519 201.96 433.212C201.96 433.992 202.263 434.616 202.87 435.084C203.476 435.552 204.326 435.786 205.418 435.786C206.458 435.786 207.35 435.552 208.096 435.084C208.858 434.599 209.413 433.906 209.76 433.004L210.176 434.278C209.829 435.18 209.222 435.899 208.356 436.436C207.506 436.974 206.432 437.242 205.132 437.242ZM216.75 437.112V423.462H218.518V427.18L218.336 426.53C218.717 425.49 219.358 424.702 220.26 424.164C221.161 423.61 222.279 423.332 223.614 423.332V425.126C223.544 425.126 223.475 425.126 223.406 425.126C223.336 425.109 223.267 425.1 223.198 425.1C221.759 425.1 220.632 425.542 219.818 426.426C219.003 427.293 218.596 428.532 218.596 430.144V437.112H216.75ZM230.93 437.242C229.804 437.242 228.738 437.086 227.732 436.774C226.727 436.445 225.938 436.038 225.366 435.552L226.198 434.096C226.753 434.512 227.464 434.876 228.33 435.188C229.197 435.483 230.107 435.63 231.06 435.63C232.36 435.63 233.296 435.431 233.868 435.032C234.44 434.616 234.726 434.07 234.726 433.394C234.726 432.892 234.562 432.502 234.232 432.224C233.92 431.93 233.504 431.713 232.984 431.574C232.464 431.418 231.884 431.288 231.242 431.184C230.601 431.08 229.96 430.959 229.318 430.82C228.694 430.682 228.122 430.482 227.602 430.222C227.082 429.945 226.658 429.572 226.328 429.104C226.016 428.636 225.86 428.012 225.86 427.232C225.86 426.487 226.068 425.82 226.484 425.23C226.9 424.641 227.507 424.182 228.304 423.852C229.119 423.506 230.107 423.332 231.268 423.332C232.152 423.332 233.036 423.454 233.92 423.696C234.804 423.922 235.532 424.225 236.104 424.606L235.298 426.088C234.692 425.672 234.042 425.378 233.348 425.204C232.655 425.014 231.962 424.918 231.268 424.918C230.038 424.918 229.128 425.135 228.538 425.568C227.966 425.984 227.68 426.522 227.68 427.18C227.68 427.7 227.836 428.108 228.148 428.402C228.478 428.697 228.902 428.931 229.422 429.104C229.96 429.26 230.54 429.39 231.164 429.494C231.806 429.598 232.438 429.728 233.062 429.884C233.704 430.023 234.284 430.222 234.804 430.482C235.342 430.725 235.766 431.08 236.078 431.548C236.408 431.999 236.572 432.597 236.572 433.342C236.572 434.14 236.347 434.833 235.896 435.422C235.463 435.994 234.822 436.445 233.972 436.774C233.14 437.086 232.126 437.242 230.93 437.242ZM252.588 437.242C251.271 437.242 250.084 436.948 249.026 436.358C247.986 435.752 247.163 434.928 246.556 433.888C245.95 432.831 245.646 431.626 245.646 430.274C245.646 428.905 245.95 427.7 246.556 426.66C247.163 425.62 247.986 424.806 249.026 424.216C250.066 423.627 251.254 423.332 252.588 423.332C253.94 423.332 255.136 423.627 256.176 424.216C257.234 424.806 258.057 425.62 258.646 426.66C259.253 427.7 259.556 428.905 259.556 430.274C259.556 431.626 259.253 432.831 258.646 433.888C258.057 434.928 257.234 435.752 256.176 436.358C255.119 436.948 253.923 437.242 252.588 437.242ZM252.588 435.604C253.576 435.604 254.452 435.388 255.214 434.954C255.977 434.504 256.575 433.88 257.008 433.082C257.459 432.268 257.684 431.332 257.684 430.274C257.684 429.2 257.459 428.264 257.008 427.466C256.575 426.669 255.977 426.054 255.214 425.62C254.452 425.17 253.585 424.944 252.614 424.944C251.644 424.944 250.777 425.17 250.014 425.62C249.252 426.054 248.645 426.669 248.194 427.466C247.744 428.264 247.518 429.2 247.518 430.274C247.518 431.332 247.744 432.268 248.194 433.082C248.645 433.88 249.252 434.504 250.014 434.954C250.777 435.388 251.635 435.604 252.588 435.604ZM263.767 437.112V421.746C263.767 420.533 264.122 419.554 264.833 418.808C265.544 418.063 266.566 417.69 267.901 417.69C268.421 417.69 268.924 417.76 269.409 417.898C269.894 418.037 270.302 418.254 270.631 418.548L270.007 419.926C269.747 419.701 269.444 419.536 269.097 419.432C268.75 419.311 268.378 419.25 267.979 419.25C267.199 419.25 266.601 419.467 266.185 419.9C265.769 420.334 265.561 420.975 265.561 421.824V423.904L265.613 424.762V437.112H263.767ZM261.323 424.996V423.462H269.773V424.996H261.323ZM285.128 437.242C283.707 437.242 282.459 436.948 281.384 436.358C280.31 435.752 279.469 434.928 278.862 433.888C278.256 432.831 277.952 431.626 277.952 430.274C277.952 428.922 278.238 427.726 278.81 426.686C279.4 425.646 280.197 424.832 281.202 424.242C282.225 423.636 283.369 423.332 284.634 423.332C285.917 423.332 287.052 423.627 288.04 424.216C289.046 424.788 289.834 425.603 290.406 426.66C290.978 427.7 291.264 428.905 291.264 430.274C291.264 430.361 291.256 430.456 291.238 430.56C291.238 430.647 291.238 430.742 291.238 430.846H279.356V429.468H290.25L289.522 430.014C289.522 429.026 289.306 428.151 288.872 427.388C288.456 426.608 287.884 426.002 287.156 425.568C286.428 425.135 285.588 424.918 284.634 424.918C283.698 424.918 282.858 425.135 282.112 425.568C281.367 426.002 280.786 426.608 280.37 427.388C279.954 428.168 279.746 429.061 279.746 430.066V430.352C279.746 431.392 279.972 432.311 280.422 433.108C280.89 433.888 281.532 434.504 282.346 434.954C283.178 435.388 284.123 435.604 285.18 435.604C286.012 435.604 286.784 435.457 287.494 435.162C288.222 434.868 288.846 434.417 289.366 433.81L290.406 435.006C289.8 435.734 289.037 436.289 288.118 436.67C287.217 437.052 286.22 437.242 285.128 437.242ZM292.691 437.112L298.463 429.624L298.437 430.534L292.951 423.462H295.031L299.529 429.312L298.749 429.286L303.247 423.462H305.275L299.737 430.612L299.763 429.624L305.587 437.112H303.481L298.723 430.872L299.451 430.976L294.771 437.112H292.691ZM315.836 437.242C314.657 437.242 313.591 436.974 312.638 436.436C311.684 435.882 310.922 435.093 310.35 434.07C309.795 433.03 309.518 431.765 309.518 430.274C309.518 428.784 309.795 427.527 310.35 426.504C310.904 425.464 311.658 424.676 312.612 424.138C313.565 423.601 314.64 423.332 315.836 423.332C317.136 423.332 318.297 423.627 319.32 424.216C320.36 424.788 321.174 425.603 321.764 426.66C322.353 427.7 322.648 428.905 322.648 430.274C322.648 431.661 322.353 432.874 321.764 433.914C321.174 434.954 320.36 435.769 319.32 436.358C318.297 436.948 317.136 437.242 315.836 437.242ZM308.79 442.156V423.462H310.558V427.57L310.376 430.3L310.636 433.056V442.156H308.79ZM315.706 435.604C316.676 435.604 317.543 435.388 318.306 434.954C319.068 434.504 319.675 433.88 320.126 433.082C320.576 432.268 320.802 431.332 320.802 430.274C320.802 429.217 320.576 428.29 320.126 427.492C319.675 426.695 319.068 426.071 318.306 425.62C317.543 425.17 316.676 424.944 315.706 424.944C314.735 424.944 313.86 425.17 313.08 425.62C312.317 426.071 311.71 426.695 311.26 427.492C310.826 428.29 310.61 429.217 310.61 430.274C310.61 431.332 310.826 432.268 311.26 433.082C311.71 433.88 312.317 434.504 313.08 434.954C313.86 435.388 314.735 435.604 315.706 435.604ZM332.339 437.242C330.917 437.242 329.669 436.948 328.595 436.358C327.52 435.752 326.679 434.928 326.073 433.888C325.466 432.831 325.163 431.626 325.163 430.274C325.163 428.922 325.449 427.726 326.021 426.686C326.61 425.646 327.407 424.832 328.413 424.242C329.435 423.636 330.579 423.332 331.845 423.332C333.127 423.332 334.263 423.627 335.251 424.216C336.256 424.788 337.045 425.603 337.617 426.66C338.189 427.7 338.475 428.905 338.475 430.274C338.475 430.361 338.466 430.456 338.449 430.56C338.449 430.647 338.449 430.742 338.449 430.846H326.567V429.468H337.461L336.733 430.014C336.733 429.026 336.516 428.151 336.083 427.388C335.667 426.608 335.095 426.002 334.367 425.568C333.639 425.135 332.798 424.918 331.845 424.918C330.909 424.918 330.068 425.135 329.323 425.568C328.577 426.002 327.997 426.608 327.581 427.388C327.165 428.168 326.957 429.061 326.957 430.066V430.352C326.957 431.392 327.182 432.311 327.633 433.108C328.101 433.888 328.742 434.504 329.557 434.954C330.389 435.388 331.333 435.604 332.391 435.604C333.223 435.604 333.994 435.457 334.705 435.162C335.433 434.868 336.057 434.417 336.577 433.81L337.617 435.006C337.01 435.734 336.247 436.289 335.329 436.67C334.427 437.052 333.431 437.242 332.339 437.242ZM342.362 437.112V423.462H344.13V427.18L343.948 426.53C344.329 425.49 344.971 424.702 345.872 424.164C346.773 423.61 347.891 423.332 349.226 423.332V425.126C349.157 425.126 349.087 425.126 349.018 425.126C348.949 425.109 348.879 425.1 348.81 425.1C347.371 425.1 346.245 425.542 345.43 426.426C344.615 427.293 344.208 428.532 344.208 430.144V437.112H342.362ZM352.725 437.112V423.462H354.571V437.112H352.725ZM353.661 420.446C353.279 420.446 352.959 420.316 352.699 420.056C352.439 419.796 352.309 419.484 352.309 419.12C352.309 418.756 352.439 418.453 352.699 418.21C352.959 417.95 353.279 417.82 353.661 417.82C354.042 417.82 354.363 417.942 354.623 418.184C354.883 418.427 355.013 418.73 355.013 419.094C355.013 419.476 354.883 419.796 354.623 420.056C354.38 420.316 354.059 420.446 353.661 420.446ZM365.635 437.242C364.214 437.242 362.966 436.948 361.891 436.358C360.816 435.752 359.976 434.928 359.369 433.888C358.762 432.831 358.459 431.626 358.459 430.274C358.459 428.922 358.745 427.726 359.317 426.686C359.906 425.646 360.704 424.832 361.709 424.242C362.732 423.636 363.876 423.332 365.141 423.332C366.424 423.332 367.559 423.627 368.547 424.216C369.552 424.788 370.341 425.603 370.913 426.66C371.485 427.7 371.771 428.905 371.771 430.274C371.771 430.361 371.762 430.456 371.745 430.56C371.745 430.647 371.745 430.742 371.745 430.846H359.863V429.468H370.757L370.029 430.014C370.029 429.026 369.812 428.151 369.379 427.388C368.963 426.608 368.391 426.002 367.663 425.568C366.935 425.135 366.094 424.918 365.141 424.918C364.205 424.918 363.364 425.135 362.619 425.568C361.874 426.002 361.293 426.608 360.877 427.388C360.461 428.168 360.253 429.061 360.253 430.066V430.352C360.253 431.392 360.478 432.311 360.929 433.108C361.397 433.888 362.038 434.504 362.853 434.954C363.685 435.388 364.63 435.604 365.687 435.604C366.519 435.604 367.29 435.457 368.001 435.162C368.729 434.868 369.353 434.417 369.873 433.81L370.913 435.006C370.306 435.734 369.544 436.289 368.625 436.67C367.724 437.052 366.727 437.242 365.635 437.242ZM382.626 423.332C383.736 423.332 384.706 423.549 385.538 423.982C386.388 424.398 387.046 425.04 387.514 425.906C388 426.773 388.242 427.865 388.242 429.182V437.112H386.396V429.364C386.396 427.926 386.032 426.842 385.304 426.114C384.594 425.369 383.588 424.996 382.288 424.996C381.318 424.996 380.468 425.196 379.74 425.594C379.03 425.976 378.475 426.539 378.076 427.284C377.695 428.012 377.504 428.896 377.504 429.936V437.112H375.658V423.462H377.426V427.206L377.14 426.504C377.574 425.516 378.267 424.745 379.22 424.19C380.174 423.618 381.309 423.332 382.626 423.332ZM399.027 437.242C397.675 437.242 396.461 436.948 395.387 436.358C394.329 435.752 393.497 434.928 392.891 433.888C392.284 432.831 391.981 431.626 391.981 430.274C391.981 428.905 392.284 427.7 392.891 426.66C393.497 425.62 394.329 424.806 395.387 424.216C396.461 423.627 397.675 423.332 399.027 423.332C400.188 423.332 401.237 423.558 402.173 424.008C403.109 424.459 403.845 425.135 404.383 426.036L403.005 426.972C402.537 426.279 401.956 425.768 401.263 425.438C400.569 425.109 399.815 424.944 399.001 424.944C398.03 424.944 397.155 425.17 396.375 425.62C395.595 426.054 394.979 426.669 394.529 427.466C394.078 428.264 393.853 429.2 393.853 430.274C393.853 431.349 394.078 432.285 394.529 433.082C394.979 433.88 395.595 434.504 396.375 434.954C397.155 435.388 398.03 435.604 399.001 435.604C399.815 435.604 400.569 435.44 401.263 435.11C401.956 434.781 402.537 434.278 403.005 433.602L404.383 434.538C403.845 435.422 403.109 436.098 402.173 436.566C401.237 437.017 400.188 437.242 399.027 437.242ZM413.709 437.242C412.287 437.242 411.039 436.948 409.965 436.358C408.89 435.752 408.049 434.928 407.443 433.888C406.836 432.831 406.533 431.626 406.533 430.274C406.533 428.922 406.819 427.726 407.391 426.686C407.98 425.646 408.777 424.832 409.783 424.242C410.805 423.636 411.949 423.332 413.215 423.332C414.497 423.332 415.633 423.627 416.621 424.216C417.626 424.788 418.415 425.603 418.987 426.66C419.559 427.7 419.845 428.905 419.845 430.274C419.845 430.361 419.836 430.456 419.819 430.56C419.819 430.647 419.819 430.742 419.819 430.846H407.937V429.468H418.831L418.103 430.014C418.103 429.026 417.886 428.151 417.453 427.388C417.037 426.608 416.465 426.002 415.737 425.568C415.009 425.135 414.168 424.918 413.215 424.918C412.279 424.918 411.438 425.135 410.693 425.568C409.947 426.002 409.367 426.608 408.951 427.388C408.535 428.168 408.327 429.061 408.327 430.066V430.352C408.327 431.392 408.552 432.311 409.003 433.108C409.471 433.888 410.112 434.504 410.927 434.954C411.759 435.388 412.703 435.604 413.761 435.604C414.593 435.604 415.364 435.457 416.075 435.162C416.803 434.868 417.427 434.417 417.947 433.81L418.987 435.006C418.38 435.734 417.617 436.289 416.699 436.67C415.797 437.052 414.801 437.242 413.709 437.242Z" fill="#1F1F1F"/>
<g filter="url(#filter2_ii_58_3322)">
<rect x="364" y="533" width="85" height="85" rx="42.5" fill="#F9F9F9"/>
</g>
<path d="M404.939 591.061C405.525 591.646 406.475 591.646 407.061 591.061L416.607 581.515C417.192 580.929 417.192 579.979 416.607 579.393C416.021 578.808 415.071 578.808 414.485 579.393L406 587.879L397.515 579.393C396.929 578.808 395.979 578.808 395.393 579.393C394.808 579.979 394.808 580.929 395.393 581.515L404.939 591.061ZM404.5 589L404.5 590L407.5 590L407.5 589L404.5 589Z" fill="#12B7B6"/>
<path d="M404.939 578.061C405.525 578.646 406.475 578.646 407.061 578.061L416.607 568.515C417.192 567.929 417.192 566.979 416.607 566.393C416.021 565.808 415.071 565.808 414.485 566.393L406 574.879L397.515 566.393C396.929 565.808 395.979 565.808 395.393 566.393C394.808 566.979 394.808 567.929 395.393 568.515L404.939 578.061ZM404.5 576L404.5 577L407.5 577L407.5 576L404.5 576Z" fill="#12B7B6"/>
<path d="M375.096 240.326C373.423 241.221 371.538 242.732 369.401 243.278C363.494 244.791 358.391 242.899 354.351 238.501C351.001 234.851 349.318 230.322 349.494 225.452C349.787 217.383 354.065 210.148 363.155 208.468C367.257 207.71 371.519 207.928 374.853 212.096C375.477 210.685 375.962 209.589 376.523 208.32C378.75 208.32 381.131 208.366 383.508 208.304C384.919 208.266 385.257 208.952 385.255 210.196C385.231 221.16 385.241 232.123 385.241 243.388C382.508 243.388 379.803 243.622 377.189 243.248C376.373 243.133 375.8 241.369 375.096 240.332V240.326ZM375.69 225.756C375.685 220.641 371.479 216.303 366.577 216.362C362.099 216.416 357.447 221.227 357.541 225.705C357.647 230.763 362.085 235.314 367.022 235.314C370.628 235.314 376.178 231.242 375.69 225.759V225.756Z" fill="black"/>
<path d="M262.495 208.315C262.495 214.381 262.401 220.208 262.527 226.033C262.61 229.927 264.698 233.588 268.637 234.588C274.217 236.002 279.21 232.94 279.21 227.033C279.21 220.896 279.21 214.76 279.21 208.468H288.283C288.283 210.927 288.283 213.494 288.283 216.064C288.283 219.695 288.307 223.326 288.278 226.955C288.225 233.728 283.472 239.972 277.148 242.485C270.862 244.982 265.119 244.001 260.038 239.982C255.883 236.692 253.413 232.19 253.243 226.756C253.067 221.213 253.019 215.666 252.968 210.118C252.957 209.008 253.427 208.245 254.813 208.29C257.27 208.371 259.732 208.315 262.492 208.315H262.495Z" fill="black"/>
<path d="M184.745 208.363C185.071 208.342 185.148 208.333 185.228 208.333C188.978 208.276 190.853 206.413 190.853 202.743C190.853 198.876 192.81 196.942 196.723 196.94C197.676 196.94 198.63 196.94 199.775 196.94V208.315C203.335 208.315 206.72 208.406 210.096 208.277C211.921 208.207 212.382 208.868 212.382 210.597C212.377 217.319 212.43 217.319 205.73 217.319C203.903 217.319 202.079 217.319 199.889 217.319C200.281 221.506 199.175 225.67 200.852 229.758C202.103 232.811 204.832 234.851 208.115 234.854C209.448 234.854 210.782 234.854 212.345 234.854C212.345 237.201 212.417 239.391 212.318 241.576C212.254 242.969 211.414 243.772 209.931 243.864C203.479 244.264 198.526 241.649 194.632 236.639C191.733 232.911 190.762 228.696 190.845 224.116C190.885 221.923 190.853 219.73 190.853 217.343H184.745V208.363Z" fill="black"/>
<path d="M302.614 205.471C300.837 205.471 299.336 205.431 297.837 205.484C296.578 205.53 295.887 205.143 295.917 203.753C295.967 201.243 295.93 198.733 295.93 195.994C300.813 195.994 305.561 195.945 310.303 196.069C310.781 196.082 311.626 197.149 311.631 197.733C311.711 208.925 311.73 220.119 311.666 231.314C311.647 234.456 311.999 234.803 315.213 234.061C316.12 233.852 317.088 233.921 318.136 233.857V243.224C318.014 243.248 317.662 243.372 317.31 243.372C310.866 243.385 304.422 243.348 297.978 243.412C296.429 243.428 295.754 242.918 295.919 241.364C295.986 240.74 295.93 240.103 295.93 239.472C295.93 236.372 297.49 234.677 300.611 234.386C301.798 234.276 302.646 233.991 302.638 232.481C302.59 223.571 302.614 214.663 302.614 205.476V205.471Z" fill="black"/>
<path d="M224.766 217.335H220.472C220.472 214.835 220.421 212.422 220.496 210.008C220.53 208.895 221.069 208.175 222.427 208.29C223.768 208.403 225.136 208.409 226.478 208.29C228.582 208.108 230.191 208.39 230.191 211.016C230.191 211.508 230.553 212 230.884 212.83C231.769 212.416 232.77 212.185 233.45 211.594C236.65 208.82 240.334 207.839 244.657 208.438V216.58C242.865 216.961 241.107 217.206 239.432 217.714C235.96 218.77 234.343 220.95 234.327 224.458C234.301 230.677 234.319 236.899 234.319 243.251H224.766V217.332V217.335Z" fill="black"/>
<path d="M344.882 233.86V243.385C340.132 243.385 335.217 243.458 330.312 243.278C329.808 243.259 328.962 241.751 328.949 240.923C328.877 236.4 329.018 231.873 329.08 227.35C329.117 224.592 329.09 221.832 329.186 219.077C329.229 217.813 328.832 217.335 327.503 217.287C322.676 217.117 322.676 217.074 322.676 212.158C322.676 210.981 322.676 209.804 322.676 208.32C327.581 208.32 332.398 208.28 337.209 208.393C337.63 208.403 338.377 209.414 338.385 209.965C338.465 217.05 338.497 224.14 338.415 231.226C338.377 234.413 338.793 234.833 341.885 234.104C342.853 233.876 343.888 233.932 344.888 233.86H344.882Z" fill="black"/>
<path d="M328.394 198.883C328.437 195.523 330.17 194.061 334.072 194.096C336.486 194.118 338.876 196.563 338.911 199.047C338.945 201.549 335.787 204.616 333.275 204.522C330.491 204.417 328.354 201.95 328.391 198.883H328.394Z" fill="black"/>
<defs>
<filter id="filter0_dd_58_3322" x="0" y="0" width="570" height="732" filterUnits="userSpaceOnUse" color-interpolation-filters="sRGB">
<feFlood flood-opacity="0" result="BackgroundImageFix"/>
<feColorMatrix in="SourceAlpha" type="matrix" values="0 0 0 0 0 0 0 0 0 0 0 0 0 0 0 0 0 0 127 0" result="hardAlpha"/>
<feOffset dx="20" dy="20"/>
<feGaussianBlur stdDeviation="25"/>
<feColorMatrix type="matrix" values="0 0 0 0 0.823529 0 0 0 0 0.823529 0 0 0 0 0.823529 0 0 0 1 0"/>
<feBlend mode="normal" in2="BackgroundImageFix" result="effect1_dropShadow_58_3322"/>
<feColorMatrix in="SourceAlpha" type="matrix" values="0 0 0 0 0 0 0 0 0 0 0 0 0 0 0 0 0 0 127 0" result="hardAlpha"/>
<feOffset dx="-20" dy="-20"/>
<feGaussianBlur stdDeviation="25"/>
<feColorMatrix type="matrix" values="0 0 0 0 1 0 0 0 0 1 0 0 0 0 1 0 0 0 1 0"/>
<feBlend mode="normal" in2="effect1_dropShadow_58_3322" result="effect2_dropShadow_58_3322"/>
<feBlend mode="normal" in="SourceGraphic" in2="effect2_dropShadow_58_3322" result="shape"/>
</filter>
<filter id="filter1_dd_58_3322" x="91" y="503" width="388" height="145" filterUnits="userSpaceOnUse" color-interpolation-filters="sRGB">
<feFlood flood-opacity="0" result="BackgroundImageFix"/>
<feColorMatrix in="SourceAlpha" type="matrix" values="0 0 0 0 0 0 0 0 0 0 0 0 0 0 0 0 0 0 127 0" result="hardAlpha"/>
<feOffset dx="10" dy="10"/>
<feGaussianBlur stdDeviation="10"/>
<feColorMatrix type="matrix" values="0 0 0 0 0 0 0 0 0 0 0 0 0 0 0 0 0 0 0.08 0"/>
<feBlend mode="normal" in2="BackgroundImageFix" result="effect1_dropShadow_58_3322"/>
<feColorMatrix in="SourceAlpha" type="matrix" values="0 0 0 0 0 0 0 0 0 0 0 0 0 0 0 0 0 0 127 0" result="hardAlpha"/>
<feOffset dx="-10" dy="-10"/>
<feGaussianBlur stdDeviation="10"/>
<feColorMatrix type="matrix" values="0 0 0 0 1 0 0 0 0 1 0 0 0 0 1 0 0 0 1 0"/>
<feBlend mode="normal" in2="effect1_dropShadow_58_3322" result="effect2_dropShadow_58_3322"/>
<feBlend mode="normal" in="SourceGraphic" in2="effect2_dropShadow_58_3322" result="shape"/>
</filter>
<filter id="filter2_ii_58_3322" x="354" y="523" width="105" height="105" filterUnits="userSpaceOnUse" color-interpolation-filters="sRGB">
<feFlood flood-opacity="0" result="BackgroundImageFix"/>
<feBlend mode="normal" in="SourceGraphic" in2="BackgroundImageFix" result="shape"/>
<feColorMatrix in="SourceAlpha" type="matrix" values="0 0 0 0 0 0 0 0 0 0 0 0 0 0 0 0 0 0 127 0" result="hardAlpha"/>
<feOffset dx="10" dy="10"/>
<feGaussianBlur stdDeviation="10"/>
<feComposite in2="hardAlpha" operator="arithmetic" k2="-1" k3="1"/>
<feColorMatrix type="matrix" values="0 0 0 0 0 0 0 0 0 0 0 0 0 0 0 0 0 0 0.08 0"/>
<feBlend mode="normal" in2="shape" result="effect1_innerShadow_58_3322"/>
<feColorMatrix in="SourceAlpha" type="matrix" values="0 0 0 0 0 0 0 0 0 0 0 0 0 0 0 0 0 0 127 0" result="hardAlpha"/>
<feOffset dx="-10" dy="-10"/>
<feGaussianBlur stdDeviation="10"/>
<feComposite in2="hardAlpha" operator="arithmetic" k2="-1" k3="1"/>
<feColorMatrix type="matrix" values="0 0 0 0 1 0 0 0 0 1 0 0 0 0 1 0 0 0 1 0"/>
<feBlend mode="normal" in2="effect1_innerShadow_58_3322" result="effect2_innerShadow_58_3322"/>
</filter>
</defs>
</svg>
