<svg width="570" height="732" viewBox="0 0 570 732" fill="none" xmlns="http://www.w3.org/2000/svg">
<g filter="url(#filter0_dd_58_3323)">
<rect x="70" y="70" width="430" height="592" rx="43" fill="#F3F3F3"/>
</g>
<g filter="url(#filter1_dd_58_3323)">
<rect x="121" y="533" width="328" height="85" rx="42.5" fill="#F9F9F9"/>
</g>
<path d="M124.798 461.6V477H121.234V464.46H118.154V461.6H124.798ZM141.685 473.766H139.177V477H135.701V473.766H127.407V471.368L134.667 461.6H138.407L131.675 470.862H135.811V467.98H139.177V470.862H141.685V473.766ZM149.461 477.264C148.185 477.264 147.049 476.949 146.051 476.318C145.054 475.687 144.269 474.778 143.697 473.59C143.14 472.387 142.861 470.957 142.861 469.3C142.861 467.643 143.14 466.22 143.697 465.032C144.269 463.829 145.054 462.913 146.051 462.282C147.049 461.651 148.185 461.336 149.461 461.336C150.737 461.336 151.874 461.651 152.871 462.282C153.869 462.913 154.646 463.829 155.203 465.032C155.775 466.22 156.061 467.643 156.061 469.3C156.061 470.957 155.775 472.387 155.203 473.59C154.646 474.778 153.869 475.687 152.871 476.318C151.874 476.949 150.737 477.264 149.461 477.264ZM149.461 474.25C150.4 474.25 151.133 473.847 151.661 473.04C152.204 472.233 152.475 470.987 152.475 469.3C152.475 467.613 152.204 466.367 151.661 465.56C151.133 464.753 150.4 464.35 149.461 464.35C148.537 464.35 147.804 464.753 147.261 465.56C146.733 466.367 146.469 467.613 146.469 469.3C146.469 470.987 146.733 472.233 147.261 473.04C147.804 473.847 148.537 474.25 149.461 474.25ZM168.967 470.642H165.139V474.382H162.301V470.642H158.495V467.958H162.301V464.218H165.139V467.958H168.967V470.642ZM185.243 461.6C186.607 461.6 187.788 461.827 188.785 462.282C189.797 462.737 190.575 463.382 191.117 464.218C191.66 465.054 191.931 466.044 191.931 467.188C191.931 468.317 191.66 469.307 191.117 470.158C190.575 470.994 189.797 471.639 188.785 472.094C187.788 472.534 186.607 472.754 185.243 472.754H182.141V477H178.577V461.6H185.243ZM185.045 469.85C186.116 469.85 186.93 469.623 187.487 469.168C188.045 468.699 188.323 468.039 188.323 467.188C188.323 466.323 188.045 465.663 187.487 465.208C186.93 464.739 186.116 464.504 185.045 464.504H182.141V469.85H185.045ZM197.622 466.726C198.032 466.154 198.582 465.721 199.272 465.428C199.976 465.135 200.782 464.988 201.692 464.988V468.156C201.31 468.127 201.054 468.112 200.922 468.112C199.939 468.112 199.169 468.391 198.612 468.948C198.054 469.491 197.776 470.312 197.776 471.412V477H194.344V465.164H197.622V466.726ZM209.367 477.176C208.12 477.176 206.998 476.919 206.001 476.406C205.018 475.878 204.248 475.152 203.691 474.228C203.134 473.304 202.855 472.255 202.855 471.082C202.855 469.909 203.134 468.86 203.691 467.936C204.248 467.012 205.018 466.293 206.001 465.78C206.998 465.252 208.12 464.988 209.367 464.988C210.614 464.988 211.728 465.252 212.711 465.78C213.694 466.293 214.464 467.012 215.021 467.936C215.578 468.86 215.857 469.909 215.857 471.082C215.857 472.255 215.578 473.304 215.021 474.228C214.464 475.152 213.694 475.878 212.711 476.406C211.728 476.919 210.614 477.176 209.367 477.176ZM209.367 474.36C210.247 474.36 210.966 474.067 211.523 473.48C212.095 472.879 212.381 472.079 212.381 471.082C212.381 470.085 212.095 469.293 211.523 468.706C210.966 468.105 210.247 467.804 209.367 467.804C208.487 467.804 207.761 468.105 207.189 468.706C206.617 469.293 206.331 470.085 206.331 471.082C206.331 472.079 206.617 472.879 207.189 473.48C207.761 474.067 208.487 474.36 209.367 474.36ZM217.381 481.444C216.178 481.444 215.262 481.224 214.631 480.784L215.555 478.298C215.951 478.577 216.435 478.716 217.007 478.716C217.447 478.716 217.792 478.569 218.041 478.276C218.29 477.997 218.415 477.572 218.415 477V465.164H221.847V476.978C221.847 478.357 221.451 479.442 220.659 480.234C219.882 481.041 218.789 481.444 217.381 481.444ZM220.131 463.514C219.5 463.514 218.987 463.331 218.591 462.964C218.195 462.597 217.997 462.143 217.997 461.6C217.997 461.057 218.195 460.603 218.591 460.236C218.987 459.869 219.5 459.686 220.131 459.686C220.762 459.686 221.275 459.862 221.671 460.214C222.067 460.566 222.265 461.006 222.265 461.534C222.265 462.106 222.067 462.583 221.671 462.964C221.275 463.331 220.762 463.514 220.131 463.514ZM236.711 471.126C236.711 471.17 236.689 471.478 236.645 472.05H227.691C227.852 472.783 228.234 473.363 228.835 473.788C229.436 474.213 230.184 474.426 231.079 474.426C231.695 474.426 232.238 474.338 232.707 474.162C233.191 473.971 233.638 473.678 234.049 473.282L235.875 475.262C234.76 476.538 233.132 477.176 230.991 477.176C229.656 477.176 228.476 476.919 227.449 476.406C226.422 475.878 225.63 475.152 225.073 474.228C224.516 473.304 224.237 472.255 224.237 471.082C224.237 469.923 224.508 468.882 225.051 467.958C225.608 467.019 226.364 466.293 227.317 465.78C228.285 465.252 229.363 464.988 230.551 464.988C231.71 464.988 232.758 465.237 233.697 465.736C234.636 466.235 235.369 466.953 235.897 467.892C236.44 468.816 236.711 469.894 236.711 471.126ZM230.573 467.584C229.796 467.584 229.143 467.804 228.615 468.244C228.087 468.684 227.764 469.285 227.647 470.048H233.477C233.36 469.3 233.037 468.706 232.509 468.266C231.981 467.811 231.336 467.584 230.573 467.584ZM244.826 477.176C243.565 477.176 242.428 476.919 241.416 476.406C240.419 475.878 239.634 475.152 239.062 474.228C238.505 473.304 238.226 472.255 238.226 471.082C238.226 469.909 238.505 468.86 239.062 467.936C239.634 467.012 240.419 466.293 241.416 465.78C242.428 465.252 243.565 464.988 244.826 464.988C246.073 464.988 247.158 465.252 248.082 465.78C249.021 466.293 249.703 467.034 250.128 468.002L247.466 469.432C246.85 468.347 245.963 467.804 244.804 467.804C243.909 467.804 243.169 468.097 242.582 468.684C241.995 469.271 241.702 470.07 241.702 471.082C241.702 472.094 241.995 472.893 242.582 473.48C243.169 474.067 243.909 474.36 244.804 474.36C245.977 474.36 246.865 473.817 247.466 472.732L250.128 474.184C249.703 475.123 249.021 475.856 248.082 476.384C247.158 476.912 246.073 477.176 244.826 477.176ZM260.02 476.428C259.682 476.677 259.264 476.868 258.766 477C258.282 477.117 257.768 477.176 257.226 477.176C255.818 477.176 254.725 476.817 253.948 476.098C253.185 475.379 252.804 474.323 252.804 472.93V468.068H250.978V465.428H252.804V462.546H256.236V465.428H259.184V468.068H256.236V472.886C256.236 473.385 256.36 473.773 256.61 474.052C256.874 474.316 257.24 474.448 257.71 474.448C258.252 474.448 258.714 474.301 259.096 474.008L260.02 476.428ZM266.038 477.176C265.056 477.176 264.095 477.059 263.156 476.824C262.218 476.575 261.47 476.267 260.912 475.9L262.056 473.436C262.584 473.773 263.222 474.052 263.97 474.272C264.718 474.477 265.452 474.58 266.17 474.58C267.622 474.58 268.348 474.221 268.348 473.502C268.348 473.165 268.15 472.923 267.754 472.776C267.358 472.629 266.75 472.505 265.928 472.402C264.96 472.255 264.161 472.087 263.53 471.896C262.9 471.705 262.35 471.368 261.88 470.884C261.426 470.4 261.198 469.711 261.198 468.816C261.198 468.068 261.411 467.408 261.836 466.836C262.276 466.249 262.907 465.795 263.728 465.472C264.564 465.149 265.547 464.988 266.676 464.988C267.512 464.988 268.341 465.083 269.162 465.274C269.998 465.45 270.688 465.699 271.23 466.022L270.086 468.464C269.045 467.877 267.908 467.584 266.676 467.584C265.943 467.584 265.393 467.687 265.026 467.892C264.66 468.097 264.476 468.361 264.476 468.684C264.476 469.051 264.674 469.307 265.07 469.454C265.466 469.601 266.097 469.74 266.962 469.872C267.93 470.033 268.722 470.209 269.338 470.4C269.954 470.576 270.49 470.906 270.944 471.39C271.399 471.874 271.626 472.549 271.626 473.414C271.626 474.147 271.406 474.8 270.966 475.372C270.526 475.944 269.881 476.391 269.03 476.714C268.194 477.022 267.197 477.176 266.038 477.176ZM280.436 461.6H287.432C289.104 461.6 290.578 461.923 291.854 462.568C293.145 463.199 294.142 464.093 294.846 465.252C295.565 466.411 295.924 467.76 295.924 469.3C295.924 470.84 295.565 472.189 294.846 473.348C294.142 474.507 293.145 475.409 291.854 476.054C290.578 476.685 289.104 477 287.432 477H280.436V461.6ZM287.256 474.074C288.796 474.074 290.021 473.649 290.93 472.798C291.854 471.933 292.316 470.767 292.316 469.3C292.316 467.833 291.854 466.675 290.93 465.824C290.021 464.959 288.796 464.526 287.256 464.526H284V474.074H287.256ZM304.112 477.176C302.865 477.176 301.743 476.919 300.746 476.406C299.763 475.878 298.993 475.152 298.436 474.228C297.879 473.304 297.6 472.255 297.6 471.082C297.6 469.909 297.879 468.86 298.436 467.936C298.993 467.012 299.763 466.293 300.746 465.78C301.743 465.252 302.865 464.988 304.112 464.988C305.359 464.988 306.473 465.252 307.456 465.78C308.439 466.293 309.209 467.012 309.766 467.936C310.323 468.86 310.602 469.909 310.602 471.082C310.602 472.255 310.323 473.304 309.766 474.228C309.209 475.152 308.439 475.878 307.456 476.406C306.473 476.919 305.359 477.176 304.112 477.176ZM304.112 474.36C304.992 474.36 305.711 474.067 306.268 473.48C306.84 472.879 307.126 472.079 307.126 471.082C307.126 470.085 306.84 469.293 306.268 468.706C305.711 468.105 304.992 467.804 304.112 467.804C303.232 467.804 302.506 468.105 301.934 468.706C301.362 469.293 301.076 470.085 301.076 471.082C301.076 472.079 301.362 472.879 301.934 473.48C302.506 474.067 303.232 474.36 304.112 474.36ZM320.2 464.988C321.667 464.988 322.847 465.428 323.742 466.308C324.651 467.188 325.106 468.493 325.106 470.224V477H321.674V470.752C321.674 469.813 321.469 469.117 321.058 468.662C320.647 468.193 320.053 467.958 319.276 467.958C318.411 467.958 317.721 468.229 317.208 468.772C316.695 469.3 316.438 470.092 316.438 471.148V477H313.006V465.164H316.284V466.55C316.739 466.051 317.303 465.67 317.978 465.406C318.653 465.127 319.393 464.988 320.2 464.988ZM340.05 471.126C340.05 471.17 340.028 471.478 339.984 472.05H331.03C331.191 472.783 331.573 473.363 332.174 473.788C332.775 474.213 333.523 474.426 334.418 474.426C335.034 474.426 335.577 474.338 336.046 474.162C336.53 473.971 336.977 473.678 337.388 473.282L339.214 475.262C338.099 476.538 336.471 477.176 334.33 477.176C332.995 477.176 331.815 476.919 330.788 476.406C329.761 475.878 328.969 475.152 328.412 474.228C327.855 473.304 327.576 472.255 327.576 471.082C327.576 469.923 327.847 468.882 328.39 467.958C328.947 467.019 329.703 466.293 330.656 465.78C331.624 465.252 332.702 464.988 333.89 464.988C335.049 464.988 336.097 465.237 337.036 465.736C337.975 466.235 338.708 466.953 339.236 467.892C339.779 468.816 340.05 469.894 340.05 471.126ZM333.912 467.584C333.135 467.584 332.482 467.804 331.954 468.244C331.426 468.684 331.103 469.285 330.986 470.048H336.816C336.699 469.3 336.376 468.706 335.848 468.266C335.32 467.811 334.675 467.584 333.912 467.584Z" fill="#12B7B6"/>
<path d="M184.196 582.264C182.627 582.264 181.204 581.927 179.928 581.252C178.667 580.563 177.669 579.617 176.936 578.414C176.217 577.197 175.858 575.825 175.858 574.3C175.858 572.775 176.217 571.411 176.936 570.208C177.669 568.991 178.667 568.045 179.928 567.37C181.204 566.681 182.634 566.336 184.218 566.336C185.553 566.336 186.755 566.571 187.826 567.04C188.911 567.509 189.821 568.184 190.554 569.064L188.266 571.176C187.225 569.973 185.934 569.372 184.394 569.372C183.441 569.372 182.59 569.585 181.842 570.01C181.094 570.421 180.507 571 180.082 571.748C179.671 572.496 179.466 573.347 179.466 574.3C179.466 575.253 179.671 576.104 180.082 576.852C180.507 577.6 181.094 578.187 181.842 578.612C182.59 579.023 183.441 579.228 184.394 579.228C185.934 579.228 187.225 578.619 188.266 577.402L190.554 579.514C189.821 580.409 188.911 581.091 187.826 581.56C186.741 582.029 185.531 582.264 184.196 582.264ZM200.023 569.988C201.489 569.988 202.67 570.428 203.565 571.308C204.474 572.188 204.929 573.493 204.929 575.224V582H201.497V575.752C201.497 574.813 201.291 574.117 200.881 573.662C200.47 573.193 199.876 572.958 199.099 572.958C198.233 572.958 197.544 573.229 197.031 573.772C196.517 574.3 196.261 575.092 196.261 576.148V582H192.829V565.676H196.261V571.396C196.715 570.941 197.265 570.597 197.911 570.362C198.556 570.113 199.26 569.988 200.023 569.988ZM219.873 576.126C219.873 576.17 219.851 576.478 219.807 577.05H210.853C211.014 577.783 211.395 578.363 211.997 578.788C212.598 579.213 213.346 579.426 214.241 579.426C214.857 579.426 215.399 579.338 215.869 579.162C216.353 578.971 216.8 578.678 217.211 578.282L219.037 580.262C217.922 581.538 216.294 582.176 214.153 582.176C212.818 582.176 211.637 581.919 210.611 581.406C209.584 580.878 208.792 580.152 208.235 579.228C207.677 578.304 207.399 577.255 207.399 576.082C207.399 574.923 207.67 573.882 208.213 572.958C208.77 572.019 209.525 571.293 210.479 570.78C211.447 570.252 212.525 569.988 213.713 569.988C214.871 569.988 215.92 570.237 216.859 570.736C217.797 571.235 218.531 571.953 219.059 572.892C219.601 573.816 219.873 574.894 219.873 576.126ZM213.735 572.584C212.957 572.584 212.305 572.804 211.777 573.244C211.249 573.684 210.926 574.285 210.809 575.048H216.639C216.521 574.3 216.199 573.706 215.671 573.266C215.143 572.811 214.497 572.584 213.735 572.584ZM227.988 582.176C226.726 582.176 225.59 581.919 224.578 581.406C223.58 580.878 222.796 580.152 222.224 579.228C221.666 578.304 221.388 577.255 221.388 576.082C221.388 574.909 221.666 573.86 222.224 572.936C222.796 572.012 223.58 571.293 224.578 570.78C225.59 570.252 226.726 569.988 227.988 569.988C229.234 569.988 230.32 570.252 231.244 570.78C232.182 571.293 232.864 572.034 233.29 573.002L230.628 574.432C230.012 573.347 229.124 572.804 227.966 572.804C227.071 572.804 226.33 573.097 225.744 573.684C225.157 574.271 224.864 575.07 224.864 576.082C224.864 577.094 225.157 577.893 225.744 578.48C226.33 579.067 227.071 579.36 227.966 579.36C229.139 579.36 230.026 578.817 230.628 577.732L233.29 579.184C232.864 580.123 232.182 580.856 231.244 581.384C230.32 581.912 229.234 582.176 227.988 582.176ZM240.372 577.358L238.722 578.986V582H235.29V565.676H238.722V574.916L243.738 570.164H247.83L242.902 575.18L248.27 582H244.112L240.372 577.358ZM263.26 569.988C264.36 569.988 265.357 570.245 266.252 570.758C267.161 571.257 267.872 571.968 268.386 572.892C268.899 573.801 269.156 574.865 269.156 576.082C269.156 577.299 268.899 578.37 268.386 579.294C267.872 580.203 267.161 580.915 266.252 581.428C265.357 581.927 264.36 582.176 263.26 582.176C261.749 582.176 260.561 581.699 259.696 580.746V586.268H256.264V570.164H259.542V571.528C260.392 570.501 261.632 569.988 263.26 569.988ZM262.666 579.36C263.546 579.36 264.264 579.067 264.822 578.48C265.394 577.879 265.68 577.079 265.68 576.082C265.68 575.085 265.394 574.293 264.822 573.706C264.264 573.105 263.546 572.804 262.666 572.804C261.786 572.804 261.06 573.105 260.488 573.706C259.93 574.293 259.652 575.085 259.652 576.082C259.652 577.079 259.93 577.879 260.488 578.48C261.06 579.067 261.786 579.36 262.666 579.36ZM274.841 571.726C275.252 571.154 275.802 570.721 276.491 570.428C277.195 570.135 278.002 569.988 278.911 569.988V573.156C278.53 573.127 278.273 573.112 278.141 573.112C277.158 573.112 276.388 573.391 275.831 573.948C275.274 574.491 274.995 575.312 274.995 576.412V582H271.563V570.164H274.841V571.726ZM286.586 582.176C285.34 582.176 284.218 581.919 283.22 581.406C282.238 580.878 281.468 580.152 280.91 579.228C280.353 578.304 280.074 577.255 280.074 576.082C280.074 574.909 280.353 573.86 280.91 572.936C281.468 572.012 282.238 571.293 283.22 570.78C284.218 570.252 285.34 569.988 286.586 569.988C287.833 569.988 288.948 570.252 289.93 570.78C290.913 571.293 291.683 572.012 292.24 572.936C292.798 573.86 293.076 574.909 293.076 576.082C293.076 577.255 292.798 578.304 292.24 579.228C291.683 580.152 290.913 580.878 289.93 581.406C288.948 581.919 287.833 582.176 286.586 582.176ZM286.586 579.36C287.466 579.36 288.185 579.067 288.742 578.48C289.314 577.879 289.6 577.079 289.6 576.082C289.6 575.085 289.314 574.293 288.742 573.706C288.185 573.105 287.466 572.804 286.586 572.804C285.706 572.804 284.98 573.105 284.408 573.706C283.836 574.293 283.55 575.085 283.55 576.082C283.55 577.079 283.836 577.879 284.408 578.48C284.98 579.067 285.706 579.36 286.586 579.36ZM299.242 570.428H302.278V573.068H299.33V582H295.898V573.068H294.072V570.428H295.898V569.9C295.898 568.551 296.294 567.48 297.086 566.688C297.893 565.896 299.022 565.5 300.474 565.5C300.988 565.5 301.472 565.559 301.926 565.676C302.396 565.779 302.784 565.933 303.092 566.138L302.19 568.624C301.794 568.345 301.332 568.206 300.804 568.206C299.763 568.206 299.242 568.778 299.242 569.922V570.428ZM305.754 570.164H309.186V582H305.754V570.164ZM307.47 568.514C306.84 568.514 306.326 568.331 305.93 567.964C305.534 567.597 305.336 567.143 305.336 566.6C305.336 566.057 305.534 565.603 305.93 565.236C306.326 564.869 306.84 564.686 307.47 564.686C308.101 564.686 308.614 564.862 309.01 565.214C309.406 565.566 309.604 566.006 309.604 566.534C309.604 567.106 309.406 567.583 309.01 567.964C308.614 568.331 308.101 568.514 307.47 568.514ZM312.477 565.676H315.909V582H312.477V565.676ZM330.798 576.126C330.798 576.17 330.776 576.478 330.732 577.05H321.778C321.939 577.783 322.321 578.363 322.922 578.788C323.523 579.213 324.271 579.426 325.166 579.426C325.782 579.426 326.325 579.338 326.794 579.162C327.278 578.971 327.725 578.678 328.136 578.282L329.962 580.262C328.847 581.538 327.219 582.176 325.078 582.176C323.743 582.176 322.563 581.919 321.536 581.406C320.509 580.878 319.717 580.152 319.16 579.228C318.603 578.304 318.324 577.255 318.324 576.082C318.324 574.923 318.595 573.882 319.138 572.958C319.695 572.019 320.451 571.293 321.404 570.78C322.372 570.252 323.45 569.988 324.638 569.988C325.797 569.988 326.845 570.237 327.784 570.736C328.723 571.235 329.456 571.953 329.984 572.892C330.527 573.816 330.798 574.894 330.798 576.126ZM324.66 572.584C323.883 572.584 323.23 572.804 322.702 573.244C322.174 573.684 321.851 574.285 321.734 575.048H327.564C327.447 574.3 327.124 573.706 326.596 573.266C326.068 572.811 325.423 572.584 324.66 572.584Z" fill="#12B7B6"/>
<path d="M120.158 388.92V370.72H128.036C129.665 370.72 131.069 370.989 132.248 371.526C133.427 372.046 134.337 372.8 134.978 373.788C135.619 374.776 135.94 375.955 135.94 377.324C135.94 378.676 135.619 379.846 134.978 380.834C134.337 381.805 133.427 382.55 132.248 383.07C131.069 383.59 129.665 383.85 128.036 383.85H122.498L124.37 382.004V388.92H120.158ZM131.728 388.92L127.178 382.316H131.676L136.278 388.92H131.728ZM124.37 382.472L122.498 380.496H127.802C129.102 380.496 130.073 380.219 130.714 379.664C131.355 379.092 131.676 378.312 131.676 377.324C131.676 376.319 131.355 375.539 130.714 374.984C130.073 374.429 129.102 374.152 127.802 374.152H122.498L124.37 372.15V382.472ZM146.063 389.128C144.468 389.128 143.064 388.816 141.851 388.192C140.655 387.568 139.728 386.719 139.069 385.644C138.41 384.552 138.081 383.313 138.081 381.926C138.081 380.522 138.402 379.283 139.043 378.208C139.702 377.116 140.594 376.267 141.721 375.66C142.848 375.036 144.122 374.724 145.543 374.724C146.912 374.724 148.143 375.019 149.235 375.608C150.344 376.18 151.22 377.012 151.861 378.104C152.502 379.179 152.823 380.47 152.823 381.978C152.823 382.134 152.814 382.316 152.797 382.524C152.78 382.715 152.762 382.897 152.745 383.07H141.383V380.704H150.613L149.053 381.406C149.053 380.678 148.906 380.045 148.611 379.508C148.316 378.971 147.909 378.555 147.389 378.26C146.869 377.948 146.262 377.792 145.569 377.792C144.876 377.792 144.26 377.948 143.723 378.26C143.203 378.555 142.796 378.979 142.501 379.534C142.206 380.071 142.059 380.713 142.059 381.458V382.082C142.059 382.845 142.224 383.521 142.553 384.11C142.9 384.682 143.376 385.124 143.983 385.436C144.607 385.731 145.335 385.878 146.167 385.878C146.912 385.878 147.562 385.765 148.117 385.54C148.689 385.315 149.209 384.977 149.677 384.526L151.835 386.866C151.194 387.594 150.388 388.157 149.417 388.556C148.446 388.937 147.328 389.128 146.063 389.128ZM163.853 388.92V386.19L163.593 385.592V380.704C163.593 379.837 163.324 379.161 162.787 378.676C162.267 378.191 161.461 377.948 160.369 377.948C159.623 377.948 158.887 378.069 158.159 378.312C157.448 378.537 156.841 378.849 156.339 379.248L154.883 376.414C155.645 375.877 156.564 375.461 157.639 375.166C158.713 374.871 159.805 374.724 160.915 374.724C163.047 374.724 164.702 375.227 165.881 376.232C167.059 377.237 167.649 378.806 167.649 380.938V388.92H163.853ZM159.589 389.128C158.497 389.128 157.561 388.946 156.781 388.582C156.001 388.201 155.403 387.689 154.987 387.048C154.571 386.407 154.363 385.687 154.363 384.89C154.363 384.058 154.562 383.33 154.961 382.706C155.377 382.082 156.027 381.597 156.911 381.25C157.795 380.886 158.947 380.704 160.369 380.704H164.087V383.07H160.811C159.857 383.07 159.199 383.226 158.835 383.538C158.488 383.85 158.315 384.24 158.315 384.708C158.315 385.228 158.514 385.644 158.913 385.956C159.329 386.251 159.892 386.398 160.603 386.398C161.279 386.398 161.885 386.242 162.423 385.93C162.96 385.601 163.35 385.124 163.593 384.5L164.217 386.372C163.922 387.273 163.385 387.958 162.605 388.426C161.825 388.894 160.819 389.128 159.589 389.128ZM171.449 388.92V369.628H175.505V388.92H171.449ZM186.135 389.128C184.489 389.128 183.206 388.712 182.287 387.88C181.369 387.031 180.909 385.774 180.909 384.11V371.838H184.965V384.058C184.965 384.647 185.121 385.107 185.433 385.436C185.745 385.748 186.17 385.904 186.707 385.904C187.349 385.904 187.895 385.731 188.345 385.384L189.437 388.244C189.021 388.539 188.519 388.764 187.929 388.92C187.357 389.059 186.759 389.128 186.135 389.128ZM178.751 378.364V375.244H188.449V378.364H178.751ZM198.069 389.128C196.578 389.128 195.252 388.816 194.091 388.192C192.947 387.568 192.037 386.719 191.361 385.644C190.702 384.552 190.373 383.313 190.373 381.926C190.373 380.522 190.702 379.283 191.361 378.208C192.037 377.116 192.947 376.267 194.091 375.66C195.252 375.036 196.578 374.724 198.069 374.724C199.542 374.724 200.859 375.036 202.021 375.66C203.182 376.267 204.092 377.107 204.751 378.182C205.409 379.257 205.739 380.505 205.739 381.926C205.739 383.313 205.409 384.552 204.751 385.644C204.092 386.719 203.182 387.568 202.021 388.192C200.859 388.816 199.542 389.128 198.069 389.128ZM198.069 385.8C198.745 385.8 199.351 385.644 199.889 385.332C200.426 385.02 200.851 384.578 201.163 384.006C201.475 383.417 201.631 382.723 201.631 381.926C201.631 381.111 201.475 380.418 201.163 379.846C200.851 379.274 200.426 378.832 199.889 378.52C199.351 378.208 198.745 378.052 198.069 378.052C197.393 378.052 196.786 378.208 196.249 378.52C195.711 378.832 195.278 379.274 194.949 379.846C194.637 380.418 194.481 381.111 194.481 381.926C194.481 382.723 194.637 383.417 194.949 384.006C195.278 384.578 195.711 385.02 196.249 385.332C196.786 385.644 197.393 385.8 198.069 385.8ZM208.58 388.92V374.932H212.454V378.884L211.908 377.74C212.324 376.752 212.991 376.007 213.91 375.504C214.828 374.984 215.946 374.724 217.264 374.724V378.468C217.09 378.451 216.934 378.442 216.796 378.442C216.657 378.425 216.51 378.416 216.354 378.416C215.244 378.416 214.343 378.737 213.65 379.378C212.974 380.002 212.636 380.981 212.636 382.316V388.92H208.58ZM236.474 389.232C235.036 389.232 233.71 389.007 232.496 388.556C231.3 388.088 230.252 387.429 229.35 386.58C228.466 385.731 227.773 384.734 227.27 383.59C226.785 382.446 226.542 381.189 226.542 379.82C226.542 378.451 226.785 377.194 227.27 376.05C227.773 374.906 228.475 373.909 229.376 373.06C230.278 372.211 231.335 371.561 232.548 371.11C233.762 370.642 235.096 370.408 236.552 370.408C238.164 370.408 239.612 370.677 240.894 371.214C242.194 371.751 243.286 372.531 244.17 373.554L241.466 376.05C240.808 375.357 240.088 374.845 239.308 374.516C238.528 374.169 237.679 373.996 236.76 373.996C235.876 373.996 235.07 374.135 234.342 374.412C233.614 374.689 232.982 375.088 232.444 375.608C231.924 376.128 231.517 376.743 231.222 377.454C230.945 378.165 230.806 378.953 230.806 379.82C230.806 380.669 230.945 381.449 231.222 382.16C231.517 382.871 231.924 383.495 232.444 384.032C232.982 384.552 233.606 384.951 234.316 385.228C235.044 385.505 235.842 385.644 236.708 385.644C237.54 385.644 238.346 385.514 239.126 385.254C239.924 384.977 240.695 384.517 241.44 383.876L243.832 386.918C242.844 387.663 241.692 388.235 240.374 388.634C239.074 389.033 237.774 389.232 236.474 389.232ZM239.984 386.372V379.534H243.832V386.918L239.984 386.372ZM247.589 388.92V374.932H251.463V378.884L250.917 377.74C251.333 376.752 252 376.007 252.919 375.504C253.838 374.984 254.956 374.724 256.273 374.724V378.468C256.1 378.451 255.944 378.442 255.805 378.442C255.666 378.425 255.519 378.416 255.363 378.416C254.254 378.416 253.352 378.737 252.659 379.378C251.983 380.002 251.645 380.981 251.645 382.316V388.92H247.589ZM265.344 389.128C263.853 389.128 262.527 388.816 261.366 388.192C260.222 387.568 259.312 386.719 258.636 385.644C257.977 384.552 257.648 383.313 257.648 381.926C257.648 380.522 257.977 379.283 258.636 378.208C259.312 377.116 260.222 376.267 261.366 375.66C262.527 375.036 263.853 374.724 265.344 374.724C266.817 374.724 268.134 375.036 269.296 375.66C270.457 376.267 271.367 377.107 272.026 378.182C272.684 379.257 273.014 380.505 273.014 381.926C273.014 383.313 272.684 384.552 272.026 385.644C271.367 386.719 270.457 387.568 269.296 388.192C268.134 388.816 266.817 389.128 265.344 389.128ZM265.344 385.8C266.02 385.8 266.626 385.644 267.164 385.332C267.701 385.02 268.126 384.578 268.438 384.006C268.75 383.417 268.906 382.723 268.906 381.926C268.906 381.111 268.75 380.418 268.438 379.846C268.126 379.274 267.701 378.832 267.164 378.52C266.626 378.208 266.02 378.052 265.344 378.052C264.668 378.052 264.061 378.208 263.524 378.52C262.986 378.832 262.553 379.274 262.224 379.846C261.912 380.418 261.756 381.111 261.756 381.926C261.756 382.723 261.912 383.417 262.224 384.006C262.553 384.578 262.986 385.02 263.524 385.332C264.061 385.644 264.668 385.8 265.344 385.8ZM281.757 389.128C280.595 389.128 279.555 388.903 278.637 388.452C277.735 388.001 277.033 387.317 276.531 386.398C276.028 385.462 275.777 384.275 275.777 382.836V374.932H279.833V382.238C279.833 383.399 280.075 384.257 280.561 384.812C281.063 385.349 281.765 385.618 282.667 385.618C283.291 385.618 283.845 385.488 284.331 385.228C284.816 384.951 285.197 384.535 285.475 383.98C285.752 383.408 285.891 382.697 285.891 381.848V374.932H289.947V388.92H286.099V385.072L286.801 386.19C286.333 387.161 285.639 387.897 284.721 388.4C283.819 388.885 282.831 389.128 281.757 389.128ZM302.102 389.128C300.924 389.128 299.892 388.868 299.008 388.348C298.124 387.828 297.431 387.039 296.928 385.982C296.443 384.907 296.2 383.555 296.2 381.926C296.2 380.279 296.434 378.927 296.902 377.87C297.37 376.813 298.046 376.024 298.93 375.504C299.814 374.984 300.872 374.724 302.102 374.724C303.42 374.724 304.598 375.027 305.638 375.634C306.696 376.223 307.528 377.055 308.134 378.13C308.758 379.205 309.07 380.47 309.07 381.926C309.07 383.399 308.758 384.673 308.134 385.748C307.528 386.823 306.696 387.655 305.638 388.244C304.598 388.833 303.42 389.128 302.102 389.128ZM293.834 393.964V374.932H297.708V377.792L297.63 381.952L297.89 386.086V393.964H293.834ZM301.4 385.8C302.076 385.8 302.674 385.644 303.194 385.332C303.732 385.02 304.156 384.578 304.468 384.006C304.798 383.417 304.962 382.723 304.962 381.926C304.962 381.111 304.798 380.418 304.468 379.846C304.156 379.274 303.732 378.832 303.194 378.52C302.674 378.208 302.076 378.052 301.4 378.052C300.724 378.052 300.118 378.208 299.58 378.52C299.043 378.832 298.618 379.274 298.306 379.846C297.994 380.418 297.838 381.111 297.838 381.926C297.838 382.723 297.994 383.417 298.306 384.006C298.618 384.578 299.043 385.02 299.58 385.332C300.118 385.644 300.724 385.8 301.4 385.8Z" fill="#1F1F1F"/>
<path d="M119.04 432.328V430.976L128.686 418.912H130.766L121.198 430.976L120.184 430.664H134.822V432.328H119.04ZM129.31 437.112V432.328L129.362 430.664V426.452H131.182V437.112H129.31ZM143.925 437.268C142.521 437.268 141.273 436.904 140.181 436.176C139.089 435.431 138.231 434.374 137.607 433.004C136.983 431.618 136.671 429.954 136.671 428.012C136.671 426.071 136.983 424.416 137.607 423.046C138.231 421.66 139.089 420.602 140.181 419.874C141.273 419.129 142.521 418.756 143.925 418.756C145.329 418.756 146.577 419.129 147.669 419.874C148.761 420.602 149.619 421.66 150.243 423.046C150.885 424.416 151.205 426.071 151.205 428.012C151.205 429.954 150.885 431.618 150.243 433.004C149.619 434.374 148.761 435.431 147.669 436.176C146.577 436.904 145.329 437.268 143.925 437.268ZM143.925 435.552C145 435.552 145.936 435.266 146.733 434.694C147.531 434.105 148.155 433.256 148.605 432.146C149.056 431.02 149.281 429.642 149.281 428.012C149.281 426.383 149.056 425.014 148.605 423.904C148.155 422.778 147.531 421.928 146.733 421.356C145.936 420.767 145 420.472 143.925 420.472C142.885 420.472 141.958 420.767 141.143 421.356C140.329 421.928 139.696 422.778 139.245 423.904C138.795 425.014 138.569 426.383 138.569 428.012C138.569 429.642 138.795 431.02 139.245 432.146C139.696 433.256 140.329 434.105 141.143 434.694C141.958 435.266 142.885 435.552 143.925 435.552ZM159.523 433.524V422.5H161.161V433.524H159.523ZM154.687 428.792V427.258H165.997V428.792H154.687ZM177.565 442.286C176.924 442.286 176.309 442.182 175.719 441.974C175.147 441.766 174.653 441.454 174.237 441.038L175.095 439.66C175.442 439.99 175.815 440.241 176.213 440.414C176.629 440.605 177.089 440.7 177.591 440.7C178.198 440.7 178.718 440.527 179.151 440.18C179.602 439.851 180.027 439.262 180.425 438.412L181.309 436.41L181.517 436.124L187.133 423.462H188.953L182.115 438.75C181.734 439.634 181.309 440.336 180.841 440.856C180.391 441.376 179.897 441.74 179.359 441.948C178.822 442.174 178.224 442.286 177.565 442.286ZM181.205 437.502L174.913 423.462H176.837L182.401 435.994L181.205 437.502ZM197.1 437.242C195.679 437.242 194.431 436.948 193.356 436.358C192.281 435.752 191.441 434.928 190.834 433.888C190.227 432.831 189.924 431.626 189.924 430.274C189.924 428.922 190.21 427.726 190.782 426.686C191.371 425.646 192.169 424.832 193.174 424.242C194.197 423.636 195.341 423.332 196.606 423.332C197.889 423.332 199.024 423.627 200.012 424.216C201.017 424.788 201.806 425.603 202.378 426.66C202.95 427.7 203.236 428.905 203.236 430.274C203.236 430.361 203.227 430.456 203.21 430.56C203.21 430.647 203.21 430.742 203.21 430.846H191.328V429.468H202.222L201.494 430.014C201.494 429.026 201.277 428.151 200.844 427.388C200.428 426.608 199.856 426.002 199.128 425.568C198.4 425.135 197.559 424.918 196.606 424.918C195.67 424.918 194.829 425.135 194.084 425.568C193.339 426.002 192.758 426.608 192.342 427.388C191.926 428.168 191.718 429.061 191.718 430.066V430.352C191.718 431.392 191.943 432.311 192.394 433.108C192.862 433.888 193.503 434.504 194.318 434.954C195.15 435.388 196.095 435.604 197.152 435.604C197.984 435.604 198.755 435.457 199.466 435.162C200.194 434.868 200.818 434.417 201.338 433.81L202.378 435.006C201.771 435.734 201.009 436.289 200.09 436.67C199.189 437.052 198.192 437.242 197.1 437.242ZM215.297 437.112V434.096L215.219 433.602V428.558C215.219 427.397 214.889 426.504 214.231 425.88C213.589 425.256 212.627 424.944 211.345 424.944C210.461 424.944 209.62 425.092 208.823 425.386C208.025 425.681 207.349 426.071 206.795 426.556L205.963 425.178C206.656 424.589 207.488 424.138 208.459 423.826C209.429 423.497 210.452 423.332 211.527 423.332C213.295 423.332 214.655 423.774 215.609 424.658C216.579 425.525 217.065 426.851 217.065 428.636V437.112H215.297ZM210.591 437.242C209.568 437.242 208.675 437.078 207.913 436.748C207.167 436.402 206.595 435.934 206.197 435.344C205.798 434.738 205.599 434.044 205.599 433.264C205.599 432.554 205.763 431.912 206.093 431.34C206.439 430.751 206.994 430.283 207.757 429.936C208.537 429.572 209.577 429.39 210.877 429.39H215.583V430.768H210.929C209.611 430.768 208.693 431.002 208.173 431.47C207.67 431.938 207.419 432.519 207.419 433.212C207.419 433.992 207.722 434.616 208.329 435.084C208.935 435.552 209.785 435.786 210.877 435.786C211.917 435.786 212.809 435.552 213.555 435.084C214.317 434.599 214.872 433.906 215.219 433.004L215.635 434.278C215.288 435.18 214.681 435.899 213.815 436.436C212.965 436.974 211.891 437.242 210.591 437.242ZM222.209 437.112V423.462H223.977V427.18L223.795 426.53C224.176 425.49 224.817 424.702 225.719 424.164C226.62 423.61 227.738 423.332 229.073 423.332V425.126C229.003 425.126 228.934 425.126 228.865 425.126C228.795 425.109 228.726 425.1 228.657 425.1C227.218 425.1 226.091 425.542 225.277 426.426C224.462 427.293 224.055 428.532 224.055 430.144V437.112H222.209ZM236.389 437.242C235.263 437.242 234.197 437.086 233.191 436.774C232.186 436.445 231.397 436.038 230.825 435.552L231.657 434.096C232.212 434.512 232.923 434.876 233.789 435.188C234.656 435.483 235.566 435.63 236.519 435.63C237.819 435.63 238.755 435.431 239.327 435.032C239.899 434.616 240.185 434.07 240.185 433.394C240.185 432.892 240.021 432.502 239.691 432.224C239.379 431.93 238.963 431.713 238.443 431.574C237.923 431.418 237.343 431.288 236.701 431.184C236.06 431.08 235.419 430.959 234.777 430.82C234.153 430.682 233.581 430.482 233.061 430.222C232.541 429.945 232.117 429.572 231.787 429.104C231.475 428.636 231.319 428.012 231.319 427.232C231.319 426.487 231.527 425.82 231.943 425.23C232.359 424.641 232.966 424.182 233.763 423.852C234.578 423.506 235.566 423.332 236.727 423.332C237.611 423.332 238.495 423.454 239.379 423.696C240.263 423.922 240.991 424.225 241.563 424.606L240.757 426.088C240.151 425.672 239.501 425.378 238.807 425.204C238.114 425.014 237.421 424.918 236.727 424.918C235.497 424.918 234.587 425.135 233.997 425.568C233.425 425.984 233.139 426.522 233.139 427.18C233.139 427.7 233.295 428.108 233.607 428.402C233.937 428.697 234.361 428.931 234.881 429.104C235.419 429.26 235.999 429.39 236.623 429.494C237.265 429.598 237.897 429.728 238.521 429.884C239.163 430.023 239.743 430.222 240.263 430.482C240.801 430.725 241.225 431.08 241.537 431.548C241.867 431.999 242.031 432.597 242.031 433.342C242.031 434.14 241.806 434.833 241.355 435.422C240.922 435.994 240.281 436.445 239.431 436.774C238.599 437.086 237.585 437.242 236.389 437.242ZM258.047 437.242C256.73 437.242 255.543 436.948 254.485 436.358C253.445 435.752 252.622 434.928 252.015 433.888C251.409 432.831 251.105 431.626 251.105 430.274C251.105 428.905 251.409 427.7 252.015 426.66C252.622 425.62 253.445 424.806 254.485 424.216C255.525 423.627 256.713 423.332 258.047 423.332C259.399 423.332 260.595 423.627 261.635 424.216C262.693 424.806 263.516 425.62 264.105 426.66C264.712 427.7 265.015 428.905 265.015 430.274C265.015 431.626 264.712 432.831 264.105 433.888C263.516 434.928 262.693 435.752 261.635 436.358C260.578 436.948 259.382 437.242 258.047 437.242ZM258.047 435.604C259.035 435.604 259.911 435.388 260.673 434.954C261.436 434.504 262.034 433.88 262.467 433.082C262.918 432.268 263.143 431.332 263.143 430.274C263.143 429.2 262.918 428.264 262.467 427.466C262.034 426.669 261.436 426.054 260.673 425.62C259.911 425.17 259.044 424.944 258.073 424.944C257.103 424.944 256.236 425.17 255.473 425.62C254.711 426.054 254.104 426.669 253.653 427.466C253.203 428.264 252.977 429.2 252.977 430.274C252.977 431.332 253.203 432.268 253.653 433.082C254.104 433.88 254.711 434.504 255.473 434.954C256.236 435.388 257.094 435.604 258.047 435.604ZM269.226 437.112V421.746C269.226 420.533 269.581 419.554 270.292 418.808C271.003 418.063 272.025 417.69 273.36 417.69C273.88 417.69 274.383 417.76 274.868 417.898C275.353 418.037 275.761 418.254 276.09 418.548L275.466 419.926C275.206 419.701 274.903 419.536 274.556 419.432C274.209 419.311 273.837 419.25 273.438 419.25C272.658 419.25 272.06 419.467 271.644 419.9C271.228 420.334 271.02 420.975 271.02 421.824V423.904L271.072 424.762V437.112H269.226ZM266.782 424.996V423.462H275.232V424.996H266.782ZM290.587 437.242C289.166 437.242 287.918 436.948 286.843 436.358C285.769 435.752 284.928 434.928 284.321 433.888C283.715 432.831 283.411 431.626 283.411 430.274C283.411 428.922 283.697 427.726 284.269 426.686C284.859 425.646 285.656 424.832 286.661 424.242C287.684 423.636 288.828 423.332 290.093 423.332C291.376 423.332 292.511 423.627 293.499 424.216C294.505 424.788 295.293 425.603 295.865 426.66C296.437 427.7 296.723 428.905 296.723 430.274C296.723 430.361 296.715 430.456 296.697 430.56C296.697 430.647 296.697 430.742 296.697 430.846H284.815V429.468H295.709L294.981 430.014C294.981 429.026 294.765 428.151 294.331 427.388C293.915 426.608 293.343 426.002 292.615 425.568C291.887 425.135 291.047 424.918 290.093 424.918C289.157 424.918 288.317 425.135 287.571 425.568C286.826 426.002 286.245 426.608 285.829 427.388C285.413 428.168 285.205 429.061 285.205 430.066V430.352C285.205 431.392 285.431 432.311 285.881 433.108C286.349 433.888 286.991 434.504 287.805 434.954C288.637 435.388 289.582 435.604 290.639 435.604C291.471 435.604 292.243 435.457 292.953 435.162C293.681 434.868 294.305 434.417 294.825 433.81L295.865 435.006C295.259 435.734 294.496 436.289 293.577 436.67C292.676 437.052 291.679 437.242 290.587 437.242ZM298.15 437.112L303.922 429.624L303.896 430.534L298.41 423.462H300.49L304.988 429.312L304.208 429.286L308.706 423.462H310.734L305.196 430.612L305.222 429.624L311.046 437.112H308.94L304.182 430.872L304.91 430.976L300.23 437.112H298.15ZM321.295 437.242C320.116 437.242 319.05 436.974 318.097 436.436C317.143 435.882 316.381 435.093 315.809 434.07C315.254 433.03 314.977 431.765 314.977 430.274C314.977 428.784 315.254 427.527 315.809 426.504C316.363 425.464 317.117 424.676 318.071 424.138C319.024 423.601 320.099 423.332 321.295 423.332C322.595 423.332 323.756 423.627 324.779 424.216C325.819 424.788 326.633 425.603 327.223 426.66C327.812 427.7 328.107 428.905 328.107 430.274C328.107 431.661 327.812 432.874 327.223 433.914C326.633 434.954 325.819 435.769 324.779 436.358C323.756 436.948 322.595 437.242 321.295 437.242ZM314.249 442.156V423.462H316.017V427.57L315.835 430.3L316.095 433.056V442.156H314.249ZM321.165 435.604C322.135 435.604 323.002 435.388 323.765 434.954C324.527 434.504 325.134 433.88 325.585 433.082C326.035 432.268 326.261 431.332 326.261 430.274C326.261 429.217 326.035 428.29 325.585 427.492C325.134 426.695 324.527 426.071 323.765 425.62C323.002 425.17 322.135 424.944 321.165 424.944C320.194 424.944 319.319 425.17 318.539 425.62C317.776 426.071 317.169 426.695 316.719 427.492C316.285 428.29 316.069 429.217 316.069 430.274C316.069 431.332 316.285 432.268 316.719 433.082C317.169 433.88 317.776 434.504 318.539 434.954C319.319 435.388 320.194 435.604 321.165 435.604ZM337.798 437.242C336.376 437.242 335.128 436.948 334.054 436.358C332.979 435.752 332.138 434.928 331.532 433.888C330.925 432.831 330.622 431.626 330.622 430.274C330.622 428.922 330.908 427.726 331.48 426.686C332.069 425.646 332.866 424.832 333.872 424.242C334.894 423.636 336.038 423.332 337.304 423.332C338.586 423.332 339.722 423.627 340.71 424.216C341.715 424.788 342.504 425.603 343.076 426.66C343.648 427.7 343.934 428.905 343.934 430.274C343.934 430.361 343.925 430.456 343.908 430.56C343.908 430.647 343.908 430.742 343.908 430.846H332.026V429.468H342.92L342.192 430.014C342.192 429.026 341.975 428.151 341.542 427.388C341.126 426.608 340.554 426.002 339.826 425.568C339.098 425.135 338.257 424.918 337.304 424.918C336.368 424.918 335.527 425.135 334.782 425.568C334.036 426.002 333.456 426.608 333.04 427.388C332.624 428.168 332.416 429.061 332.416 430.066V430.352C332.416 431.392 332.641 432.311 333.092 433.108C333.56 433.888 334.201 434.504 335.016 434.954C335.848 435.388 336.792 435.604 337.85 435.604C338.682 435.604 339.453 435.457 340.164 435.162C340.892 434.868 341.516 434.417 342.036 433.81L343.076 435.006C342.469 435.734 341.706 436.289 340.788 436.67C339.886 437.052 338.89 437.242 337.798 437.242ZM347.821 437.112V423.462H349.589V427.18L349.407 426.53C349.788 425.49 350.43 424.702 351.331 424.164C352.232 423.61 353.35 423.332 354.685 423.332V425.126C354.616 425.126 354.546 425.126 354.477 425.126C354.408 425.109 354.338 425.1 354.269 425.1C352.83 425.1 351.704 425.542 350.889 426.426C350.074 427.293 349.667 428.532 349.667 430.144V437.112H347.821ZM358.184 437.112V423.462H360.03V437.112H358.184ZM359.12 420.446C358.738 420.446 358.418 420.316 358.158 420.056C357.898 419.796 357.768 419.484 357.768 419.12C357.768 418.756 357.898 418.453 358.158 418.21C358.418 417.95 358.738 417.82 359.12 417.82C359.501 417.82 359.822 417.942 360.082 418.184C360.342 418.427 360.472 418.73 360.472 419.094C360.472 419.476 360.342 419.796 360.082 420.056C359.839 420.316 359.518 420.446 359.12 420.446ZM371.094 437.242C369.673 437.242 368.425 436.948 367.35 436.358C366.275 435.752 365.435 434.928 364.828 433.888C364.221 432.831 363.918 431.626 363.918 430.274C363.918 428.922 364.204 427.726 364.776 426.686C365.365 425.646 366.163 424.832 367.168 424.242C368.191 423.636 369.335 423.332 370.6 423.332C371.883 423.332 373.018 423.627 374.006 424.216C375.011 424.788 375.8 425.603 376.372 426.66C376.944 427.7 377.23 428.905 377.23 430.274C377.23 430.361 377.221 430.456 377.204 430.56C377.204 430.647 377.204 430.742 377.204 430.846H365.322V429.468H376.216L375.488 430.014C375.488 429.026 375.271 428.151 374.838 427.388C374.422 426.608 373.85 426.002 373.122 425.568C372.394 425.135 371.553 424.918 370.6 424.918C369.664 424.918 368.823 425.135 368.078 425.568C367.333 426.002 366.752 426.608 366.336 427.388C365.92 428.168 365.712 429.061 365.712 430.066V430.352C365.712 431.392 365.937 432.311 366.388 433.108C366.856 433.888 367.497 434.504 368.312 434.954C369.144 435.388 370.089 435.604 371.146 435.604C371.978 435.604 372.749 435.457 373.46 435.162C374.188 434.868 374.812 434.417 375.332 433.81L376.372 435.006C375.765 435.734 375.003 436.289 374.084 436.67C373.183 437.052 372.186 437.242 371.094 437.242ZM388.085 423.332C389.195 423.332 390.165 423.549 390.997 423.982C391.847 424.398 392.505 425.04 392.973 425.906C393.459 426.773 393.701 427.865 393.701 429.182V437.112H391.855V429.364C391.855 427.926 391.491 426.842 390.763 426.114C390.053 425.369 389.047 424.996 387.747 424.996C386.777 424.996 385.927 425.196 385.199 425.594C384.489 425.976 383.934 426.539 383.535 427.284C383.154 428.012 382.963 428.896 382.963 429.936V437.112H381.117V423.462H382.885V427.206L382.599 426.504C383.033 425.516 383.726 424.745 384.679 424.19C385.633 423.618 386.768 423.332 388.085 423.332ZM404.486 437.242C403.134 437.242 401.92 436.948 400.846 436.358C399.788 435.752 398.956 434.928 398.35 433.888C397.743 432.831 397.44 431.626 397.44 430.274C397.44 428.905 397.743 427.7 398.35 426.66C398.956 425.62 399.788 424.806 400.846 424.216C401.92 423.627 403.134 423.332 404.486 423.332C405.647 423.332 406.696 423.558 407.632 424.008C408.568 424.459 409.304 425.135 409.842 426.036L408.464 426.972C407.996 426.279 407.415 425.768 406.722 425.438C406.028 425.109 405.274 424.944 404.46 424.944C403.489 424.944 402.614 425.17 401.834 425.62C401.054 426.054 400.438 426.669 399.988 427.466C399.537 428.264 399.312 429.2 399.312 430.274C399.312 431.349 399.537 432.285 399.988 433.082C400.438 433.88 401.054 434.504 401.834 434.954C402.614 435.388 403.489 435.604 404.46 435.604C405.274 435.604 406.028 435.44 406.722 435.11C407.415 434.781 407.996 434.278 408.464 433.602L409.842 434.538C409.304 435.422 408.568 436.098 407.632 436.566C406.696 437.017 405.647 437.242 404.486 437.242ZM419.168 437.242C417.746 437.242 416.498 436.948 415.424 436.358C414.349 435.752 413.508 434.928 412.902 433.888C412.295 432.831 411.992 431.626 411.992 430.274C411.992 428.922 412.278 427.726 412.85 426.686C413.439 425.646 414.236 424.832 415.242 424.242C416.264 423.636 417.408 423.332 418.674 423.332C419.956 423.332 421.092 423.627 422.08 424.216C423.085 424.788 423.874 425.603 424.446 426.66C425.018 427.7 425.304 428.905 425.304 430.274C425.304 430.361 425.295 430.456 425.278 430.56C425.278 430.647 425.278 430.742 425.278 430.846H413.396V429.468H424.29L423.562 430.014C423.562 429.026 423.345 428.151 422.912 427.388C422.496 426.608 421.924 426.002 421.196 425.568C420.468 425.135 419.627 424.918 418.674 424.918C417.738 424.918 416.897 425.135 416.152 425.568C415.406 426.002 414.826 426.608 414.41 427.388C413.994 428.168 413.786 429.061 413.786 430.066V430.352C413.786 431.392 414.011 432.311 414.462 433.108C414.93 433.888 415.571 434.504 416.386 434.954C417.218 435.388 418.162 435.604 419.22 435.604C420.052 435.604 420.823 435.457 421.534 435.162C422.262 434.868 422.886 434.417 423.406 433.81L424.446 435.006C423.839 435.734 423.076 436.289 422.158 436.67C421.256 437.052 420.26 437.242 419.168 437.242Z" fill="#1F1F1F"/>
<g filter="url(#filter2_ii_58_3323)">
<rect x="364" y="533" width="85" height="85" rx="42.5" fill="#F9F9F9"/>
</g>
<path d="M404.939 591.061C405.525 591.646 406.475 591.646 407.061 591.061L416.607 581.515C417.192 580.929 417.192 579.979 416.607 579.393C416.021 578.808 415.071 578.808 414.485 579.393L406 587.879L397.515 579.393C396.929 578.808 395.979 578.808 395.393 579.393C394.808 579.979 394.808 580.929 395.393 581.515L404.939 591.061ZM404.5 589L404.5 590L407.5 590L407.5 589L404.5 589Z" fill="#12B7B6"/>
<path d="M404.939 578.061C405.525 578.646 406.475 578.646 407.061 578.061L416.607 568.515C417.192 567.929 417.192 566.979 416.607 566.393C416.021 565.808 415.071 565.808 414.485 566.393L406 574.879L397.515 566.393C396.929 565.808 395.979 565.808 395.393 566.393C394.808 566.979 394.808 567.929 395.393 568.515L404.939 578.061ZM404.5 576L404.5 577L407.5 577L407.5 576L404.5 576Z" fill="#12B7B6"/>
<g clip-path="url(#clip0_58_3323)">
<path d="M278.226 238.842C276.97 240.529 275.163 241.457 273.146 241.457C269.941 241.457 269.108 239.971 269.108 237.371L269.25 213.257H277.055V211.712H269.25V201.057H268.347C266.837 207.642 262.913 211.486 258.326 212.2V213.257L262.983 213.242C262.983 213.242 262.843 235.742 262.843 236.442C262.843 239.129 263.337 240.814 264.79 242.086C266.187 243.286 267.852 243.842 270.648 243.842C274.542 243.842 277.267 241.8 278.72 239.329L278.226 238.842Z" fill="black"/>
<path fill-rule="evenodd" clip-rule="evenodd" d="M309.288 227.358C309.288 217.2 302.176 211 294.032 211C285.96 211 278.776 217.2 278.776 227.429C278.776 237.658 285.889 243.857 294.032 243.857C302.189 243.857 309.288 237.586 309.288 227.358ZM294.032 242.729C292.296 242.729 290.349 242.171 288.881 240.614C286.651 238.214 285.536 233.771 285.536 227.429C285.536 220.943 286.651 216.5 288.951 214.242C290.335 212.757 292.296 212.129 294.032 212.129C295.697 212.129 297.646 212.686 299.113 214.242C301.413 216.571 302.528 221.014 302.528 227.429C302.528 233.771 301.343 238.286 299.113 240.614C297.659 242.171 295.769 242.729 294.032 242.729Z" fill="black"/>
<path d="M328.99 211C326.619 211 325.095 211.914 323.839 212.971C322.441 214.314 321.129 216.086 320.07 219.4H319.858C319.858 219.139 319.9 217.164 319.937 215.338V215.331C319.97 213.764 320 212.308 320 212.144C320 211.929 319.858 211.714 319.506 211.714H309.754V212.342H309.76C310.591 212.415 311.435 212.487 312.195 213.042C312.534 213.258 312.822 213.546 313.039 213.887C313.256 214.227 313.396 214.612 313.451 215.014C313.663 215.929 313.663 218.542 313.663 219.671V234.7C313.663 236.529 313.593 238.429 313.381 239.7C312.972 241.114 312.477 241.6 311.504 242.1C310.883 242.386 310.178 242.529 309.627 242.6V243.229H324.051V242.6C323.43 242.529 322.936 242.458 322.314 242.171C321.75 241.958 321.341 241.458 320.917 240.686C320.296 239.343 319.943 237.871 319.943 234.342V230.287C319.943 228.259 319.986 226.272 320.24 224.259C320.889 218.987 323.5 214.772 325.377 214.772C326.21 214.772 326.689 215.615 327.184 216.815C327.748 218.159 328.439 218.615 330.458 218.615C332.405 218.615 333.521 216.988 333.521 215.159C333.521 213.815 333.097 212.901 332.476 212.201C331.699 211.43 330.458 211 328.99 211ZM350.117 213.829C348.169 215.8 346.773 220.243 346.773 226.8C346.773 233.642 348.169 237.371 350.117 239.558C351.373 240.971 353.32 241.886 355.551 241.886C361.958 241.886 364.611 237.014 365.712 233.358L366.756 233.714C365.218 239.429 361.322 243.871 354.704 243.871C350.597 243.871 347.604 242.529 345.305 240.557C342.313 238.014 340.012 233.929 340.012 227.443C340.012 218.271 346.419 211.014 354.704 211.014C360.137 211.014 362.649 212.5 364.244 214.114C365.43 215.171 366.121 216.586 366.121 217.986C366.121 219.886 364.936 220.871 363.129 220.871C361.111 220.871 359.996 219.529 359.644 217.129C358.811 213.329 357.767 212.129 354.633 212.129C352.974 212.121 351.369 212.725 350.117 213.829Z" fill="black"/>
<path fill-rule="evenodd" clip-rule="evenodd" d="M400.712 227.358C400.712 217.2 393.599 211 385.456 211C377.383 211 370.199 217.2 370.199 227.429C370.199 237.658 377.312 243.857 385.456 243.857C393.613 243.857 400.712 237.586 400.712 227.358ZM385.456 242.729C383.72 242.729 381.773 242.171 380.305 240.614C378.074 238.214 376.96 233.771 376.96 227.429C376.96 220.943 378.074 216.5 380.375 214.242C381.758 212.757 383.72 212.129 385.456 212.129C387.121 212.129 389.068 212.686 390.536 214.242C392.837 216.571 393.951 221.014 393.951 227.429C393.951 233.771 392.767 238.286 390.536 240.614C389.083 242.171 387.191 242.729 385.456 242.729Z" fill="black"/>
<path d="M336.597 240.286C336.596 240.758 336.504 241.224 336.326 241.659C336.148 242.095 335.887 242.49 335.558 242.823C335.229 243.156 334.838 243.42 334.409 243.599C333.98 243.779 333.519 243.872 333.055 243.871C332.116 243.872 331.216 243.495 330.551 242.823C329.887 242.151 329.513 241.238 329.512 240.286C329.512 239.815 329.604 239.348 329.782 238.913C329.961 238.477 330.222 238.082 330.551 237.749C330.88 237.416 331.27 237.152 331.7 236.972C332.13 236.792 332.59 236.699 333.055 236.7C333.519 236.699 333.98 236.792 334.409 236.972C334.839 237.152 335.229 237.416 335.558 237.749C335.887 238.082 336.148 238.477 336.326 238.913C336.504 239.348 336.596 239.815 336.597 240.286ZM401.432 243.214V242.657C401.981 242.586 402.758 242.3 403.238 242.1C404.494 241.6 405.115 241.042 405.398 239.486C405.609 238.286 405.609 236.457 405.609 234.414V219.671C405.609 217.842 405.609 215.929 405.398 214.942C405.186 213.957 404.847 213.314 404.212 212.971C403.591 212.542 402.674 212.414 401.841 212.342V211.714H411.593C411.945 211.714 412.017 211.857 412.017 212.142C412.017 212.322 411.98 213.774 411.945 215.212L411.944 215.225C411.909 216.636 411.875 218.03 411.875 218.2H412.157C413.131 215.729 414.316 214.186 415.911 213.057C417.449 211.786 419.538 211.014 422.53 211.014C425.311 211.014 427.343 211.786 428.655 213.271C429.771 214.471 430.462 215.957 430.602 218.342H430.814C432 215.529 433.326 214.042 434.85 212.986C436.587 211.714 438.549 211.014 441.258 211.014C444.25 211.014 446 211.786 447.383 213.2C448.921 214.614 449.613 216.8 449.613 220.314V234.842C449.613 236.742 449.684 238.514 449.966 239.642C450.318 240.986 450.727 241.614 451.773 242.114C451.902 242.159 452.034 242.207 452.166 242.256C452.662 242.439 453.174 242.626 453.72 242.671V243.229H439.437V242.6L439.526 242.581C440.453 242.376 441.12 242.231 441.667 241.829C442.359 241.329 442.782 240.629 442.994 239.714C443.276 238.514 443.276 236.614 443.276 234.429V220.929C443.276 218.742 442.924 217.129 442.161 215.929C441.399 214.729 440.144 214.1 438.464 214.1C435.401 214.1 433.03 216.142 431.704 219.886C431.012 221.786 430.801 224.114 430.801 227.571V234.729C430.801 235.09 430.798 235.442 430.796 235.785V235.79C430.786 237.449 430.779 238.852 431.012 239.727C431.365 240.715 431.774 241.486 432.551 241.986C433.203 242.336 433.909 242.573 434.639 242.686V243.242H420.568V242.614C421.542 242.471 422.233 242.257 422.799 241.914C423.561 241.486 423.984 240.857 424.125 239.942C424.477 238.671 424.549 236.629 424.549 234.442V220.871C424.549 218.9 424.195 217.342 423.716 216.286C422.883 214.8 421.557 214.1 419.609 214.1C416.335 214.1 414.176 216.357 412.919 219.957C412.157 222.142 411.945 224.329 411.945 227.571V234.442C411.945 236.629 411.945 238.386 412.299 239.729C412.51 240.642 412.849 241.286 413.413 241.7C413.964 242.2 414.811 242.471 415.926 242.614V243.214H401.432Z" fill="black"/>
<path fill-rule="evenodd" clip-rule="evenodd" d="M458.038 218.671C457.928 218.502 457.869 218.303 457.869 218.1L457.827 217.558C457.799 217.214 457.672 216.971 457.39 216.858C457.812 216.671 457.926 216.314 457.926 215.971C457.926 215.3 457.417 214.929 456.627 214.929H455.047V218.686H455.695V217.171H456.697C457.064 217.171 457.178 217.3 457.206 217.714L457.235 218.1C457.248 218.343 457.276 218.543 457.375 218.671H458.038ZM456.613 215.514C457.036 215.514 457.262 215.686 457.262 216.043C457.262 216.386 457.051 216.571 456.669 216.571H455.682V215.514H456.613Z" fill="black"/>
<path fill-rule="evenodd" clip-rule="evenodd" d="M456.43 220.343C458.434 220.343 460 218.8 460 216.843C460 214.886 458.434 213.343 456.43 213.343C454.411 213.343 452.845 214.886 452.845 216.843C452.845 218.786 454.411 220.343 456.43 220.343ZM456.43 214.014C458.038 214.014 459.267 215.258 459.267 216.843C459.267 218.429 458.038 219.658 456.43 219.658C454.807 219.658 453.579 218.429 453.579 216.843C453.579 215.258 454.807 214.014 456.43 214.014Z" fill="black"/>
<path d="M254.22 235.6C254.22 237.229 254.22 238.486 254.361 239.542C254.714 241.029 255.476 241.658 256.238 242.014C256.858 242.3 257.564 242.514 258.186 242.571V243.2H243.847V242.571C244.468 242.5 245.244 242.286 245.724 242.014C246.627 241.586 247.318 241.029 247.601 239.829C247.883 238.629 247.883 237.286 247.883 235.6V202.9C247.883 201.843 247.883 199.229 247.742 198.314C247.46 197.329 247.121 196.686 246.557 196.271C245.865 195.842 245.229 195.714 244.115 195.642V195H253.796C254.149 195 254.29 195.142 254.29 195.5C254.29 196.109 254.278 196.769 254.263 197.52C254.243 198.511 254.22 199.665 254.22 201.071V235.6ZM175.682 212.971C176.938 211.914 178.462 211 180.833 211C182.3 211 183.542 211.429 184.318 212.2C184.939 212.9 185.363 213.814 185.363 215.157C185.363 216.986 184.248 218.614 182.301 218.614C180.282 218.614 179.59 218.158 179.026 216.814C178.532 215.614 178.053 214.771 177.22 214.771C175.343 214.771 172.731 218.986 172.083 224.257C171.829 226.271 171.787 228.257 171.787 230.286V234.343C171.787 237.871 172.139 239.342 172.761 240.686C173.184 241.458 173.593 241.958 174.157 242.171C174.778 242.458 175.273 242.529 175.894 242.6V243.229H161.47V242.6C162.021 242.529 162.727 242.386 163.347 242.1C164.32 241.6 164.814 241.114 165.224 239.7C165.436 238.429 165.507 236.529 165.507 234.7V219.671C165.507 218.542 165.507 215.929 165.294 215.014C165.239 214.612 165.098 214.228 164.881 213.887C164.664 213.546 164.377 213.258 164.038 213.042C163.278 212.487 162.433 212.415 161.603 212.342H161.597V211.714H171.349C171.701 211.714 171.843 211.929 171.843 212.142C171.843 212.307 171.813 213.764 171.781 215.33C171.743 217.159 171.701 219.139 171.701 219.4H171.913C172.973 216.086 174.284 214.314 175.682 212.971Z" fill="#D92228"/>
<path fill-rule="evenodd" clip-rule="evenodd" d="M241.392 242.6H241.447V243.229C240.403 243.529 239.104 243.858 237.651 243.858C236.184 243.858 235.068 243.514 234.447 243.086C233.46 242.386 232.981 241.4 232.909 239.214H232.627C231.512 241.543 229.014 243.871 224.483 243.871C219.601 243.871 215.847 241.114 215.847 236.043C215.847 234.143 216.398 232.243 217.865 230.829C219.625 229.16 221.64 228.541 224.056 227.8C224.7 227.601 225.374 227.395 226.078 227.158C230.61 225.814 232.697 223.914 232.839 221.729V216.929C232.839 213.258 231.512 212.058 228.591 212.058C227.334 212.058 226.22 212.414 225.387 212.971C224.273 213.743 223.92 215.086 223.849 217.058C223.778 219.529 222.523 220.443 220.504 220.443C218.909 220.443 217.583 219.458 217.583 217.629C217.583 216.214 218.148 215.158 219.05 214.243C220.787 212.271 225.175 211 228.449 211C234.646 211 239.034 213.186 239.034 217.986V236.758C239.034 239.858 239.176 241.2 239.796 241.9C240.135 242.386 240.699 242.6 241.392 242.6ZM227.053 241.6C229.493 241.6 232.697 239.486 232.769 235.886V224.686C231.672 226.149 229.631 227.125 228.033 227.891L227.956 227.929C225.797 228.843 224.328 229.614 223.495 230.671C222.593 231.729 222.24 233.286 222.24 235.4C222.24 239.771 223.99 241.6 227.053 241.6ZM213.377 233.714L212.206 233.343C210.851 237.814 207.986 241.8 202.186 241.8C199.602 241.8 197.318 240.958 195.708 239.114C193.831 237 192.646 232.7 192.646 227.343C192.646 226.786 192.646 226.386 192.716 225.829H213.123C213.264 224.914 213.264 223.471 213.264 222.686C213.264 217.329 209.566 210.986 200.661 210.986C192.447 210.986 185.829 217.9 185.829 227.558C185.829 232.358 187.155 236.586 190.218 239.686C192.871 242.429 196.413 243.843 200.873 243.843C207.449 243.843 211.599 239.814 213.392 233.7H213.377V233.714ZM196.202 214.029C197.387 212.829 198.981 212.2 200.731 212.2C202.679 212.2 203.865 212.758 204.979 213.758C206.307 215.1 206.998 217.358 206.998 221.014C206.998 223.758 206.574 224.329 204.486 224.329H192.786C193.21 219.671 194.466 215.586 196.202 214.029ZM152.805 223.229L131.423 200.986L110 223.229H116.534V243.186H146.284V223.229H152.804H152.805ZM139.581 217.4C139.015 216.829 138.113 216.514 137.026 216.514C135.235 216.514 134.106 217.271 133.329 217.929L133.314 217.943C132.538 218.7 131.649 219.729 130.915 221.729C130.927 221.289 130.937 220.716 130.948 220.141L130.958 219.686C130.986 218.571 131 217.614 131 217.5C131 217.258 130.831 217 130.464 217H123.506V217.6L123.691 217.614C124.254 217.658 124.79 217.714 125.284 218.071C125.722 218.371 125.99 218.786 126.074 219.314C126.216 219.929 126.216 221.729 126.216 222.5V232.714C126.216 233.758 126.188 235.186 126.032 236.143C125.75 237.071 125.453 237.358 124.847 237.671C124.452 237.845 124.033 237.956 123.604 238L123.407 238.014V238.614H133.794V238.014L133.611 238C133.212 237.973 132.82 237.876 132.453 237.714C132.144 237.6 131.875 237.314 131.593 236.786C131.184 235.9 130.93 234.9 130.93 232.471V228.214C130.93 226.929 130.986 225.686 131.028 225.143C131.494 221.743 133.314 219.014 134.5 219.014C134.951 219.014 135.248 219.514 135.572 220.314C135.954 221.229 136.49 222.2 138.028 222.2C139.553 222.2 140.358 220.9 140.358 219.6C140.37 218.714 140.117 218 139.581 217.4Z" fill="#D92228"/>
</g>
<defs>
<filter id="filter0_dd_58_3323" x="0" y="0" width="570" height="732" filterUnits="userSpaceOnUse" color-interpolation-filters="sRGB">
<feFlood flood-opacity="0" result="BackgroundImageFix"/>
<feColorMatrix in="SourceAlpha" type="matrix" values="0 0 0 0 0 0 0 0 0 0 0 0 0 0 0 0 0 0 127 0" result="hardAlpha"/>
<feOffset dx="20" dy="20"/>
<feGaussianBlur stdDeviation="25"/>
<feColorMatrix type="matrix" values="0 0 0 0 0.823529 0 0 0 0 0.823529 0 0 0 0 0.823529 0 0 0 1 0"/>
<feBlend mode="normal" in2="BackgroundImageFix" result="effect1_dropShadow_58_3323"/>
<feColorMatrix in="SourceAlpha" type="matrix" values="0 0 0 0 0 0 0 0 0 0 0 0 0 0 0 0 0 0 127 0" result="hardAlpha"/>
<feOffset dx="-20" dy="-20"/>
<feGaussianBlur stdDeviation="25"/>
<feColorMatrix type="matrix" values="0 0 0 0 1 0 0 0 0 1 0 0 0 0 1 0 0 0 1 0"/>
<feBlend mode="normal" in2="effect1_dropShadow_58_3323" result="effect2_dropShadow_58_3323"/>
<feBlend mode="normal" in="SourceGraphic" in2="effect2_dropShadow_58_3323" result="shape"/>
</filter>
<filter id="filter1_dd_58_3323" x="91" y="503" width="388" height="145" filterUnits="userSpaceOnUse" color-interpolation-filters="sRGB">
<feFlood flood-opacity="0" result="BackgroundImageFix"/>
<feColorMatrix in="SourceAlpha" type="matrix" values="0 0 0 0 0 0 0 0 0 0 0 0 0 0 0 0 0 0 127 0" result="hardAlpha"/>
<feOffset dx="10" dy="10"/>
<feGaussianBlur stdDeviation="10"/>
<feColorMatrix type="matrix" values="0 0 0 0 0 0 0 0 0 0 0 0 0 0 0 0 0 0 0.08 0"/>
<feBlend mode="normal" in2="BackgroundImageFix" result="effect1_dropShadow_58_3323"/>
<feColorMatrix in="SourceAlpha" type="matrix" values="0 0 0 0 0 0 0 0 0 0 0 0 0 0 0 0 0 0 127 0" result="hardAlpha"/>
<feOffset dx="-10" dy="-10"/>
<feGaussianBlur stdDeviation="10"/>
<feColorMatrix type="matrix" values="0 0 0 0 1 0 0 0 0 1 0 0 0 0 1 0 0 0 1 0"/>
<feBlend mode="normal" in2="effect1_dropShadow_58_3323" result="effect2_dropShadow_58_3323"/>
<feBlend mode="normal" in="SourceGraphic" in2="effect2_dropShadow_58_3323" result="shape"/>
</filter>
<filter id="filter2_ii_58_3323" x="354" y="523" width="105" height="105" filterUnits="userSpaceOnUse" color-interpolation-filters="sRGB">
<feFlood flood-opacity="0" result="BackgroundImageFix"/>
<feBlend mode="normal" in="SourceGraphic" in2="BackgroundImageFix" result="shape"/>
<feColorMatrix in="SourceAlpha" type="matrix" values="0 0 0 0 0 0 0 0 0 0 0 0 0 0 0 0 0 0 127 0" result="hardAlpha"/>
<feOffset dx="10" dy="10"/>
<feGaussianBlur stdDeviation="10"/>
<feComposite in2="hardAlpha" operator="arithmetic" k2="-1" k3="1"/>
<feColorMatrix type="matrix" values="0 0 0 0 0 0 0 0 0 0 0 0 0 0 0 0 0 0 0.08 0"/>
<feBlend mode="normal" in2="shape" result="effect1_innerShadow_58_3323"/>
<feColorMatrix in="SourceAlpha" type="matrix" values="0 0 0 0 0 0 0 0 0 0 0 0 0 0 0 0 0 0 127 0" result="hardAlpha"/>
<feOffset dx="-10" dy="-10"/>
<feGaussianBlur stdDeviation="10"/>
<feComposite in2="hardAlpha" operator="arithmetic" k2="-1" k3="1"/>
<feColorMatrix type="matrix" values="0 0 0 0 1 0 0 0 0 1 0 0 0 0 1 0 0 0 1 0"/>
<feBlend mode="normal" in2="effect1_innerShadow_58_3323" result="effect2_innerShadow_58_3323"/>
</filter>
<clipPath id="clip0_58_3323">
<rect width="350" height="50" fill="white" transform="translate(110 195)"/>
</clipPath>
</defs>
</svg>
