<svg width="71" height="57" viewBox="0 0 71 57" fill="none" xmlns="http://www.w3.org/2000/svg">
<path d="M8.19979 24.0205L5.33927 26.4309C4.36527 27.2502 3.58239 28.2728 3.04557 29.4268C2.50875 30.5809 2.231 31.8384 2.23182 33.1112V44.0651C2.23208 44.9913 2.47424 45.9014 2.93432 46.7053C3.3944 47.5092 4.05644 48.179 4.85492 48.6484V53.3058C4.85592 54.2681 5.23867 55.1908 5.91917 55.8713C6.59967 56.5518 7.52233 56.9346 8.4847 56.9356H14.3197C15.2821 56.9346 16.2048 56.5518 16.8853 55.8713C17.5658 55.1908 17.9485 54.2681 17.9495 53.3058V49.3968H52.7601V53.3058C52.7606 53.7829 52.8551 54.2553 53.0382 54.696C53.2213 55.1367 53.4893 55.5369 53.8271 55.874C54.1648 56.2111 54.5657 56.4783 55.0067 56.6604C55.4478 56.8426 55.9204 56.9361 56.3975 56.9356H62.2325C63.1949 56.9346 64.1176 56.5518 64.7981 55.8713C65.4786 55.1908 65.8613 54.2681 65.8623 53.3058V48.5002C66.5944 48.015 67.1949 47.356 67.6102 46.5821C68.0255 45.8081 68.2427 44.9434 68.2423 44.0651V33.1112C68.2435 31.8383 67.9659 30.5807 67.4291 29.4266C66.8923 28.2725 66.1092 27.25 65.1349 26.4309L62.2667 24.0205L64.4663 22.0983H70.4665V19.215H63.3855L60.5763 21.6691L56.3672 12.1036C55.1458 8.99994 52.6633 7.35505 49.1873 7.35505H44.6211L42.6249 0.916016H28.081L26.0866 7.35505H21.2792C17.8032 7.35505 15.3188 8.99614 14.1203 12.0466L9.88838 21.6653L7.08103 19.2112H0V22.0945H6.00027L8.19979 24.0205ZM15.0681 53.3058C15.0651 53.5033 14.9854 53.692 14.8456 53.8317C14.7059 53.9714 14.5173 54.0512 14.3197 54.0541H8.4847C8.28714 54.0512 8.0985 53.9714 7.95878 53.8317C7.81907 53.692 7.73928 53.5033 7.73633 53.3058V49.3968H15.0681V53.3058ZM62.9733 53.3058C62.9704 53.5033 62.8906 53.692 62.7509 53.8317C62.6112 53.9714 62.4225 54.0512 62.225 54.0541H56.3975C56.2 54.0512 56.0113 53.9714 55.8716 53.8317C55.7319 53.692 55.6521 53.5033 55.6492 53.3058V49.3968H62.9809L62.9733 53.3058ZM63.2696 28.6342C63.9236 29.1827 64.4495 29.8677 64.8104 30.6412C65.1714 31.4146 65.3586 32.2577 65.359 33.1112V44.0651C65.358 44.7146 65.0995 45.3373 64.6402 45.7966C64.1809 46.2559 63.5583 46.5144 62.9087 46.5154H7.56539C6.91585 46.5144 6.2932 46.2559 5.83391 45.7966C5.37461 45.3373 5.11614 44.7146 5.11514 44.0651V33.1112C5.1155 32.2577 5.30273 31.4146 5.66368 30.6412C6.02464 29.8677 6.55056 29.1827 7.2045 28.6342L10.3936 25.9314L11.2636 26.6911L14.3748 29.4491H56.0917L59.203 26.6911L60.071 25.9314L63.2696 28.6342ZM30.2065 3.80313H40.4937L41.5954 7.35885H29.1048L30.2065 3.80313ZM12.1677 23.6521L16.7814 13.1616C17.5639 11.1729 18.9942 10.246 21.2792 10.246H49.1797C51.459 10.246 52.895 11.1729 53.7004 13.2147L58.297 23.6521L54.9958 26.5791H15.4689L13.1611 24.5334L13.1421 24.5163L12.1677 23.6521Z" fill="#BABABA"/>
<path d="M47.4585 41.1641H23.0054V44.0474H47.4585V41.1641Z" fill="#BABABA"/>
<path d="M24.9544 38.0322C25.0605 37.7638 25.0837 37.4698 25.0211 37.1881C24.9585 36.9064 24.8128 36.65 24.603 36.4519L20.2344 32.3187C20.1 32.175 19.9377 32.0603 19.7574 31.9816C19.5771 31.9029 19.3826 31.862 19.1859 31.8613C18.9892 31.8607 18.7944 31.9003 18.6136 31.9777C18.4327 32.0551 18.2696 32.1687 18.1343 32.3115C17.9991 32.4544 17.8944 32.6234 17.8269 32.8081C17.7594 32.9929 17.7304 33.1895 17.7417 33.3859C17.753 33.5823 17.8044 33.7743 17.8927 33.9501C17.981 34.1259 18.1044 34.2818 18.2552 34.4081L19.9969 36.053H13.6434C10.6461 36.053 9.59002 33.0557 9.54063 32.9094C9.422 32.5462 9.16393 32.245 8.82322 32.0721C8.4825 31.8992 8.08705 31.8686 7.72384 31.9873C7.36063 32.1059 7.05942 32.364 6.88648 32.7047C6.71354 33.0454 6.68304 33.4409 6.80167 33.8041C6.86815 34.013 8.52065 38.9325 13.6396 38.9325H23.6134C23.9013 38.9335 24.1828 38.8482 24.4218 38.6878C24.6608 38.5273 24.8463 38.299 24.9544 38.0322Z" fill="#BABABA"/>
<path d="M50.4769 36.0588L52.2186 34.414C52.3694 34.2876 52.4928 34.1318 52.5811 33.956C52.6694 33.7802 52.7208 33.5882 52.7321 33.3918C52.7434 33.1954 52.7144 32.9988 52.6469 32.814C52.5794 32.6292 52.4747 32.4602 52.3395 32.3174C52.2042 32.1746 52.0411 32.061 51.8602 31.9835C51.6794 31.9061 51.4846 31.8665 51.2879 31.8672C51.0912 31.8679 50.8967 31.9088 50.7164 31.9875C50.5361 32.0661 50.3737 32.1809 50.2394 32.3246L45.8708 36.4577C45.6605 36.6556 45.5146 36.9121 45.452 37.194C45.3894 37.4758 45.4129 37.77 45.5196 38.0383C45.6263 38.3066 45.8112 38.5366 46.0503 38.6984C46.2894 38.8603 46.5717 38.9465 46.8604 38.946H56.8304C61.9589 38.946 63.6057 34.0246 63.6683 33.8175C63.7739 33.458 63.7353 33.0716 63.5608 32.74C63.3864 32.4084 63.0896 32.1578 62.7335 32.0412C62.3775 31.9247 61.99 31.9513 61.6532 32.1156C61.3164 32.2798 61.0568 32.5687 60.9294 32.921C60.8857 33.0502 59.8334 36.0664 56.8266 36.0664L50.4769 36.0588Z" fill="#BABABA"/>
</svg>
