<svg width="100" height="82" viewBox="0 0 100 82" fill="none" xmlns="http://www.w3.org/2000/svg">
<path d="M97.8215 81.0146H2.08131C1.52931 81.0146 0.999921 80.7967 0.6096 80.409C0.219279 80.0212 0 79.4953 0 78.947V54.1359C0 53.5876 0.219279 53.0617 0.6096 52.6739C0.999921 52.2862 1.52931 52.0684 2.08131 52.0684H97.8215C98.3735 52.0684 98.9029 52.2862 99.2932 52.6739C99.6835 53.0617 99.9028 53.5876 99.9028 54.1359V78.947C99.9028 79.4953 99.6835 80.0212 99.2932 80.409C98.9029 80.7967 98.3735 81.0146 97.8215 81.0146ZM4.16262 76.8794H95.7402V56.2035H4.16262V76.8794Z" fill="#12B7B6"/>
<path d="M33.3003 81.0146C32.7483 81.0146 32.2189 80.7967 31.8286 80.409C31.4383 80.0212 31.219 79.4953 31.219 78.947V54.1359C31.219 53.5876 31.4383 53.0617 31.8286 52.6739C32.2189 52.2862 32.7483 52.0684 33.3003 52.0684C33.8523 52.0684 34.3817 52.2862 34.772 52.6739C35.1623 53.0617 35.3816 53.5876 35.3816 54.1359V78.947C35.3816 79.4953 35.1623 80.0212 34.772 80.409C34.3817 80.7967 33.8523 81.0146 33.3003 81.0146Z" fill="#12B7B6"/>
<path d="M66.6026 81.0146C66.0506 81.0146 65.5212 80.7967 65.1308 80.409C64.7405 80.0212 64.5212 79.4953 64.5212 78.947V54.1359C64.5212 53.5876 64.7405 53.0617 65.1308 52.6739C65.5212 52.2862 66.0506 52.0684 66.6026 52.0684C67.1545 52.0684 67.6839 52.2862 68.0743 52.6739C68.4646 53.0617 68.6839 53.5876 68.6839 54.1359V78.947C68.6839 79.4953 68.4646 80.0212 68.0743 80.409C67.6839 80.7967 67.1545 81.0146 66.6026 81.0146Z" fill="#12B7B6"/>
<path d="M33.3009 68.6098H2.08131C1.52931 68.6098 0.999921 68.392 0.6096 68.0042C0.219279 67.6165 0 67.0906 0 66.5422C0 65.9938 0.219279 65.4679 0.6096 65.0802C0.999921 64.6924 1.52931 64.4746 2.08131 64.4746H33.3009C33.8529 64.4746 34.3823 64.6924 34.7726 65.0802C35.163 65.4679 35.3822 65.9938 35.3822 66.5422C35.3822 67.0906 35.163 67.6165 34.7726 68.0042C34.3823 68.392 33.8529 68.6098 33.3009 68.6098Z" fill="#12B7B6"/>
<path d="M97.8222 68.6098H66.6025C66.0506 68.6098 65.5212 68.392 65.1308 68.0042C64.7405 67.6165 64.5212 67.0906 64.5212 66.5422C64.5212 65.9938 64.7405 65.4679 65.1308 65.0802C65.5212 64.6924 66.0506 64.4746 66.6025 64.4746H97.8222C98.3742 64.4746 98.9036 64.6924 99.2939 65.0802C99.6842 65.4679 99.9035 65.9938 99.9035 66.5422C99.9035 67.0906 99.6842 67.6165 99.2939 68.0042C98.9036 68.392 98.3742 68.6098 97.8222 68.6098Z" fill="#12B7B6"/>
<path d="M20.8128 62.4067H14.5689C14.0169 62.4067 13.4875 62.1888 13.0971 61.8011C12.7068 61.4133 12.4875 60.8874 12.4875 60.3391C12.4875 59.7907 12.7068 59.2648 13.0971 58.8771C13.4875 58.4893 14.0169 58.2715 14.5689 58.2715H20.8128C21.3648 58.2715 21.8942 58.4893 22.2845 58.8771C22.6748 59.2648 22.8941 59.7907 22.8941 60.3391C22.8941 60.8874 22.6748 61.4133 22.2845 61.8011C21.8942 62.1888 21.3648 62.4067 20.8128 62.4067Z" fill="#12B7B6"/>
<path d="M20.8128 74.8129H14.5689C14.0169 74.8129 13.4875 74.5951 13.0971 74.2073C12.7068 73.8196 12.4875 73.2937 12.4875 72.7453C12.4875 72.197 12.7068 71.6711 13.0971 71.2833C13.4875 70.8956 14.0169 70.6777 14.5689 70.6777H20.8128C21.3648 70.6777 21.8942 70.8956 22.2845 71.2833C22.6748 71.6711 22.8941 72.197 22.8941 72.7453C22.8941 73.2937 22.6748 73.8196 22.2845 74.2073C21.8942 74.5951 21.3648 74.8129 20.8128 74.8129Z" fill="#12B7B6"/>
<path d="M85.334 62.4067H79.0901C78.5381 62.4067 78.0087 62.1888 77.6184 61.8011C77.2281 61.4133 77.0088 60.8874 77.0088 60.3391C77.0088 59.7907 77.2281 59.2648 77.6184 58.8771C78.0087 58.4893 78.5381 58.2715 79.0901 58.2715H85.334C85.886 58.2715 86.4154 58.4893 86.8057 58.8771C87.1961 59.2648 87.4153 59.7907 87.4153 60.3391C87.4153 60.8874 87.1961 61.4133 86.8057 61.8011C86.4154 62.1888 85.886 62.4067 85.334 62.4067Z" fill="#12B7B6"/>
<path d="M85.334 74.8129H79.0901C78.5381 74.8129 78.0087 74.5951 77.6184 74.2073C77.2281 73.8196 77.0088 73.2937 77.0088 72.7453C77.0088 72.197 77.2281 71.6711 77.6184 71.2833C78.0087 70.8956 78.5381 70.6777 79.0901 70.6777H85.334C85.886 70.6777 86.4154 70.8956 86.8057 71.2833C87.1961 71.6711 87.4153 72.197 87.4153 72.7453C87.4153 73.2937 87.1961 73.8196 86.8057 74.2073C86.4154 74.5951 85.886 74.8129 85.334 74.8129Z" fill="#12B7B6"/>
<path d="M81.1727 43.7982H18.7334C18.1814 43.7982 17.652 43.5804 17.2617 43.1926C16.8714 42.8049 16.6521 42.279 16.6521 41.7306V2.44649C16.6521 1.89813 16.8714 1.37223 17.2617 0.984487C17.652 0.596739 18.1814 0.378906 18.7334 0.378906H81.1727C81.7247 0.378906 82.254 0.596739 82.6444 0.984487C83.0347 1.37223 83.254 1.89813 83.254 2.44649V41.7306C83.254 42.279 83.0347 42.8049 82.6444 43.1926C82.254 43.5804 81.7247 43.7982 81.1727 43.7982ZM20.8147 39.663H79.0914V4.51408H20.8147V39.663Z" fill="#12B7B6"/>
<path d="M58.2777 50.0004H41.6272C41.0752 50.0004 40.5458 49.7826 40.1555 49.3948C39.7652 49.0071 39.5459 48.4812 39.5459 47.9328C39.5459 47.3845 39.7652 46.8586 40.1555 46.4708C40.5458 46.0831 41.0752 45.8652 41.6272 45.8652H58.2777C58.8297 45.8652 59.3591 46.0831 59.7494 46.4708C60.1397 46.8586 60.359 47.3845 60.359 47.9328C60.359 48.4812 60.1397 49.0071 59.7494 49.3948C59.3591 49.7826 58.8297 50.0004 58.2777 50.0004Z" fill="#12B7B6"/>
</svg>
