<svg width="68" height="69" viewBox="0 0 68 69" fill="none" xmlns="http://www.w3.org/2000/svg">
<path d="M65.7111 45.4289C64.3245 45.4834 62.9713 45.87 61.7651 46.556C60.559 47.2421 59.5351 48.2077 58.7796 49.3716C57.4654 50.9614 56.6599 51.7881 55.1125 51.7881C53.5651 51.7881 52.7596 50.9614 51.4242 49.3716C50.7115 48.1677 49.6975 47.1701 48.4821 46.4772C47.2667 45.7843 45.8918 45.4199 44.4928 45.4199C43.0937 45.4199 41.7188 45.7843 40.5034 46.4772C39.2879 47.1701 38.274 48.1677 37.5613 49.3716C36.2471 50.9614 35.4416 51.7881 33.8942 51.7881C32.3468 51.7881 31.5625 50.9614 30.2271 49.3716C29.5131 48.1726 28.4998 47.1796 27.2866 46.49C26.0734 45.8004 24.7018 45.4378 23.3062 45.4378C21.9107 45.4378 20.5391 45.8004 19.3259 46.49C18.1126 47.1796 17.0994 48.1726 16.3854 49.3716C15.05 50.9614 14.2657 51.7881 12.7183 51.7881C11.1709 51.7881 10.3654 50.9614 9.05117 49.3716C8.29308 48.2101 7.26862 47.2464 6.06302 46.5607C4.85741 45.8749 3.50549 45.4869 2.11971 45.4289C1.55753 45.4289 1.01837 45.6523 0.620848 46.0498C0.223325 46.4473 0 46.9865 0 47.5487C0 48.1108 0.223325 48.65 0.620848 49.0475C1.01837 49.445 1.55753 49.6684 2.11971 49.6684C3.7095 49.6684 4.47259 50.4951 5.78681 52.0848C6.4995 53.2888 7.51348 54.2863 8.72888 54.9792C9.94429 55.6721 11.3192 56.0365 12.7183 56.0365C14.1173 56.0365 15.4922 55.6721 16.7077 54.9792C17.9231 54.2863 18.937 53.2888 19.6497 52.0848C20.9639 50.4951 21.7694 49.6684 23.3168 49.6684C24.8642 49.6684 25.6485 50.4951 26.9839 52.0848C27.6979 53.2839 28.7112 54.2769 29.9244 54.9665C31.1377 55.6561 32.5093 56.0187 33.9048 56.0187C35.3003 56.0187 36.6719 55.6561 37.8852 54.9665C39.0984 54.2769 40.1117 53.2839 40.8256 52.0848C42.1399 50.4951 42.9454 49.6684 44.4928 49.6684C46.0401 49.6684 46.8456 50.4951 48.181 52.0848C48.8937 53.2888 49.9077 54.2863 51.1231 54.9792C52.3385 55.6721 53.7135 56.0365 55.1125 56.0365C56.5116 56.0365 57.8865 55.6721 59.1019 54.9792C60.3173 54.2863 61.3313 53.2888 62.044 52.0848C63.3582 50.4951 64.1637 49.6684 65.7111 49.6684C66.2732 49.6684 66.8124 49.445 67.2099 49.0475C67.6074 48.65 67.8308 48.1108 67.8308 47.5487C67.8308 46.9865 67.6074 46.4473 67.2099 46.0498C66.8124 45.6523 66.2732 45.4289 65.7111 45.4289Z" fill="#12B7B6"/>
<path d="M65.7111 58.1477C64.3245 58.2022 62.9713 58.5887 61.7651 59.2748C60.559 59.9609 59.5351 60.9264 58.7796 62.0904C57.4654 63.6801 56.6599 64.5068 55.1125 64.5068C53.5651 64.5068 52.7596 63.6801 51.4242 62.0904C50.7115 60.8864 49.6975 59.8889 48.4821 59.196C47.2667 58.5031 45.8918 58.1387 44.4928 58.1387C43.0937 58.1387 41.7188 58.5031 40.5034 59.196C39.2879 59.8889 38.274 60.8864 37.5613 62.0904C36.2471 63.6801 35.4416 64.5068 33.8942 64.5068C32.3468 64.5068 31.5625 63.6801 30.2271 62.0904C29.5131 60.8913 28.4998 59.8983 27.2866 59.2087C26.0734 58.5191 24.7018 58.1565 23.3062 58.1565C21.9107 58.1565 20.5391 58.5191 19.3259 59.2087C18.1126 59.8983 17.0994 60.8913 16.3854 62.0904C15.05 63.6801 14.2657 64.5068 12.7183 64.5068C11.1709 64.5068 10.3654 63.6801 9.05117 62.0904C8.29308 60.9289 7.26862 59.9652 6.06302 59.2794C4.85741 58.5937 3.50549 58.2057 2.11971 58.1477C1.55753 58.1477 1.01837 58.371 0.620848 58.7685C0.223325 59.1661 0 59.7052 0 60.2674C0 60.8296 0.223325 61.3687 0.620848 61.7663C1.01837 62.1638 1.55753 62.3871 2.11971 62.3871C3.7095 62.3871 4.47259 63.2138 5.78681 64.8036C6.4995 66.0075 7.51348 67.0051 8.72888 67.698C9.94429 68.3909 11.3192 68.7553 12.7183 68.7553C14.1173 68.7553 15.4922 68.3909 16.7077 67.698C17.9231 67.0051 18.937 66.0075 19.6497 64.8036C20.9639 63.2138 21.7694 62.3871 23.3168 62.3871C24.8642 62.3871 25.6485 63.2138 26.9839 64.8036C27.6979 66.0026 28.7112 66.9956 29.9244 67.6852C31.1377 68.3748 32.5093 68.7374 33.9048 68.7374C35.3003 68.7374 36.6719 68.3748 37.8852 67.6852C39.0984 66.9956 40.1117 66.0026 40.8256 64.8036C42.1399 63.2138 42.9454 62.3871 44.4928 62.3871C46.0401 62.3871 46.8456 63.2138 48.181 64.8036C48.8937 66.0075 49.9077 67.0051 51.1231 67.698C52.3385 68.3909 53.7135 68.7553 55.1125 68.7553C56.5116 68.7553 57.8865 68.3909 59.1019 67.698C60.3173 67.0051 61.3313 66.0075 62.044 64.8036C63.3582 63.2138 64.1637 62.3871 65.7111 62.3871C66.2732 62.3871 66.8124 62.1638 67.2099 61.7663C67.6074 61.3687 67.8308 60.8296 67.8308 60.2674C67.8308 59.7052 67.6074 59.1661 67.2099 58.7685C66.8124 58.371 66.2732 58.1477 65.7111 58.1477Z" fill="#12B7B6"/>
<path d="M19.0782 43.3102C19.6404 43.3102 20.1795 43.0869 20.5771 42.6894C20.9746 42.2919 21.1979 41.7527 21.1979 41.1905V39.0708H46.6345V41.1905C46.6345 41.7527 46.8578 42.2919 47.2553 42.6894C47.6528 43.0869 48.192 43.3102 48.7542 43.3102C49.3164 43.3102 49.8555 43.0869 50.253 42.6894C50.6506 42.2919 50.8739 41.7527 50.8739 41.1905V9.39486C50.8739 8.2705 51.3205 7.19218 52.1156 6.39713C52.9106 5.60209 53.9889 5.15544 55.1133 5.15544C56.2377 5.15544 57.316 5.60209 58.111 6.39713C58.9061 7.19218 59.3527 8.2705 59.3527 9.39486C59.3527 9.95704 59.5761 10.4962 59.9736 10.8937C60.3711 11.2912 60.9103 11.5146 61.4724 11.5146C62.0346 11.5146 62.5738 11.2912 62.9713 10.8937C63.3688 10.4962 63.5922 9.95704 63.5922 9.39486C63.5922 7.14613 62.6988 4.9895 61.1088 3.39941C59.5187 1.80931 57.362 0.916016 55.1133 0.916016C52.8646 0.916016 50.708 1.80931 49.1179 3.39941C47.5278 4.9895 46.6345 7.14613 46.6345 9.39486V17.8737H21.1979V9.39486C21.1979 8.2705 21.6446 7.19218 22.4396 6.39713C23.2347 5.60209 24.313 5.15544 25.4373 5.15544C26.5617 5.15544 27.64 5.60209 28.4351 6.39713C29.2301 7.19218 29.6768 8.2705 29.6768 9.39486C29.6768 9.95704 29.9001 10.4962 30.2976 10.8937C30.6951 11.2912 31.2343 11.5146 31.7965 11.5146C32.3587 11.5146 32.8978 11.2912 33.2953 10.8937C33.6929 10.4962 33.9162 9.95704 33.9162 9.39486C33.9162 7.14613 33.0229 4.9895 31.4328 3.39941C29.8427 1.80931 27.6861 0.916016 25.4373 0.916016C23.1886 0.916016 21.032 1.80931 19.4419 3.39941C17.8518 4.9895 16.9585 7.14613 16.9585 9.39486V41.1905C16.9585 41.7527 17.1818 42.2919 17.5793 42.6894C17.9769 43.0869 18.516 43.3102 19.0782 43.3102ZM21.1979 22.1131H46.6345V26.3526H21.1979V22.1131ZM21.1979 30.592H46.6345V34.8314H21.1979V30.592Z" fill="#12B7B6"/>
<path d="M57.2319 19.9928C57.2319 20.5549 57.4553 21.0941 57.8528 21.4916C58.2503 21.8891 58.7895 22.1125 59.3516 22.1125H65.7108C66.273 22.1125 66.8121 21.8891 67.2096 21.4916C67.6072 21.0941 67.8305 20.5549 67.8305 19.9928C67.8305 19.4306 67.6072 18.8914 67.2096 18.4939C66.8121 18.0964 66.273 17.873 65.7108 17.873H59.3516C58.7895 17.873 58.2503 18.0964 57.8528 18.4939C57.4553 18.8914 57.2319 19.4306 57.2319 19.9928Z" fill="#12B7B6"/>
<path d="M2.11971 22.1125H8.47885C9.04103 22.1125 9.58019 21.8891 9.97771 21.4916C10.3752 21.0941 10.5986 20.5549 10.5986 19.9928C10.5986 19.4306 10.3752 18.8914 9.97771 18.4939C9.58019 18.0964 9.04103 17.873 8.47885 17.873H2.11971C1.55753 17.873 1.01837 18.0964 0.620848 18.4939C0.223325 18.8914 0 19.4306 0 19.9928C0 20.5549 0.223325 21.0941 0.620848 21.4916C1.01837 21.8891 1.55753 22.1125 2.11971 22.1125Z" fill="#12B7B6"/>
</svg>
