<svg width="81" height="42" viewBox="0 0 81 42" fill="none" xmlns="http://www.w3.org/2000/svg">
<path d="M73.323 0.916016H8.06964C5.96419 0.918964 3.94305 1.74362 2.4365 3.2144C0.929953 4.68519 0.0570032 6.68593 0.00348469 8.7907H0V33.943C0.00138212 34.8307 0.354724 35.6815 0.982535 36.309C1.61035 36.9365 2.46138 37.2894 3.349 37.2903H14.1671C14.8129 38.6678 15.8378 39.8328 17.1217 40.6489C18.4057 41.465 19.8956 41.8985 21.4169 41.8985C22.9383 41.8985 24.4282 41.465 25.7121 40.6489C26.9961 39.8328 28.0209 38.6678 28.6667 37.2903H55.2655C55.9111 38.6683 56.936 39.8338 58.2202 40.6502C59.5043 41.4667 60.9945 41.9003 62.5162 41.9003C64.0379 41.9003 65.5281 41.4667 66.8123 40.6502C68.0964 39.8338 69.1213 38.6683 69.7669 37.2903H77.1577C78.045 37.2889 78.8956 36.9358 79.523 36.3084C80.1504 35.681 80.5035 34.8304 80.5049 33.943V8.99088C80.498 4.23717 77.5476 0.916016 73.323 0.916016ZM8.06964 3.55831H73.323C76.0019 3.55831 77.2952 5.43474 77.7042 7.46955H2.85641C3.18648 6.34208 3.87268 5.35177 4.8124 4.64674C5.75213 3.94171 6.89484 3.55986 8.06964 3.55831ZM53.9113 10.1171V17.95H45.6868V10.1171H53.9113ZM43.0445 10.1171V17.95H34.8129V10.1171H43.0445ZM32.1793 10.1171V17.95H23.9548V10.1171H32.1793ZM21.3125 10.1171V17.95H13.0879V10.1171H21.3125ZM21.41 39.2712C20.346 39.2715 19.3059 38.9563 18.4211 38.3654C17.5363 37.7746 16.8467 36.9346 16.4394 35.9517C16.0321 34.9688 15.9254 33.8872 16.1329 32.8437C16.3404 31.8002 16.8527 30.8416 17.605 30.0893C18.3573 29.337 19.3158 28.8247 20.3593 28.6172C21.4028 28.4097 22.4844 28.5164 23.4673 28.9237C24.4502 29.331 25.2902 30.0207 25.8811 30.9055C26.4719 31.7902 26.7872 32.8304 26.7868 33.8943C26.7836 35.3187 26.2159 36.6838 25.208 37.6903C24.2001 38.6969 22.8344 39.2628 21.41 39.2642V39.2712ZM62.5084 39.2712C61.4445 39.2712 60.4045 38.9557 59.52 38.3646C58.6355 37.7735 57.9461 36.9334 57.539 35.9505C57.132 34.9676 57.0256 33.886 57.2332 32.8426C57.4409 31.7992 57.9534 30.8408 58.7057 30.0887C59.4581 29.3366 60.4167 28.8244 61.4601 28.6171C62.5036 28.4098 63.5851 28.5165 64.5679 28.9239C65.5507 29.3313 66.3906 30.0209 66.9814 30.9056C67.5722 31.7904 67.8873 32.8304 67.887 33.8943C67.8833 35.3189 67.3152 36.6839 66.307 37.6904C65.2989 38.6969 63.9329 39.2628 62.5084 39.2642V39.2712ZM77.8557 33.95C77.8557 34.1347 77.7823 34.3118 77.6517 34.4423C77.5211 34.5729 77.3441 34.6463 77.1594 34.6463H70.4962C70.5206 34.3956 70.5345 34.1415 70.5345 33.8856C70.5345 31.7588 69.6896 29.7191 68.1857 28.2152C66.6819 26.7113 64.6422 25.8664 62.5153 25.8664C60.3885 25.8664 58.3488 26.7113 56.8449 28.2152C55.341 29.7191 54.4962 31.7588 54.4962 33.8856C54.4962 34.1415 54.5118 34.3956 54.5345 34.6463H29.3908C29.4134 34.3956 29.4291 34.1415 29.4291 33.8856C29.4291 31.7588 28.5842 29.7191 27.0804 28.2152C25.5765 26.7113 23.5368 25.8664 21.41 25.8664C19.2831 25.8664 17.2434 26.7113 15.7396 28.2152C14.2357 29.7191 13.3908 31.7588 13.3908 33.8856C13.3908 34.1415 13.4065 34.3956 13.4291 34.6463H3.33334C3.14757 34.6467 2.96913 34.5739 2.8368 34.4435C2.70446 34.3131 2.62892 34.1358 2.62663 33.95V10.1171H10.4439V17.95H6.61446V20.5906H60.4004V17.95H56.5536V10.1171H64.7782V20.5244L65.1489 20.9091C67.0915 22.916 74.7556 25.1702 77.8557 26.0214V33.95ZM77.8557 23.2781C73.9235 22.1641 69.0602 20.5174 67.4118 19.3773V10.1171H77.8557V23.2781Z" fill="#12B7B6"/>
</svg>
