<svg width="81" height="48" viewBox="0 0 81 48" fill="none" xmlns="http://www.w3.org/2000/svg">
<path d="M63.1383 14.6196H48.2116L48.686 14.0078L31.3487 0.566634C31.1049 0.377905 30.8053 0.275467 30.497 0.275391H22.8038C22.544 0.275182 22.2894 0.347839 22.0689 0.485105C21.8484 0.62237 21.6708 0.818737 21.5563 1.05189C21.4418 1.28505 21.3951 1.54565 21.4213 1.80406C21.4475 2.06248 21.5457 2.30836 21.7047 2.51376L29.147 12.1651L31.3451 10.4671L25.6283 3.05412H30.0098L44.9273 14.6196H22.7067L8.75627 2.28479C8.50341 2.06135 8.17784 1.93763 7.84041 1.93677H1.39092C1.15011 1.93666 0.913397 1.99909 0.703974 2.11796C0.494552 2.23684 0.319599 2.40807 0.196248 2.61489C0.0728969 2.8217 0.00537862 3.05701 0.000308318 3.29777C-0.00476199 3.53852 0.0527798 3.77647 0.167314 3.98829L5.91893 14.6123H1.39092C1.02219 14.6123 0.668568 14.7588 0.40784 15.0195C0.147112 15.2802 0.000632537 15.6338 0.000632537 16.0026V22.4484C0.000707769 22.7292 0.0858009 23.0033 0.244702 23.2348C0.403603 23.4663 0.628862 23.6443 0.890847 23.7453C1.60522 24.02 18.4479 30.4915 23.6354 30.4915H33.2922L21.7121 45.5116C21.5531 45.717 21.4549 45.9629 21.4286 46.2213C21.4024 46.4797 21.4492 46.7403 21.5636 46.9735C21.6781 47.2066 21.8557 47.403 22.0762 47.5403C22.2967 47.6775 22.5513 47.7502 22.8111 47.75H30.5043C30.8127 47.7499 31.1122 47.6475 31.3561 47.4587L53.2177 30.4933H72.4013C75.7662 30.4933 80.7448 28.548 80.7448 24.3717C80.7448 19.818 71.3646 14.6196 63.1383 14.6196ZM72.4013 27.7183H52.7433C52.4344 27.7184 52.1342 27.8208 51.8897 28.0095L30.0207 44.9749H25.6393L37.2268 29.9548C37.3868 29.7446 37.4836 29.4931 37.5058 29.2299C37.5281 28.9667 37.4749 28.7025 37.3525 28.4684C37.23 28.2343 37.0434 28.0399 36.8145 27.9081C36.5856 27.7762 36.3239 27.7123 36.0599 27.7238H23.6354C19.9719 27.7238 8.09318 23.5108 2.77935 21.4959V17.4002H8.25071C8.49152 17.4003 8.72823 17.3378 8.93765 17.219C9.14707 17.1001 9.32203 16.9289 9.44538 16.722C9.56873 16.5152 9.63625 16.2799 9.64132 16.0392C9.64639 15.7984 9.58885 15.5605 9.47431 15.3486L3.7227 4.72465H7.30921L21.2596 17.0595C21.513 17.282 21.8382 17.4056 22.1755 17.4075H63.1328C70.7912 17.4075 77.9588 22.2048 77.9588 24.3845C77.9643 26.4471 74.7239 27.7183 72.4013 27.7183Z" fill="#12B7B6"/>
</svg>
