<svg width="85" height="75" viewBox="0 0 85 75" fill="none" xmlns="http://www.w3.org/2000/svg">
<path d="M63.5926 67.7669H21.1984C16.982 67.7669 12.9383 66.0988 9.95687 63.1295C6.97545 60.1603 5.30051 56.1331 5.30051 51.934V44.8971C5.30051 42.5222 1.32605 41.3787 1.29072 41.3787C0.908636 41.2723 0.573665 41.0408 0.339743 40.7217C0.10582 40.4026 -0.0134524 40.0143 0.00120651 39.6194V36.101C0.00120651 35.6344 0.187337 35.187 0.518606 34.8571C0.849876 34.5271 1.29917 34.3418 1.76766 34.3418H47.6947C48.1632 34.3418 48.6125 34.5271 48.9438 34.8571C49.2751 35.187 49.4612 35.6344 49.4612 36.101C49.4612 36.5676 49.2751 37.0151 48.9438 37.345C48.6125 37.6749 48.1632 37.8602 47.6947 37.8602H3.53409V38.3704C5.91876 39.3732 8.83337 41.4842 8.83337 44.8971V51.934C8.83337 55.2 10.1361 58.3322 12.455 60.6416C14.7739 62.9511 17.919 64.2485 21.1984 64.2485H63.5926C66.872 64.2485 70.0171 62.9511 72.336 60.6416C74.6548 58.3322 75.9576 55.2 75.9576 51.934V44.8971C75.9576 41.4842 78.8722 39.3732 81.2569 38.3704V37.8602H65.359C64.8905 37.8602 64.4412 37.6749 64.11 37.345C63.7787 37.0151 63.5926 36.5676 63.5926 36.101C63.5926 35.6344 63.7787 35.187 64.11 34.8571C64.4412 34.5271 64.8905 34.3418 65.359 34.3418H83.0233C83.4918 34.3418 83.9411 34.5271 84.2723 34.8571C84.6036 35.187 84.7897 35.6344 84.7897 36.101V39.6194C84.8034 40.0166 84.6816 40.4067 84.4442 40.7261C84.2069 41.0456 83.8679 41.2756 83.4825 41.3787C83.4825 41.3787 79.4904 42.5925 79.4904 44.8971V51.934C79.4904 56.1331 77.8155 60.1603 74.8341 63.1295C71.8526 66.0988 67.809 67.7669 63.5926 67.7669Z" fill="#12B7B6"/>
<path d="M67.1234 74.8029C66.6549 74.8029 66.2056 74.6176 65.8744 74.2877C65.5431 73.9578 65.357 73.5103 65.357 73.0437V71.566L63.5906 66.5698C63.5161 66.3493 63.4864 66.1162 63.503 65.8841C63.5197 65.652 63.5824 65.4255 63.6875 65.2177C63.7927 65.0099 63.9382 64.8249 64.1156 64.6735C64.293 64.5221 64.4988 64.4073 64.7211 64.3356C64.9414 64.2611 65.1744 64.2307 65.4066 64.2461C65.6387 64.2615 65.8656 64.3225 66.074 64.4254C66.2825 64.5284 66.4685 64.6714 66.6213 64.8462C66.7741 65.021 66.8907 65.2241 66.9644 65.4439L68.7309 70.7216C68.7859 70.9043 68.8157 71.0937 68.8192 71.2845V73.0437C68.8196 73.4984 68.6432 73.9355 68.327 74.2634C68.0109 74.5914 67.5796 74.7848 67.1234 74.8029Z" fill="#12B7B6"/>
<path d="M17.6656 74.8035C17.1971 74.8035 16.7478 74.6182 16.4165 74.2883C16.0853 73.9583 15.8991 73.5109 15.8991 73.0443V71.2851C15.865 71.099 15.865 70.9082 15.8991 70.7221L17.6656 65.4445C17.8147 65.0047 18.1323 64.6414 18.5492 64.4338C18.9661 64.2262 19.4485 64.1911 19.8913 64.3362C20.1136 64.4078 20.3194 64.5227 20.4968 64.6741C20.6742 64.8255 20.8197 65.0105 20.9248 65.2182C21.03 65.426 21.0927 65.6525 21.1093 65.8846C21.126 66.1167 21.0962 66.3498 21.0218 66.5704L19.3437 71.5666V73.0443C19.3442 73.496 19.1703 73.9307 18.8579 74.2582C18.5455 74.5857 18.1186 74.7809 17.6656 74.8035Z" fill="#12B7B6"/>
<path d="M31.796 14.9891H24.7303C24.2618 14.9891 23.8125 14.8038 23.4812 14.4739C23.15 14.144 22.9639 13.6965 22.9639 13.2299C22.9639 12.7633 23.15 12.3159 23.4812 11.986C23.8125 11.656 24.2618 11.4707 24.7303 11.4707H31.796C32.2645 11.4707 32.7138 11.656 33.0451 11.986C33.3763 12.3159 33.5624 12.7633 33.5624 13.2299C33.5624 13.6965 33.3763 14.144 33.0451 14.4739C32.7138 14.8038 32.2645 14.9891 31.796 14.9891Z" fill="#12B7B6"/>
<path d="M12.3641 37.8596C11.8956 37.8596 11.4463 37.6742 11.115 37.3443C10.7838 37.0144 10.5977 36.5669 10.5977 36.1003V9.7121C10.5977 7.37923 11.5282 5.14191 13.1845 3.49232C14.8409 1.84274 17.0874 0.916016 19.4298 0.916016H21.1962C23.5386 0.916016 25.7851 1.84274 27.4415 3.49232C29.0978 5.14191 30.0283 7.37923 30.0283 9.7121V13.2305C30.0283 13.6971 29.8422 14.1446 29.511 14.4745C29.1797 14.8044 28.7304 14.9897 28.2619 14.9897C27.7934 14.9897 27.3441 14.8044 27.0129 14.4745C26.6816 14.1446 26.4955 13.6971 26.4955 13.2305V9.7121C26.4955 8.31238 25.9372 6.96998 24.9434 5.98023C23.9496 4.99048 22.6017 4.43445 21.1962 4.43445H19.4298C18.0243 4.43445 16.6764 4.99048 15.6826 5.98023C14.6888 6.96998 14.1305 8.31238 14.1305 9.7121V36.1003C14.1305 36.5669 13.9444 37.0144 13.6131 37.3443C13.2819 37.6742 12.8326 37.8596 12.3641 37.8596Z" fill="#12B7B6"/>
<path d="M65.3584 51.9329H47.6942C47.2257 51.9329 46.7764 51.7475 46.4451 51.4176C46.1138 51.0877 45.9277 50.6402 45.9277 50.1736V34.3407C45.9277 33.4076 46.2999 32.5126 46.9625 31.8528C47.625 31.193 48.5236 30.8223 49.4606 30.8223H63.592C64.529 30.8223 65.4276 31.193 66.0901 31.8528C66.7526 32.5126 67.1249 33.4076 67.1249 34.3407V50.1736C67.1249 50.6402 66.9387 51.0877 66.6075 51.4176C66.2762 51.7475 65.8269 51.9329 65.3584 51.9329ZM49.4606 48.4144H63.592V34.3407H49.4606V48.4144Z" fill="#12B7B6"/>
<path d="M24.7303 23.7849C24.2618 23.7849 23.8125 23.5996 23.4812 23.2697C23.15 22.9397 22.9639 22.4923 22.9639 22.0257V18.5073C22.9639 18.0407 23.15 17.5932 23.4812 17.2633C23.8125 16.9334 24.2618 16.748 24.7303 16.748C25.1988 16.748 25.6481 16.9334 25.9793 17.2633C26.3106 17.5932 26.4967 18.0407 26.4967 18.5073V22.0257C26.4967 22.4923 26.3106 22.9397 25.9793 23.2697C25.6481 23.5996 25.1988 23.7849 24.7303 23.7849Z" fill="#12B7B6"/>
<path d="M31.7952 23.7849C31.3268 23.7849 30.8775 23.5996 30.5462 23.2697C30.2149 22.9397 30.0288 22.4923 30.0288 22.0257V18.5073C30.0288 18.0407 30.2149 17.5932 30.5462 17.2633C30.8775 16.9334 31.3268 16.748 31.7952 16.748C32.2637 16.748 32.713 16.9334 33.0443 17.2633C33.3756 17.5932 33.5617 18.0407 33.5617 18.5073V22.0257C33.5617 22.4923 33.3756 22.9397 33.0443 23.2697C32.713 23.5996 32.2637 23.7849 31.7952 23.7849Z" fill="#12B7B6"/>
<path d="M28.263 30.822C27.7945 30.822 27.3452 30.6367 27.014 30.3068C26.6827 29.9768 26.4966 29.5294 26.4966 29.0628V25.5444C26.4966 25.0778 26.6827 24.6303 27.014 24.3004C27.3452 23.9705 27.7945 23.7852 28.263 23.7852C28.7315 23.7852 29.1808 23.9705 29.5121 24.3004C29.8433 24.6303 30.0294 25.0778 30.0294 25.5444V29.0628C30.0294 29.5294 29.8433 29.9768 29.5121 30.3068C29.1808 30.6367 28.7315 30.822 28.263 30.822Z" fill="#12B7B6"/>
<path d="M21.1976 30.822C20.7291 30.822 20.2798 30.6367 19.9485 30.3068C19.6173 29.9768 19.4312 29.5294 19.4312 29.0628V25.5444C19.4312 25.0778 19.6173 24.6303 19.9485 24.3004C20.2798 23.9705 20.7291 23.7852 21.1976 23.7852C21.6661 23.7852 22.1154 23.9705 22.4466 24.3004C22.7779 24.6303 22.964 25.0778 22.964 25.5444V29.0628C22.964 29.5294 22.7779 29.9768 22.4466 30.3068C22.1154 30.6367 21.6661 30.822 21.1976 30.822Z" fill="#12B7B6"/>
<path d="M35.3279 30.822C34.8595 30.822 34.4102 30.6367 34.0789 30.3068C33.7476 29.9768 33.5615 29.5294 33.5615 29.0628V25.5444C33.5615 25.0778 33.7476 24.6303 34.0789 24.3004C34.4102 23.9705 34.8595 23.7852 35.3279 23.7852C35.7964 23.7852 36.2457 23.9705 36.577 24.3004C36.9083 24.6303 37.0944 25.0778 37.0944 25.5444V29.0628C37.0944 29.5294 36.9083 29.9768 36.577 30.3068C36.2457 30.6367 35.7964 30.822 35.3279 30.822Z" fill="#12B7B6"/>
</svg>
