<svg width="88" height="43" viewBox="0 0 88 43" fill="none" xmlns="http://www.w3.org/2000/svg">
<path d="M78.6747 15.958C75.405 15.1416 68.3367 13.8798 66.4678 13.5505C64.3344 11.457 52.8451 0.671875 42.6784 0.671875C40.9351 0.671875 37.8692 0.793677 34.9021 0.909769C32.1178 1.01825 29.4877 1.12102 28.1079 1.12102C19.4961 1.12102 13.859 7.89816 11.1489 11.1564C10.7873 11.5903 10.3876 12.0699 10.1383 12.3325C8.08863 12.361 3.38214 12.5457 3.16708 12.5552L2.29163 12.5894L1.911 13.383C0.63572 16.4154 -0.0141858 19.674 0.000234824 22.9635C0.000234824 28.2695 0.000235222 36.2856 7.19415 36.2856H11.2288C11.5779 38.1731 12.5858 39.8755 14.0728 41.0894C15.5598 42.3033 17.4295 42.9499 19.3488 42.914C21.268 42.8782 23.1122 42.1622 24.5528 40.8935C25.9935 39.6249 26.937 37.8861 27.2153 35.9868V36.2856H57.4107C57.7597 38.15 58.7515 39.833 60.2135 41.0416C61.6754 42.2502 63.5149 42.9077 65.4118 42.8998C67.3086 42.8919 69.1425 42.219 70.5943 40.9982C72.0461 39.7775 73.0239 38.0863 73.3572 36.219C74.7846 36.1543 77.3367 36.061 80.3418 36.061C85.6973 36.061 86.1255 33.6592 86.7726 30.0242C86.9248 29.1697 87.098 28.2029 87.3435 27.0953L87.3797 26.9354V26.7717C87.3892 21.6142 82.8844 17.0105 78.6747 15.958ZM19.203 40.0139C18.1693 40.0142 17.1588 39.708 16.2991 39.134C15.4394 38.56 14.7693 37.744 14.3734 36.789C13.9776 35.8341 13.8738 34.7833 14.0753 33.7694C14.2767 32.7555 14.7743 31.8242 15.5051 31.0931C16.2359 30.362 17.1671 29.8641 18.1809 29.6623C19.1947 29.4605 20.2456 29.5639 21.2006 29.9594C22.1557 30.3549 22.972 31.0247 23.5463 31.8842C24.1206 32.7436 24.4272 33.7541 24.4272 34.7878C24.4257 36.173 23.8749 37.5011 22.8955 38.4808C21.9162 39.4605 20.5883 40.0118 19.203 40.0139ZM65.3792 40.0139C64.3457 40.0135 63.3355 39.7066 62.4763 39.1322C61.6171 38.5577 60.9476 37.7414 60.5523 36.7864C60.1571 35.8314 60.0539 34.7807 60.2557 33.7671C60.4576 32.7534 60.9555 31.8224 61.6864 31.0917C62.4174 30.3611 63.3486 29.8635 64.3623 29.662C65.376 29.4605 66.4267 29.5641 67.3815 29.9597C68.3363 30.3553 69.1524 31.0252 69.7266 31.8846C70.3007 32.7439 70.6072 33.7543 70.6072 34.7878C70.6062 36.1738 70.055 37.5028 69.0747 38.4827C68.0945 39.4627 66.7653 40.0134 65.3792 40.0139ZM83.9293 29.5218C83.3145 32.9703 83.2784 33.1758 80.3418 33.1758C77.3463 33.1758 74.8227 33.2653 73.3534 33.3319C73.014 31.4577 72.0252 29.763 70.5606 28.5453C69.0961 27.3275 67.2494 26.6645 65.3448 26.6727C63.4401 26.6809 61.5992 27.3597 60.1452 28.59C58.6912 29.8203 57.717 31.5234 57.3936 33.4004H27.2153V33.5907C26.9329 31.6852 25.9808 29.9426 24.5298 28.6756C23.0787 27.4086 21.2237 26.7 19.2975 26.6771C17.3713 26.6542 15.4999 27.3184 14.0191 28.5505C12.5383 29.7827 11.545 31.5021 11.2174 33.4004H7.18654C3.19943 33.4004 2.88161 28.8766 2.88161 22.9635C2.89063 20.3867 3.34123 17.8306 4.21381 15.4061C5.88669 15.3414 9.339 15.2158 10.5741 15.2158C11.5257 15.2158 12.0967 14.5211 13.368 13.0005C15.7964 10.0811 20.8493 4.00811 28.106 4.00811C29.5429 4.00811 32.1997 3.90343 35.0144 3.79305C37.951 3.67886 40.9884 3.55897 42.6765 3.55897C49.6364 3.55897 57.7685 9.71947 61.944 13.3355H42.8326V8.1684H39.9436V13.3355H30.0187C24.5109 13.3355 23.5689 9.45874 23.4813 9.02862L20.6399 9.55009C21.0643 11.8586 23.5689 16.2245 30.0187 16.2245H65.0576V16.2359L65.5144 16.3158C65.6019 16.331 74.3602 17.8593 77.9648 18.7594C81.0098 19.5207 84.3955 23.0206 84.4907 26.6195C84.249 27.7252 84.0796 28.6768 83.9293 29.5218Z" fill="#BABABA"/>
</svg>
