<svg width="68" height="68" viewBox="0 0 68 68" fill="none" xmlns="http://www.w3.org/2000/svg">
<path d="M0 2.11345V65.7048C0 66.267 0.223325 66.8061 0.620848 67.2037C1.01837 67.6012 1.55753 67.8245 2.11971 67.8245H65.7111C66.2732 67.8245 66.8124 67.6012 67.2099 67.2037C67.6074 66.8061 67.8308 66.267 67.8308 65.7048C67.8308 65.1426 67.6074 64.6035 67.2099 64.2059C66.8124 63.8084 66.2732 63.5851 65.7111 63.5851H59.3519V57.226C61.6007 57.226 63.7573 56.3327 65.3474 54.7426C66.9375 53.1525 67.8308 50.9958 67.8308 48.7471V31.7894C67.8308 29.5407 66.9375 27.3841 65.3474 25.794C63.7573 24.2039 61.6007 23.3106 59.3519 23.3106H55.1125C52.8638 23.3106 50.7071 24.2039 49.117 25.794C47.527 27.3841 46.6337 29.5407 46.6337 31.7894V48.7471C46.6337 50.9958 47.527 53.1525 49.117 54.7426C50.7071 56.3327 52.8638 57.226 55.1125 57.226V63.5851H42.3942V16.9514C42.393 16.5244 42.2628 16.1078 42.0207 15.756C41.7787 15.4043 41.436 15.1338 41.0376 14.9801L2.88281 0.142138C2.56217 0.0184117 2.21625 -0.0255103 1.87487 0.0141843C1.53349 0.0538789 1.20689 0.175975 0.923201 0.369971C0.639509 0.563967 0.407227 0.824037 0.246398 1.12776C0.08557 1.43149 0.00101407 1.76978 0 2.11345ZM59.3519 52.9865V40.2683C59.3519 39.7061 59.1286 39.1669 58.7311 38.7694C58.3336 38.3719 57.7944 38.1486 57.2322 38.1486C56.67 38.1486 56.1309 38.3719 55.7333 38.7694C55.3358 39.1669 55.1125 39.7061 55.1125 40.2683V52.9865C53.9881 52.9865 52.9098 52.5399 52.1148 51.7448C51.3197 50.9498 50.8731 49.8715 50.8731 48.7471V31.7894C50.8731 30.6651 51.3197 29.5867 52.1148 28.7917C52.9098 27.9966 53.9881 27.55 55.1125 27.55H59.3519C60.4763 27.55 61.5546 27.9966 62.3497 28.7917C63.1447 29.5867 63.5914 30.6651 63.5914 31.7894V48.7471C63.5914 49.8715 63.1447 50.9498 62.3497 51.7448C61.5546 52.5399 60.4763 52.9865 59.3519 52.9865ZM4.23942 5.20825L38.1548 18.3928V63.5851H33.9154V57.226C33.9154 56.6638 33.6921 56.1246 33.2945 55.7271C32.897 55.3296 32.3579 55.1062 31.7957 55.1062C31.2335 55.1062 30.6943 55.3296 30.2968 55.7271C29.8993 56.1246 29.676 56.6638 29.676 57.226V63.5851H12.7183V57.226C12.7183 56.6638 12.4949 56.1246 12.0974 55.7271C11.6999 55.3296 11.1607 55.1062 10.5986 55.1062C10.0364 55.1062 9.49722 55.3296 9.09969 55.7271C8.70217 56.1246 8.47885 56.6638 8.47885 57.226V63.5851H4.23942V5.20825Z" fill="#12B7B6"/>
<path d="M33.9152 38.1484H29.6758V42.3879H33.9152V38.1484Z" fill="#12B7B6"/>
<path d="M23.3173 38.1484H19.0779V42.3879H23.3173V38.1484Z" fill="#12B7B6"/>
<path d="M12.7177 38.1484H8.47827V42.3879H12.7177V38.1484Z" fill="#12B7B6"/>
<path d="M33.9152 46.627H29.6758V50.8664H33.9152V46.627Z" fill="#12B7B6"/>
<path d="M23.3173 46.627H19.0779V50.8664H23.3173V46.627Z" fill="#12B7B6"/>
<path d="M23.3173 55.1055H19.0779V59.3449H23.3173V55.1055Z" fill="#12B7B6"/>
<path d="M12.7177 46.627H8.47827V50.8664H12.7177V46.627Z" fill="#12B7B6"/>
<path d="M33.9152 21.1914H29.6758V25.4308H33.9152V21.1914Z" fill="#12B7B6"/>
<path d="M23.3173 21.1914H19.0779V25.4308H23.3173V21.1914Z" fill="#12B7B6"/>
<path d="M12.7177 21.1914H8.47827V25.4308H12.7177V21.1914Z" fill="#12B7B6"/>
<path d="M12.7177 12.7129H8.47827V16.9523H12.7177V12.7129Z" fill="#12B7B6"/>
<path d="M33.9152 29.6699H29.6758V33.9093H33.9152V29.6699Z" fill="#12B7B6"/>
<path d="M23.3173 29.6699H19.0779V33.9093H23.3173V29.6699Z" fill="#12B7B6"/>
<path d="M12.7177 29.6699H8.47827V33.9093H12.7177V29.6699Z" fill="#12B7B6"/>
</svg>
