<svg width="63" height="63" viewBox="0 0 63 63" fill="none" xmlns="http://www.w3.org/2000/svg">
<path d="M60.9453 26.1386L51.2313 22.253C50.7521 22.0623 50.2169 22.0699 49.7432 22.2739C49.2696 22.4779 48.8964 22.8617 48.7057 23.3409C48.5151 23.8201 48.5225 24.3554 48.7266 24.8291C48.9306 25.3027 49.3145 25.6759 49.7937 25.8666L58.2836 29.2664V57.8254L46.6269 51.9971V35.7165C46.6269 35.2012 46.4222 34.7071 46.0579 34.3427C45.6935 33.9784 45.1994 33.7737 44.6841 33.7737C44.1689 33.7737 43.6747 33.9784 43.3104 34.3427C42.9461 34.7071 42.7413 35.2012 42.7413 35.7165V52.0748L33.0274 57.6311V49.316C33.0274 48.8008 32.8227 48.3066 32.4583 47.9423C32.094 47.5779 31.5999 47.3732 31.0846 47.3732C30.5694 47.3732 30.0752 47.5779 29.7109 47.9423C29.3465 48.3066 29.1418 48.8008 29.1418 49.316V57.6311L19.4279 52.0748V35.7165C19.4279 35.2012 19.2232 34.7071 18.8588 34.3427C18.4945 33.9784 18.0004 33.7737 17.4851 33.7737C16.9698 33.7737 16.4757 33.9784 16.1114 34.3427C15.747 34.7071 15.5423 35.2012 15.5423 35.7165V51.9971L3.88558 57.8254V29.2664L12.3756 25.8666C12.6128 25.7722 12.8292 25.632 13.0123 25.4539C13.1953 25.2759 13.3416 25.0636 13.4426 24.8291C13.5437 24.5946 13.5975 24.3424 13.6011 24.0871C13.6046 23.8318 13.5579 23.5782 13.4635 23.3409C13.3691 23.1037 13.2289 22.8873 13.0509 22.7042C12.8729 22.5211 12.6605 22.3749 12.426 22.2739C12.1915 22.1729 11.9394 22.119 11.6841 22.1154C11.4287 22.1118 11.1752 22.1586 10.9379 22.253L1.22397 26.1386C0.862484 26.2825 0.552561 26.5317 0.334336 26.8539C0.11611 27.176 -0.000372781 27.5562 3.89025e-06 27.9453V60.9727C-0.000656808 61.3029 0.0828498 61.6278 0.242615 61.9167C0.402381 62.2057 0.633136 62.4491 0.913117 62.6241C1.22229 62.8157 1.57905 62.9167 1.94279 62.9155C2.24692 62.9137 2.5464 62.8405 2.81707 62.7018L17.4851 55.3969L30.1715 62.6435H30.3852L30.6377 62.7601C30.97 62.8379 31.3158 62.8379 31.648 62.7601L31.9006 62.6435H32.1143L44.6841 55.3969L59.2939 62.7018C59.582 62.8497 59.9026 62.9231 60.2264 62.9155C60.5902 62.9167 60.9469 62.8157 61.2561 62.6241C61.5361 62.4491 61.7668 62.2057 61.9266 61.9167C62.0864 61.6278 62.1699 61.3029 62.1692 60.9727V27.9453C62.1696 27.5562 62.0531 27.176 61.8349 26.8539C61.6167 26.5317 61.3067 26.2825 60.9453 26.1386Z" fill="#12B7B6"/>
<path d="M31.0858 43.4874C31.3825 43.4867 31.6751 43.4181 31.9411 43.2867C32.2072 43.1554 32.4396 42.9648 32.6206 42.7297C34.0582 40.787 46.6281 24.2344 46.6281 16.2884C46.6281 12.1663 44.9906 8.21308 42.0758 5.29833C39.1611 2.38358 35.2078 0.746094 31.0858 0.746094C26.9637 0.746094 23.0104 2.38358 20.0957 5.29833C17.1809 8.21308 15.5435 12.1663 15.5435 16.2884C15.5435 24.2344 28.1133 40.8647 29.5509 42.7297C29.7319 42.9648 29.9643 43.1554 30.2304 43.2867C30.4964 43.4181 30.7891 43.4867 31.0858 43.4874ZM31.0858 4.63167C34.1773 4.63167 37.1423 5.85978 39.3283 8.04584C41.5144 10.2319 42.7425 13.1968 42.7425 16.2884C42.7425 21.2425 35.3599 32.4135 31.0858 38.3002C26.8116 32.4718 19.429 21.2425 19.429 16.2884C19.429 13.1968 20.6571 10.2319 22.8432 8.04584C25.0293 5.85978 27.9942 4.63167 31.0858 4.63167Z" fill="#12B7B6"/>
<path d="M38.8567 16.2887C38.8567 14.7517 38.4009 13.2493 37.547 11.9713C36.6931 10.6934 35.4795 9.69731 34.0595 9.10913C32.6395 8.52095 31.077 8.36705 29.5695 8.6669C28.0621 8.96675 26.6774 9.70689 25.5906 10.7937C24.5037 11.8805 23.7636 13.2652 23.4638 14.7727C23.1639 16.2801 23.3178 17.8426 23.906 19.2626C24.4941 20.6826 25.4902 21.8963 26.7682 22.7502C28.0461 23.6041 29.5486 24.0599 31.0856 24.0599C33.1466 24.0599 35.1233 23.2411 36.5806 21.7838C38.038 20.3264 38.8567 18.3498 38.8567 16.2887ZM27.2 16.2887C27.2 15.5202 27.4279 14.769 27.8549 14.13C28.2818 13.491 28.8886 12.993 29.5986 12.6989C30.3086 12.4048 31.0899 12.3279 31.8436 12.4778C32.5973 12.6277 33.2897 12.9978 33.8331 13.5412C34.3765 14.0846 34.7466 14.777 34.8965 15.5307C35.0464 16.2844 34.9695 17.0657 34.6754 17.7757C34.3813 18.4857 33.8833 19.0925 33.2443 19.5195C32.6053 19.9464 31.8541 20.1743 31.0856 20.1743C30.0551 20.1743 29.0668 19.7649 28.3381 19.0363C27.6094 18.3076 27.2 17.3193 27.2 16.2887Z" fill="#12B7B6"/>
</svg>
