<svg width="69" height="66" viewBox="0 0 69 66" fill="none" xmlns="http://www.w3.org/2000/svg">
<path d="M54.5336 48.8167V22.3791C54.5336 16.7505 47.9294 14.0078 34.3456 14.0078C20.7618 14.0078 14.1558 16.7454 14.1558 22.3791V48.8167C14.158 50.8661 14.9732 52.831 16.4223 54.2802C17.8715 55.7293 19.8363 56.5444 21.8858 56.5467H25.5734L20.0215 63.5569C19.8163 63.8268 19.7251 64.1663 19.7675 64.5027C19.8099 64.839 19.9826 65.1453 20.2484 65.3557C20.5142 65.5662 20.8519 65.6639 21.189 65.628C21.5261 65.5921 21.8357 65.4253 22.0512 65.1636L24.3795 62.2231C24.4663 62.2418 24.5549 62.251 24.6438 62.2504H44.0882C44.1649 62.25 44.2414 62.2425 44.3168 62.2282L46.6416 65.1636C46.8571 65.4253 47.1667 65.5921 47.5038 65.628C47.8409 65.6639 48.1786 65.5662 48.4444 65.3557C48.7103 65.1453 48.8829 64.839 48.9253 64.5027C48.9678 64.1663 48.8766 63.8268 48.6713 63.5569L43.1194 56.5467H46.807C48.8559 56.5435 50.8199 55.728 52.2683 54.2789C53.7167 52.8299 54.5314 50.8655 54.5336 48.8167ZM51.9444 38.3628H35.6385V24.8574H51.9444V38.3628ZM34.3439 16.6038C42.3024 16.6038 51.7722 17.5931 51.9359 22.2683H16.7518C16.9155 17.5931 26.3853 16.6038 34.3439 16.6038ZM16.7433 24.8574H33.0492V38.3628H16.7433V24.8574ZM26.4058 59.6629L28.8738 56.5467H39.8122L42.2802 59.6629H26.4058ZM21.8926 53.9575C20.5296 53.9562 19.2228 53.4141 18.259 52.4503C17.2952 51.4865 16.7532 50.1797 16.7518 48.8167V40.9468H51.9513V48.8116C51.9499 50.1746 51.4078 51.4814 50.444 52.4452C49.4802 53.409 48.1735 53.9511 46.8105 53.9524L21.8926 53.9575Z" fill="#12B7B6"/>
<path d="M23.3622 42.752C22.5148 42.7516 21.6862 43.0026 20.9814 43.4732C20.2766 43.9438 19.7271 44.6129 19.4026 45.3957C19.078 46.1786 18.9929 47.0401 19.158 47.8714C19.3232 48.7026 19.7311 49.4662 20.3303 50.0656C20.9294 50.665 21.6928 51.0732 22.524 51.2387C23.3552 51.4041 24.2168 51.3194 24.9998 50.9952C25.7828 50.6709 26.452 50.1218 26.9229 49.4171C27.3938 48.7125 27.6451 47.884 27.6451 47.0365C27.6438 45.9009 27.1921 44.8122 26.3893 44.009C25.5864 43.2058 24.4979 42.7538 23.3622 42.752ZM23.3622 48.7303C23.0269 48.7303 22.699 48.6308 22.4201 48.4444C22.1413 48.258 21.924 47.9932 21.7957 47.6833C21.6675 47.3734 21.634 47.0324 21.6995 46.7035C21.7651 46.3745 21.9267 46.0724 22.164 45.8354C22.4013 45.5984 22.7035 45.437 23.0325 45.3718C23.3615 45.3066 23.7025 45.3404 24.0122 45.469C24.322 45.5976 24.5867 45.8151 24.7727 46.0942C24.9588 46.3732 25.058 46.7012 25.0577 47.0365C25.0572 47.4859 24.8784 47.9167 24.5605 48.2343C24.2425 48.5519 23.8116 48.7303 23.3622 48.7303Z" fill="#12B7B6"/>
<path d="M49.6085 47.0368C49.6085 46.1897 49.3573 45.3617 48.8867 44.6573C48.4161 43.953 47.7472 43.4041 46.9646 43.0799C46.182 42.7558 45.3209 42.6709 44.4901 42.8362C43.6593 43.0015 42.8961 43.4094 42.2972 44.0083C41.6982 44.6073 41.2903 45.3704 41.125 46.2012C40.9598 47.032 41.0446 47.8932 41.3687 48.6758C41.6929 49.4584 42.2419 50.1273 42.9462 50.5979C43.6505 51.0685 44.4785 51.3197 45.3256 51.3197C46.4611 51.3183 47.5497 50.8667 48.3526 50.0638C49.1555 49.2608 49.6071 48.1723 49.6085 47.0368ZM45.3256 48.7305C44.9902 48.7305 44.6624 48.631 44.3835 48.4447C44.1047 48.2583 43.8873 47.9934 43.7591 47.6835C43.6308 47.3736 43.5974 47.0326 43.6629 46.7037C43.7285 46.3748 43.8901 46.0727 44.1274 45.8356C44.3647 45.5986 44.6669 45.4373 44.9959 45.372C45.3249 45.3068 45.6659 45.3406 45.9756 45.4692C46.2854 45.5978 46.55 45.8154 46.7361 46.0944C46.9222 46.3734 47.0214 46.7014 47.021 47.0368C47.0206 47.4861 46.8417 47.9169 46.5238 48.2345C46.2059 48.5521 45.775 48.7305 45.3256 48.7305Z" fill="#12B7B6"/>
<path d="M34.3638 0.916016C15.4157 0.916016 0 16.3317 0 35.2797C0.00280534 40.8337 1.35049 46.3044 3.92782 51.2241C6.50516 56.1438 10.2355 60.3662 14.7999 63.5304L16.2753 61.4052C12.0546 58.4787 8.6051 54.5739 6.22175 50.0243C3.8384 45.4748 2.59205 40.4158 2.58921 35.2797C2.58921 17.7593 16.8433 3.50518 34.3638 3.50518C51.8842 3.50518 66.1383 17.7593 66.1383 35.2797C66.1368 40.4172 64.8911 45.4779 62.5077 50.0291C60.1243 54.5802 56.6741 58.4865 52.4521 61.4137L53.9276 63.5389C58.4917 60.3744 62.2218 56.1519 64.7991 51.2323C67.3764 46.3126 68.7242 40.8421 68.7275 35.2883C68.7275 16.3317 53.3118 0.916016 34.3638 0.916016Z" fill="#12B7B6"/>
</svg>
