<svg width="101" height="88" viewBox="0 0 101 88" fill="none" xmlns="http://www.w3.org/2000/svg">
<path d="M98.1297 87.9223H74.1028C73.5718 87.9223 73.0625 87.7122 72.687 87.3382C72.3115 86.9642 72.1006 86.4569 72.1006 85.928C72.1006 85.399 72.3115 84.8917 72.687 84.5177C73.0625 84.1437 73.5718 83.9336 74.1028 83.9336H98.1297C98.6607 83.9336 99.17 84.1437 99.5455 84.5177C99.921 84.8917 100.132 85.399 100.132 85.928C100.132 86.4569 99.921 86.9642 99.5455 87.3382C99.17 87.7122 98.6607 87.9223 98.1297 87.9223Z" fill="#12B7B6"/>
<path d="M66.094 87.9233H54.0806C53.5496 87.9233 53.0403 87.7132 52.6648 87.3392C52.2893 86.9652 52.0784 86.4579 52.0784 85.929V53.0218C52.0837 50.1142 53.2456 47.3273 55.3096 45.2713C57.3737 43.2154 60.1717 42.058 63.0907 42.0527C66.0097 42.058 68.8077 43.2154 70.8717 45.2713C72.9358 47.3273 74.0977 50.1142 74.103 53.0218C73.7336 56.3505 72.5286 59.533 70.5991 62.2757C69.3875 63.9896 68.5362 65.9297 68.0963 67.9796V85.929C68.0963 86.4579 67.8853 86.9652 67.5098 87.3392C67.1343 87.7132 66.6251 87.9233 66.094 87.9233ZM56.0828 83.9346H64.0918V67.9796C64.4552 65.2127 65.4932 62.5765 67.1151 60.3013C68.644 58.1278 69.6636 55.6401 70.0985 53.0218C70.0985 51.1705 69.3602 49.395 68.0459 48.086C66.7317 46.7769 64.9493 46.0415 63.0907 46.0415C61.2321 46.0415 59.4496 46.7769 58.1354 48.086C56.8212 49.395 56.0828 51.1705 56.0828 53.0218V83.9346Z" fill="#12B7B6"/>
<path d="M20.0424 87.9233H8.029C7.49797 87.9233 6.98866 87.7132 6.61317 87.3392C6.23768 86.9652 6.02676 86.4579 6.02676 85.929V67.9796C5.58075 65.9282 4.72257 63.988 3.50392 62.2757C1.57443 59.533 0.36941 56.3505 0 53.0218C0.00529289 50.1142 1.16721 47.3273 3.23127 45.2713C5.29534 43.2154 8.09329 42.058 11.0123 42.0527C13.9313 42.058 16.7293 43.2154 18.7934 45.2713C20.8574 47.3273 22.0193 50.1142 22.0246 53.0218V85.929C22.0247 86.4545 21.8165 86.9587 21.4453 87.3322C21.0741 87.7056 20.57 87.9181 20.0424 87.9233ZM10.0312 83.9346H18.0402V53.0218C18.0402 51.1705 17.3018 49.395 15.9876 48.086C14.6734 46.7769 12.891 46.0415 11.0324 46.0415C9.17376 46.0415 7.39127 46.7769 6.07705 48.086C4.76282 49.395 4.02452 51.1705 4.02452 53.0218C4.45947 55.6401 5.47896 58.1278 7.00784 60.3013C8.62979 62.5765 9.66783 65.2127 10.0312 67.9796V83.9346Z" fill="#12B7B6"/>
<path d="M62.0901 46.0397C61.5591 46.0397 61.0498 45.8296 60.6743 45.4555C60.2988 45.0815 60.0879 44.5742 60.0879 44.0453V38.0622C60.0879 33.3555 51.0378 28.0903 38.0633 28.0903C25.0888 28.0903 16.0387 33.3555 16.0387 38.0622V44.0453C16.0387 44.5742 15.8277 45.0815 15.4522 45.4555C15.0767 45.8296 14.5674 46.0397 14.0364 46.0397C13.5054 46.0397 12.9961 45.8296 12.6206 45.4555C12.2451 45.0815 12.0342 44.5742 12.0342 44.0453V38.0622C12.0342 30.2442 23.467 24.1016 38.0633 24.1016C52.6596 24.1016 64.0924 30.2442 64.0924 38.0622V44.0453C64.0924 44.5742 63.8814 45.0815 63.5059 45.4555C63.1304 45.8296 62.6212 46.0397 62.0901 46.0397Z" fill="#12B7B6"/>
<path d="M54.0811 63.9894C53.55 63.9894 53.0407 63.7793 52.6652 63.4053C52.2897 63.0313 52.0788 62.524 52.0788 61.9951C52.0788 60.8383 46.8129 58.0063 37.062 58.0063C27.3111 58.0063 22.0452 60.8383 22.0452 61.9951C22.0452 62.524 21.8343 63.0313 21.4588 63.4053C21.0833 63.7793 20.574 63.9894 20.043 63.9894C19.512 63.9894 19.0027 63.7793 18.6272 63.4053C18.2517 63.0313 18.0408 62.524 18.0408 61.9951C18.0408 56.5105 27.8918 54.0176 37.062 54.0176C46.2323 54.0176 56.0833 56.5105 56.0833 61.9951C56.0833 62.524 55.8723 63.0313 55.4968 63.4053C55.1213 63.7793 54.6121 63.9894 54.0811 63.9894Z" fill="#12B7B6"/>
<path d="M54.0811 81.9399H20.043C19.512 81.9399 19.0027 81.7298 18.6272 81.3558C18.2517 80.9818 18.0408 80.4745 18.0408 79.9455C18.0408 79.4166 18.2517 78.9093 18.6272 78.5353C19.0027 78.1613 19.512 77.9512 20.043 77.9512H54.0811C54.6121 77.9512 55.1213 78.1613 55.4968 78.5353C55.8723 78.9093 56.0833 79.4166 56.0833 79.9455C56.0833 80.4745 55.8723 80.9818 55.4968 81.3558C55.1213 81.7298 54.6121 81.9399 54.0811 81.9399Z" fill="#12B7B6"/>
<path d="M84.1141 87.9215C83.583 87.9215 83.0737 87.7114 82.6982 87.3374C82.3227 86.9634 82.1118 86.4561 82.1118 85.9272V26.0959C82.1118 25.567 82.3227 25.0597 82.6982 24.6857C83.0737 24.3117 83.583 24.1016 84.1141 24.1016C84.6451 24.1016 85.1543 24.3117 85.5298 24.6857C85.9053 25.0597 86.1163 25.567 86.1163 26.0959V85.9272C86.1163 86.4561 85.9053 86.9634 85.5298 87.3374C85.1543 87.7114 84.6451 87.9215 84.1141 87.9215Z" fill="#12B7B6"/>
<path d="M98.1298 28.0912H70.0984C69.5674 28.0912 69.0581 27.881 68.6826 27.507C68.3071 27.133 68.0962 26.6257 68.0962 26.0968V24.1024C68.0965 23.8711 68.1371 23.6417 68.2163 23.4243L76.2253 1.48622C76.3652 1.10076 76.6209 0.767599 76.9577 0.532075C77.2944 0.29655 77.6959 0.170096 78.1074 0.169922H90.1208C90.5323 0.170096 90.9337 0.29655 91.2705 0.532075C91.6072 0.767599 91.863 1.10076 92.0029 1.48622L100.012 23.4243C100.091 23.6417 100.132 23.8711 100.132 24.1024V26.0968C100.132 26.6257 99.921 27.133 99.5455 27.507C99.17 27.881 98.6608 28.0912 98.1298 28.0912ZM72.2208 24.1024H96.0074L88.7192 4.15867H79.589L72.2208 24.1024Z" fill="#12B7B6"/>
<path d="M92.1228 44.0453C91.5918 44.0453 91.0825 43.8352 90.707 43.4612C90.3315 43.0871 90.1206 42.5799 90.1206 42.0509V26.0959C90.1206 25.567 90.3315 25.0597 90.707 24.6857C91.0825 24.3117 91.5918 24.1016 92.1228 24.1016C92.6539 24.1016 93.1631 24.3117 93.5386 24.6857C93.9141 25.0597 94.1251 25.567 94.1251 26.0959V42.0509C94.1251 42.5799 93.9141 43.0871 93.5386 43.4612C93.1631 43.8352 92.6539 44.0453 92.1228 44.0453Z" fill="#12B7B6"/>
</svg>
