<svg width="86" height="55" viewBox="0 0 86 55" fill="none" xmlns="http://www.w3.org/2000/svg">
<path d="M84.4871 32.0792C83.0047 28.2894 80.1671 25.1855 76.525 23.3703C72.8828 21.555 68.6961 21.1579 64.7777 22.256L58.2354 5.64078H69.2181C69.8452 5.64078 70.4467 5.8899 70.8901 6.33335C71.3336 6.7768 71.5827 7.37824 71.5827 8.00538C71.5827 8.63251 71.3336 9.23397 70.8901 9.67742C70.4467 10.1209 69.8452 10.37 69.2181 10.37C68.781 10.37 68.3618 10.5436 68.0527 10.8527C67.7437 11.1618 67.57 11.581 67.57 12.0181C67.57 12.4551 67.7437 12.8743 68.0527 13.1834C68.3618 13.4925 68.781 13.6661 69.2181 13.6661C70.7194 13.6661 72.1592 13.0697 73.2208 12.0081C74.2824 10.9465 74.8788 9.50669 74.8788 8.00538C74.8788 6.50406 74.2824 5.06423 73.2208 4.00264C72.1592 2.94105 70.7194 2.34467 69.2181 2.34467H55.8165C55.548 2.34476 55.2835 2.41045 55.0462 2.53604C54.8089 2.66162 54.6058 2.84328 54.4547 3.06524C54.3036 3.28719 54.209 3.54271 54.1792 3.80956C54.1493 4.07641 54.1852 4.34651 54.2835 4.59636L57.1367 11.8422H31.3301L26.7073 4.02529H33.2887V0.722656H18.5777V4.01877H22.8792L28.49 13.5163L14.9342 37.2123C14.7908 37.4629 14.7157 37.7469 14.7165 38.0357C14.7174 38.3245 14.7941 38.608 14.939 38.8579C15.0839 39.1077 15.292 39.315 15.5423 39.4591C15.7926 39.6032 16.0763 39.679 16.3651 39.679H29.3563C29.0416 42.1801 28.0116 44.5373 26.3901 46.4674C24.7685 48.3976 22.6243 49.8187 20.2149 50.5601C17.8056 51.3016 15.2334 51.3318 12.8072 50.6473C10.381 49.9627 8.20402 48.5924 6.53754 46.7009C4.87105 44.8094 3.78593 42.4771 3.41245 39.984C3.03897 37.491 3.39301 34.9431 4.43206 32.6463C5.47112 30.3495 7.15101 28.4014 9.27007 27.0359C11.3891 25.6704 13.8573 24.9456 16.3782 24.9485H16.4455L16.4628 21.6524H16.3782C13.2086 21.6528 10.1073 22.5728 7.45027 24.3008C4.79321 26.0288 2.69451 28.4905 1.40864 31.3874C0.122772 34.2844 -0.295039 37.4922 0.205868 40.6219C0.706775 43.7515 2.10488 46.6687 4.23068 49.0196C6.35647 51.3705 9.11865 53.0542 12.1823 53.8666C15.2459 54.6789 18.4795 54.5851 21.4908 53.5963C24.5021 52.6076 27.162 50.7664 29.1478 48.2961C31.1336 45.8258 32.3601 42.8324 32.6785 39.679H44.3517V38.0309H44.3713L44.3908 39.6898C44.6793 39.6896 44.9627 39.6137 45.2127 39.4697C45.4626 39.3257 45.6704 39.1185 45.8152 38.869L58.8998 16.3239L67.6851 38.628L70.7511 37.4207L65.9958 25.3437C69.0069 24.5828 72.1906 24.9184 74.9769 26.2904C77.7632 27.6624 79.9703 29.9812 81.2032 32.8318C82.436 35.6824 82.6142 38.8787 81.7057 41.8486C80.7973 44.8186 78.8615 47.3683 76.2449 49.0414C73.6283 50.7145 70.5017 51.4018 67.4247 50.9803C64.3476 50.5588 61.521 49.056 59.4508 46.7408C57.3805 44.4256 56.2018 41.4493 56.1255 38.3444C56.0492 35.2396 57.0804 32.209 59.0344 29.7949L56.4701 27.7278C54.6607 29.9779 53.4759 32.6649 53.0349 35.5184C52.5939 38.3719 52.9122 41.2912 53.9578 43.9826C54.6995 46.0411 55.8459 47.9302 57.3294 49.5386C58.8128 51.147 60.6034 52.4421 62.5953 53.3475C64.5873 54.2528 66.7404 54.7502 68.9276 54.8101C71.1148 54.8701 73.2919 54.4915 75.3305 53.6967C77.3691 52.9018 79.2279 51.7068 80.7973 50.1822C82.3667 48.6575 83.6149 46.834 84.4683 44.8192C85.3217 42.8044 85.763 40.6392 85.7662 38.4511C85.7694 36.263 85.3345 34.0965 84.4871 32.0792ZM19.2161 36.3828L24.2515 27.5823C25.6552 28.6255 26.8315 29.944 27.7084 31.4571C28.5854 32.9702 29.1446 34.6463 29.352 36.3828H19.2161ZM32.6785 36.3828C32.4433 34.0655 31.7171 31.8249 30.5482 29.8102C29.3793 27.7956 27.7946 26.053 25.8995 24.6988L30.3639 16.8819L41.5159 36.3741L32.6785 36.3828ZM44.3865 34.763L33.1584 15.1383H55.7687L44.3865 34.763Z" fill="#BABABA"/>
</svg>
