<svg width="110" height="72" viewBox="0 0 110 72" fill="none" xmlns="http://www.w3.org/2000/svg">
<path d="M98.8048 20.9254H80.3557C79.8318 20.9254 79.3294 20.7181 78.959 20.3492C78.5885 19.9803 78.3804 19.4799 78.3804 18.9581V16.6565C78.373 16.4487 78.4066 16.2415 78.4791 16.0466L83.0816 2.27577C83.2107 1.88135 83.4617 1.5377 83.7987 1.29391C84.1358 1.05012 84.5415 0.918673 84.958 0.918368H94.1826C94.6159 0.897255 95.044 1.01873 95.401 1.26406C95.758 1.50938 96.024 1.86491 96.1579 2.27577L100.78 16.0466C100.843 16.2439 100.877 16.4494 100.879 16.6565V18.9581C100.879 19.225 100.825 19.4891 100.72 19.7344C100.614 19.9797 100.46 20.2012 100.266 20.3852C100.072 20.5692 99.8423 20.712 99.5911 20.8049C99.3399 20.8977 99.0724 20.9388 98.8048 20.9254ZM82.3309 16.9909H96.8295L92.7604 4.85289H86.3803L82.3309 16.9909Z" fill="#12B7B6"/>
<path d="M89.5807 32.3939C89.0569 32.3939 88.5544 32.1866 88.184 31.8177C87.8135 31.4488 87.6055 30.9484 87.6055 30.4266V18.9575C87.6055 18.4357 87.8135 17.9354 88.184 17.5664C88.5544 17.1975 89.0569 16.9902 89.5807 16.9902C90.1046 16.9902 90.607 17.1975 90.9775 17.5664C91.3479 17.9354 91.556 18.4357 91.556 18.9575V30.4463C91.5508 30.9646 91.3404 31.46 90.9705 31.8247C90.6006 32.1893 90.1012 32.3939 89.5807 32.3939Z" fill="#12B7B6"/>
<path d="M108.032 48.4662H80.3776C79.8537 48.4662 79.3513 48.2589 78.9809 47.89C78.6104 47.521 78.4023 47.0207 78.4023 46.4989V30.4067C78.4023 29.885 78.6104 29.3846 78.9809 29.0156C79.3513 28.6467 79.8537 28.4395 80.3776 28.4395H108.032C108.555 28.4395 109.058 28.6467 109.428 29.0156C109.799 29.3846 110.007 29.885 110.007 30.4067V46.4989C110.007 47.0207 109.799 47.521 109.428 47.89C109.058 48.2589 108.555 48.4662 108.032 48.4662ZM82.3529 44.5317H106.056V32.374H82.3529V44.5317Z" fill="#12B7B6"/>
<path d="M108.032 64.558H80.3776C79.8537 64.558 79.3513 64.3507 78.9809 63.9818C78.6104 63.6128 78.4023 63.1125 78.4023 62.5907V46.4985C78.4023 45.9768 78.6104 45.4764 78.9809 45.1074C79.3513 44.7385 79.8537 44.5312 80.3776 44.5312H108.032C108.555 44.5312 109.058 44.7385 109.428 45.1074C109.799 45.4764 110.007 45.9768 110.007 46.4985V62.571C110.009 62.831 109.96 63.089 109.862 63.3299C109.764 63.5709 109.619 63.7901 109.435 63.9748C109.252 64.1596 109.033 64.3063 108.792 64.4064C108.551 64.5065 108.293 64.558 108.032 64.558ZM82.3529 60.6234H106.056V48.4658H82.3529V60.6234Z" fill="#12B7B6"/>
<path d="M82.6486 71.4646C82.1247 71.4646 81.6223 71.2574 81.2519 70.8884C80.8814 70.5195 80.6733 70.0191 80.6733 69.4974V62.5923C80.6733 62.0705 80.8814 61.5701 81.2519 61.2012C81.6223 60.8323 82.1247 60.625 82.6486 60.625C83.1725 60.625 83.6749 60.8323 84.0453 61.2012C84.4158 61.5701 84.6239 62.0705 84.6239 62.5923V69.4974C84.6239 70.0191 84.4158 70.5195 84.0453 70.8884C83.6749 71.2574 83.1725 71.4646 82.6486 71.4646Z" fill="#12B7B6"/>
<path d="M66.5095 71.4646C65.9856 71.4646 65.4832 71.2574 65.1128 70.8884C64.7423 70.5195 64.5342 70.0191 64.5342 69.4974V62.5923C64.5342 62.0705 64.7423 61.5701 65.1128 61.2012C65.4832 60.8323 65.9856 60.625 66.5095 60.625C67.0333 60.625 67.5358 60.8323 67.9062 61.2012C68.2767 61.5701 68.4848 62.0705 68.4848 62.5923V69.4974C68.4848 70.0191 68.2767 70.5195 67.9062 70.8884C67.5358 71.2574 67.0333 71.4646 66.5095 71.4646Z" fill="#12B7B6"/>
<path d="M6.52216 71.4646C5.99828 71.4646 5.49589 71.2574 5.12545 70.8884C4.75501 70.5195 4.54688 70.0191 4.54688 69.4974V62.5923C4.54688 62.0705 4.75501 61.5701 5.12545 61.2012C5.49589 60.8323 5.99828 60.625 6.52216 60.625C7.04603 60.625 7.54849 60.8323 7.91892 61.2012C8.28936 61.5701 8.49744 62.0705 8.49744 62.5923V69.4974C8.49744 70.0191 8.28936 70.5195 7.91892 70.8884C7.54849 71.2574 7.04603 71.4646 6.52216 71.4646Z" fill="#12B7B6"/>
<path d="M105.717 71.4646C105.194 71.4646 104.691 71.2574 104.321 70.8884C103.95 70.5195 103.742 70.0191 103.742 69.4974V62.5923C103.742 62.0705 103.95 61.5701 104.321 61.2012C104.691 60.8323 105.194 60.625 105.717 60.625C106.241 60.625 106.744 60.8323 107.114 61.2012C107.485 61.5701 107.693 62.0705 107.693 62.5923V69.4974C107.693 70.0191 107.485 70.5195 107.114 70.8884C106.744 71.2574 106.241 71.4646 105.717 71.4646Z" fill="#12B7B6"/>
<path d="M68.8216 30.0925C68.2977 30.0925 67.7952 29.8852 67.4248 29.5162C67.0544 29.1473 66.8463 28.6469 66.8463 28.1252V5.18692C66.8416 5.09976 66.8046 5.0174 66.7427 4.95568C66.6807 4.89395 66.598 4.85721 66.5105 4.85249H6.52119C6.43213 4.85249 6.34672 4.88772 6.28374 4.95044C6.22077 5.01316 6.18543 5.09822 6.18543 5.18692V28.1645C6.18543 28.6863 5.97729 29.1867 5.60685 29.5556C5.23641 29.9245 4.73402 30.1318 4.21014 30.1318C3.68627 30.1318 3.18382 29.9245 2.81338 29.5556C2.44294 29.1867 2.23486 28.6863 2.23486 28.1645V5.18692C2.23486 4.05472 2.68642 2.96889 3.49027 2.16831C4.29412 1.36772 5.38438 0.917969 6.52119 0.917969H66.5105C67.6457 0.923143 68.7329 1.37456 69.5357 2.17403C70.3384 2.97349 70.7917 4.05632 70.7969 5.18692V28.1645C70.7865 28.6794 70.5739 29.1698 70.2045 29.5302C69.8352 29.8907 69.3387 30.0926 68.8216 30.0925Z" fill="#12B7B6"/>
<path d="M71.1101 64.5593H1.97528C1.4514 64.5593 0.948952 64.352 0.578515 63.9831C0.208078 63.6141 0 63.1137 0 62.592V38.6308C0 36.5438 0.832431 34.5422 2.31418 33.0665C3.79593 31.5908 5.80562 30.7617 7.90112 30.7617H65.1843C67.2798 30.7617 69.2895 31.5908 70.7712 33.0665C72.253 34.5422 73.0854 36.5438 73.0854 38.6308V62.592C73.0854 63.1137 72.8773 63.6141 72.5068 63.9831C72.1364 64.352 71.634 64.5593 71.1101 64.5593ZM3.95056 60.6247H69.1348V38.6308C69.1348 37.5873 68.7186 36.5865 67.9777 35.8486C67.2369 35.1108 66.232 34.6962 65.1843 34.6962H7.90112C6.85337 34.6962 5.84853 35.1108 5.10765 35.8486C4.36678 36.5865 3.95056 37.5873 3.95056 38.6308V60.6247Z" fill="#12B7B6"/>
<path d="M31.9022 30.0923C31.3783 30.0923 30.8759 29.8851 30.5055 29.5161C30.135 29.1472 29.9269 28.6468 29.9269 28.1251V23.5414C29.9269 22.8422 29.648 22.1717 29.1516 21.6773C28.6552 21.183 27.982 20.9052 27.28 20.9052H18.0554C17.3534 20.9052 16.6802 21.183 16.1838 21.6773C15.6875 22.1717 15.4086 22.8422 15.4086 23.5414V28.1251C15.4086 28.6468 15.2005 29.1472 14.8301 29.5161C14.4596 29.8851 13.9572 30.0923 13.4333 30.0923C12.9094 30.0923 12.407 29.8851 12.0366 29.5161C11.6661 29.1472 11.458 28.6468 11.458 28.1251V23.5414C11.4632 21.8003 12.16 20.1321 13.3961 18.9009C14.6322 17.6698 16.3073 16.9759 18.0554 16.9707H27.28C29.0282 16.9759 30.7032 17.6698 31.9394 18.9009C33.1755 20.1321 33.8722 21.8003 33.8775 23.5414V28.1251C33.8775 28.6468 33.6693 29.1472 33.2989 29.5161C32.9284 29.8851 32.4261 30.0923 31.9022 30.0923Z" fill="#12B7B6"/>
<path d="M59.5753 30.0923C59.0514 30.0923 58.549 29.8851 58.1785 29.5161C57.8081 29.1472 57.6 28.6468 57.6 28.1251V23.5414C57.6 22.8456 57.3238 22.1781 56.8317 21.6843C56.3396 21.1904 55.6714 20.9104 54.9728 20.9052H45.7285C45.03 20.9104 44.3618 21.1904 43.8697 21.6843C43.3775 22.1781 43.1014 22.8456 43.1014 23.5414V28.1251C43.1014 28.6468 42.8933 29.1472 42.5229 29.5161C42.1524 29.8851 41.65 30.0923 41.1262 30.0923C40.6023 30.0923 40.0998 29.8851 39.7294 29.5161C39.359 29.1472 39.1509 28.6468 39.1509 28.1251V23.5414C39.1509 21.8021 39.8432 20.1338 41.0762 18.9022C42.3092 17.6705 43.9822 16.9759 45.7285 16.9707H54.9728C56.7192 16.9759 58.3922 17.6705 59.6252 18.9022C60.8582 20.1338 61.5506 21.8021 61.5506 23.5414V28.1251C61.5506 28.6468 61.3424 29.1472 60.972 29.5161C60.6016 29.8851 60.0992 30.0923 59.5753 30.0923Z" fill="#12B7B6"/>
</svg>
