<svg width="61" height="62" viewBox="0 0 61 62" fill="none" xmlns="http://www.w3.org/2000/svg">
<path d="M50.8237 32.2433C50.3028 32.2429 49.7872 32.1391 49.3067 31.9378C48.8263 31.7366 48.3906 31.4419 48.0249 31.0708L30.4949 13.5408C30.1175 13.1711 29.8177 12.7297 29.6131 12.2427C29.4084 11.7556 29.303 11.2326 29.303 10.7042C29.303 10.1759 29.4084 9.65291 29.6131 9.16583C29.8177 8.67876 30.1175 8.23742 30.4949 7.86767L33.426 4.95545C34.1828 4.21169 35.2015 3.79492 36.2626 3.79492C37.3237 3.79492 38.3424 4.21169 39.0992 4.95545L56.6292 22.4855C57.0066 22.8552 57.3064 23.2966 57.5111 23.7836C57.7157 24.2707 57.8212 24.7937 57.8212 25.3221C57.8212 25.8504 57.7157 26.3734 57.5111 26.8605C57.3064 27.3475 57.0066 27.7889 56.6292 28.1586L53.717 31.0708C53.339 31.4516 52.8877 31.7518 52.3904 31.9533C51.8931 32.1548 51.3602 32.2535 50.8237 32.2433ZM36.2059 7.65965C36.2059 7.65965 36.1113 7.65965 36.0924 7.65965L33.1613 10.5908C33.132 10.625 33.1159 10.6686 33.1159 10.7137C33.1159 10.7588 33.132 10.8024 33.1613 10.8366L50.6913 28.3666C50.7256 28.3959 50.7692 28.412 50.8142 28.412C50.8593 28.412 50.9029 28.3959 50.9372 28.3666L53.8683 25.5301C53.8976 25.4958 53.9137 25.4522 53.9137 25.4072C53.9137 25.3621 53.8976 25.3185 53.8683 25.2842L36.3383 7.75421C36.3275 7.72747 36.3093 7.70437 36.2859 7.68762C36.2624 7.67087 36.2347 7.66117 36.2059 7.65965Z" fill="#12B7B6"/>
<path d="M39.0049 16.7179C38.6506 16.3657 38.1713 16.168 37.6717 16.168C37.1721 16.168 36.6928 16.3657 36.3385 16.7179L17.22 35.8364L12.7004 31.3357C12.332 30.956 11.8911 30.6541 11.4038 30.4479C10.9166 30.2418 10.3929 30.1356 9.86381 30.1356C9.33474 30.1356 8.81106 30.2418 8.32381 30.4479C7.83656 30.6541 7.39565 30.956 7.02723 31.3357L4.115 34.2479C3.73762 34.6177 3.43783 35.059 3.23316 35.5461C3.02849 36.0331 2.92308 36.5561 2.92308 37.0845C2.92308 37.6128 3.02849 38.1358 3.23316 38.6229C3.43783 39.11 3.73762 39.5513 4.115 39.921L4.24739 40.0534L4.115 40.1669L1.1839 43.098C0.808824 43.4691 0.511041 43.9108 0.307826 44.3977C0.104612 44.8846 0 45.407 0 45.9346C0 46.4622 0.104612 46.9846 0.307826 47.4714C0.511041 47.9583 0.808824 48.4001 1.1839 48.7712L5.77913 53.1206L2.54543 56.3354C2.36818 56.5112 2.2275 56.7203 2.1315 56.9507C2.03549 57.1812 1.98607 57.4284 1.98607 57.678C1.98607 57.9276 2.03549 58.1748 2.1315 58.4053C2.2275 58.6357 2.36818 58.8448 2.54543 59.0206C2.72122 59.1979 2.93038 59.3386 3.16082 59.4346C3.39126 59.5306 3.63844 59.58 3.88808 59.58C4.13772 59.58 4.38491 59.5306 4.61535 59.4346C4.84579 59.3386 5.05494 59.1979 5.23074 59.0206L8.44552 55.7869L12.9462 60.3066C13.314 60.6733 13.7505 60.964 14.2308 61.1619C14.711 61.3598 15.2255 61.4612 15.745 61.4601C16.2648 61.4643 16.7803 61.3644 17.261 61.1663C17.7416 60.9682 18.1778 60.6759 18.5437 60.3066L21.4748 57.3754L21.5883 57.2431L21.7207 57.3754C22.0904 57.7528 22.5318 58.0526 23.0188 58.2573C23.5059 58.4619 24.0289 58.5674 24.5572 58.5674C25.0856 58.5674 25.6086 58.4619 26.0957 58.2573C26.5827 58.0526 27.0241 57.7528 27.3938 57.3754L30.306 54.4632C30.6834 54.0935 30.9832 53.6521 31.1879 53.1651C31.3926 52.678 31.498 52.155 31.498 51.6266C31.498 51.0983 31.3926 50.5753 31.1879 50.0882C30.9832 49.6012 30.6834 49.1598 30.306 48.7901L25.7297 44.4407L44.8482 25.3221C45.2004 24.9678 45.3981 24.4885 45.3981 23.989C45.3981 23.4894 45.2004 23.0101 44.8482 22.6558L39.0049 16.7179ZM18.7896 54.7091L15.8773 57.678C15.8614 57.6946 15.8424 57.7078 15.8212 57.7168C15.8001 57.7258 15.7774 57.7305 15.7544 57.7305C15.7314 57.7305 15.7087 57.7258 15.6876 57.7168C15.6665 57.7078 15.6474 57.6946 15.6315 57.678L3.88808 45.9346C3.87149 45.9187 3.85829 45.8996 3.84927 45.8785C3.84025 45.8574 3.8356 45.8346 3.8356 45.8117C3.8356 45.7887 3.84025 45.766 3.84927 45.7448C3.85829 45.7237 3.87149 45.7046 3.88808 45.6887L6.80029 42.7765C6.82123 42.7677 6.84374 42.7631 6.86648 42.7631C6.88922 42.7631 6.91173 42.7677 6.93267 42.7765C6.9504 42.7681 6.96978 42.7638 6.9894 42.7638C7.00903 42.7638 7.0284 42.7681 7.04613 42.7765L18.7328 54.4632C18.7679 54.4923 18.7925 54.5321 18.8027 54.5765C18.813 54.621 18.8083 54.6675 18.7896 54.7091ZM27.564 51.7779L24.6896 54.7091C24.6554 54.7383 24.6118 54.7544 24.5667 54.7544C24.5216 54.7544 24.478 54.7383 24.4438 54.7091L6.91377 37.179C6.88448 37.1448 6.86836 37.1012 6.86836 37.0561C6.86836 37.011 6.88448 36.9674 6.91377 36.9332L9.84488 34.0021C9.86261 33.9937 9.88198 33.9893 9.90161 33.9893C9.92123 33.9893 9.94063 33.9937 9.95836 34.0021C9.97931 33.9932 10.0018 33.9887 10.0245 33.9887C10.0473 33.9887 10.0698 33.9932 10.0907 34.0021L15.9341 39.8454L21.7774 45.6887L27.6208 51.5321C27.6432 51.5729 27.6498 51.6205 27.6394 51.6659C27.6289 51.7112 27.6021 51.7511 27.564 51.7779ZM23.0633 41.6797L19.8864 38.5028L37.6622 20.7269L40.8392 23.9039L23.0633 41.6797Z" fill="#12B7B6"/>
<path d="M59.4656 13.7866L54.946 9.2859L58.1797 6.07111C58.356 5.89479 58.4958 5.68548 58.5913 5.45511C58.6867 5.22473 58.7358 4.97782 58.7358 4.72847C58.7358 4.47912 58.6867 4.2322 58.5913 4.00183C58.4958 3.77146 58.356 3.56214 58.1797 3.38583C58.0034 3.20951 57.794 3.06965 57.5636 2.97422C57.3333 2.8788 57.0864 2.82968 56.837 2.82968C56.5877 2.82968 56.3408 2.8788 56.1104 2.97422C55.88 3.06965 55.6707 3.20951 55.4944 3.38583L52.2796 6.61952L47.7789 2.09991C47.4078 1.72484 46.9661 1.42708 46.4792 1.22386C45.9923 1.02065 45.4699 0.916016 44.9423 0.916016C44.4147 0.916016 43.8923 1.02065 43.4054 1.22386C42.9185 1.42708 42.4768 1.72484 42.1058 2.09991L39.1746 5.03104C38.7995 5.4021 38.5018 5.84386 38.2986 6.33075C38.0954 6.81765 37.9907 7.34001 37.9907 7.86761C37.9907 8.39521 38.0954 8.91757 38.2986 9.40447C38.5018 9.89137 38.7995 10.3331 39.1746 10.7042L50.8613 22.3909C51.231 22.7682 51.6724 23.068 52.1595 23.2727C52.6465 23.4774 53.1695 23.5828 53.6979 23.5828C54.2262 23.5828 54.7492 23.4774 55.2363 23.2727C55.7233 23.068 56.1647 22.7682 56.5344 22.3909L59.4656 19.4597C59.8406 19.0887 60.1384 18.6469 60.3416 18.16C60.5448 17.6731 60.6495 17.1508 60.6495 16.6232C60.6495 16.0956 60.5448 15.5732 60.3416 15.0863C60.1384 14.5994 59.8406 14.1577 59.4656 13.7866ZM53.7924 19.6299C53.7568 19.6561 53.7137 19.6701 53.6695 19.6701C53.6253 19.6701 53.5822 19.6561 53.5466 19.6299L41.8599 7.94325C41.8338 7.90759 41.8197 7.86454 41.8197 7.82033C41.8197 7.77613 41.8338 7.73308 41.8599 7.69742L44.8478 4.72847C44.8687 4.71963 44.8912 4.71507 44.914 4.71507C44.9367 4.71507 44.9592 4.71963 44.9801 4.72847C44.9979 4.72006 45.0172 4.71569 45.0369 4.71569C45.0565 4.71569 45.0759 4.72006 45.0936 4.72847L56.837 16.4719C56.8536 16.4878 56.8668 16.5069 56.8758 16.528C56.8848 16.5491 56.8895 16.5718 56.8895 16.5948C56.8895 16.6178 56.8848 16.6405 56.8758 16.6616C56.8668 16.6828 56.8536 16.7018 56.837 16.7177L53.7924 19.6299Z" fill="#12B7B6"/>
</svg>
