<svg width="119" height="133" viewBox="0 0 119 133" fill="none" xmlns="http://www.w3.org/2000/svg">
<path d="M114.834 97.6363V132.43H119V94.5366L105.09 91.481V68.112L79.8346 58.4467L77.5651 61.1996V22.3431L57.7668 0.0477295L37.2912 21.8944V59.5672L15.3892 69.0094V97.339L0 100.945V132.43H4.16588V103.998L19.5578 100.389V96.359H19.5551V71.5118L37.2912 63.8671V81.9919L33.1253 82.8398L32.929 132.43H37.0949L37.2912 86.0028L49.4322 83.8969L49.4129 132.43H53.5926L53.587 84.4805L58.5988 87.2113V132.43H62.7647V84.9595L59.8041 83.3463V8.45219L73.3937 23.758V66.2538L66.292 74.8675V132.43H70.4579V76.2054L78.4248 66.5429L78.2949 132.43H82.4607L82.5907 63.7295L100.918 70.7437V90.5698L100.83 94.5642L114.834 97.6363ZM41.4571 66.3695L49.4239 75.6686V79.5226L41.4571 81.144V66.3695ZM53.5926 79.9658V74.2922L41.4571 60.1287V57.7668V23.3671L55.641 8.23471V81.0807L53.5926 79.9658Z" fill="url(#paint0_linear_5_1375)"/>
<defs>
<linearGradient id="paint0_linear_5_1375" x1="59.4998" y1="0.0477295" x2="59.4998" y2="135.208" gradientUnits="userSpaceOnUse">
<stop offset="0.2744" stop-color="#6EEE40"/>
<stop offset="0.7718" stop-color="#52C9A6"/>
<stop offset="0.828125" stop-color="#52C9A6"/>
</linearGradient>
</defs>
</svg>
