<svg width="123" height="167" viewBox="0 0 123 167" fill="none" xmlns="http://www.w3.org/2000/svg">
<path d="M9.65665 111.922V118.872H21.7515L7.68652 149.865V150.935H32.2474V143.883H18.0939L32.7899 111.922H9.65665Z" fill="white"/>
<path d="M63.0956 127.888C61.8479 126.211 60.2661 124.861 58.3987 123.88C56.52 122.893 54.4585 122.391 52.2714 122.391C50.3669 122.391 48.5538 122.764 46.8835 123.5C45.2189 124.234 43.7427 125.258 42.4921 126.547C41.2415 127.837 40.2479 129.363 39.537 131.078C38.8231 132.801 38.4634 134.67 38.4634 136.638C38.4634 138.607 38.826 140.478 39.537 142.198C40.2451 143.913 41.2415 145.436 42.4921 146.729C43.7427 148.018 45.2189 149.045 46.8807 149.776C48.551 150.512 50.3641 150.886 52.2685 150.886C54.4556 150.886 56.5171 150.383 58.3959 149.396C60.2661 148.415 61.8479 147.08 63.1013 145.428C63.4411 144.969 63.7638 144.495 64.055 144.016C64.3605 143.516 64.6203 142.983 64.8345 142.435L65.277 141.294H57.7734L57.5336 141.562C56.8541 142.324 56.0546 142.926 55.1552 143.351C54.2643 143.773 53.2936 143.987 52.2657 143.987C51.4119 143.987 50.5925 143.842 49.833 143.554C49.0678 143.265 48.3682 142.857 47.7487 142.341C47.1319 141.828 46.6066 141.206 46.1783 140.492C45.9327 140.082 45.7271 139.648 45.5615 139.197H65.7853L65.9081 138.518C66.0137 137.928 66.0708 137.294 66.0708 136.638C66.0708 135.349 65.9109 134.11 65.5997 132.961C65.0857 131.032 64.2406 129.323 63.0956 127.888ZM58.0304 132.299H46.5009C47.0177 131.568 47.6544 130.944 48.4054 130.436C49.5303 129.677 50.8295 129.289 52.2714 129.289C53.3878 129.289 54.4414 129.54 55.4093 130.034C56.3744 130.527 57.2052 131.215 57.8819 132.076C57.9305 132.15 57.9819 132.225 58.0304 132.299Z" fill="white"/>
<path d="M95.2656 126.592C94.0036 125.305 92.516 124.272 90.84 123.522C89.1554 122.769 87.3366 122.387 85.4321 122.387C83.5277 122.387 81.7089 122.769 80.0243 123.522C78.3482 124.272 76.8664 125.305 75.6215 126.595C74.3737 127.884 73.3744 129.425 72.6492 131.174C71.9211 132.928 71.5527 134.817 71.5527 136.785C71.5527 138.754 71.9239 140.637 72.652 142.374C73.3772 144.106 74.3794 145.635 75.63 146.925C76.8778 148.214 78.3625 149.247 80.0414 149.997C81.7289 150.75 83.5505 151.133 85.4578 151.133C87.0882 151.133 88.6386 150.862 90.0662 150.328C90.9827 149.986 91.8564 149.558 92.6759 149.047V150.776H99.3629V136.783C99.3629 134.817 98.9946 132.928 98.2665 131.171C97.5413 129.425 96.5305 127.884 95.2656 126.592ZM92.6788 136.788C92.6788 137.793 92.4875 138.754 92.1077 139.65C91.7223 140.557 91.1997 141.356 90.5516 142.029C89.9035 142.702 89.1325 143.244 88.2617 143.644C87.4023 144.038 86.46 144.237 85.4607 144.237C84.4613 144.237 83.522 144.038 82.6625 143.644C81.7888 143.244 81.0179 142.7 80.3726 142.029C79.7245 141.356 79.1991 140.557 78.8165 139.65C78.4368 138.757 78.2455 137.793 78.2455 136.788C78.2455 135.75 78.4368 134.771 78.8165 133.875C79.202 132.971 79.7245 132.169 80.3726 131.496C81.0208 130.823 81.7917 130.281 82.6625 129.881C83.522 129.488 84.4642 129.288 85.4607 129.288C86.4572 129.288 87.3994 129.488 88.2617 129.881C89.1325 130.281 89.9035 130.823 90.5516 131.496C91.1997 132.169 91.7251 132.971 92.1077 133.875C92.4875 134.774 92.6788 135.753 92.6788 136.788Z" fill="white"/>
<path d="M113.054 104.555H106.367V150.581H113.054V104.555Z" fill="white"/>
<path d="M13.2916 166.479L9.6226 160.716H8.37771V166.482H7.73242V154.953H10.3992C10.8304 154.953 11.2387 155.016 11.627 155.139C12.0153 155.261 12.3494 155.447 12.6292 155.686C12.909 155.929 13.1317 156.228 13.3002 156.582C13.4658 156.936 13.5514 157.347 13.5514 157.809C13.5514 158.314 13.4743 158.75 13.3173 159.116C13.1603 159.481 12.9404 159.783 12.6549 160.02C12.3694 160.257 12.0324 160.431 11.6441 160.545C11.2558 160.659 10.8304 160.713 10.3678 160.713L14.0682 166.479H13.2916ZM12.6777 156.83C12.5492 156.557 12.3694 156.331 12.1438 156.151C11.9182 155.974 11.6527 155.84 11.3529 155.746C11.0502 155.655 10.7276 155.609 10.3821 155.609H8.37771V160.049H10.5591C11.2472 160.049 11.8069 159.855 12.2323 159.467C12.6577 159.079 12.8719 158.519 12.8719 157.786C12.8719 157.427 12.8062 157.107 12.6777 156.83Z" fill="white"/>
<path d="M18.7051 166.477V154.949H24.2472V155.611H19.3675V159.81H24.2472V160.521H19.3675V165.815H24.2472V166.477H18.7051Z" fill="white"/>
<path d="M36.9813 166.477L35.6565 163.023H30.4057L29.0637 166.477H28.4185L33.024 154.578L37.6466 166.477H36.9813ZM33.0211 156.258L30.6627 162.361H35.3824L33.0211 156.258Z" fill="white"/>
<path d="M41.8613 166.477V154.949H42.5066V165.815H45.756V166.477H41.8613Z" fill="white"/>
<path d="M58.1191 166.477V154.949H63.6613V155.611H58.7816V159.81H63.6613V160.521H58.7816V165.815H63.6613V166.477H58.1191Z" fill="white"/>
<path d="M71.9983 166.381C71.5786 166.532 71.0818 166.606 70.5107 166.606C68.7433 166.606 67.6069 165.773 67.1016 164.104L67.764 163.879C68.1409 165.257 69.0574 165.944 70.5107 165.944C71.3388 165.944 71.9926 165.739 72.4666 165.331C72.952 164.912 73.1947 164.298 73.1947 163.491C73.1947 162.726 72.9092 162.093 72.3381 161.585C72.1868 161.445 71.9555 161.288 71.6443 161.117C71.3302 160.946 70.9333 160.752 70.4479 160.535C69.5314 160.127 68.9061 159.771 68.572 159.471C68.0124 158.986 67.7326 158.347 67.7326 157.548C67.7326 156.752 68.0181 156.111 68.5892 155.628C69.1488 155.132 69.8398 154.887 70.6564 154.887C72.0126 154.887 72.972 155.392 73.5316 156.404L72.9006 156.678C72.6836 156.325 72.4266 156.059 72.124 155.888C71.7471 155.651 71.256 155.531 70.6535 155.531C70.0168 155.531 69.4914 155.708 69.0688 156.065C68.6148 156.442 68.3893 156.938 68.3893 157.551C68.3893 158.099 68.6263 158.578 69.1002 158.989C69.3686 159.203 69.9083 159.494 70.7163 159.862C71.2217 160.087 71.6586 160.313 72.024 160.532C72.3895 160.752 72.6865 160.978 72.912 161.203C73.5373 161.816 73.8485 162.581 73.8485 163.497C73.8571 164.954 73.2375 165.919 71.9983 166.381Z" fill="white"/>
<path d="M80.8699 155.611V166.477H80.2074V155.611H77.6548V154.949H83.4225V155.611H80.8699Z" fill="white"/>
<path d="M94.395 166.477L93.0702 163.023H87.8193L86.4773 166.477H85.832L90.4376 154.578L95.0603 166.477H94.395ZM90.4376 156.258L88.0791 162.361H92.7961L90.4376 156.258Z" fill="white"/>
<path d="M100.683 155.611V166.477H100.02V155.611H97.4678V154.949H103.235V155.611H100.683Z" fill="white"/>
<path d="M107.421 166.477V154.949H112.963V155.611H108.083V159.81H112.963V160.521H108.083V165.815H112.963V166.477H107.421Z" fill="white"/>
<path d="M118.61 101.82V140.757L122.913 135.003V98.6079L108.546 95.4412V71.2225L82.46 61.2059L80.1158 64.0588V23.7896L59.6664 0.683594L38.5175 23.3245V62.367L15.8952 72.1526V101.512L0 105.25V132.604L4.30288 137.879V108.413L20.201 104.673V100.497H20.1981V74.7459L38.5175 66.8233V85.6071L34.2146 86.4858L34.0119 107.272L38.3148 111.323L38.5175 89.7638L51.0578 87.5813L51.0378 112.499L55.355 118.507L55.3493 88.1861L60.5258 91.0162V110.713L64.8287 106.662V88.6825L61.7707 87.0107V9.39362L75.8072 25.256V69.2968L68.472 78.2237V115.634L72.7749 120.644V79.6102L81.0038 69.5964L80.8696 114.302L85.1725 108.063L85.3067 66.6807L104.237 73.95V94.4968L104.146 98.6364L118.61 101.82ZM42.8204 69.4166L51.0492 79.0539V83.048L42.8204 84.7284V69.4166ZM55.355 83.5073V77.6274L42.8204 62.949V60.5012V24.8509L57.4707 9.16824V84.6627L55.355 83.5073Z" fill="white"/>
</svg>
